<svg width="1737" height="369" viewBox="0 0 1737 369" fill="none" xmlns="http://www.w3.org/2000/svg">
<path d="M77.369 75.2288C69.5238 69.6251 63.8268 43.9416 61.9589 31.8003L57.7561 30.3994C48.7902 44.969 59.624 71.026 66.1616 82.2334H77.369V75.2288Z" fill="#905E3D" stroke="black" stroke-width="1.96128"/>
<path d="M95.5825 40.2062C102.307 24.5159 92.7807 7.05111 87.177 0.980469H95.5825C112.394 16.3906 108.191 38.8052 106.79 47.2107C105.669 53.9352 94.1816 73.3612 88.5779 82.2337H78.7715V75.2291C81.5733 70.0924 88.8581 55.8964 95.5825 40.2062Z" fill="#905E3D" stroke="black" stroke-width="1.96128"/>
<path d="M76.1201 197.972C78.4773 198.003 80.995 198.139 83.3848 198.266C85.7911 198.393 88.0593 198.509 89.9766 198.509C91.0156 198.509 92.0764 199.02 93.0459 199.665C94.0591 200.339 95.1781 201.299 96.375 202.48C98.7732 204.848 101.617 208.237 104.732 212.376C110.971 220.664 118.401 232.098 125.688 244.74C140.226 269.963 154.363 300.287 157.206 320.19C159.518 336.375 153.717 347.352 145.452 354.41C137.265 361.402 126.743 364.49 119.535 365.211L119.504 365.214L119.474 365.216C106.852 365.917 87.1482 366.758 69.0518 367.004C60.0046 367.127 51.3443 367.1 44.166 366.832C37.0386 366.566 31.2265 366.058 27.9668 365.169C11.8881 360.784 -2.53692 342.957 1.74219 320.131C2.82342 314.364 5.86561 305.874 10.1309 295.993C14.4088 286.083 19.959 274.679 26.1113 263.048C38.4075 239.802 53.1629 215.552 65.0596 200.444C66.065 199.168 67.8765 198.607 69.6475 198.316C71.513 198.01 73.7724 197.94 76.1201 197.972ZM85.2627 235.997C77.2464 234.904 67.6932 236.359 59.6143 243.703C56.3851 246.639 52.923 251.326 49.46 256.893C45.9827 262.482 42.4499 269.048 39.0938 275.813C32.3961 289.314 26.3665 303.681 22.8486 312.821C17.0968 324.369 18.8367 333.054 23.3682 338.133C25.5995 340.633 28.4638 342.194 31.2764 342.735C34.0727 343.273 36.9521 342.817 39.0391 341.078C47.1869 334.287 53.3708 335.175 55.4307 336.854C57.3287 338.744 59.9118 340.97 62.8242 342.173C65.8431 343.42 69.312 343.593 72.6055 341.123C74.1244 339.984 75.2306 339.106 76.0898 338.43C76.963 337.742 77.5393 337.297 78.0508 336.968C78.9641 336.38 79.6847 336.145 81.8086 335.779C84.2842 335.354 86.3453 336.68 88.7793 338.595C89.9269 339.498 91.1888 340.553 92.4785 341.349C93.7901 342.158 95.2856 342.805 96.9814 342.805C97.8202 342.805 98.6035 342.52 99.29 342.156C99.9812 341.79 100.663 341.295 101.315 340.769C101.97 340.24 102.644 339.641 103.306 339.052C103.977 338.454 104.644 337.861 105.326 337.306C106.709 336.179 108.025 335.315 109.305 334.949C110.501 334.608 111.7 334.688 113.015 335.564C116.56 337.928 120.27 339.171 123.496 339.571C126.601 339.956 129.477 339.579 131.288 338.422C134.855 336.625 137.216 334.236 138.577 331.382C139.935 328.533 140.238 325.347 139.92 322.065C139.29 315.566 136.171 308.277 133.29 301.621C129.363 292.546 122.471 279.26 116.158 267.709C109.869 256.201 104.061 246.242 102.305 243.899C101.063 242.243 98.7351 240.547 95.8408 239.145C92.9102 237.725 89.2655 236.543 85.2627 235.997Z" fill="#E09058"/>
<path d="M76.1201 197.972L76.1333 196.991L76.1333 196.991L76.1201 197.972ZM83.3848 198.266L83.333 199.245L83.333 199.245L83.3848 198.266ZM89.9766 198.509L89.9767 197.528L89.9766 197.528L89.9766 198.509ZM93.0459 199.665L93.5889 198.848L93.5888 198.848L93.0459 199.665ZM96.375 202.48L97.0639 201.783L97.0639 201.783L96.375 202.48ZM104.732 212.376L105.516 211.786L105.516 211.786L104.732 212.376ZM125.688 244.74L126.537 244.251L126.537 244.251L125.688 244.74ZM157.206 320.19L158.177 320.052L158.177 320.052L157.206 320.19ZM145.452 354.41L146.089 355.156L146.089 355.156L145.452 354.41ZM119.535 365.211L119.627 366.187L119.633 366.187L119.535 365.211ZM119.504 365.214L119.567 366.192L119.581 366.192L119.595 366.19L119.504 365.214ZM119.474 365.216L119.528 366.195L119.537 366.194L119.474 365.216ZM69.0518 367.004L69.0651 367.984L69.0651 367.984L69.0518 367.004ZM44.166 366.832L44.1294 367.812L44.1294 367.812L44.166 366.832ZM27.9668 365.169L27.7088 366.115L27.7088 366.115L27.9668 365.169ZM1.74219 320.131L0.778339 319.95L0.778335 319.95L1.74219 320.131ZM10.1309 295.993L9.23052 295.605L9.23052 295.605L10.1309 295.993ZM26.1113 263.048L25.2445 262.589L25.2445 262.589L26.1113 263.048ZM65.0596 200.444L64.2892 199.838L64.2891 199.838L65.0596 200.444ZM69.6475 198.316L69.4885 197.349L69.4885 197.349L69.6475 198.316ZM85.2627 235.997L85.3952 235.025L85.3952 235.025L85.2627 235.997ZM59.6143 243.703L58.9546 242.978L58.9546 242.978L59.6143 243.703ZM49.46 256.893L48.6273 256.375L48.6273 256.375L49.46 256.893ZM39.0938 275.813L38.2153 275.378L38.2153 275.378L39.0938 275.813ZM22.8486 312.821L23.7264 313.259L23.7471 313.217L23.7638 313.174L22.8486 312.821ZM23.3682 338.133L22.6365 338.786L22.6365 338.786L23.3682 338.133ZM31.2764 342.735L31.0912 343.698L31.0912 343.698L31.2764 342.735ZM39.0391 341.078L39.6669 341.831L39.6669 341.831L39.0391 341.078ZM55.4307 336.854L56.1226 336.16L56.0881 336.125L56.0504 336.095L55.4307 336.854ZM62.8242 342.173L62.4498 343.079L62.4499 343.079L62.8242 342.173ZM72.6055 341.123L73.1938 341.908L73.1938 341.908L72.6055 341.123ZM76.0898 338.43L75.4832 337.659L75.4832 337.659L76.0898 338.43ZM78.0508 336.968L77.5204 336.143L77.5204 336.143L78.0508 336.968ZM81.8086 335.779L81.6424 334.813L81.6423 334.813L81.8086 335.779ZM88.7793 338.595L89.3857 337.824L89.3857 337.824L88.7793 338.595ZM92.4785 341.349L91.9634 342.183L91.9635 342.183L92.4785 341.349ZM96.9814 342.805L96.9814 343.785L96.9816 343.785L96.9814 342.805ZM99.29 342.156L99.7492 343.023L99.7492 343.023L99.29 342.156ZM101.315 340.769L101.931 341.532L101.931 341.532L101.315 340.769ZM103.306 339.052L102.654 338.319L102.654 338.319L103.306 339.052ZM105.326 337.306L104.707 336.545L104.707 336.545L105.326 337.306ZM109.305 334.949L109.035 334.006L109.035 334.006L109.305 334.949ZM113.015 335.564L112.471 336.38L112.471 336.38L113.015 335.564ZM123.496 339.571L123.375 340.544L123.375 340.544L123.496 339.571ZM131.288 338.422L130.847 337.546L130.802 337.569L130.76 337.596L131.288 338.422ZM138.577 331.382L139.462 331.804L139.462 331.804L138.577 331.382ZM139.92 322.065L140.896 321.971L140.896 321.971L139.92 322.065ZM133.29 301.621L132.39 302.011L132.39 302.011L133.29 301.621ZM116.158 267.709L117.019 267.239L117.019 267.239L116.158 267.709ZM102.305 243.899L103.089 243.311L103.089 243.311L102.305 243.899ZM95.8408 239.145L96.2683 238.262L96.2683 238.262L95.8408 239.145ZM76.1201 197.972L76.1069 198.952C78.441 198.984 80.9381 199.118 83.333 199.245L83.3848 198.266L83.4365 197.286C81.0519 197.16 78.5136 197.023 76.1333 196.991L76.1201 197.972ZM83.3848 198.266L83.333 199.245C85.7332 199.372 88.0285 199.489 89.9765 199.489L89.9766 198.509L89.9766 197.528C88.0901 197.528 85.849 197.414 83.4365 197.286L83.3848 198.266ZM89.9766 198.509L89.9764 199.489C90.7175 199.49 91.5764 199.866 92.503 200.482L93.0459 199.665L93.5888 198.848C92.5765 198.175 91.3136 197.528 89.9767 197.528L89.9766 198.509ZM93.0459 199.665L92.5029 200.482C93.4433 201.107 94.5122 202.02 95.6861 203.178L96.375 202.48L97.0639 201.783C95.844 200.578 94.6749 199.571 93.5889 198.848L93.0459 199.665ZM96.375 202.48L95.6861 203.178C98.0354 205.497 100.846 208.843 103.949 212.966L104.732 212.376L105.516 211.786C102.387 207.63 99.511 204.198 97.0639 201.783L96.375 202.48ZM104.732 212.376L103.949 212.966C110.157 221.213 117.565 232.612 124.838 245.23L125.688 244.74L126.537 244.251C119.237 231.585 111.785 220.115 105.516 211.786L104.732 212.376ZM125.688 244.74L124.838 245.23C139.373 270.448 153.421 300.629 156.235 320.329L157.206 320.19L158.177 320.052C155.304 299.945 141.078 269.478 126.537 244.251L125.688 244.74ZM157.206 320.19L156.235 320.329C158.498 336.167 152.835 346.815 144.815 353.664L145.452 354.41L146.089 355.156C154.598 347.889 160.538 336.583 158.177 320.052L157.206 320.19ZM145.452 354.41L144.815 353.664C136.819 360.493 126.503 363.529 119.438 364.235L119.535 365.211L119.633 366.187C126.983 365.452 137.712 362.31 146.089 355.156L145.452 354.41ZM119.535 365.211L119.444 364.235L119.412 364.238L119.504 365.214L119.595 366.19L119.627 366.187L119.535 365.211ZM119.504 365.214L119.441 364.235L119.41 364.237L119.474 365.216L119.537 366.194L119.567 366.192L119.504 365.214ZM119.474 365.216L119.419 364.237C106.807 364.937 87.1176 365.778 69.0385 366.023L69.0518 367.004L69.0651 367.984C87.1788 367.739 106.897 366.897 119.528 366.195L119.474 365.216ZM69.0518 367.004L69.0385 366.023C59.9992 366.146 51.3574 366.12 44.2026 365.852L44.166 366.832L44.1294 367.812C51.3313 368.081 60.01 368.107 69.0651 367.984L69.0518 367.004ZM44.166 366.832L44.2026 365.852C37.0633 365.585 31.3601 365.078 28.2248 364.223L27.9668 365.169L27.7088 366.115C31.0928 367.038 37.0138 367.546 44.1294 367.812L44.166 366.832ZM27.9668 365.169L28.2248 364.223C12.6141 359.965 -1.47426 342.611 2.70604 320.312L1.74219 320.131L0.778335 319.95C-3.59958 343.303 11.1621 361.602 27.7088 366.115L27.9668 365.169ZM1.74219 320.131L2.70604 320.312C3.76583 314.659 6.76977 306.254 11.0312 296.382L10.1309 295.993L9.23052 295.605C4.96144 305.494 1.88101 314.069 0.778339 319.95L1.74219 320.131ZM10.1309 295.993L11.0312 296.382C15.2965 286.501 20.8347 275.121 26.9782 263.506L26.1113 263.048L25.2445 262.589C19.0832 274.237 13.5211 285.665 9.23052 295.605L10.1309 295.993ZM26.1113 263.048L26.9782 263.506C39.2627 240.282 53.9862 216.091 65.83 201.051L65.0596 200.444L64.2891 199.838C52.3396 215.012 37.5524 239.321 25.2445 262.589L26.1113 263.048ZM65.0596 200.444L65.83 201.051C66.587 200.09 68.0575 199.571 69.8064 199.284L69.6475 198.316L69.4885 197.349C67.6955 197.643 65.5429 198.246 64.2892 199.838L65.0596 200.444ZM69.6475 198.316L69.8064 199.284C71.5852 198.992 73.7756 198.921 76.1069 198.952L76.1201 197.972L76.1333 196.991C73.7692 196.959 71.4408 197.028 69.4885 197.349L69.6475 198.316ZM85.2627 235.997L85.3952 235.025C77.1613 233.903 67.2954 235.395 58.9546 242.978L59.6143 243.703L60.2739 244.429C68.0909 237.322 77.3315 235.905 85.1302 236.969L85.2627 235.997ZM59.6143 243.703L58.9546 242.978C55.6224 246.007 52.1028 250.788 48.6273 256.375L49.46 256.893L50.2926 257.411C53.7432 251.864 57.1477 247.271 60.2739 244.429L59.6143 243.703ZM49.46 256.893L48.6273 256.375C45.1276 262 41.5795 268.596 38.2153 275.378L39.0938 275.813L39.9722 276.249C43.3204 269.5 46.8377 262.964 50.2926 257.411L49.46 256.893ZM39.0938 275.813L38.2153 275.378C31.5014 288.911 25.4598 303.306 21.9334 312.469L22.8486 312.821L23.7638 313.174C27.2731 304.055 33.2908 289.717 39.9722 276.249L39.0938 275.813ZM22.8486 312.821L21.9708 312.384C16.0895 324.192 17.7711 333.333 22.6365 338.786L23.3682 338.133L24.0999 337.48C19.9022 332.775 18.104 324.546 23.7264 313.259L22.8486 312.821ZM23.3682 338.133L22.6365 338.786C25.0077 341.443 28.0625 343.116 31.0912 343.698L31.2764 342.735L31.4616 341.772C28.8651 341.273 26.1913 339.824 24.0998 337.48L23.3682 338.133ZM31.2764 342.735L31.0912 343.698C34.0913 344.275 37.2951 343.808 39.6669 341.831L39.0391 341.078L38.4112 340.325C36.609 341.827 34.054 342.271 31.4615 341.772L31.2764 342.735ZM39.0391 341.078L39.6669 341.831C47.6533 335.175 53.284 336.369 54.8109 337.614L55.4307 336.854L56.0504 336.095C53.4576 333.98 46.7205 333.4 38.4112 340.325L39.0391 341.078ZM55.4307 336.854L54.7387 337.549C56.6626 339.465 59.3561 341.801 62.4498 343.079L62.8242 342.173L63.1986 341.266C60.4675 340.138 57.9948 338.024 56.1226 336.16L55.4307 336.854ZM62.8242 342.173L62.4499 343.079C65.7011 344.422 69.5552 344.636 73.1938 341.908L72.6055 341.123L72.0171 340.339C69.0688 342.55 65.9851 342.417 63.1986 341.266L62.8242 342.173ZM72.6055 341.123L73.1938 341.908C74.7235 340.76 75.8388 339.875 76.6965 339.2L76.0898 338.43L75.4832 337.659C74.6224 338.337 73.5252 339.207 72.0171 340.339L72.6055 341.123ZM76.0898 338.43L76.6965 339.2C77.5782 338.506 78.1165 338.091 78.5812 337.793L78.0508 336.968L77.5204 336.143C76.9621 336.502 76.3478 336.979 75.4832 337.659L76.0898 338.43ZM78.0508 336.968L78.5812 337.793C79.3241 337.315 79.885 337.105 81.9749 336.746L81.8086 335.779L81.6423 334.813C79.4844 335.184 78.604 335.446 77.5204 336.143L78.0508 336.968ZM81.8086 335.779L81.9748 336.746C83.9741 336.402 85.7122 337.429 88.1729 339.365L88.7793 338.595L89.3857 337.824C86.9784 335.93 84.5944 334.305 81.6424 334.813L81.8086 335.779ZM88.7793 338.595L88.1729 339.365C89.2852 340.241 90.6119 341.349 91.9634 342.183L92.4785 341.349L92.9936 340.514C91.7658 339.756 90.5685 338.755 89.3857 337.824L88.7793 338.595ZM92.4785 341.349L91.9635 342.183C93.3522 343.04 95.0301 343.785 96.9814 343.785V342.805V341.824C95.5411 341.824 94.2279 341.276 92.9936 340.514L92.4785 341.349ZM96.9814 342.805L96.9816 343.785C98.0402 343.785 98.9858 343.427 99.7492 343.023L99.29 342.156L98.8309 341.29C98.2212 341.613 97.6001 341.824 96.9813 341.824L96.9814 342.805ZM99.29 342.156L99.7492 343.023C100.521 342.614 101.258 342.075 101.931 341.532L101.315 340.769L100.7 340.005C100.067 340.516 99.4418 340.966 98.8309 341.29L99.29 342.156ZM101.315 340.769L101.931 341.532C102.608 340.986 103.3 340.37 103.957 339.784L103.306 339.052L102.654 338.319C101.988 338.911 101.333 339.494 100.7 340.005L101.315 340.769ZM103.306 339.052L103.957 339.784C104.632 339.185 105.283 338.606 105.946 338.066L105.326 337.306L104.707 336.545C104.006 337.117 103.323 337.724 102.654 338.319L103.306 339.052ZM105.326 337.306L105.946 338.066C107.304 336.959 108.493 336.201 109.574 335.892L109.305 334.949L109.035 334.006C107.557 334.429 106.114 335.399 104.707 336.545L105.326 337.306ZM109.305 334.949L109.574 335.892C110.514 335.624 111.412 335.675 112.471 336.38L113.015 335.564L113.559 334.749C111.988 333.701 110.488 333.591 109.035 334.006L109.305 334.949ZM113.015 335.564L112.471 336.38C116.145 338.83 120 340.126 123.375 340.544L123.496 339.571L123.617 338.598C120.541 338.217 116.976 337.026 113.559 334.749L113.015 335.564ZM123.496 339.571L123.375 340.544C126.584 340.942 129.729 340.582 131.816 339.248L131.288 338.422L130.76 337.596C129.225 338.576 126.619 338.97 123.617 338.598L123.496 339.571ZM131.288 338.422L131.729 339.298C135.462 337.418 137.995 334.882 139.462 331.804L138.577 331.382L137.692 330.96C136.438 333.591 134.248 335.833 130.847 337.546L131.288 338.422ZM138.577 331.382L139.462 331.804C140.921 328.745 141.225 325.367 140.896 321.971L139.92 322.065L138.944 322.16C139.251 325.328 138.95 328.32 137.692 330.96L138.577 331.382ZM139.92 322.065L140.896 321.971C140.248 315.288 137.054 307.849 134.19 301.232L133.29 301.621L132.39 302.011C135.287 308.705 138.331 315.844 138.944 322.16L139.92 322.065ZM133.29 301.621L134.19 301.232C130.244 292.113 123.334 278.794 117.019 267.239L116.158 267.709L115.298 268.179C121.608 279.727 128.482 292.979 132.39 302.011L133.29 301.621ZM116.158 267.709L117.019 267.239C110.744 255.757 104.898 245.723 103.089 243.311L102.305 243.899L101.52 244.488C103.224 246.76 108.995 256.646 115.298 268.179L116.158 267.709ZM102.305 243.899L103.089 243.311C101.713 241.477 99.2276 239.695 96.2683 238.262L95.8408 239.145L95.4133 240.027C98.2425 241.398 100.412 243.01 101.52 244.488L102.305 243.899ZM95.8408 239.145L96.2683 238.262C93.2473 236.799 89.5032 235.586 85.3952 235.025L85.2627 235.997L85.1302 236.969C89.0277 237.5 92.5731 238.651 95.4133 240.027L95.8408 239.145Z" fill="black"/>
<circle cx="78.7716" cy="211.117" r="4.62303" stroke="black" stroke-width="1.96128"/>
<rect x="62.9416" y="83.214" width="28.8589" height="48.4717" rx="4.62303" fill="#E09058" stroke="black" stroke-width="1.96128"/>
<path d="M74.667 133.646L76.3662 196.232L65.8096 197.405L69.541 133.646H74.667Z" fill="#905E3D" stroke="black" stroke-width="1.96128"/>
<path d="M85.9131 133.646L90.3213 197.417L78.332 196.219L76.9727 133.646H85.9131Z" fill="#905E3D" stroke="black" stroke-width="1.96128"/>
<path d="M1658.76 75.2288C1666.61 69.6251 1672.31 43.9416 1674.17 31.8003L1678.38 30.3994C1687.34 44.969 1676.51 71.026 1669.97 82.2334H1658.76V75.2288Z" fill="#905E3D" stroke="black" stroke-width="1.96128"/>
<path d="M1640.55 40.2062C1633.83 24.5159 1643.36 7.05111 1648.96 0.980469H1640.55C1623.74 16.3906 1627.95 38.8052 1629.35 47.2107C1630.47 53.9352 1641.96 73.3612 1647.56 82.2337H1657.37V75.2291C1654.56 70.0924 1647.28 55.8964 1640.55 40.2062Z" fill="#905E3D" stroke="black" stroke-width="1.96128"/>
<path d="M1660.02 197.972C1657.66 198.003 1655.14 198.139 1652.75 198.266C1650.35 198.393 1648.08 198.509 1646.16 198.509C1645.12 198.509 1644.06 199.02 1643.09 199.665C1642.08 200.339 1640.96 201.299 1639.76 202.48C1637.36 204.848 1634.52 208.236 1631.4 212.376C1625.17 220.664 1617.74 232.098 1610.45 244.74C1595.91 269.963 1581.77 300.287 1578.93 320.19C1576.62 336.375 1582.42 347.352 1590.68 354.41C1598.87 361.402 1609.39 364.49 1616.6 365.211L1616.63 365.214L1616.66 365.216C1629.28 365.917 1648.99 366.758 1667.08 367.004C1676.13 367.127 1684.79 367.1 1691.97 366.832C1699.1 366.566 1704.91 366.058 1708.17 365.169C1724.25 360.784 1738.67 342.957 1734.39 320.131C1733.31 314.364 1730.27 305.874 1726.01 295.993C1721.73 286.083 1716.18 274.679 1710.03 263.048C1697.73 239.802 1682.97 215.552 1671.08 200.444C1670.07 199.168 1668.26 198.607 1666.49 198.316C1664.62 198.01 1662.36 197.94 1660.02 197.972ZM1650.87 235.996C1658.89 234.903 1668.44 236.358 1676.52 243.702C1679.75 246.638 1683.21 251.325 1686.68 256.892C1690.15 262.481 1693.69 269.048 1697.04 275.812C1703.74 289.313 1709.77 303.68 1713.29 312.82C1719.04 324.368 1717.3 333.053 1712.77 338.132C1710.54 340.632 1707.67 342.193 1704.86 342.734C1702.06 343.272 1699.18 342.817 1697.1 341.077C1688.95 334.287 1682.77 335.174 1680.71 336.854C1678.81 338.744 1676.23 340.969 1673.31 342.172C1670.29 343.419 1666.82 343.592 1663.53 341.122C1662.01 339.983 1660.91 339.105 1660.05 338.429C1659.17 337.741 1658.6 337.296 1658.09 336.967C1657.17 336.38 1656.45 336.144 1654.33 335.778C1651.85 335.353 1649.79 336.679 1647.36 338.594C1646.21 339.497 1644.95 340.552 1643.66 341.348C1642.35 342.157 1640.85 342.804 1639.16 342.804C1638.32 342.804 1637.53 342.519 1636.85 342.155C1636.16 341.789 1635.47 341.294 1634.82 340.768C1634.17 340.239 1633.49 339.639 1632.83 339.051C1632.16 338.454 1631.49 337.86 1630.81 337.305C1629.43 336.178 1628.11 335.314 1626.83 334.948C1625.64 334.607 1624.44 334.687 1623.12 335.563C1619.58 337.927 1615.87 339.17 1612.64 339.57C1609.54 339.955 1606.66 339.578 1604.85 338.421C1601.28 336.624 1598.92 334.235 1597.56 331.381C1596.2 328.532 1595.9 325.346 1596.22 322.064C1596.85 315.565 1599.97 308.276 1602.85 301.62C1606.77 292.545 1613.67 279.26 1619.98 267.708C1626.27 256.2 1632.08 246.24 1633.83 243.898C1635.07 242.242 1637.4 240.546 1640.3 239.144C1643.23 237.724 1646.87 236.542 1650.87 235.996Z" fill="#E09058"/>
<path d="M1660.02 197.972L1660 196.991L1660 196.991L1660.02 197.972ZM1652.75 198.266L1652.8 199.245L1652.8 199.245L1652.75 198.266ZM1646.16 198.509L1646.16 197.528L1646.16 197.528L1646.16 198.509ZM1643.09 199.665L1642.55 198.848L1642.55 198.848L1643.09 199.665ZM1639.76 202.48L1639.07 201.783L1639.07 201.783L1639.76 202.48ZM1631.4 212.376L1630.62 211.786L1630.62 211.786L1631.4 212.376ZM1610.45 244.74L1609.6 244.251L1609.6 244.251L1610.45 244.74ZM1578.93 320.19L1577.96 320.052L1577.96 320.052L1578.93 320.19ZM1590.68 354.41L1590.05 355.156L1590.05 355.156L1590.68 354.41ZM1616.6 365.211L1616.51 366.187L1616.5 366.187L1616.6 365.211ZM1616.63 365.214L1616.57 366.192L1616.56 366.192L1616.54 366.19L1616.63 365.214ZM1616.66 365.216L1616.61 366.195L1616.6 366.194L1616.66 365.216ZM1667.08 367.004L1667.07 367.984L1667.07 367.984L1667.08 367.004ZM1691.97 366.832L1692.01 367.812L1692.01 367.812L1691.97 366.832ZM1708.17 365.169L1708.43 366.115L1708.43 366.115L1708.17 365.169ZM1734.39 320.131L1735.36 319.95L1735.36 319.95L1734.39 320.131ZM1726.01 295.993L1726.91 295.605L1726.91 295.605L1726.01 295.993ZM1710.03 263.048L1710.89 262.589L1710.89 262.589L1710.03 263.048ZM1671.08 200.444L1671.85 199.838L1671.85 199.838L1671.08 200.444ZM1666.49 198.316L1666.65 197.349L1666.65 197.349L1666.49 198.316ZM1650.87 235.996L1650.74 235.024L1650.74 235.024L1650.87 235.996ZM1676.52 243.702L1677.18 242.977L1677.18 242.977L1676.52 243.702ZM1686.68 256.892L1687.51 256.374L1687.51 256.374L1686.68 256.892ZM1697.04 275.812L1697.92 275.377L1697.92 275.377L1697.04 275.812ZM1713.29 312.82L1712.41 313.258L1712.39 313.216L1712.37 313.173L1713.29 312.82ZM1712.77 338.132L1713.5 338.785L1713.5 338.785L1712.77 338.132ZM1704.86 342.734L1705.05 343.697L1705.05 343.697L1704.86 342.734ZM1697.1 341.077L1697.73 340.324L1697.73 340.324L1697.1 341.077ZM1680.71 336.854L1680.01 336.159L1680.05 336.124L1680.09 336.094L1680.71 336.854ZM1673.31 342.172L1673.69 343.078L1673.69 343.078L1673.31 342.172ZM1663.53 341.122L1662.94 341.907L1662.94 341.907L1663.53 341.122ZM1660.05 338.429L1660.65 337.658L1660.65 337.658L1660.05 338.429ZM1658.09 336.967L1658.62 336.142L1658.62 336.142L1658.09 336.967ZM1654.33 335.778L1654.49 334.812L1654.49 334.812L1654.33 335.778ZM1647.36 338.594L1646.75 337.823L1646.75 337.823L1647.36 338.594ZM1643.66 341.348L1644.17 342.182L1644.17 342.182L1643.66 341.348ZM1639.16 342.804V343.784L1639.16 343.784L1639.16 342.804ZM1636.85 342.155L1636.39 343.022L1636.39 343.022L1636.85 342.155ZM1634.82 340.768L1634.21 341.531L1634.21 341.531L1634.82 340.768ZM1632.83 339.051L1633.48 338.318L1633.48 338.318L1632.83 339.051ZM1630.81 337.305L1631.43 336.544L1631.43 336.544L1630.81 337.305ZM1626.83 334.948L1627.1 334.005L1627.1 334.005L1626.83 334.948ZM1623.12 335.563L1622.58 334.748L1622.58 334.748L1623.12 335.563ZM1612.64 339.57L1612.76 340.543L1612.76 340.543L1612.64 339.57ZM1604.85 338.421L1605.29 337.545L1605.33 337.568L1605.38 337.595L1604.85 338.421ZM1597.56 331.381L1596.67 331.803L1596.67 331.803L1597.56 331.381ZM1596.22 322.064L1595.24 321.97L1595.24 321.97L1596.22 322.064ZM1602.85 301.62L1601.95 301.231L1601.95 301.231L1602.85 301.62ZM1619.98 267.708L1619.12 267.238L1619.12 267.238L1619.98 267.708ZM1633.83 243.898L1633.05 243.31L1633.05 243.31L1633.83 243.898ZM1640.3 239.144L1639.87 238.261L1639.87 238.261L1640.3 239.144ZM1660.02 197.972L1660.03 198.952C1657.7 198.984 1655.2 199.118 1652.8 199.245L1652.75 198.266L1652.7 197.286C1655.08 197.16 1657.62 197.023 1660 196.991L1660.02 197.972ZM1652.75 198.266L1652.8 199.245C1650.4 199.372 1648.11 199.489 1646.16 199.489L1646.16 198.509L1646.16 197.528C1648.05 197.528 1650.29 197.414 1652.7 197.286L1652.75 198.266ZM1646.16 198.509L1646.16 199.489C1645.42 199.49 1644.56 199.866 1643.63 200.482L1643.09 199.665L1642.55 198.848C1643.56 198.175 1644.82 197.528 1646.16 197.528L1646.16 198.509ZM1643.09 199.665L1643.63 200.482C1642.69 201.107 1641.62 202.02 1640.45 203.178L1639.76 202.48L1639.07 201.783C1640.29 200.578 1641.46 199.571 1642.55 198.848L1643.09 199.665ZM1639.76 202.48L1640.45 203.178C1638.1 205.497 1635.29 208.843 1632.19 212.966L1631.4 212.376L1630.62 211.786C1633.75 207.63 1636.63 204.198 1639.07 201.783L1639.76 202.48ZM1631.4 212.376L1632.19 212.966C1625.98 221.213 1618.57 232.612 1611.3 245.23L1610.45 244.74L1609.6 244.251C1616.9 231.585 1624.35 220.115 1630.62 211.786L1631.4 212.376ZM1610.45 244.74L1611.3 245.23C1596.76 270.448 1582.72 300.629 1579.9 320.329L1578.93 320.19L1577.96 320.052C1580.83 299.945 1595.06 269.479 1609.6 244.251L1610.45 244.74ZM1578.93 320.19L1579.9 320.329C1577.64 336.167 1583.3 346.815 1591.32 353.664L1590.68 354.41L1590.05 355.156C1581.54 347.889 1575.6 336.583 1577.96 320.052L1578.93 320.19ZM1590.68 354.41L1591.32 353.664C1599.32 360.493 1609.63 363.529 1616.7 364.235L1616.6 365.211L1616.5 366.187C1609.15 365.452 1598.42 362.31 1590.05 355.156L1590.68 354.41ZM1616.6 365.211L1616.69 364.235L1616.72 364.238L1616.63 365.214L1616.54 366.19L1616.51 366.187L1616.6 365.211ZM1616.63 365.214L1616.7 364.235L1616.73 364.237L1616.66 365.216L1616.6 366.194L1616.57 366.192L1616.63 365.214ZM1616.66 365.216L1616.72 364.237C1629.33 364.937 1649.02 365.778 1667.1 366.023L1667.08 367.004L1667.07 367.984C1648.96 367.739 1629.24 366.897 1616.61 366.195L1616.66 365.216ZM1667.08 367.004L1667.1 366.023C1676.14 366.146 1684.78 366.12 1691.93 365.852L1691.97 366.832L1692.01 367.812C1684.81 368.081 1676.13 368.107 1667.07 367.984L1667.08 367.004ZM1691.97 366.832L1691.93 365.852C1699.07 365.585 1704.78 365.078 1707.91 364.223L1708.17 365.169L1708.43 366.115C1705.04 367.038 1699.12 367.546 1692.01 367.812L1691.97 366.832ZM1708.17 365.169L1707.91 364.223C1723.52 359.965 1737.61 342.611 1733.43 320.312L1734.39 320.131L1735.36 319.95C1739.74 343.303 1724.97 361.602 1708.43 366.115L1708.17 365.169ZM1734.39 320.131L1733.43 320.312C1732.37 314.659 1729.37 306.254 1725.11 296.382L1726.01 295.993L1726.91 295.605C1731.18 305.494 1734.26 314.069 1735.36 319.95L1734.39 320.131ZM1726.01 295.993L1725.11 296.382C1720.84 286.501 1715.3 275.121 1709.16 263.506L1710.03 263.048L1710.89 262.589C1717.05 274.237 1722.62 285.665 1726.91 295.605L1726.01 295.993ZM1710.03 263.048L1709.16 263.506C1696.87 240.282 1682.15 216.091 1670.31 201.051L1671.08 200.444L1671.85 199.838C1683.8 215.012 1698.58 239.321 1710.89 262.589L1710.03 263.048ZM1671.08 200.444L1670.31 201.051C1669.55 200.09 1668.08 199.571 1666.33 199.284L1666.49 198.316L1666.65 197.349C1668.44 197.643 1670.59 198.246 1671.85 199.838L1671.08 200.444ZM1666.49 198.316L1666.33 199.284C1664.55 198.992 1662.36 198.921 1660.03 198.952L1660.02 197.972L1660 196.991C1662.37 196.959 1664.7 197.028 1666.65 197.349L1666.49 198.316ZM1650.87 235.996L1650.74 235.024C1658.98 233.902 1668.84 235.394 1677.18 242.977L1676.52 243.702L1675.86 244.428C1668.05 237.322 1658.81 235.904 1651.01 236.968L1650.87 235.996ZM1676.52 243.702L1677.18 242.977C1680.51 246.006 1684.03 250.787 1687.51 256.374L1686.68 256.892L1685.84 257.41C1682.39 251.863 1678.99 247.27 1675.86 244.428L1676.52 243.702ZM1686.68 256.892L1687.51 256.374C1691.01 261.999 1694.56 268.596 1697.92 275.377L1697.04 275.812L1696.16 276.248C1692.82 269.5 1689.3 262.963 1685.84 257.41L1686.68 256.892ZM1697.04 275.812L1697.92 275.377C1704.64 288.91 1710.68 303.305 1714.2 312.468L1713.29 312.82L1712.37 313.173C1708.86 304.054 1702.85 289.716 1696.16 276.248L1697.04 275.812ZM1713.29 312.82L1714.17 312.383C1720.05 324.191 1718.37 333.332 1713.5 338.785L1712.77 338.132L1712.04 337.479C1716.23 332.774 1718.03 324.545 1712.41 313.258L1713.29 312.82ZM1712.77 338.132L1713.5 338.785C1711.13 341.442 1708.07 343.115 1705.05 343.697L1704.86 342.734L1704.68 341.771C1707.27 341.272 1709.95 339.823 1712.04 337.479L1712.77 338.132ZM1704.86 342.734L1705.05 343.697C1702.05 344.274 1698.84 343.807 1696.47 341.83L1697.1 341.077L1697.73 340.324C1699.53 341.826 1702.08 342.27 1704.68 341.771L1704.86 342.734ZM1697.1 341.077L1696.47 341.83C1688.48 335.175 1682.85 336.368 1681.33 337.613L1680.71 336.854L1680.09 336.094C1682.68 333.979 1689.42 333.399 1697.73 340.324L1697.1 341.077ZM1680.71 336.854L1681.4 337.548C1679.47 339.464 1676.78 341.8 1673.69 343.078L1673.31 342.172L1672.94 341.266C1675.67 340.137 1678.14 338.023 1680.01 336.159L1680.71 336.854ZM1673.31 342.172L1673.69 343.078C1670.44 344.421 1666.58 344.636 1662.94 341.907L1663.53 341.122L1664.12 340.338C1667.07 342.549 1670.15 342.416 1672.94 341.266L1673.31 342.172ZM1663.53 341.122L1662.94 341.907C1661.41 340.759 1660.3 339.874 1659.44 339.199L1660.05 338.429L1660.65 337.658C1661.51 338.336 1662.61 339.207 1664.12 340.338L1663.53 341.122ZM1660.05 338.429L1659.44 339.199C1658.56 338.505 1658.02 338.09 1657.56 337.792L1658.09 336.967L1658.62 336.142C1659.17 336.501 1659.79 336.978 1660.65 337.658L1660.05 338.429ZM1658.09 336.967L1657.56 337.792C1656.81 337.314 1656.25 337.104 1654.16 336.745L1654.33 335.778L1654.49 334.812C1656.65 335.183 1657.53 335.445 1658.62 336.142L1658.09 336.967ZM1654.33 335.778L1654.16 336.745C1652.16 336.401 1650.42 337.428 1647.96 339.364L1647.36 338.594L1646.75 337.823C1649.16 335.929 1651.54 334.304 1654.49 334.812L1654.33 335.778ZM1647.36 338.594L1647.96 339.364C1646.85 340.24 1645.52 341.348 1644.17 342.182L1643.66 341.348L1643.14 340.513C1644.37 339.755 1645.57 338.754 1646.75 337.823L1647.36 338.594ZM1643.66 341.348L1644.17 342.182C1642.78 343.039 1641.11 343.784 1639.16 343.784V342.804V341.823C1640.6 341.823 1641.91 341.275 1643.14 340.513L1643.66 341.348ZM1639.16 342.804L1639.16 343.784C1638.1 343.784 1637.15 343.426 1636.39 343.022L1636.85 342.155L1637.31 341.289C1637.92 341.612 1638.54 341.823 1639.16 341.823L1639.16 342.804ZM1636.85 342.155L1636.39 343.022C1635.62 342.613 1634.88 342.074 1634.21 341.531L1634.82 340.768L1635.44 340.004C1636.07 340.514 1636.69 340.965 1637.31 341.289L1636.85 342.155ZM1634.82 340.768L1634.21 341.531C1633.53 340.985 1632.84 340.369 1632.18 339.784L1632.83 339.051L1633.48 338.318C1634.15 338.91 1634.8 339.493 1635.44 340.004L1634.82 340.768ZM1632.83 339.051L1632.18 339.784C1631.51 339.184 1630.85 338.605 1630.19 338.065L1630.81 337.305L1631.43 336.544C1632.13 337.116 1632.81 337.723 1633.48 338.318L1632.83 339.051ZM1630.81 337.305L1630.19 338.065C1628.83 336.958 1627.64 336.2 1626.56 335.891L1626.83 334.948L1627.1 334.005C1628.58 334.428 1630.02 335.398 1631.43 336.544L1630.81 337.305ZM1626.83 334.948L1626.56 335.891C1625.62 335.623 1624.72 335.674 1623.67 336.379L1623.12 335.563L1622.58 334.748C1624.15 333.7 1625.65 333.59 1627.1 334.005L1626.83 334.948ZM1623.12 335.563L1623.67 336.379C1619.99 338.829 1616.14 340.125 1612.76 340.543L1612.64 339.57L1612.52 338.597C1615.6 338.216 1619.16 337.026 1622.58 334.748L1623.12 335.563ZM1612.64 339.57L1612.76 340.543C1609.55 340.941 1606.41 340.581 1604.32 339.247L1604.85 338.421L1605.38 337.595C1606.91 338.575 1609.52 338.969 1612.52 338.597L1612.64 339.57ZM1604.85 338.421L1604.41 339.297C1600.68 337.417 1598.14 334.881 1596.67 331.803L1597.56 331.381L1598.44 330.959C1599.7 333.59 1601.89 335.832 1605.29 337.545L1604.85 338.421ZM1597.56 331.381L1596.67 331.803C1595.22 328.744 1594.91 325.366 1595.24 321.97L1596.22 322.064L1597.19 322.159C1596.89 325.327 1597.19 328.319 1598.44 330.959L1597.56 331.381ZM1596.22 322.064L1595.24 321.97C1595.89 315.287 1599.08 307.848 1601.95 301.231L1602.85 301.62L1603.75 302.01C1600.85 308.704 1597.81 315.843 1597.19 322.159L1596.22 322.064ZM1602.85 301.62L1601.95 301.231C1605.89 292.112 1612.8 278.793 1619.12 267.238L1619.98 267.708L1620.84 268.178C1614.53 279.726 1607.66 292.978 1603.75 302.01L1602.85 301.62ZM1619.98 267.708L1619.12 267.238C1625.39 255.755 1631.24 245.721 1633.05 243.31L1633.83 243.898L1634.62 244.487C1632.91 246.759 1627.14 256.644 1620.84 268.178L1619.98 267.708ZM1633.83 243.898L1633.05 243.31C1634.42 241.476 1636.91 239.694 1639.87 238.261L1640.3 239.144L1640.72 240.026C1637.89 241.397 1635.72 243.009 1634.62 244.487L1633.83 243.898ZM1640.3 239.144L1639.87 238.261C1642.89 236.798 1646.63 235.585 1650.74 235.024L1650.87 235.996L1651.01 236.968C1647.11 237.499 1643.56 238.65 1640.72 240.026L1640.3 239.144Z" fill="black"/>
<circle cx="5.60367" cy="5.60367" r="4.62303" transform="matrix(-1 0 0 1 1662.97 205.514)" stroke="black" stroke-width="1.96128"/>
<rect x="-0.980642" y="0.980642" width="28.8589" height="48.4717" rx="4.62303" transform="matrix(-1 0 0 1 1672.21 82.2334)" fill="#E09058" stroke="black" stroke-width="1.96128"/>
<path d="M1661.47 133.646L1659.77 196.232L1670.33 197.405L1666.6 133.646H1661.47Z" fill="#905E3D" stroke="black" stroke-width="1.96128"/>
<path d="M1650.23 133.646L1645.82 197.417L1657.81 196.219L1659.17 133.646H1650.23Z" fill="#905E3D" stroke="black" stroke-width="1.96128"/>
</svg>
