<svg width="57" height="115" viewBox="0 0 57 115" fill="none" xmlns="http://www.w3.org/2000/svg">
<path d="M27.6143 9.5C24.8142 7.5 22.7809 -1.66667 22.1143 -6L20.6143 -6.5C17.4143 -1.3 21.2809 8 23.6143 12H27.6143V9.5Z" fill="#905E3D" stroke="black" stroke-width="0.7"/>
<path d="M34.1143 -3C36.5143 -8.6 33.1143 -14.8333 31.1143 -17H34.1143C40.1143 -11.5 38.6143 -3.5 38.1143 -0.5C37.7143 1.9 33.6143 8.83333 31.6143 12H28.1143V9.5C29.1143 7.66667 31.7143 2.6 34.1143 -3Z" fill="#905E3D" stroke="black" stroke-width="0.7"/>
<path d="M27.168 53.3086C28.0093 53.3199 28.9088 53.368 29.7617 53.4131C30.6204 53.4584 31.4301 53.5 32.1143 53.5C32.485 53.5002 32.8631 53.6831 33.209 53.9131C33.5707 54.1536 33.9702 54.4962 34.3975 54.918C35.2534 55.7629 36.2688 56.9718 37.3809 58.4492C39.6073 61.4074 42.2587 65.4881 44.8594 70C50.0483 79.0024 55.0936 89.826 56.1084 96.9297C56.9335 102.706 54.8628 106.624 51.9131 109.143C48.9911 111.638 45.2357 112.74 42.6631 112.997L42.6523 112.999H42.6416C38.1367 113.249 31.1043 113.55 24.6455 113.638C21.4165 113.681 18.3257 113.672 15.7637 113.576C13.22 113.481 11.1459 113.3 9.98242 112.982C4.2438 111.417 -0.905031 105.055 0.62207 96.9082C1.00795 94.8499 2.09387 91.8196 3.61621 88.293C5.14306 84.7559 7.12348 80.6855 9.31934 76.5342C13.708 68.2374 18.9747 59.5824 23.2207 54.1904C23.5795 53.7349 24.2263 53.5355 24.8584 53.4316C25.5241 53.3223 26.3302 53.2973 27.168 53.3086ZM30.4316 66.8799C27.5707 66.4898 24.1616 67.009 21.2783 69.6299C20.1258 70.6776 18.8893 72.3503 17.6533 74.3369C16.4123 76.3316 15.1519 78.6755 13.9541 81.0898C11.5629 85.9098 9.4097 91.0395 8.1543 94.3018C6.10314 98.4218 6.72388 101.521 8.34082 103.333C9.13719 104.225 10.1603 104.783 11.1641 104.976C12.1619 105.167 13.1899 105.004 13.9346 104.384C16.8438 101.959 19.0511 102.278 19.7852 102.878C20.4625 103.552 21.3849 104.345 22.4238 104.774C23.5011 105.219 24.7389 105.282 25.9141 104.4C26.4561 103.994 26.8516 103.68 27.1582 103.438C27.4694 103.193 27.6751 103.034 27.8574 102.917C28.1833 102.708 28.4414 102.624 29.1992 102.493C30.0827 102.341 30.8189 102.815 31.6875 103.498C32.0968 103.82 32.5469 104.197 33.0068 104.48C33.4749 104.769 34.0091 105 34.6143 105C34.9136 105 35.1935 104.898 35.4385 104.769C35.685 104.638 35.9283 104.461 36.1611 104.273C36.3947 104.085 36.635 103.871 36.8711 103.661C37.1107 103.448 37.3495 103.236 37.5928 103.038C38.0863 102.636 38.5561 102.327 39.0127 102.196C39.4396 102.074 39.8678 102.103 40.3369 102.416C41.6023 103.26 42.9269 103.704 44.0781 103.847C45.1869 103.984 46.2141 103.849 46.8604 103.436C48.1325 102.794 48.9745 101.941 49.46 100.923C49.9446 99.9061 50.0529 98.7698 49.9395 97.5986C49.7146 95.279 48.6013 92.6773 47.5732 90.3018C46.1715 87.0628 43.7121 82.3201 41.459 78.1973C39.2149 74.0908 37.1418 70.5368 36.5146 69.7002C36.0714 69.1092 35.2399 68.5033 34.207 68.0029C33.1611 67.4963 31.8601 67.0747 30.4316 66.8799Z" fill="#E09058"/>
<path d="M27.168 53.3086L27.1727 52.9586L27.1727 52.9586L27.168 53.3086ZM29.7617 53.4131L29.7433 53.7626L29.7433 53.7626L29.7617 53.4131ZM32.1143 53.5L32.1144 53.15H32.1143L32.1143 53.5ZM33.209 53.9131L33.4028 53.6216L33.4028 53.6216L33.209 53.9131ZM34.3975 54.918L34.6433 54.6689V54.6689L34.3975 54.918ZM37.3809 58.4492L37.6605 58.2387V58.2387L37.3809 58.4492ZM44.8594 70L45.1626 69.8252L44.8594 70ZM56.1084 96.9297L56.4549 96.8802V96.8802L56.1084 96.9297ZM51.9131 109.143L52.1404 109.409L52.1404 109.409L51.9131 109.143ZM42.6631 112.997L42.6283 112.649L42.6143 112.65L42.6005 112.653L42.6631 112.997ZM42.6523 112.999V113.349H42.6839L42.715 113.343L42.6523 112.999ZM42.6416 112.999V112.649H42.6319L42.6222 112.65L42.6416 112.999ZM24.6455 113.638L24.6503 113.988L24.6455 113.638ZM15.7637 113.576L15.7506 113.926H15.7506L15.7637 113.576ZM9.98242 112.982L9.89033 113.32L9.89034 113.32L9.98242 112.982ZM0.62207 96.9082L0.278063 96.8437L0.278062 96.8437L0.62207 96.9082ZM3.61621 88.293L3.29487 88.1543L3.61621 88.293ZM9.31934 76.5342L9.00995 76.3705L9.31934 76.5342ZM23.2207 54.1904L22.9458 53.9739L22.9457 53.9739L23.2207 54.1904ZM24.8584 53.4316L24.8017 53.0863L24.8017 53.0863L24.8584 53.4316ZM30.4316 66.8799L30.4789 66.5331L30.4789 66.5331L30.4316 66.8799ZM21.2783 69.6299L21.0429 69.3709L21.0429 69.3709L21.2783 69.6299ZM17.6533 74.3369L17.3561 74.152L17.3561 74.152L17.6533 74.3369ZM13.9541 81.0898L13.6406 80.9343L13.6406 80.9343L13.9541 81.0898ZM8.1543 94.3018L8.46762 94.4577L8.475 94.4429L8.48094 94.4275L8.1543 94.3018ZM8.34082 103.333L8.07967 103.566L8.07969 103.566L8.34082 103.333ZM11.1641 104.976L11.098 105.319L11.098 105.319L11.1641 104.976ZM13.9346 104.384L13.7105 104.115L13.7105 104.115L13.9346 104.384ZM19.7852 102.878L20.0321 102.63L20.0199 102.618L20.0067 102.607L19.7852 102.878ZM22.4238 104.774L22.2902 105.098L22.2903 105.098L22.4238 104.774ZM25.9141 104.4L26.124 104.68L26.1241 104.68L25.9141 104.4ZM27.1582 103.438L26.9417 103.163H26.9417L27.1582 103.438ZM27.8574 102.917L27.6681 102.623L27.6681 102.623L27.8574 102.917ZM29.1992 102.493L29.14 102.148L29.1399 102.148L29.1992 102.493ZM31.6875 103.498L31.9039 103.223L31.9039 103.223L31.6875 103.498ZM33.0068 104.48L32.823 104.778L32.823 104.778L33.0068 104.48ZM34.6143 105L34.6143 105.35H34.6144L34.6143 105ZM35.4385 104.769L35.6024 105.078L35.6024 105.078L35.4385 104.769ZM36.1611 104.273L36.3809 104.546L36.381 104.546L36.1611 104.273ZM36.8711 103.661L36.6385 103.4V103.4L36.8711 103.661ZM37.5928 103.038L37.3717 102.767L37.3717 102.767L37.5928 103.038ZM39.0127 102.196L38.9166 101.86L38.9165 101.86L39.0127 102.196ZM40.3369 102.416L40.1428 102.707L40.1428 102.707L40.3369 102.416ZM44.0781 103.847L44.035 104.194L44.0351 104.194L44.0781 103.847ZM46.8604 103.436L46.7028 103.123L46.6868 103.131L46.6717 103.141L46.8604 103.436ZM49.46 100.923L49.7759 101.073L49.7759 101.073L49.46 100.923ZM49.9395 97.5986L50.2878 97.5649L50.2878 97.5649L49.9395 97.5986ZM47.5732 90.3018L47.8945 90.1627V90.1627L47.5732 90.3018ZM41.459 78.1973L41.7661 78.0294L41.459 78.1973ZM36.5146 69.7002L36.7947 69.4903L36.7946 69.4902L36.5146 69.7002ZM34.207 68.0029L34.3596 67.6879L34.3596 67.6879L34.207 68.0029ZM27.168 53.3086L27.1633 53.6586C27.9964 53.6698 28.8887 53.7175 29.7433 53.7626L29.7617 53.4131L29.7802 53.0636C28.9289 53.0186 28.0222 52.9701 27.1727 52.9586L27.168 53.3086ZM29.7617 53.4131L29.7433 53.7626C30.5997 53.8078 31.4191 53.85 32.1143 53.85L32.1143 53.5L32.1143 53.15C31.4411 53.15 30.6411 53.1091 29.7802 53.0636L29.7617 53.4131ZM32.1143 53.5L32.1141 53.85C32.3783 53.8501 32.6843 53.9845 33.0152 54.2045L33.209 53.9131L33.4028 53.6216C33.0419 53.3817 32.5916 53.1502 32.1144 53.15L32.1143 53.5ZM33.209 53.9131L33.0152 54.2045C33.3509 54.4278 33.7326 54.7535 34.1516 55.1671L34.3975 54.918L34.6433 54.6689C34.2078 54.239 33.7904 53.8794 33.4028 53.6216L33.209 53.9131ZM34.3975 54.918L34.1516 55.1671C34.9902 55.9948 35.9939 57.1885 37.1012 58.6597L37.3809 58.4492L37.6605 58.2387C36.5438 56.7551 35.5167 55.531 34.6433 54.6689L34.3975 54.918ZM37.3809 58.4492L37.1012 58.6597C39.3168 61.6033 41.9604 65.6713 44.5561 70.1748L44.8594 70L45.1626 69.8252C42.5571 65.3049 39.8979 61.2114 37.6605 58.2387L37.3809 58.4492ZM44.8594 70L44.5561 70.1748C49.744 79.1755 54.7575 89.9481 55.7619 96.9792L56.1084 96.9297L56.4549 96.8802C55.4297 89.704 50.3525 78.8294 45.1626 69.8252L44.8594 70ZM56.1084 96.9297L55.7619 96.9792C56.5693 102.632 54.5482 106.432 51.6858 108.876L51.9131 109.143L52.1404 109.409C55.1774 106.815 57.2976 102.78 56.4549 96.8802L56.1084 96.9297ZM51.9131 109.143L51.6858 108.876C48.8317 111.314 45.15 112.397 42.6283 112.649L42.6631 112.997L42.6979 113.345C45.3213 113.083 49.1505 111.962 52.1404 109.409L51.9131 109.143ZM42.6631 112.997L42.6005 112.653L42.5897 112.655L42.6523 112.999L42.715 113.343L42.7257 113.341L42.6631 112.997ZM42.6523 112.999V112.649H42.6416V112.999V113.349H42.6523V112.999ZM42.6416 112.999L42.6222 112.65C38.1207 112.9 31.0934 113.2 24.6408 113.288L24.6455 113.638L24.6503 113.988C31.1152 113.9 38.1527 113.599 42.661 113.348L42.6416 112.999ZM24.6455 113.638L24.6408 113.288C21.4146 113.331 18.3303 113.322 15.7767 113.226L15.7637 113.576L15.7506 113.926C18.321 114.022 21.4184 114.032 24.6503 113.988L24.6455 113.638ZM15.7637 113.576L15.7767 113.226C13.2289 113.131 11.1936 112.95 10.0745 112.645L9.98242 112.982L9.89034 113.32C11.0981 113.649 13.2111 113.831 15.7506 113.926L15.7637 113.576ZM9.98242 112.982L10.0745 112.645C4.5029 111.125 -0.525759 104.931 0.966079 96.9727L0.62207 96.9082L0.278062 96.8437C-1.2843 105.179 3.98471 111.709 9.89033 113.32L9.98242 112.982ZM0.62207 96.9082L0.966077 96.9727C1.3443 94.9552 2.41657 91.9552 3.93755 88.4317L3.61621 88.293L3.29487 88.1543C1.77117 91.6841 0.671592 94.7446 0.278063 96.8437L0.62207 96.9082ZM3.61621 88.293L3.93755 88.4317C5.4599 84.905 7.43605 80.8431 9.62872 76.6978L9.31934 76.5342L9.00995 76.3705C6.81092 80.5278 4.82622 84.6067 3.29487 88.1543L3.61621 88.293ZM9.31934 76.5342L9.62872 76.6978C14.0132 68.409 19.2685 59.775 23.4957 54.407L23.2207 54.1904L22.9457 53.9739C18.6808 59.3898 13.4028 68.0659 9.00995 76.3705L9.31934 76.5342ZM23.2207 54.1904L23.4957 54.407C23.7658 54.0641 24.2906 53.8796 24.9151 53.777L24.8584 53.4316L24.8017 53.0863C24.1621 53.1913 23.3933 53.4056 22.9458 53.9739L23.2207 54.1904ZM24.8584 53.4316L24.9151 53.777C25.5499 53.6727 26.3314 53.6474 27.1633 53.6586L27.168 53.3086L27.1727 52.9586C26.329 52.9473 25.4983 52.9718 24.8017 53.0863L24.8584 53.4316ZM30.4316 66.8799L30.4789 66.5331C27.5404 66.1324 24.0197 66.6651 21.0429 69.3709L21.2783 69.6299L21.5137 69.8889C24.3036 67.3529 27.6011 66.8472 30.3844 67.2267L30.4316 66.8799ZM21.2783 69.6299L21.0429 69.3709C19.8537 70.452 18.5966 72.1582 17.3561 74.152L17.6533 74.3369L17.9505 74.5218C19.1819 72.5425 20.398 70.9032 21.5138 69.8889L21.2783 69.6299ZM17.6533 74.3369L17.3561 74.152C16.1071 76.1596 14.8412 78.5142 13.6406 80.9343L13.9541 81.0898L14.2676 81.2454C15.4626 78.8368 16.7175 76.5037 17.9505 74.5218L17.6533 74.3369ZM13.9541 81.0898L13.6406 80.9343C11.2436 85.7659 9.08611 90.9058 7.82765 94.1761L8.1543 94.3018L8.48094 94.4275C9.73329 91.1731 11.8822 86.0537 14.2676 81.2454L13.9541 81.0898ZM8.1543 94.3018L7.84098 94.1458C5.74363 98.3586 6.3436 101.62 8.07967 103.566L8.34082 103.333L8.60197 103.1C7.10415 101.421 6.46264 98.4851 8.46762 94.4577L8.1543 94.3018ZM8.34082 103.333L8.07969 103.566C8.92604 104.514 10.0171 105.111 11.098 105.319L11.1641 104.976L11.2302 104.632C10.3034 104.454 9.34833 103.936 8.60195 103.1L8.34082 103.333ZM11.1641 104.976L11.098 105.319C12.1686 105.525 13.3123 105.358 14.1587 104.653L13.9346 104.384L13.7105 104.115C13.0674 104.651 12.1552 104.81 11.2301 104.632L11.1641 104.976ZM13.9346 104.384L14.1586 104.653C17.0103 102.276 19.0198 102.704 19.5636 103.149L19.7852 102.878L20.0067 102.607C19.0823 101.851 16.6773 101.643 13.7105 104.115L13.9346 104.384ZM19.7852 102.878L19.5382 103.126C20.225 103.81 21.1868 104.642 22.2902 105.098L22.4238 104.774L22.5574 104.451C21.5831 104.048 20.7 103.295 20.0321 102.63L19.7852 102.878ZM22.4238 104.774L22.2903 105.098C23.4503 105.577 24.8256 105.654 26.124 104.68L25.9141 104.4L25.7041 104.12C24.6522 104.909 23.5519 104.861 22.5574 104.451L22.4238 104.774ZM25.9141 104.4L26.1241 104.68C26.67 104.271 27.0687 103.954 27.3747 103.713L27.1582 103.438L26.9417 103.163C26.6344 103.405 26.2422 103.717 25.7041 104.12L25.9141 104.4ZM27.1582 103.438L27.3747 103.713C27.6891 103.466 27.8811 103.318 28.0468 103.211L27.8574 102.917L27.6681 102.623C27.469 102.751 27.2497 102.921 26.9417 103.163L27.1582 103.438ZM27.8574 102.917L28.0467 103.211C28.3116 103.041 28.5125 102.966 29.2586 102.838L29.1992 102.493L29.1399 102.148C28.3702 102.281 28.0549 102.374 27.6681 102.623L27.8574 102.917ZM29.1992 102.493L29.2585 102.838C29.972 102.716 30.593 103.082 31.4711 103.773L31.6875 103.498L31.9039 103.223C31.0447 102.547 30.1933 101.967 29.14 102.148L29.1992 102.493ZM31.6875 103.498L31.4711 103.773C31.8677 104.085 32.3409 104.481 32.823 104.778L33.0068 104.48L33.1907 104.183C32.7528 103.912 32.3259 103.555 31.9039 103.223L31.6875 103.498ZM33.0068 104.48L32.823 104.778C33.3187 105.084 33.918 105.35 34.6143 105.35L34.6143 105L34.6143 104.65C34.1002 104.65 33.6311 104.454 33.1907 104.183L33.0068 104.48ZM34.6143 105L34.6144 105.35C34.992 105.35 35.3298 105.222 35.6024 105.078L35.4385 104.769L35.2746 104.459C35.0571 104.575 34.8351 104.65 34.6141 104.65L34.6143 105ZM35.4385 104.769L35.6024 105.078C35.8775 104.932 36.1407 104.74 36.3809 104.546L36.1611 104.273L35.9413 104.001C35.7159 104.183 35.4925 104.344 35.2745 104.459L35.4385 104.769ZM36.1611 104.273L36.381 104.546C36.6222 104.351 36.869 104.131 37.1037 103.923L36.8711 103.661L36.6385 103.4C36.401 103.611 36.1672 103.819 35.9413 104.001L36.1611 104.273ZM36.8711 103.661L37.1037 103.923C37.3439 103.709 37.5773 103.502 37.8139 103.309L37.5928 103.038L37.3717 102.767C37.1217 102.97 36.8775 103.187 36.6385 103.4L36.8711 103.661ZM37.5928 103.038L37.8139 103.309C38.2989 102.914 38.7233 102.643 39.1089 102.533L39.0127 102.196L38.9165 101.86C38.3889 102.011 37.8737 102.358 37.3717 102.767L37.5928 103.038ZM39.0127 102.196L39.1088 102.533C39.444 102.437 39.765 102.455 40.1428 102.707L40.3369 102.416L40.5311 102.125C39.9706 101.751 39.4351 101.712 38.9166 101.86L39.0127 102.196ZM40.3369 102.416L40.1428 102.707C41.4539 103.581 42.8304 104.045 44.035 104.194L44.0781 103.847L44.1212 103.499C43.0235 103.363 41.7507 102.938 40.531 102.125L40.3369 102.416ZM44.0781 103.847L44.0351 104.194C45.1808 104.336 46.3041 104.207 47.049 103.73L46.8604 103.436L46.6717 103.141C46.1241 103.491 45.1931 103.632 44.1212 103.499L44.0781 103.847ZM46.8604 103.436L47.0179 103.748C48.3493 103.077 49.2525 102.171 49.7759 101.073L49.46 100.923L49.144 100.772C48.6965 101.711 47.9157 102.512 46.7028 103.123L46.8604 103.436ZM49.46 100.923L49.7759 101.073C50.2961 99.982 50.4053 98.7769 50.2878 97.5649L49.9395 97.5986L49.5911 97.6324C49.7006 98.7626 49.593 99.8302 49.144 100.772L49.46 100.923ZM49.9395 97.5986L50.2878 97.5649C50.0566 95.1797 48.9166 92.5246 47.8945 90.1627L47.5732 90.3018L47.252 90.4408C48.286 92.8299 49.3725 95.3783 49.5911 97.6324L49.9395 97.5986ZM47.5732 90.3018L47.8945 90.1627C46.486 86.9082 44.02 82.1537 41.7661 78.0294L41.459 78.1973L41.1519 78.3651C43.4041 82.4865 45.857 87.2175 47.252 90.4408L47.5732 90.3018ZM41.459 78.1973L41.7661 78.0294C39.527 73.9322 37.4405 70.3517 36.7947 69.4903L36.5146 69.7002L36.2346 69.9101C36.8432 70.7219 38.9027 74.2494 41.1519 78.3651L41.459 78.1973ZM36.5146 69.7002L36.7946 69.4902C36.3036 68.8355 35.4157 68.1995 34.3596 67.6879L34.207 68.0029L34.0544 68.3179C35.0642 68.8071 35.8392 69.3829 36.2346 69.9102L36.5146 69.7002ZM34.207 68.0029L34.3596 67.6879C33.2814 67.1657 31.9449 66.7331 30.4789 66.5331L30.4316 66.8799L30.3843 67.2267C31.7753 67.4164 33.0409 67.827 34.0545 68.3179L34.207 68.0029Z" fill="black"/>
<circle cx="28.1143" cy="58" r="1.65" stroke="black" stroke-width="0.7"/>
<rect x="22.4643" y="12.35" width="10.3" height="17.3" rx="1.65" fill="#E09058" stroke="black" stroke-width="0.7"/>
<path d="M26.6484 30.3496L27.2559 52.6875L23.4873 53.1064L24.8193 30.3496H26.6484Z" fill="#905E3D" stroke="black" stroke-width="0.7"/>
<path d="M30.6621 30.3496L32.2354 53.1094L27.957 52.6816L27.4717 30.3496H30.6621Z" fill="#905E3D" stroke="black" stroke-width="0.7"/>
</svg>
