<svg width="389" height="224" viewBox="521.3419189453125 139.87222290039062 1236.5975341796875 712.0767517089844" fill="none" xmlns="http://www.w3.org/2000/svg" style="">
<path d="M1038.61 578.727L751.61 847.227H526.61V692.227L1036.61 502.727L1038.61 578.727Z" stroke="white"/>
<path d="M1035.61 323.727C1024.41 331.327 1013.61 335.894 1009.61 337.227L752.61 144.727H857.11L1035.61 323.727Z" stroke="white"/>
<path d="M1036.61 499.227L527.11 676.727V692.227L1036.61 502.727V499.227Z" stroke="white"/>
<path d="M605.612 276.083L607.607 628.851L527.61 652.06V248.93L605.612 276.083Z" stroke="white"/>
<path d="M812.611 346.591L813.608 562.862L661.612 611.542L660.612 297.415L812.611 346.591Z" stroke="white"/>
<path d="M940.954 387.473L941.608 524.297L842.108 555.049L841.611 356.408L940.954 387.473Z" stroke="white"/>
<path d="M1020.22 411.012L1020.61 497.641L961.998 517.036L961.612 391.422L1020.22 411.012Z" stroke="white"/>
<path d="M660.61 297.227V282.727L819.11 339.727V569.227L661.61 621.727V611.727L813.61 562.727L812.61 346.727L660.61 297.227Z" stroke="white"/>
<path d="M527.61 249.227V234.227L619.61 267.727L622.11 634.727L527.61 666.227V652.227L607.61 628.727L605.61 276.227L527.61 249.227Z" stroke="white"/>
<path d="M841.61 356.227V347.227L946.11 382.877V527.227L842.11 561.727V555.227L941.61 524.227L941.11 387.727L841.61 356.227Z" stroke="white"/>
<path d="M961.61 391.227V387.227L1021.61 407.727L1022.11 500.727L962.11 521.227V517.227L1020.61 497.727L1020.11 411.227L961.61 391.227Z" stroke="white"/>
<path d="M636.614 268.712L640.104 636.667L623.106 634.779L620.613 268.242L636.614 268.712Z" stroke="white"/>
<path d="M659.611 277.075L661.108 628.875L641.103 636.02L637.616 268.947L659.611 277.075Z" stroke="white"/>
<path d="M840.61 343.583L841.109 566.366L830.11 570.033V339.93L840.61 343.583Z" stroke="white"/>
<path d="M960.611 385.587L961.108 524.63L955.61 526.388V383.92L960.611 385.587Z" stroke="white"/>
<path d="M1027.61 409.587V499.186L1023.11 500.415L1022.61 407.921L1027.61 409.587Z" stroke="white"/>
<path d="M829.39 570.648L820.11 569.293V340.203L829.39 339.751V570.648Z" stroke="white"/>
<path d="M954.61 383.698V527.227H947.11V383.256L954.61 383.698Z" stroke="white"/>
<path d="M1028.11 410.227H1036.11L781.61 317.227L527.61 222.227V233.727L620.11 267.727L637.11 268.227L660.11 276.727V281.727L819.61 339.727L830.11 339.227L841.11 343.227V346.227L946.61 382.727L955.11 383.227L961.11 385.227V386.727L1028.11 409.227V410.227Z" stroke="white"/>
<path d="M527.11 144.727V221.727L1036.11 409.727V385.727L608.11 144.727H527.11Z" stroke="white"/>
<path d="M674.11 182.227V275.727" stroke="white"/>
<path d="M838.61 274.727L839.61 336.727" stroke="white"/>
<path d="M961.11 381.727V343.227" stroke="white"/>
<path d="M591.64 229.529C593.181 229.394 594.773 230.929 594.975 233.253C595.178 235.578 593.875 237.364 592.333 237.498C590.792 237.633 589.2 236.098 588.998 233.774C588.796 231.449 590.098 229.663 591.64 229.529Z" stroke="white"/>
<path d="M665.64 257.529C667.181 257.394 668.773 258.929 668.975 261.253C669.178 263.578 667.875 265.364 666.333 265.498C664.792 265.633 663.2 264.098 662.998 261.774C662.796 259.449 664.098 257.663 665.64 257.529Z" stroke="white"/>
<path d="M680.948 265.495C681.524 265.445 682.115 265.712 682.603 266.265C683.091 266.819 683.449 267.635 683.531 268.585C683.614 269.536 683.403 270.402 683.018 271.032C682.633 271.661 682.097 272.026 681.521 272.076C680.945 272.127 680.354 271.86 679.866 271.306C679.378 270.752 679.02 269.936 678.937 268.985C678.855 268.035 679.066 267.169 679.451 266.54C679.836 265.91 680.372 265.545 680.948 265.495Z" stroke="white"/>
<path d="M761.485 296.952C761.987 296.908 762.506 297.138 762.937 297.624C763.369 298.111 763.688 298.832 763.761 299.673C763.834 300.514 763.645 301.278 763.304 301.832C762.963 302.386 762.492 302.702 761.989 302.745C761.487 302.789 760.968 302.56 760.536 302.073C760.104 301.587 759.786 300.866 759.713 300.025C759.639 299.184 759.828 298.419 760.17 297.865C760.511 297.311 760.982 296.996 761.485 296.952Z" stroke="white"/>
<path d="M835.444 327.474C835.811 327.476 836.18 327.676 836.473 328.072C836.766 328.468 836.961 329.037 836.957 329.686C836.953 330.334 836.753 330.901 836.455 331.294C836.157 331.687 835.786 331.882 835.419 331.88C835.053 331.878 834.684 331.679 834.39 331.283C834.097 330.886 833.903 330.317 833.906 329.669C833.91 329.02 834.111 328.453 834.409 328.06C834.706 327.667 835.078 327.472 835.444 327.474Z" stroke="white"/>
<path d="M846.468 331.24C847.366 331.246 848.288 332.243 848.28 333.747C848.271 335.252 847.338 336.239 846.439 336.234C845.541 336.229 844.618 335.231 844.626 333.727C844.635 332.223 845.569 331.235 846.468 331.24Z" stroke="white"/>
<path d="M879.13 345.238C879.845 345.242 880.619 346.048 880.612 347.316C880.605 348.584 879.821 349.381 879.106 349.377C878.392 349.373 877.617 348.567 877.624 347.299C877.631 346.031 878.415 345.234 879.13 345.238Z" stroke="white"/>
<path d="M907.695 355.236C907.884 355.237 908.137 355.367 908.367 355.751C908.592 356.127 908.746 356.678 908.742 357.311C908.738 357.944 908.579 358.492 908.349 358.866C908.115 359.248 907.86 359.375 907.672 359.374C907.483 359.373 907.23 359.243 906.999 358.858C906.774 358.482 906.62 357.932 906.624 357.299C906.628 356.666 906.787 356.117 907.016 355.744C907.251 355.361 907.506 355.235 907.695 355.236Z" stroke="white"/>
<path d="M938.601 367.235C938.793 367.236 939.022 367.351 939.225 367.652C939.425 367.95 939.564 368.389 939.561 368.898C939.558 369.407 939.415 369.844 939.211 370.14C939.005 370.439 938.774 370.551 938.582 370.55C938.39 370.549 938.161 370.434 937.959 370.133C937.758 369.835 937.619 369.396 937.622 368.887C937.625 368.379 937.769 367.941 937.973 367.645C938.178 367.347 938.409 367.234 938.601 367.235Z" stroke="white"/>
<path d="M958.601 375.235C958.793 375.236 959.022 375.351 959.225 375.652C959.425 375.95 959.564 376.389 959.561 376.898C959.558 377.407 959.415 377.844 959.211 378.14C959.005 378.439 958.774 378.551 958.582 378.55C958.39 378.549 958.161 378.434 957.959 378.133C957.758 377.835 957.619 377.396 957.622 376.887C957.625 376.379 957.769 375.941 957.973 375.645C958.178 375.347 958.409 375.234 958.601 375.235Z" stroke="white"/>
<g filter="url(#filter0_d_2066_237)">
<path d="M965.292 378.234C965.396 378.234 965.549 378.298 965.699 378.524C965.846 378.747 965.953 379.084 965.95 379.48C965.948 379.875 965.838 380.211 965.688 380.432C965.536 380.657 965.382 380.718 965.278 380.718C965.175 380.717 965.02 380.654 964.871 380.428C964.723 380.204 964.617 379.868 964.619 379.472C964.622 379.076 964.732 378.741 964.882 378.519C965.034 378.295 965.189 378.233 965.292 378.234Z" stroke="white" shape-rendering="crispEdges"/>
</g>
<path d="M984.292 385.234C984.396 385.234 984.549 385.298 984.699 385.524C984.846 385.747 984.953 386.084 984.95 386.48C984.948 386.875 984.838 387.211 984.688 387.432C984.536 387.657 984.382 387.718 984.278 387.718C984.175 387.717 984.02 387.654 983.871 387.428C983.723 387.204 983.617 386.868 983.619 386.472C983.622 386.076 983.732 385.741 983.882 385.519C984.034 385.295 984.189 385.233 984.292 385.234Z" stroke="white"/>
<path d="M999.292 391.234C999.396 391.234 999.549 391.298 999.699 391.524C999.846 391.747 999.953 392.084 999.95 392.48C999.948 392.875 999.838 393.211 999.688 393.432C999.536 393.657 999.382 393.718 999.278 393.718C999.175 393.717 999.02 393.654 998.871 393.428C998.723 393.204 998.617 392.868 998.619 392.472C998.622 392.076 998.732 391.741 998.882 391.519C999.034 391.295 999.189 391.233 999.292 391.234Z" stroke="white"/>
<path d="M1015.29 397.234C1015.4 397.234 1015.55 397.298 1015.7 397.524C1015.85 397.747 1015.95 398.084 1015.95 398.48C1015.95 398.875 1015.84 399.211 1015.69 399.432C1015.54 399.657 1015.38 399.718 1015.28 399.718C1015.17 399.717 1015.02 399.654 1014.87 399.428C1014.72 399.204 1014.62 398.868 1014.62 398.472C1014.62 398.076 1014.73 397.741 1014.88 397.519C1015.03 397.295 1015.19 397.233 1015.29 397.234Z" stroke="white"/>
<path d="M1028.29 402.234C1028.4 402.234 1028.55 402.298 1028.7 402.524C1028.85 402.747 1028.95 403.084 1028.95 403.48C1028.95 403.875 1028.84 404.211 1028.69 404.432C1028.54 404.657 1028.38 404.718 1028.28 404.718C1028.17 404.717 1028.02 404.654 1027.87 404.428C1027.72 404.204 1027.62 403.868 1027.62 403.472C1027.62 403.076 1027.73 402.741 1027.88 402.519C1028.03 402.295 1028.19 402.233 1028.29 402.234Z" stroke="white"/>
<path d="M674.61 144.727H608.61L1036.11 385.727C1038.91 388.527 1045.94 388.227 1049.11 387.727L860.61 267.227L674.61 144.727Z" stroke="white"/>
<path d="M969.11 347.727L981.61 344.227" stroke="white"/>
<path d="M752.11 144.727H675.61L828.11 246.227L982.61 344.727L1008.61 337.227L752.11 144.727Z" stroke="white"/>
<path d="M1049.61 387.727C1055.61 388.927 1073.78 375.894 1082.11 369.227L1036.11 324.227C1024.11 331.827 1013.11 336.394 1009.11 337.727L983.61 345.227L1049.61 387.727Z" stroke="white"/>
<path d="M1082.61 369.227C1082.61 368.427 1091.61 363.227 1096.11 360.727L931.11 144.727H920.61H880.61H858.11L1082.61 369.227Z" stroke="white"/>
<path d="M1258.29 578.727L1536.22 847.227H1754.11V692.227L1260.23 502.727L1258.29 578.727Z" stroke="white"/>
<path d="M1261.2 323.727C1272.04 331.327 1282.5 335.894 1286.38 337.227L1535.25 144.727H1434.06L1261.2 323.727Z" stroke="white"/>
<path d="M1260.23 499.227L1753.63 676.727V692.227L1260.23 502.727V499.227Z" stroke="white"/>
<path d="M1677.62 276.079L1675.69 628.855L1753.13 652.055V248.938L1677.62 276.079Z" stroke="white"/>
<path d="M1477.16 346.587L1476.2 562.866L1623.36 611.536L1624.33 297.421L1477.16 346.587Z" stroke="white"/>
<path d="M1352.88 387.47L1352.24 524.3L1448.57 555.042L1449.05 356.414L1352.88 387.47Z" stroke="white"/>
<path d="M1276.12 411.009L1275.74 497.646L1332.47 517.028L1332.84 391.429L1276.12 411.009Z" stroke="white"/>
<path d="M1624.34 297.227V282.727L1470.85 339.727V569.227L1623.38 621.727V611.727L1476.18 562.727L1477.15 346.727L1624.34 297.227Z" stroke="white"/>
<path d="M1753.14 249.227V234.227L1664.05 267.727L1661.63 634.727L1753.14 666.227V652.227L1675.67 628.727L1677.61 276.227L1753.14 249.227Z" stroke="white"/>
<path d="M1449.07 356.227V347.227L1347.87 382.877V527.227L1448.58 561.727V555.227L1352.23 524.227L1352.71 387.727L1449.07 356.227Z" stroke="white"/>
<path d="M1332.86 391.227V387.227L1274.76 407.727L1274.27 500.727L1332.37 521.227V517.227L1275.72 497.727L1276.21 411.227L1332.86 391.227Z" stroke="white"/>
<path d="M1647.6 268.712L1644.22 636.665L1660.65 634.78L1663.06 268.243L1647.6 268.712Z" stroke="white"/>
<path d="M1625.33 277.071L1623.88 628.879L1643.22 636.012L1646.6 268.955L1625.33 277.071Z" stroke="white"/>
<path d="M1450.05 343.579L1449.57 566.371L1460.19 570.026V339.938L1450.05 343.579Z" stroke="white"/>
<path d="M1333.84 385.583L1333.36 524.633L1338.65 526.38V383.927L1333.84 385.583Z" stroke="white"/>
<path d="M1268.96 409.583V499.19L1273.29 500.409L1273.77 407.928L1268.96 409.583Z" stroke="white"/>
<path d="M1460.92 570.646L1469.87 569.296V340.202L1460.92 339.752V570.646Z" stroke="white"/>
<path d="M1339.65 383.697V527.227H1346.88V383.257L1339.65 383.697Z" stroke="white"/>
<path d="M1268.46 410.227H1260.71L1507.17 317.227L1753.14 222.227V233.727L1663.56 267.727L1647.1 268.227L1624.83 276.727V281.727L1470.37 339.727L1460.2 339.227L1449.55 343.227V346.227L1347.38 382.727L1339.15 383.227L1333.34 385.227V386.727L1268.46 409.227V410.227Z" stroke="white"/>
<path d="M1753.63 144.727V221.727L1260.71 409.727V385.727L1675.19 144.727H1753.63Z" stroke="white"/>
<path d="M1611.27 182.227V275.727" stroke="white"/>
<path d="M1451.97 274.727L1451 336.727" stroke="white"/>
<path d="M1333.34 381.727V343.227" stroke="white"/>
<path d="M1691.13 229.529C1690.39 229.462 1689.65 229.796 1689.05 230.464C1688.45 231.133 1688.02 232.115 1687.92 233.255C1687.82 234.395 1688.09 235.439 1688.57 236.205C1689.05 236.97 1689.72 237.432 1690.46 237.498C1691.2 237.565 1691.95 237.23 1692.55 236.562C1693.15 235.894 1693.58 234.912 1693.68 233.772C1693.77 232.632 1693.51 231.587 1693.03 230.822C1692.55 230.057 1691.88 229.595 1691.13 229.529Z" stroke="white"/>
<path d="M1619.47 257.529C1618.73 257.462 1617.99 257.796 1617.39 258.464C1616.79 259.133 1616.36 260.115 1616.26 261.255C1616.16 262.395 1616.43 263.439 1616.91 264.205C1617.39 264.97 1618.06 265.432 1618.8 265.498C1619.54 265.565 1620.29 265.23 1620.89 264.562C1621.49 263.894 1621.92 262.912 1622.02 261.772C1622.11 260.632 1621.85 259.587 1621.37 258.822C1620.89 258.057 1620.21 257.595 1619.47 257.529Z" stroke="white"/>
<path d="M1604.65 265.495C1604.1 265.446 1603.54 265.706 1603.06 266.26C1602.59 266.814 1602.24 267.632 1602.16 268.587C1602.08 269.541 1602.29 270.41 1602.66 271.039C1603.04 271.67 1603.55 272.027 1604.09 272.076C1604.64 272.125 1605.21 271.865 1605.68 271.311C1606.15 270.757 1606.5 269.938 1606.58 268.984C1606.66 268.029 1606.45 267.161 1606.08 266.532C1605.71 265.901 1605.19 265.544 1604.65 265.495Z" stroke="white"/>
<path d="M1526.66 296.952C1526.18 296.91 1525.69 297.133 1525.27 297.62C1524.85 298.107 1524.54 298.83 1524.47 299.674C1524.4 300.519 1524.58 301.286 1524.91 301.84C1525.24 302.395 1525.7 302.703 1526.17 302.746C1526.64 302.788 1527.14 302.565 1527.56 302.078C1527.98 301.591 1528.29 300.868 1528.36 300.024C1528.43 299.179 1528.25 298.412 1527.91 297.858C1527.58 297.303 1527.13 296.995 1526.66 296.952Z" stroke="white"/>
<path d="M1455.04 327.474C1454.7 327.476 1454.34 327.668 1454.06 328.065C1453.77 328.461 1453.58 329.033 1453.59 329.686C1453.59 330.338 1453.79 330.907 1454.08 331.3C1454.36 331.694 1454.72 331.882 1455.06 331.88C1455.4 331.878 1455.75 331.686 1456.04 331.289C1456.32 330.892 1456.51 330.321 1456.51 329.669C1456.51 329.016 1456.31 328.446 1456.02 328.053C1455.73 327.66 1455.38 327.472 1455.04 327.474Z" stroke="white"/>
<path d="M1444.36 331.24C1443.93 331.243 1443.51 331.476 1443.17 331.926C1442.84 332.376 1442.62 333.018 1442.62 333.747C1442.63 334.477 1442.85 335.118 1443.19 335.563C1443.53 336.009 1443.96 336.237 1444.39 336.234C1444.82 336.232 1445.24 335.999 1445.58 335.55C1445.91 335.1 1446.13 334.457 1446.13 333.727C1446.12 332.998 1445.9 332.358 1445.56 331.912C1445.22 331.466 1444.79 331.238 1444.36 331.24Z" stroke="white"/>
<path d="M1412.73 345.238C1412.39 345.24 1412.04 345.425 1411.77 345.797C1411.49 346.169 1411.31 346.704 1411.31 347.316C1411.31 347.927 1411.5 348.46 1411.78 348.829C1412.06 349.197 1412.41 349.379 1412.75 349.377C1413.09 349.375 1413.44 349.189 1413.72 348.818C1413.99 348.446 1414.18 347.911 1414.17 347.299C1414.17 346.688 1413.98 346.154 1413.7 345.785C1413.42 345.417 1413.07 345.236 1412.73 345.238Z" stroke="white"/>
<path d="M1385.07 355.236C1384.9 355.237 1384.66 355.357 1384.44 355.745C1384.22 356.122 1384.07 356.675 1384.07 357.311C1384.07 357.947 1384.23 358.498 1384.45 358.872C1384.68 359.258 1384.92 359.375 1385.09 359.374C1385.26 359.373 1385.5 359.253 1385.73 358.865C1385.94 358.488 1386.09 357.935 1386.09 357.299C1386.09 356.663 1385.93 356.112 1385.71 355.738C1385.48 355.352 1385.24 355.235 1385.07 355.236Z" stroke="white"/>
<path d="M1355.14 367.235C1354.97 367.236 1354.75 367.343 1354.55 367.646C1354.36 367.945 1354.22 368.386 1354.23 368.898C1354.23 369.41 1354.37 369.849 1354.57 370.146C1354.77 370.446 1354.99 370.551 1355.16 370.55C1355.33 370.549 1355.55 370.442 1355.75 370.139C1355.94 369.84 1356.08 369.399 1356.07 368.887C1356.07 368.375 1355.93 367.936 1355.73 367.639C1355.53 367.339 1355.31 367.234 1355.14 367.235Z" stroke="white"/>
<path d="M1335.77 375.235C1335.6 375.236 1335.38 375.343 1335.18 375.646C1334.99 375.945 1334.86 376.386 1334.86 376.898C1334.86 377.41 1335 377.849 1335.2 378.146C1335.4 378.446 1335.62 378.551 1335.79 378.55C1335.96 378.549 1336.18 378.442 1336.38 378.139C1336.57 377.84 1336.71 377.399 1336.7 376.887C1336.7 376.375 1336.56 375.936 1336.36 375.639C1336.16 375.339 1335.94 375.234 1335.77 375.235Z" stroke="white"/>
<path d="M1329.29 378.234C1329.21 378.234 1329.06 378.289 1328.92 378.518C1328.77 378.742 1328.67 379.08 1328.67 379.479C1328.67 379.878 1328.78 380.216 1328.93 380.438C1329.08 380.665 1329.22 380.718 1329.31 380.718C1329.39 380.717 1329.54 380.662 1329.68 380.434C1329.83 380.21 1329.93 379.871 1329.93 379.472C1329.93 379.073 1329.82 378.736 1329.67 378.514C1329.52 378.287 1329.38 378.233 1329.29 378.234Z" stroke="white"/>
<path d="M1310.89 385.234C1310.81 385.234 1310.66 385.289 1310.52 385.518C1310.37 385.742 1310.27 386.08 1310.27 386.479C1310.27 386.878 1310.38 387.216 1310.53 387.438C1310.68 387.665 1310.82 387.718 1310.91 387.718C1310.99 387.717 1311.14 387.662 1311.28 387.434C1311.43 387.21 1311.53 386.871 1311.53 386.472C1311.53 386.073 1311.42 385.736 1311.27 385.514C1311.12 385.287 1310.98 385.233 1310.89 385.234Z" stroke="white"/>
<path d="M1296.37 391.234C1296.28 391.234 1296.14 391.289 1295.99 391.518C1295.85 391.742 1295.74 392.08 1295.74 392.479C1295.75 392.878 1295.86 393.216 1296 393.438C1296.15 393.665 1296.29 393.718 1296.38 393.718C1296.47 393.717 1296.61 393.662 1296.76 393.434C1296.9 393.21 1297 392.871 1297 392.472C1297 392.073 1296.89 391.736 1296.75 391.514C1296.6 391.287 1296.45 391.233 1296.37 391.234Z" stroke="white"/>
<path d="M1280.87 397.234C1280.79 397.234 1280.64 397.289 1280.5 397.518C1280.35 397.742 1280.25 398.08 1280.25 398.479C1280.25 398.878 1280.36 399.216 1280.51 399.438C1280.66 399.665 1280.8 399.718 1280.89 399.718C1280.97 399.717 1281.12 399.662 1281.26 399.434C1281.41 399.21 1281.51 398.871 1281.51 398.472C1281.51 398.073 1281.4 397.736 1281.25 397.514C1281.1 397.287 1280.96 397.233 1280.87 397.234Z" stroke="white"/>
<path d="M1268.28 402.234C1268.2 402.234 1268.05 402.289 1267.91 402.518C1267.76 402.742 1267.66 403.08 1267.66 403.479C1267.66 403.878 1267.77 404.216 1267.92 404.438C1268.07 404.665 1268.21 404.718 1268.3 404.718C1268.38 404.717 1268.53 404.662 1268.67 404.434C1268.82 404.21 1268.92 403.871 1268.92 403.472C1268.92 403.073 1268.81 402.736 1268.66 402.514C1268.52 402.287 1268.37 402.233 1268.28 402.234Z" stroke="white"/>
<path d="M1610.79 144.727H1674.7L1260.71 385.727C1258 388.527 1251.19 388.227 1248.12 387.727L1430.67 267.227L1610.79 144.727Z" stroke="white"/>
<path d="M1325.6 347.727L1313.49 344.227" stroke="white"/>
<path d="M1535.74 144.727H1609.82L1462.14 246.227L1312.52 344.727L1287.34 337.227L1535.74 144.727Z" stroke="white"/>
<path d="M1247.64 387.727C1241.83 388.927 1224.24 375.894 1216.17 369.227L1260.71 324.227C1272.33 331.827 1282.99 336.394 1286.86 337.727L1311.55 345.227L1247.64 387.727Z" stroke="white"/>
<path d="M1215.68 369.227C1215.68 368.427 1206.97 363.227 1202.61 360.727L1362.39 144.727H1372.56H1411.3H1433.09L1215.68 369.227Z" stroke="white"/>
<path d="M1203.11 360.227C1190.78 358.727 1163.11 355.827 1151.11 356.227C1127.11 357.027 1111.61 357.728 1096.61 360.227M1038.11 579.228H1258.61" stroke="white"/>
<path d="M0.109619 17.7271C57.943 4.72713 210.41 -13.4729 357.61 17.7271M969.11 194.228C1026.94 181.228 1179.41 163.028 1326.61 194.228" stroke="white"/>
<defs>
<filter id="filter0_d_2066_237" x="960.119" y="377.734" width="10.3311" height="11.4844" filterUnits="userSpaceOnUse" color-interpolation-filters="sRGB">
<feFlood flood-opacity="0" result="BackgroundImageFix"/>
<feColorMatrix in="SourceAlpha" type="matrix" values="0 0 0 0 0 0 0 0 0 0 0 0 0 0 0 0 0 0 127 0" result="hardAlpha"/>
<feOffset dy="4"/>
<feGaussianBlur stdDeviation="2"/>
<feComposite in2="hardAlpha" operator="out"/>
<feColorMatrix type="matrix" values="0 0 0 0 0 0 0 0 0 0 0 0 0 0 0 0 0 0 0.25 0"/>
<feBlend mode="normal" in2="BackgroundImageFix" result="effect1_dropShadow_2066_237"/>
<feBlend mode="normal" in="SourceGraphic" in2="effect1_dropShadow_2066_237" result="shape"/>
</filter>
</defs>
</svg>