<svg width="1084" height="690" viewBox="0 0 1084 690" fill="none" xmlns="http://www.w3.org/2000/svg">
<path d="M302.583 40.9947C302.917 23.9702 286.333 1.90468 278 -7H295.917C310.25 2.41783 315.778 28.9206 316.75 40.9947L323 693.451H308.833C307.028 496.341 303.25 89.895 302.583 40.9947Z" fill="#D8B246" stroke="black"/>
<path d="M323.758 635.813H65.8188V651.853H323.758V635.813Z" fill="#D9B346" stroke="black"/>
<path d="M72.4969 168.964H319.167V154.612H66.2363C25.1664 154.612 26.168 188.381 28.255 212.441L39.9415 290.53C43.9762 324.299 54.0489 406.694 62.0625 466.127C71.0778 526.572 63.8711 571.794 59.1409 586.849C60.2539 590.226 63.4816 599.934 67.4884 611.753C92.1971 596.895 90.305 532.679 86.2703 502.428C75.0012 420.821 51.1272 247.391 45.7848 206.531C41.1102 175.464 61.6451 168.542 72.4969 168.964Z" fill="#D9B346" stroke="black"/>
<path d="M319.167 286.731L284.107 289.686C280.35 290.108 279.933 291.375 279.933 293.063V296.018C279.933 299.395 282.02 299.616 284.107 299.817C292.872 300.661 311.403 302.349 315.41 302.349C319.417 302.349 322.506 302.349 322.506 300.661V288.842C322.506 285.887 319.167 285.465 319.167 286.731Z" fill="#D8B243" stroke="black"/>
<path d="M287.863 292.719C288.734 292.719 289.45 293.435 289.45 294.329C289.45 295.224 288.734 295.94 287.863 295.94C286.992 295.94 286.276 295.224 286.276 294.329C286.276 293.435 286.992 292.719 287.863 292.719Z" fill="#D8B243" stroke="black"/>
<path d="M297.045 292.719C297.916 292.719 298.632 293.435 298.632 294.329C298.632 295.224 297.917 295.94 297.045 295.94C296.174 295.94 295.458 295.224 295.458 294.329C295.459 293.435 296.174 292.719 297.045 292.719Z" fill="#D8B243" stroke="black"/>
<path d="M311.236 291.875C312.568 291.875 313.658 292.969 313.658 294.33C313.658 295.691 312.568 296.784 311.236 296.784C309.904 296.784 308.815 295.691 308.814 294.33C308.814 292.969 309.904 291.875 311.236 291.875Z" fill="#D8B243" stroke="black"/>
<path d="M319.167 406.017L284.107 408.971C280.35 409.393 279.933 410.66 279.933 412.348V415.303C279.933 418.68 282.02 418.901 284.107 419.102C292.872 419.946 311.403 421.635 315.41 421.635C319.417 421.635 322.506 421.635 322.506 419.946V408.127C322.506 405.172 319.167 404.75 319.167 406.017Z" fill="#D8B243" stroke="black"/>
<path d="M287.863 412.004C288.734 412.004 289.45 412.719 289.45 413.614C289.45 414.509 288.734 415.224 287.863 415.224C286.992 415.224 286.276 414.509 286.276 413.614C286.276 412.719 286.992 412.004 287.863 412.004Z" fill="#D8B243" stroke="black"/>
<path d="M297.045 412.004C297.916 412.004 298.632 412.719 298.632 413.614C298.632 414.509 297.917 415.224 297.045 415.224C296.174 415.224 295.458 414.509 295.458 413.614C295.459 412.719 296.174 412.004 297.045 412.004Z" fill="#D8B243" stroke="black"/>
<path d="M311.236 411.16C312.568 411.16 313.658 412.254 313.658 413.615C313.658 414.976 312.568 416.069 311.236 416.069C309.904 416.069 308.815 414.976 308.814 413.615C308.814 412.254 309.904 411.16 311.236 411.16Z" fill="#D8B243" stroke="black"/>
<path d="M319.167 518.297L284.107 521.251C280.35 521.674 279.933 522.94 279.933 524.628V527.583C279.933 530.96 282.02 531.181 284.107 531.382C292.872 532.226 311.403 533.915 315.41 533.915C319.417 533.915 322.506 533.915 322.506 532.226V520.407C322.506 517.452 319.167 517.03 319.167 518.297Z" fill="#D8B243" stroke="black"/>
<path d="M287.863 524.284C288.734 524.284 289.45 525 289.45 525.895C289.45 526.789 288.734 527.505 287.863 527.505C286.992 527.505 286.276 526.789 286.276 525.895C286.276 525 286.992 524.284 287.863 524.284Z" fill="#D8B243" stroke="black"/>
<path d="M297.045 524.284C297.916 524.284 298.632 525 298.632 525.895C298.632 526.789 297.917 527.505 297.045 527.505C296.174 527.505 295.458 526.789 295.458 525.895C295.459 525 296.174 524.284 297.045 524.284Z" fill="#D8B243" stroke="black"/>
<path d="M311.236 523.44C312.568 523.44 313.658 524.534 313.658 525.895C313.658 527.256 312.568 528.349 311.236 528.349C309.904 528.349 308.815 527.256 308.814 525.895C308.814 524.534 309.904 523.44 311.236 523.44Z" fill="#D8B243" stroke="black"/>
<path d="M326.262 163.054C326.262 156.301 320.975 150.673 318.332 148.703C317.497 152.08 308.315 152.924 303.723 151.658C298.047 149.632 290.228 153.346 287.028 155.457V168.12C287.028 173.185 299.967 176.562 303.723 174.873C310.735 171.834 316.384 174.733 318.332 176.562C320.975 174.873 326.262 169.808 326.262 163.054Z" fill="#D9B447" stroke="black"/>
<path d="M290.367 161.022C291.238 161.022 291.954 161.737 291.954 162.632C291.954 163.527 291.238 164.242 290.367 164.242C289.496 164.242 288.78 163.527 288.78 162.632C288.78 161.737 289.496 161.022 290.367 161.022Z" fill="#D9B447" stroke="black"/>
<path d="M299.55 170.308C300.421 170.308 301.137 171.024 301.137 171.918C301.137 172.813 300.421 173.529 299.55 173.529C298.679 173.529 297.963 172.813 297.963 171.918C297.963 171.024 298.679 170.308 299.55 170.308Z" fill="#D9B447" stroke="black"/>
<path d="M299.55 152.58C300.421 152.58 301.137 153.295 301.137 154.19C301.137 155.085 300.421 155.8 299.55 155.8C298.679 155.8 297.963 155.085 297.963 154.19C297.963 153.295 298.679 152.58 299.55 152.58Z" fill="#D9B447" stroke="black"/>
<path d="M330.436 645.944C330.436 639.19 325.149 633.562 322.505 631.592C321.671 634.969 313.323 634.547 308.732 633.281C306.645 630.326 294.402 633.703 291.202 635.813V651.009C291.202 656.074 304.141 659.451 307.897 657.763C314.909 654.724 320.558 657.622 322.505 659.451C325.149 657.763 330.436 652.698 330.436 645.944Z" fill="#D9B447" stroke="black"/>
<path d="M294.715 643.067C295.586 643.067 296.302 643.783 296.302 644.677C296.302 645.572 295.586 646.288 294.715 646.288C293.844 646.288 293.128 645.572 293.128 644.677C293.128 643.783 293.844 643.067 294.715 643.067Z" fill="#D9B447" stroke="black"/>
<path d="M303.724 651.931C304.595 651.931 305.31 652.647 305.311 653.542C305.311 654.436 304.595 655.152 303.724 655.152C302.853 655.152 302.137 654.436 302.137 653.542C302.137 652.647 302.853 651.931 303.724 651.931Z" fill="#D9B447" stroke="black"/>
<path d="M303.724 635.469C304.595 635.469 305.31 636.185 305.311 637.08C305.311 637.974 304.595 638.69 303.724 638.69C302.853 638.69 302.137 637.974 302.137 637.08C302.137 636.185 302.853 635.469 303.724 635.469Z" fill="#D9B447" stroke="black"/>
<path d="M267.412 154.612C266.299 154.612 264.407 158.496 265.742 168.964H268.246L265.742 197.245C263.794 197.667 258.981 198.258 255.308 197.245C254.306 192.517 253.499 176.702 253.221 169.386C252.108 166.994 250.299 160.691 251.969 154.612C253.221 152.08 256.143 151.657 258.647 151.657C261.151 151.657 267.412 151.657 268.246 154.612L267.412 154.612Z" fill="#D9B447"/>
<path d="M265.742 168.964C264.407 158.496 266.299 154.612 267.412 154.612L268.246 154.612C267.412 151.657 261.151 151.657 258.647 151.657C256.143 151.657 253.221 152.08 251.969 154.612C250.299 160.691 252.108 166.994 253.221 169.386C253.499 176.702 254.306 192.517 255.308 197.245C258.981 198.258 263.794 197.667 265.742 197.245M265.742 168.964C265.742 179.432 265.742 192.32 265.742 197.245M265.742 168.964H268.246L265.742 197.245" stroke="black"/>
<path d="M258.229 160.177C259.33 160.177 260.234 161.082 260.234 162.21C260.234 163.338 259.331 164.243 258.229 164.243C257.128 164.243 256.225 163.337 256.225 162.21C256.225 161.082 257.128 160.178 258.229 160.177Z" fill="#D9B447" stroke="black"/>
<path d="M259.481 175.373C260.352 175.373 261.068 176.089 261.068 176.984C261.068 177.878 260.353 178.594 259.481 178.594C258.61 178.594 257.895 177.878 257.895 176.984C257.895 176.089 258.61 175.373 259.481 175.373Z" fill="#D9B447" stroke="black"/>
<path d="M259.481 187.192C260.352 187.192 261.068 187.908 261.068 188.802C261.068 189.697 260.353 190.413 259.481 190.413C258.61 190.413 257.895 189.697 257.895 188.802C257.895 187.908 258.61 187.192 259.481 187.192Z" fill="#D9B447" stroke="black"/>
<path d="M269.341 651.991C268.228 651.991 266.336 646.281 267.671 635.813H270.176L267.671 609.358C265.724 608.936 260.91 608.345 257.237 609.358C256.235 614.085 255.428 628.075 255.15 635.391C254.037 637.783 252.228 645.912 253.898 651.991C255.15 654.523 258.072 654.945 260.576 654.945C263.08 654.945 269.341 654.945 270.176 651.991L269.341 651.991Z" fill="#D9B447"/>
<path d="M267.671 635.813C266.336 646.281 268.228 651.991 269.341 651.991L270.176 651.991C269.341 654.945 263.08 654.945 260.576 654.945C258.072 654.945 255.15 654.523 253.898 651.991C252.228 645.912 254.037 637.783 255.15 635.391C255.428 628.075 256.235 614.085 257.237 609.358C260.91 608.345 265.724 608.936 267.671 609.358M267.671 635.813C267.671 625.345 267.671 614.282 267.671 609.358M267.671 635.813H270.176L267.671 609.358" stroke="black"/>
<path d="M260.158 646.426C261.26 646.426 262.163 645.521 262.163 644.393C262.163 643.265 261.26 642.36 260.158 642.36C259.057 642.36 258.154 643.266 258.154 644.393C258.155 645.521 259.057 646.425 260.158 646.426Z" fill="#D9B447" stroke="black"/>
<path d="M261.411 631.229C262.282 631.229 262.997 630.514 262.998 629.619C262.998 628.724 262.282 628.009 261.411 628.009C260.54 628.009 259.824 628.724 259.824 629.619C259.824 630.514 260.54 631.229 261.411 631.229Z" fill="#D9B447" stroke="black"/>
<path d="M261.411 619.41C262.282 619.41 262.997 618.695 262.998 617.8C262.998 616.905 262.282 616.19 261.411 616.19C260.54 616.19 259.824 616.905 259.824 617.8C259.824 618.695 260.54 619.41 261.411 619.41Z" fill="#D9B447" stroke="black"/>
<path d="M59.5584 447.554L59.141 444.177C52.0456 445.021 45.785 444.599 44.1155 445.865C42.7799 446.879 42.1677 449.102 42.0286 450.087C41.8895 451.353 41.6947 454.899 42.0286 458.951C42.3625 463.003 44.3937 464.86 45.3676 465.282H57.8889C66.6538 469.081 76.6709 466.971 80.8446 465.282C85.0184 463.594 82.9315 453.041 82.5142 447.554C82.1803 443.164 79.3143 442.629 77.923 442.911C78.0621 443.614 78.3404 445.275 78.3404 446.288C68.3233 448.989 61.6453 448.257 59.5584 447.554Z" fill="#DAB445" stroke="black"/>
<path d="M50.376 454.808C51.9386 454.808 53.2148 456.091 53.2148 457.685C53.2148 459.279 51.9386 460.562 50.376 460.562C48.8134 460.562 47.5372 459.279 47.5371 457.685C47.5371 456.091 48.8134 454.808 50.376 454.808Z" fill="#DAB445" stroke="black"/>
<path d="M27.8375 447.976H42.4457C41.1101 456.756 42.724 462.328 43.6979 464.016H29.0897C26.5854 464.016 25.4029 460.217 24.9159 457.262C23.8507 450.799 25.7507 447.976 27.8375 447.976Z" fill="#DAB445" stroke="black"/>
<path d="M223.17 689.421C223.17 685.369 217.048 680.416 213.987 678.447C215.323 686.551 214.544 689.14 213.987 689.421C215.657 689.562 219.831 689.759 223.17 689.421Z" fill="#798F9C" stroke="black"/>
<path d="M132.181 672.537C113.149 675.238 94.2002 675.351 87.1048 675.069H86.27L88.3569 688.999H214.822C217.326 678.868 211.9 675.069 206.475 672.537C191.449 669.582 155.972 669.16 132.181 672.537Z" fill="#4B7494" stroke="black"/>
<path d="M61.2275 691.954H-21.4131V466.971C-11.2569 468.941 12.8118 477.692 27.8374 496.941C48.8732 533.073 56.3581 579.251 57.4711 597.824L61.2275 691.954Z" fill="#848889" stroke="black"/>
<path d="M66.2358 494.83C34.1813 447.217 -6.10948 432.78 -22.248 431.514V445.444C-17.9352 446.569 -8.89199 450.509 0.707676 456.841C34.9326 477.524 51.4885 523.815 56.6362 546.749C58.0274 554.066 62.5629 574.186 69.5748 596.136C77.0876 591.492 69.5748 538.729 66.2358 494.83Z" fill="#656668" stroke="black"/>
<path d="M60.3927 693.22C55.8016 496.941 12.3944 476.679 -23.5 469.926V459.795C-17.935 461.202 -2.54769 465.873 14.4813 473.303C54.5495 490.609 64.5665 571.653 69.575 594.447C80.2599 625.514 86.5483 673.24 88.357 693.22H60.3927Z" fill="#969C9C" stroke="black"/>
<path d="M776.417 40.9947C776.083 23.9702 792.667 1.90468 801 -7H783.083C768.75 2.41783 763.222 28.9206 762.25 40.9947L756 693.451H770.167C771.972 496.341 775.75 89.895 776.417 40.9947Z" fill="#D8B246" stroke="black"/>
<path d="M755.743 635.813H1013.68V651.853H755.743V635.813Z" fill="#D9B346" stroke="black"/>
<path d="M1007 168.964H760.334V154.612H1013.26C1054.33 154.612 1053.33 188.381 1051.25 212.441L1039.56 290.53C1035.52 324.299 1025.45 406.694 1017.44 466.127C1008.42 526.572 1015.63 571.794 1020.36 586.849C1019.25 590.226 1016.02 599.934 1012.01 611.753C987.303 596.895 989.195 532.679 993.23 502.428C1004.5 420.821 1028.37 247.391 1033.72 206.531C1038.39 175.464 1017.86 168.542 1007 168.964Z" fill="#D9B346" stroke="black"/>
<path d="M760.334 286.731L795.394 289.686C799.15 290.108 799.567 291.375 799.567 293.063V296.018C799.567 299.395 797.48 299.616 795.394 299.817C786.629 300.661 768.097 302.349 764.09 302.349C760.084 302.349 756.995 302.349 756.995 300.661V288.842C756.995 285.887 760.334 285.465 760.334 286.731Z" fill="#D8B243" stroke="black"/>
<path d="M791.637 292.719C790.766 292.719 790.05 293.435 790.05 294.329C790.05 295.224 790.766 295.94 791.637 295.94C792.508 295.94 793.224 295.224 793.224 294.329C793.224 293.435 792.508 292.719 791.637 292.719Z" fill="#D8B243" stroke="black"/>
<path d="M782.455 292.719C781.584 292.719 780.868 293.435 780.868 294.329C780.868 295.224 781.584 295.94 782.455 295.94C783.326 295.94 784.042 295.224 784.042 294.329C784.042 293.435 783.326 292.719 782.455 292.719Z" fill="#D8B243" stroke="black"/>
<path d="M768.264 291.875C766.932 291.875 765.842 292.969 765.842 294.33C765.842 295.691 766.932 296.784 768.264 296.784C769.596 296.784 770.685 295.691 770.686 294.33C770.686 292.969 769.596 291.875 768.264 291.875Z" fill="#D8B243" stroke="black"/>
<path d="M760.334 406.017L795.394 408.971C799.15 409.393 799.567 410.66 799.567 412.348V415.303C799.567 418.68 797.48 418.901 795.394 419.102C786.629 419.946 768.097 421.635 764.09 421.635C760.084 421.635 756.995 421.635 756.995 419.946V408.127C756.995 405.172 760.334 404.75 760.334 406.017Z" fill="#D8B243" stroke="black"/>
<path d="M791.637 412.004C790.766 412.004 790.05 412.719 790.05 413.614C790.05 414.509 790.766 415.224 791.637 415.224C792.508 415.224 793.224 414.509 793.224 413.614C793.224 412.719 792.508 412.004 791.637 412.004Z" fill="#D8B243" stroke="black"/>
<path d="M782.455 412.004C781.584 412.004 780.868 412.719 780.868 413.614C780.868 414.509 781.584 415.224 782.455 415.224C783.326 415.224 784.042 414.509 784.042 413.614C784.042 412.719 783.326 412.004 782.455 412.004Z" fill="#D8B243" stroke="black"/>
<path d="M768.264 411.16C766.932 411.16 765.842 412.254 765.842 413.615C765.842 414.976 766.932 416.069 768.264 416.069C769.596 416.069 770.685 414.976 770.686 413.615C770.686 412.254 769.596 411.16 768.264 411.16Z" fill="#D8B243" stroke="black"/>
<path d="M760.334 518.297L795.394 521.251C799.15 521.674 799.567 522.94 799.567 524.628V527.583C799.567 530.96 797.48 531.181 795.394 531.382C786.629 532.226 768.097 533.915 764.09 533.915C760.084 533.915 756.995 533.915 756.995 532.226V520.407C756.995 517.452 760.334 517.03 760.334 518.297Z" fill="#D8B243" stroke="black"/>
<path d="M791.637 524.284C790.766 524.284 790.05 525 790.05 525.895C790.05 526.789 790.766 527.505 791.637 527.505C792.508 527.505 793.224 526.789 793.224 525.895C793.224 525 792.508 524.284 791.637 524.284Z" fill="#D8B243" stroke="black"/>
<path d="M782.455 524.284C781.584 524.284 780.868 525 780.868 525.895C780.868 526.789 781.584 527.505 782.455 527.505C783.326 527.505 784.042 526.789 784.042 525.895C784.042 525 783.326 524.284 782.455 524.284Z" fill="#D8B243" stroke="black"/>
<path d="M768.264 523.44C766.932 523.44 765.842 524.534 765.842 525.895C765.842 527.256 766.932 528.349 768.264 528.349C769.596 528.349 770.685 527.256 770.686 525.895C770.686 524.534 769.596 523.44 768.264 523.44Z" fill="#D8B243" stroke="black"/>
<path d="M753.238 163.054C753.238 156.301 758.525 150.673 761.168 148.703C762.003 152.08 771.185 152.924 775.777 151.658C781.453 149.632 789.272 153.346 792.472 155.457V168.12C792.472 173.185 779.533 176.562 775.777 174.873C768.765 171.834 763.116 174.733 761.168 176.562C758.525 174.873 753.238 169.808 753.238 163.054Z" fill="#D9B447" stroke="black"/>
<path d="M789.133 161.022C788.262 161.022 787.546 161.737 787.546 162.632C787.546 163.527 788.262 164.242 789.133 164.242C790.004 164.242 790.72 163.527 790.72 162.632C790.72 161.737 790.004 161.022 789.133 161.022Z" fill="#D9B447" stroke="black"/>
<path d="M779.95 170.308C779.079 170.308 778.363 171.024 778.363 171.918C778.363 172.813 779.079 173.529 779.95 173.529C780.821 173.529 781.537 172.813 781.537 171.918C781.537 171.024 780.821 170.308 779.95 170.308Z" fill="#D9B447" stroke="black"/>
<path d="M779.95 152.58C779.079 152.58 778.363 153.295 778.363 154.19C778.363 155.085 779.079 155.8 779.95 155.8C780.821 155.8 781.537 155.085 781.537 154.19C781.537 153.295 780.821 152.58 779.95 152.58Z" fill="#D9B447" stroke="black"/>
<path d="M749.064 645.944C749.064 639.19 754.351 633.562 756.995 631.592C757.829 634.969 766.177 634.547 770.768 633.281C772.855 630.326 785.098 633.703 788.298 635.813V651.009C788.298 656.074 775.359 659.451 771.603 657.763C764.591 654.724 758.942 657.622 756.995 659.451C754.351 657.763 749.064 652.698 749.064 645.944Z" fill="#D9B447" stroke="black"/>
<path d="M784.785 643.067C783.914 643.067 783.198 643.783 783.198 644.677C783.198 645.572 783.914 646.288 784.785 646.288C785.656 646.288 786.372 645.572 786.372 644.677C786.372 643.783 785.656 643.067 784.785 643.067Z" fill="#D9B447" stroke="black"/>
<path d="M775.776 651.931C774.905 651.931 774.19 652.647 774.189 653.542C774.189 654.436 774.905 655.152 775.776 655.152C776.647 655.152 777.363 654.436 777.363 653.542C777.363 652.647 776.647 651.931 775.776 651.931Z" fill="#D9B447" stroke="black"/>
<path d="M775.776 635.469C774.905 635.469 774.19 636.185 774.189 637.08C774.189 637.974 774.905 638.69 775.776 638.69C776.647 638.69 777.363 637.974 777.363 637.08C777.363 636.185 776.647 635.469 775.776 635.469Z" fill="#D9B447" stroke="black"/>
<path d="M812.089 154.612C813.202 154.612 815.094 158.496 813.758 168.964H811.254L813.758 197.245C815.706 197.667 820.52 198.258 824.193 197.245C825.194 192.517 826.001 176.702 826.28 169.386C827.393 166.994 829.201 160.691 827.532 154.612C826.28 152.08 823.358 151.657 820.854 151.657C818.349 151.657 812.089 151.657 811.254 154.612L812.089 154.612Z" fill="#D9B447"/>
<path d="M813.758 168.964C815.094 158.496 813.202 154.612 812.089 154.612L811.254 154.612C812.089 151.657 818.349 151.657 820.854 151.657C823.358 151.657 826.28 152.08 827.532 154.612C829.201 160.691 827.393 166.994 826.28 169.386C826.001 176.702 825.194 192.517 824.193 197.245C820.52 198.258 815.706 197.667 813.758 197.245M813.758 168.964C813.758 179.432 813.758 192.32 813.758 197.245M813.758 168.964H811.254L813.758 197.245" stroke="black"/>
<path d="M821.271 160.177C820.17 160.177 819.267 161.082 819.267 162.21C819.267 163.338 820.17 164.243 821.271 164.243C822.373 164.243 823.275 163.337 823.275 162.21C823.275 161.082 822.373 160.178 821.271 160.177Z" fill="#D9B447" stroke="black"/>
<path d="M820.019 175.373C819.148 175.373 818.432 176.089 818.432 176.984C818.432 177.878 819.148 178.594 820.019 178.594C820.89 178.594 821.606 177.878 821.606 176.984C821.606 176.089 820.89 175.373 820.019 175.373Z" fill="#D9B447" stroke="black"/>
<path d="M820.019 187.192C819.148 187.192 818.432 187.908 818.432 188.802C818.432 189.697 819.148 190.413 820.019 190.413C820.89 190.413 821.606 189.697 821.606 188.802C821.606 187.908 820.89 187.192 820.019 187.192Z" fill="#D9B447" stroke="black"/>
<path d="M810.16 651.991C811.273 651.991 813.165 646.281 811.829 635.813H809.325L811.829 609.358C813.777 608.936 818.591 608.345 822.264 609.358C823.265 614.085 824.072 628.075 824.35 635.391C825.463 637.783 827.272 645.912 825.603 651.991C824.35 654.523 821.429 654.945 818.924 654.945C816.42 654.945 810.16 654.945 809.325 651.991L810.16 651.991Z" fill="#D9B447"/>
<path d="M811.829 635.813C813.165 646.281 811.273 651.991 810.16 651.991L809.325 651.991C810.16 654.945 816.42 654.945 818.924 654.945C821.429 654.945 824.35 654.523 825.603 651.991C827.272 645.912 825.463 637.783 824.35 635.391C824.072 628.075 823.265 614.085 822.264 609.358C818.591 608.345 813.777 608.936 811.829 609.358M811.829 635.813C811.829 625.345 811.829 614.282 811.829 609.358M811.829 635.813H809.325L811.829 609.358" stroke="black"/>
<path d="M819.342 646.426C818.241 646.426 817.338 645.521 817.337 644.393C817.337 643.265 818.241 642.36 819.342 642.36C820.444 642.36 821.346 643.266 821.346 644.393C821.346 645.521 820.444 646.425 819.342 646.426Z" fill="#D9B447" stroke="black"/>
<path d="M818.09 631.229C817.219 631.229 816.503 630.514 816.503 629.619C816.503 628.724 817.219 628.009 818.09 628.009C818.961 628.009 819.677 628.724 819.677 629.619C819.677 630.514 818.961 631.229 818.09 631.229Z" fill="#D9B447" stroke="black"/>
<path d="M818.09 619.41C817.219 619.41 816.503 618.695 816.503 617.8C816.503 616.905 817.219 616.19 818.09 616.19C818.961 616.19 819.677 616.905 819.677 617.8C819.677 618.695 818.961 619.41 818.09 619.41Z" fill="#D9B447" stroke="black"/>
<path d="M1019.94 447.554L1020.36 444.177C1027.45 445.021 1033.72 444.599 1035.39 445.865C1036.72 446.879 1037.33 449.102 1037.47 450.087C1037.61 451.353 1037.81 454.899 1037.47 458.951C1037.14 463.003 1035.11 464.86 1034.13 465.282H1021.61C1012.85 469.081 1002.83 466.971 998.656 465.282C994.482 463.594 996.569 453.041 996.986 447.554C997.32 443.164 1000.19 442.629 1001.58 442.911C1001.44 443.614 1001.16 445.275 1001.16 446.288C1011.18 448.989 1017.86 448.257 1019.94 447.554Z" fill="#DAB445" stroke="black"/>
<path d="M1029.12 454.808C1027.56 454.808 1026.29 456.091 1026.29 457.685C1026.29 459.279 1027.56 460.562 1029.12 460.562C1030.69 460.562 1031.96 459.279 1031.96 457.685C1031.96 456.091 1030.69 454.808 1029.12 454.808Z" fill="#DAB445" stroke="black"/>
<path d="M1051.66 447.976H1037.05C1038.39 456.756 1036.78 462.328 1035.8 464.016H1050.41C1052.92 464.016 1054.1 460.217 1054.58 457.262C1055.65 450.799 1053.75 447.976 1051.66 447.976Z" fill="#DAB445" stroke="black"/>
<path d="M856.33 689.421C856.33 685.369 862.452 680.416 865.513 678.447C864.177 686.551 864.956 689.14 865.513 689.421C863.843 689.562 859.669 689.759 856.33 689.421Z" fill="#798F9C" stroke="black"/>
<path d="M947.319 672.537C966.351 675.238 985.3 675.351 992.395 675.069H993.23L991.143 688.999H864.678C862.174 678.868 867.6 675.069 873.025 672.537C888.051 669.582 923.528 669.16 947.319 672.537Z" fill="#4B7494" stroke="black"/>
<path d="M1018.27 691.954H1100.91V466.971C1090.76 468.941 1066.69 477.692 1051.66 496.941C1030.63 533.073 1023.14 579.251 1022.03 597.824L1018.27 691.954Z" fill="#848889" stroke="black"/>
<path d="M1013.26 494.83C1045.32 447.217 1085.61 432.78 1101.75 431.514V445.444C1097.44 446.569 1088.39 450.509 1078.79 456.841C1044.57 477.524 1028.01 523.815 1022.86 546.749C1021.47 554.066 1016.94 574.186 1009.93 596.136C1002.41 591.492 1009.93 538.729 1013.26 494.83Z" fill="#656668" stroke="black"/>
<path d="M1019.11 693.22C1023.7 496.941 1067.11 476.679 1103 469.926V459.795C1097.43 461.202 1082.05 465.873 1065.02 473.303C1024.95 490.609 1014.93 571.653 1009.92 594.447C999.24 625.514 992.952 673.24 991.143 693.22H1019.11Z" fill="#969C9C" stroke="black"/>
<path d="M440.549 580.63C392.021 561.298 372.354 643.639 368.586 687.226V690.868H712.201C712.201 662.398 688.842 565.071 642.499 584.934C604.068 583.5 509.875 580.63 440.549 580.63Z" fill="#5A5A5A" stroke="black"/>
<rect x="421.711" y="634.212" width="238.873" height="55.8746" fill="#333334"/>
<g clip-path="url(#clip0_2041_138)">
<path d="M408.296 661.444H403.865V665.266H408.296V661.444Z" fill="#818181" stroke="black" stroke-width="0.5" stroke-miterlimit="10"/>
<path d="M674.653 661.683H670.222V665.505H674.653V661.683Z" fill="#818181" stroke="black" stroke-width="0.5" stroke-miterlimit="10"/>
<path d="M665.972 668.562H409.543C404.955 668.601 402.92 666.451 404.117 663.889L438.34 590.461C438.996 589.053 442.172 587.927 445.441 587.927H633.099C636.371 587.927 639.547 589.053 640.2 590.461L674.423 663.889C675.617 666.451 672.95 668.562 665.972 668.562Z" fill="#818181" stroke="black" stroke-miterlimit="10"/>
<path d="M668.491 664.976H410.132C405.63 664.976 402.963 662.866 404.157 660.303L438.379 586.876C439.036 585.468 442.212 584.341 445.48 584.341H633.139C636.41 584.341 639.586 585.468 640.24 586.876L674.463 660.303C675.656 662.866 672.99 664.976 668.488 664.976H668.491Z" fill="#C5C7C6" stroke="black" stroke-miterlimit="10"/>
<path d="M587.753 662.321H490.867C487.761 662.321 485.512 660.876 485.84 659.112L491.597 628.018C491.855 626.63 494.261 625.517 496.974 625.517H581.649C584.362 625.517 586.768 626.633 587.026 628.018L592.782 659.112C593.108 660.876 590.858 662.321 587.756 662.321H587.753Z" fill="#747675" stroke="black" stroke-miterlimit="10"/>
<path d="M643.109 623.91H435.869C433.485 623.91 431.963 622.946 432.463 621.766L446.07 589.742C446.447 588.851 448.414 588.135 450.461 588.135H628.465C630.512 588.135 632.479 588.851 632.86 589.742L646.513 621.766C647.016 622.946 645.494 623.91 643.109 623.91Z" fill="#A8ADBD" stroke="black" stroke-width="0.5" stroke-miterlimit="10"/>
<path d="M457.958 591.751H448.159C447.361 591.751 446.834 591.467 446.978 591.122L447.65 589.517C447.794 589.174 448.546 588.899 449.335 588.899H459.007C459.796 588.899 460.333 589.174 460.21 589.517L459.63 591.122C459.504 591.47 458.756 591.751 457.958 591.751Z" fill="#747675" stroke="black" stroke-width="0.5" stroke-miterlimit="10"/>
<path d="M471.678 591.751H461.879C461.082 591.751 460.535 591.467 460.661 591.122L461.232 589.517C461.355 589.174 462.091 588.899 462.877 588.899H472.549C473.338 588.899 473.893 589.174 473.789 589.517L473.31 591.122C473.206 591.47 472.476 591.751 471.678 591.751Z" fill="#747675" stroke="black" stroke-width="0.5" stroke-miterlimit="10"/>
<path d="M485.503 591.751H475.704C474.906 591.751 474.342 591.467 474.446 591.122L474.919 589.517C475.02 589.174 475.738 588.899 476.527 588.899H486.199C486.988 588.899 487.559 589.174 487.479 589.517L487.098 591.122C487.016 591.47 486.304 591.751 485.506 591.751H485.503Z" fill="#747675" stroke="black" stroke-width="0.5" stroke-miterlimit="10"/>
<path d="M499.272 591.751H489.473C488.676 591.751 488.096 591.467 488.175 591.122L488.547 589.517C488.626 589.174 489.329 588.899 490.115 588.899H499.787C500.576 588.899 501.165 589.174 501.104 589.517L500.825 591.122C500.763 591.47 500.07 591.751 499.272 591.751Z" fill="#747675" stroke="black" stroke-width="0.5" stroke-miterlimit="10"/>
<path d="M512.992 591.751H503.194C502.396 591.751 501.798 591.467 501.856 591.122L502.129 589.517C502.187 589.174 502.872 588.899 503.66 588.899H513.333C514.122 588.899 514.726 589.174 514.689 589.517L514.508 591.122C514.468 591.47 513.79 591.751 512.992 591.751Z" fill="#747675" stroke="black" stroke-width="0.5" stroke-miterlimit="10"/>
<path d="M526.817 591.751H517.019C516.221 591.751 515.604 591.467 515.641 591.122L515.813 589.517C515.849 589.174 516.518 588.899 517.304 588.899H526.977C527.765 588.899 528.388 589.174 528.373 589.517L528.293 591.122C528.275 591.47 527.615 591.751 526.817 591.751Z" fill="#747675" stroke="black" stroke-width="0.5" stroke-miterlimit="10"/>
<path d="M540.743 591.751H530.944C530.147 591.751 529.511 591.467 529.527 591.122L529.597 589.517C529.613 589.174 530.263 588.899 531.049 588.899H540.721C541.51 588.899 542.151 589.174 542.154 589.517L542.176 591.122C542.179 591.47 541.538 591.751 540.74 591.751H540.743Z" fill="#747675" stroke="black" stroke-width="0.5" stroke-miterlimit="10"/>
<path d="M554.463 591.751H544.665C543.867 591.751 543.216 591.467 543.21 591.122L543.183 589.517C543.177 589.174 543.809 588.899 544.597 588.899H554.27C555.059 588.899 555.715 589.174 555.743 589.517L555.863 591.122C555.887 591.47 555.264 591.751 554.466 591.751H554.463Z" fill="#747675" stroke="black" stroke-width="0.5" stroke-miterlimit="10"/>
<path d="M568.285 591.751H558.486C557.688 591.751 557.019 591.467 556.992 591.122L556.863 589.517C556.835 589.174 557.452 588.899 558.237 588.899H567.91C568.699 588.899 569.374 589.174 569.42 589.517L569.641 591.122C569.69 591.47 569.082 591.751 568.285 591.751Z" fill="#747675" stroke="black" stroke-width="0.5" stroke-miterlimit="10"/>
<path d="M582.21 591.751H572.412C571.614 591.751 570.927 591.467 570.878 591.122L570.647 589.517C570.598 589.174 571.197 588.899 571.985 588.899H581.658C582.447 588.899 583.14 589.174 583.208 589.517L583.53 591.122C583.6 591.47 583.008 591.751 582.213 591.751H582.21Z" fill="#747675" stroke="black" stroke-width="0.5" stroke-miterlimit="10"/>
<path d="M595.931 591.751H586.133C585.335 591.751 584.632 591.467 584.558 591.122L584.23 589.517C584.159 589.174 584.742 588.899 585.528 588.899H595.201C595.989 588.899 596.698 589.174 596.787 589.517L597.208 591.122C597.3 591.47 596.726 591.751 595.928 591.751H595.931Z" fill="#747675" stroke="black" stroke-width="0.5" stroke-miterlimit="10"/>
<path d="M609.755 591.751H599.957C599.159 591.751 598.438 591.467 598.343 591.122L597.913 589.517C597.821 589.174 598.386 588.899 599.174 588.899H608.847C609.636 588.899 610.363 589.174 610.473 589.517L610.995 591.122C611.109 591.47 610.553 591.751 609.755 591.751Z" fill="#747675" stroke="black" stroke-width="0.5" stroke-miterlimit="10"/>
<path d="M623.475 591.751H613.677C612.879 591.751 612.14 591.467 612.026 591.122L611.498 589.517C611.385 589.174 611.934 588.899 612.72 588.899H622.392C623.181 588.899 623.924 589.174 624.055 589.517L624.675 591.122C624.81 591.47 624.273 591.751 623.475 591.751Z" fill="#747675" stroke="black" stroke-width="0.5" stroke-miterlimit="10"/>
<path d="M631.417 591.751H627.6C626.83 591.751 626.099 591.479 625.967 591.144L625.32 589.495C625.191 589.166 625.7 588.899 626.461 588.899H630.23C630.988 588.899 631.718 589.166 631.856 589.495L632.553 591.144C632.694 591.479 632.184 591.751 631.417 591.751Z" fill="#747675" stroke="black" stroke-width="0.5" stroke-miterlimit="10"/>
<path d="M633.765 597.399H617.58C616.792 597.399 616.055 597.113 615.936 596.761L614.601 592.819C614.487 592.479 615.018 592.206 615.788 592.206H631.605C632.375 592.206 633.114 592.482 633.259 592.819L634.925 596.761C635.075 597.113 634.557 597.399 633.768 597.399H633.765Z" fill="#747675" stroke="black" stroke-width="0.5" stroke-miterlimit="10"/>
<path d="M613.53 597.304H604.542C603.636 597.304 602.811 596.975 602.697 596.57L601.672 592.909C601.562 592.518 602.191 592.204 603.078 592.204H611.863C612.747 592.204 613.57 592.518 613.702 592.909L614.926 596.57C615.061 596.975 614.438 597.304 613.533 597.304H613.53Z" fill="#747675" stroke="black" stroke-width="0.5" stroke-miterlimit="10"/>
<path d="M600.313 597.304H591.324C590.419 597.304 589.612 596.975 589.523 596.57L588.71 592.909C588.624 592.518 589.271 592.204 590.155 592.204H598.941C599.825 592.204 600.629 592.518 600.736 592.909L601.746 596.57C601.856 596.975 601.215 597.304 600.31 597.304H600.313Z" fill="#747675" stroke="black" stroke-width="0.5" stroke-miterlimit="10"/>
<path d="M587.21 597.352H578.218C577.313 597.352 576.524 597.023 576.46 596.618L575.858 592.954C575.794 592.563 576.46 592.249 577.344 592.249H586.132C587.016 592.249 587.805 592.563 587.888 592.954L588.689 596.618C588.778 597.023 588.115 597.352 587.21 597.352Z" fill="#747675" stroke="black" stroke-width="0.5" stroke-miterlimit="10"/>
<path d="M573.986 597.329H564.998C564.093 597.329 563.322 597 563.282 596.596L562.896 592.931C562.856 592.541 563.537 592.226 564.424 592.226H573.21C574.093 592.226 574.864 592.541 574.925 592.931L575.511 596.596C575.576 597 574.894 597.329 573.989 597.329H573.986Z" fill="#747675" stroke="black" stroke-width="0.5" stroke-miterlimit="10"/>
<path d="M560.766 597.329H551.778C550.873 597.329 550.124 597 550.103 596.596L549.928 592.931C549.909 592.541 550.612 592.226 551.496 592.226H560.281C561.165 592.226 561.917 592.541 561.957 592.931L562.328 596.596C562.368 597 561.669 597.329 560.763 597.329H560.766Z" fill="#747675" stroke="black" stroke-width="0.5" stroke-miterlimit="10"/>
<path d="M547.654 597.377H538.662C537.757 597.377 537.027 597.048 537.03 596.643L537.067 592.979C537.07 592.588 537.791 592.274 538.678 592.274H547.467C548.35 592.274 549.084 592.588 549.099 592.979L549.262 596.643C549.28 597.048 548.559 597.377 547.654 597.377Z" fill="#747675" stroke="black" stroke-width="0.5" stroke-miterlimit="10"/>
<path d="M534.114 597.352H525.123C524.218 597.352 523.506 597.023 523.533 596.618L523.788 592.954C523.816 592.563 524.555 592.249 525.439 592.249H534.228C535.112 592.249 535.827 592.563 535.821 592.954L535.762 596.618C535.756 597.023 535.017 597.352 534.111 597.352H534.114Z" fill="#747675" stroke="black" stroke-width="0.5" stroke-miterlimit="10"/>
<path d="M520.894 597.352H511.903C510.998 597.352 510.304 597.023 510.356 596.618L510.826 592.954C510.875 592.563 511.633 592.249 512.52 592.249H521.309C522.192 592.249 522.889 592.563 522.858 592.954L522.588 596.618C522.558 597.023 521.8 597.352 520.894 597.352Z" fill="#747675" stroke="black" stroke-width="0.5" stroke-miterlimit="10"/>
<path d="M507.773 597.399H498.781C497.876 597.399 497.204 597.071 497.277 596.666L497.959 592.999C498.032 592.608 498.809 592.293 499.693 592.293H508.481C509.365 592.293 510.043 592.608 509.991 592.999L509.509 596.666C509.457 597.071 508.678 597.399 507.773 597.399Z" fill="#747675" stroke="black" stroke-width="0.5" stroke-miterlimit="10"/>
<path d="M494.497 597.377H485.506C484.6 597.377 483.947 597.048 484.045 596.643L484.941 592.979C485.036 592.588 485.831 592.274 486.715 592.274H495.504C496.387 592.274 497.047 592.588 496.973 592.979L496.277 596.643C496.2 597.048 495.402 597.377 494.497 597.377Z" fill="#747675" stroke="black" stroke-width="0.5" stroke-miterlimit="10"/>
<path d="M481.277 597.377H472.285C471.38 597.377 470.745 597.048 470.868 596.643L471.976 592.979C472.092 592.588 472.905 592.274 473.792 592.274H482.581C483.465 592.274 484.106 592.588 484.008 592.979L483.097 596.643C482.995 597.048 482.179 597.377 481.274 597.377H481.277Z" fill="#747675" stroke="black" stroke-width="0.5" stroke-miterlimit="10"/>
<path d="M468.146 597.422H459.151C458.246 597.422 457.629 597.093 457.777 596.688L459.096 593.021C459.237 592.631 460.069 592.316 460.953 592.316H469.745C470.628 592.316 471.251 592.631 471.132 593.021L470.009 596.688C469.886 597.093 469.051 597.422 468.143 597.422H468.146Z" fill="#747675" stroke="black" stroke-width="0.5" stroke-miterlimit="10"/>
<path d="M455.012 597.329H446.024C445.118 597.329 444.523 597 444.692 596.596L446.223 592.931C446.386 592.541 447.236 592.226 448.119 592.226H456.905C457.789 592.226 458.394 592.541 458.252 592.931L456.917 596.596C456.77 597 455.917 597.329 455.012 597.329Z" fill="#747675" stroke="black" stroke-width="0.5" stroke-miterlimit="10"/>
<path d="M459.471 603.292H443.624C442.663 603.292 442.037 602.935 442.222 602.494L443.833 598.639C444.011 598.214 444.913 597.874 445.849 597.874H461.327C462.263 597.874 462.908 598.217 462.767 598.639L461.475 602.494C461.327 602.932 460.431 603.292 459.471 603.292Z" fill="#747675" stroke="black" stroke-width="0.5" stroke-miterlimit="10"/>
<path d="M472.93 603.292H463.92C462.96 603.292 462.303 602.935 462.447 602.494L463.724 598.639C463.865 598.214 464.736 597.874 465.672 597.874H474.47C475.406 597.874 476.072 598.217 475.956 598.639L474.885 602.494C474.762 602.932 473.887 603.292 472.927 603.292H472.93Z" fill="#747675" stroke="black" stroke-width="0.5" stroke-miterlimit="10"/>
<path d="M486.497 603.292H477.487C476.527 603.292 475.849 602.935 475.968 602.494L477.021 598.639C477.137 598.214 477.991 597.874 478.927 597.874H487.725C488.661 597.874 489.345 598.217 489.253 598.639L488.409 602.494C488.314 602.932 487.458 603.292 486.497 603.292Z" fill="#747675" stroke="black" stroke-width="0.5" stroke-miterlimit="10"/>
<path d="M500.064 603.292H491.054C490.094 603.292 489.394 602.935 489.489 602.494L490.318 598.639C490.41 598.214 491.241 597.874 492.177 597.874H500.975C501.911 597.874 502.617 598.217 502.55 598.639L501.93 602.494C501.859 602.932 501.024 603.292 500.064 603.292Z" fill="#747675" stroke="black" stroke-width="0.5" stroke-miterlimit="10"/>
<path d="M513.631 603.292H504.621C503.66 603.292 502.939 602.935 503.01 602.494L503.611 598.639C503.679 598.214 504.489 597.874 505.428 597.874H514.226C515.162 597.874 515.886 598.217 515.843 598.639L515.447 602.494C515.401 602.932 514.588 603.292 513.627 603.292H513.631Z" fill="#747675" stroke="black" stroke-width="0.5" stroke-miterlimit="10"/>
<path d="M527.087 603.292H518.077C517.117 603.292 516.377 602.935 516.42 602.494L516.801 598.639C516.844 598.214 517.635 597.874 518.571 597.874H527.369C528.305 597.874 529.051 598.217 529.03 598.639L528.855 602.494C528.836 602.932 528.042 603.292 527.081 603.292H527.087Z" fill="#747675" stroke="black" stroke-width="0.5" stroke-miterlimit="10"/>
<path d="M540.654 603.292H531.644C530.683 603.292 529.922 602.935 529.941 602.494L530.097 598.639C530.116 598.214 530.889 597.874 531.825 597.874H540.623C541.559 597.874 542.323 598.217 542.329 598.639L542.381 602.494C542.388 602.932 541.614 603.292 540.657 603.292H540.654Z" fill="#747675" stroke="black" stroke-width="0.5" stroke-miterlimit="10"/>
<path d="M554.438 603.292H545.429C544.468 603.292 543.685 602.935 543.676 602.494L543.603 598.639C543.593 598.214 544.348 597.874 545.284 597.874H554.082C555.018 597.874 555.804 598.217 555.835 598.639L556.114 602.494C556.145 602.932 555.393 603.292 554.435 603.292H554.438Z" fill="#747675" stroke="black" stroke-width="0.5" stroke-miterlimit="10"/>
<path d="M568.005 603.292H558.995C558.035 603.292 557.231 602.935 557.197 602.494L556.9 598.639C556.866 598.214 557.599 597.874 558.538 597.874H567.336C568.272 597.874 569.076 598.217 569.132 598.639L569.635 602.494C569.693 602.932 568.963 603.292 568.002 603.292H568.005Z" fill="#747675" stroke="black" stroke-width="0.5" stroke-miterlimit="10"/>
<path d="M581.572 603.292H572.563C571.602 603.292 570.777 602.935 570.718 602.494L570.197 598.639C570.138 598.214 570.853 597.874 571.789 597.874H580.587C581.523 597.874 582.349 598.217 582.429 598.639L583.156 602.494C583.239 602.932 582.53 603.292 581.569 603.292H581.572Z" fill="#747675" stroke="black" stroke-width="0.5" stroke-miterlimit="10"/>
<path d="M595.139 603.292H586.129C585.169 603.292 584.325 602.935 584.239 602.494L583.493 598.639C583.41 598.214 584.104 597.874 585.04 597.874H593.838C594.774 597.874 595.618 598.217 595.722 598.639L596.673 602.494C596.781 602.932 596.093 603.292 595.133 603.292H595.139Z" fill="#747675" stroke="black" stroke-width="0.5" stroke-miterlimit="10"/>
<path d="M608.596 603.292H599.586C598.625 603.292 597.76 602.935 597.649 602.494L596.68 598.639C596.572 598.214 597.247 597.874 598.183 597.874H606.981C607.917 597.874 608.783 598.217 608.912 598.639L610.087 602.494C610.222 602.932 609.553 603.292 608.592 603.292H608.596Z" fill="#747675" stroke="black" stroke-width="0.5" stroke-miterlimit="10"/>
<path d="M622.162 603.292H613.153C612.192 603.292 611.305 602.935 611.17 602.494L609.976 598.639C609.844 598.214 610.498 597.874 611.437 597.874H620.235C621.171 597.874 622.055 598.217 622.208 598.639L623.608 602.494C623.767 602.932 623.12 603.292 622.159 603.292H622.162Z" fill="#747675" stroke="black" stroke-width="0.5" stroke-miterlimit="10"/>
<path d="M637.368 602.545L635.698 598.591C635.53 598.195 634.683 597.874 633.805 597.874H624.583C623.706 597.874 623.11 598.195 623.258 598.591L624.712 602.545C624.863 602.958 625.716 603.292 626.615 603.292H627.591C628.088 603.292 628.536 603.483 628.622 603.714C628.622 603.714 628.622 603.716 628.622 603.719L630.524 608.687C630.709 609.165 631.678 609.553 632.694 609.553H638.491C639.507 609.553 640.166 609.165 639.964 608.687L637.865 603.719C637.85 603.683 637.831 603.649 637.807 603.615C637.576 603.284 637.46 602.952 637.392 602.62C637.386 602.595 637.38 602.57 637.368 602.545Z" fill="#747675" stroke="black" stroke-width="0.5" stroke-miterlimit="10"/>
<path d="M460.668 609.553H441.163C440.116 609.553 439.435 609.154 439.641 608.659L441.298 604.7C441.497 604.225 442.485 603.843 443.504 603.843H462.543C463.564 603.843 464.27 604.225 464.117 604.7L462.846 608.659C462.69 609.151 461.711 609.553 460.664 609.553H460.668Z" fill="#747675" stroke="black" stroke-width="0.5" stroke-miterlimit="10"/>
<path d="M474.572 609.449H465.66C464.583 609.449 463.841 609.036 464 608.53L465.203 604.725C465.356 604.236 466.335 603.843 467.385 603.843H476.088C477.14 603.843 477.889 604.236 477.76 604.725L476.76 608.53C476.628 609.036 475.646 609.449 474.569 609.449H474.572Z" fill="#747675" stroke="black" stroke-width="0.5" stroke-miterlimit="10"/>
<path d="M488.387 609.449H479.476C478.399 609.449 477.631 609.036 477.763 608.53L478.745 604.725C478.871 604.236 479.825 603.843 480.878 603.843H489.581C490.634 603.843 491.404 604.236 491.306 604.725L490.526 608.53C490.422 609.036 489.464 609.449 488.387 609.449Z" fill="#747675" stroke="black" stroke-width="0.5" stroke-miterlimit="10"/>
<path d="M502.359 609.499H493.444C492.367 609.499 491.575 609.086 491.677 608.581L492.438 604.776C492.536 604.287 493.466 603.893 494.518 603.893H503.224C504.277 603.893 505.072 604.287 504.998 604.776L504.443 608.581C504.369 609.086 503.436 609.499 502.359 609.499Z" fill="#747675" stroke="black" stroke-width="0.5" stroke-miterlimit="10"/>
<path d="M516.178 609.499H507.263C506.186 609.499 505.373 609.086 505.443 608.581L505.983 604.776C506.054 604.287 506.962 603.893 508.012 603.893H516.718C517.77 603.893 518.587 604.287 518.544 604.776L518.206 608.581C518.16 609.086 517.252 609.499 516.175 609.499H516.178Z" fill="#747675" stroke="black" stroke-width="0.5" stroke-miterlimit="10"/>
<path d="M530.156 609.556H521.241C520.164 609.556 519.326 609.143 519.366 608.637L519.685 604.829C519.725 604.34 520.612 603.947 521.665 603.947H530.371C531.423 603.947 532.264 604.34 532.249 604.829L532.135 608.637C532.12 609.143 531.233 609.556 530.156 609.556Z" fill="#747675" stroke="black" stroke-width="0.5" stroke-miterlimit="10"/>
<path d="M543.974 609.556H535.06C533.982 609.556 533.12 609.143 533.132 608.637L533.231 604.829C533.243 604.34 534.105 603.947 535.158 603.947H543.864C544.916 603.947 545.779 604.34 545.794 604.829L545.898 608.637C545.914 609.143 545.051 609.556 543.974 609.556Z" fill="#747675" stroke="black" stroke-width="0.5" stroke-miterlimit="10"/>
<path d="M558.351 609.5H549.102C548.117 609.5 547.307 609.123 547.292 608.659L547.156 604.599C547.141 604.152 547.908 603.792 548.869 603.792H557.897C558.858 603.792 559.668 604.152 559.708 604.599L560.06 608.659C560.1 609.123 559.336 609.5 558.351 609.5Z" fill="#747675" stroke="black" stroke-width="0.5" stroke-miterlimit="10"/>
<path d="M572.28 609.5H563.031C562.046 609.5 561.214 609.123 561.171 608.659L560.8 604.599C560.76 604.152 561.506 603.792 562.466 603.792H571.494C572.455 603.792 573.287 604.152 573.351 604.599L573.94 608.659C574.008 609.123 573.265 609.5 572.28 609.5Z" fill="#747675" stroke="black" stroke-width="0.5" stroke-miterlimit="10"/>
<path d="M586.007 609.606H576.754C575.769 609.606 574.913 609.23 574.846 608.766L574.241 604.7C574.174 604.253 574.901 603.893 575.861 603.893H584.893C585.853 603.893 586.706 604.253 586.798 604.7L587.621 608.766C587.716 609.23 586.992 609.606 586.007 609.606Z" fill="#747675" stroke="black" stroke-width="0.5" stroke-miterlimit="10"/>
<path d="M599.938 609.606H590.686C589.701 609.606 588.824 609.23 588.728 608.766L587.885 604.7C587.792 604.253 588.498 603.893 589.459 603.893H598.49C599.451 603.893 600.325 604.253 600.442 604.7L601.504 608.766C601.623 609.23 600.924 609.606 599.938 609.606Z" fill="#747675" stroke="black" stroke-width="0.5" stroke-miterlimit="10"/>
<path d="M613.84 609.5H604.591C603.606 609.5 602.707 609.123 602.584 608.659L601.507 604.599C601.387 604.152 602.071 603.792 603.032 603.792H612.06C613.021 603.792 613.917 604.152 614.058 604.599L615.353 608.659C615.5 609.123 614.822 609.5 613.837 609.5H613.84Z" fill="#747675" stroke="black" stroke-width="0.5" stroke-miterlimit="10"/>
<path d="M627.769 609.5H618.52C617.534 609.5 616.614 609.123 616.464 608.659L615.15 604.599C615.006 604.152 615.669 603.792 616.629 603.792H625.657C626.618 603.792 627.532 604.152 627.701 604.599L629.232 608.659C629.407 609.123 628.751 609.5 627.766 609.5H627.769Z" fill="#747675" stroke="black" stroke-width="0.5" stroke-miterlimit="10"/>
<path d="M451.415 616.103H438.361C437.348 616.103 436.695 615.704 436.9 615.215L438.646 611.037C438.843 610.567 439.803 610.185 440.791 610.185H453.53C454.518 610.185 455.184 610.565 455.021 611.037L453.557 615.215C453.385 615.704 452.428 616.103 451.415 616.103Z" fill="#747675" stroke="black" stroke-width="0.5" stroke-miterlimit="10"/>
<path d="M465.958 616.103H456.111C455.162 616.103 454.521 615.73 454.681 615.272L456.163 610.983C456.316 610.542 457.188 610.185 458.115 610.185H467.726C468.653 610.185 469.297 610.542 469.168 610.983L467.919 615.272C467.784 615.73 466.906 616.103 465.958 616.103Z" fill="#747675" stroke="black" stroke-width="0.5" stroke-miterlimit="10"/>
<path d="M480.157 616.103H470.423C469.475 616.103 468.812 615.73 468.944 615.272L470.175 610.983C470.3 610.542 471.153 610.185 472.08 610.185H481.578C482.505 610.185 483.171 610.542 483.069 610.983L482.066 615.272C481.958 615.73 481.102 616.103 480.154 616.103H480.157Z" fill="#747675" stroke="black" stroke-width="0.5" stroke-miterlimit="10"/>
<path d="M494.595 616.047H484.751C483.802 616.047 483.118 615.673 483.222 615.215L484.204 610.93C484.306 610.489 485.137 610.132 486.064 610.132H495.672C496.599 610.132 497.286 610.489 497.21 610.93L496.461 615.215C496.381 615.673 495.546 616.047 494.598 616.047H494.595Z" fill="#747675" stroke="black" stroke-width="0.5" stroke-miterlimit="10"/>
<path d="M508.788 616.047H499.057C498.109 616.047 497.403 615.673 497.483 615.215L498.217 610.93C498.293 610.489 499.103 610.132 500.027 610.132H509.525C510.452 610.132 511.157 610.489 511.108 610.93L510.605 615.215C510.55 615.673 509.74 616.047 508.791 616.047H508.788Z" fill="#747675" stroke="black" stroke-width="0.5" stroke-miterlimit="10"/>
<path d="M523.153 616.047H513.309C512.36 616.047 511.633 615.673 511.685 615.215L512.17 610.93C512.219 610.489 513.011 610.132 513.935 610.132H523.543C524.47 610.132 525.197 610.489 525.172 610.93L524.921 615.215C524.893 615.673 524.104 616.047 523.156 616.047H523.153Z" fill="#747675" stroke="black" stroke-width="0.5" stroke-miterlimit="10"/>
<path d="M537.349 616.047H527.618C526.67 616.047 525.921 615.673 525.945 615.215L526.179 610.93C526.203 610.489 526.973 610.132 527.897 610.132H537.395C538.322 610.132 539.07 610.489 539.07 610.93V615.215C539.064 615.673 538.297 616.047 537.349 616.047Z" fill="#747675" stroke="black" stroke-width="0.5" stroke-miterlimit="10"/>
<path d="M551.947 616.047H542.102C541.154 616.047 540.384 615.673 540.381 615.215L540.362 610.93C540.362 610.489 541.108 610.132 542.035 610.132H551.643C552.57 610.132 553.34 610.489 553.365 610.93L553.616 615.215C553.644 615.673 552.895 616.047 551.947 616.047Z" fill="#747675" stroke="black" stroke-width="0.5" stroke-miterlimit="10"/>
<path d="M566.143 616.047H556.412C555.464 616.047 554.672 615.673 554.641 615.215L554.374 610.93C554.347 610.489 555.074 610.132 556.001 610.132H565.498C566.425 610.132 567.217 610.489 567.266 610.93L567.763 615.215C567.815 615.673 567.091 616.047 566.143 616.047Z" fill="#747675" stroke="black" stroke-width="0.5" stroke-miterlimit="10"/>
<path d="M580.336 616.047H570.491C569.543 616.047 568.73 615.673 568.674 615.215L568.162 610.93C568.11 610.489 568.816 610.132 569.742 610.132H579.35C580.277 610.132 581.087 610.489 581.164 610.93L581.91 615.215C581.99 615.673 581.287 616.047 580.339 616.047H580.336Z" fill="#747675" stroke="black" stroke-width="0.5" stroke-miterlimit="10"/>
<path d="M594.531 616.047H584.8C583.852 616.047 583.017 615.673 582.934 615.215L582.17 610.93C582.091 610.489 582.778 610.132 583.705 610.132H593.202C594.129 610.132 594.961 610.489 595.062 610.93L596.056 615.215C596.164 615.673 595.479 616.047 594.531 616.047Z" fill="#747675" stroke="black" stroke-width="0.5" stroke-miterlimit="10"/>
<path d="M608.958 616.047H599.113C598.165 616.047 597.309 615.673 597.198 615.215L596.186 610.93C596.081 610.489 596.747 610.132 597.674 610.132H607.282C608.209 610.132 609.062 610.489 609.191 610.93L610.437 615.215C610.569 615.673 609.909 616.047 608.961 616.047H608.958Z" fill="#747675" stroke="black" stroke-width="0.5" stroke-miterlimit="10"/>
<path d="M641.093 616.047H613.444C612.511 616.047 611.649 615.682 611.517 615.229L610.243 610.916C610.114 610.483 610.75 610.132 611.658 610.132H638.641C639.55 610.132 640.433 610.48 640.617 610.916L642.434 615.229C642.624 615.679 642.023 616.047 641.09 616.047H641.093Z" fill="#747675" stroke="black" stroke-width="0.5" stroke-miterlimit="10"/>
<path d="M445.198 622.963H435.783C434.614 622.963 433.862 622.491 434.105 621.909L435.829 617.781C436.062 617.222 437.176 616.769 438.318 616.769H447.503C448.644 616.769 449.405 617.222 449.203 617.781L447.699 621.909C447.487 622.491 446.367 622.963 445.198 622.963Z" fill="#747675" stroke="black" stroke-width="0.5" stroke-miterlimit="10"/>
<path d="M460.195 622.994H450.071C449.095 622.994 448.448 622.6 448.623 622.114L450.252 617.587C450.421 617.121 451.326 616.747 452.278 616.747H462.15C463.101 616.747 463.758 617.123 463.613 617.587L462.226 622.114C462.079 622.597 461.168 622.994 460.192 622.994H460.195Z" fill="#747675" stroke="black" stroke-width="0.5" stroke-miterlimit="10"/>
<path d="M474.79 622.994H464.786C463.81 622.994 463.138 622.6 463.285 622.114L464.654 617.587C464.795 617.121 465.679 616.747 466.63 616.747H476.388C477.34 616.747 478.018 617.123 477.901 617.587L476.778 622.114C476.658 622.597 475.768 622.994 474.796 622.994H474.79Z" fill="#747675" stroke="black" stroke-width="0.5" stroke-miterlimit="10"/>
<path d="M493.629 622.963H479.089C478.276 622.963 477.699 622.634 477.797 622.229L478.96 617.472C479.055 617.084 479.773 616.772 480.565 616.772H494.749C495.54 616.772 496.13 617.087 496.062 617.472L495.23 622.229C495.16 622.634 494.445 622.963 493.632 622.963H493.629Z" fill="#747675" stroke="black" stroke-width="0.5" stroke-miterlimit="10"/>
<path d="M566.753 622.994H498.069C497.013 622.994 496.228 622.566 496.32 622.041L497.069 617.657C497.155 617.151 498.06 616.744 499.091 616.744H566.078C567.109 616.744 567.99 617.151 568.048 617.657L568.558 622.041C568.619 622.566 567.812 622.994 566.756 622.994H566.753Z" fill="#747675" stroke="black" stroke-width="0.5" stroke-miterlimit="10"/>
<path d="M585.233 622.994H571.403C570.411 622.994 569.558 622.592 569.5 622.1L568.96 617.601C568.905 617.129 569.641 616.747 570.608 616.747H584.098C585.065 616.747 585.921 617.129 586.01 617.601L586.86 622.1C586.952 622.592 586.225 622.994 585.233 622.994Z" fill="#747675" stroke="black" stroke-width="0.5" stroke-miterlimit="10"/>
<path d="M599.77 622.994H590.177C589.088 622.994 588.121 622.552 588.017 622.013L587.179 617.685C587.078 617.165 587.857 616.744 588.919 616.744H598.275C599.337 616.744 600.301 617.163 600.43 617.685L601.497 622.013C601.632 622.552 600.856 622.994 599.767 622.994H599.77Z" fill="#747675" stroke="black" stroke-width="0.5" stroke-miterlimit="10"/>
<path d="M614.368 622.994H604.775C603.686 622.994 602.691 622.552 602.556 622.013L601.47 617.685C601.338 617.165 602.096 616.744 603.158 616.744H612.514C613.576 616.744 614.564 617.163 614.724 617.685L616.043 622.013C616.209 622.552 615.46 622.994 614.371 622.994H614.368Z" fill="#747675" stroke="black" stroke-width="0.5" stroke-miterlimit="10"/>
<path d="M629.082 622.994H619.489C618.4 622.994 617.381 622.552 617.215 622.013L615.877 617.685C615.718 617.165 616.448 616.744 617.51 616.744H626.866C627.928 616.744 628.941 617.163 629.131 617.685L630.702 622.013C630.899 622.552 630.175 622.994 629.088 622.994H629.082Z" fill="#747675" stroke="black" stroke-width="0.5" stroke-miterlimit="10"/>
<path d="M643.641 623.052H634.045C632.955 623.052 631.912 622.611 631.712 622.072L630.123 617.741C629.933 617.222 630.638 616.8 631.7 616.8H641.06C642.121 616.8 643.159 617.222 643.38 617.741L645.199 622.072C645.427 622.614 644.73 623.052 643.641 623.052Z" fill="#747675" stroke="black" stroke-width="0.5" stroke-miterlimit="10"/>
<path d="M445.133 459.141H633.486C636.953 459.141 639.77 461.72 639.77 464.896V584.701H438.849V464.896C438.849 461.72 441.666 459.141 445.133 459.141Z" fill="#818181" stroke="black" stroke-miterlimit="10"/>
<path d="M632.265 466.66H446.462C445.23 466.66 444.231 467.575 444.231 468.703V574.719C444.231 575.848 445.23 576.762 446.462 576.762H632.265C633.497 576.762 634.496 575.848 634.496 574.719V468.703C634.496 467.575 633.497 466.66 632.265 466.66Z" fill="#E2231A" stroke="black" stroke-miterlimit="10"/>
<path d="M536.621 485.213V512.209L512.136 522.402L536.621 485.213Z" fill="#62D0FC"/>
<path d="M561.097 522.402L536.622 512.209V485.213L561.097 522.402Z" fill="#1EABE4"/>
<path d="M536.621 535.645V512.209L512.136 522.403L536.621 535.645Z" fill="#1EABE4"/>
<path d="M561.097 522.403L536.622 512.209V535.645L561.097 522.403Z" fill="#0075A5"/>
<path d="M551.737 527.466H521.501L536.626 535.656L551.737 527.466Z" fill="#E91F25"/>
<path d="M561.117 526.65L536.622 539.892V558.227L561.117 526.65Z" fill="#1EABE4"/>
<path d="M512.136 526.65L536.621 539.892V558.227L512.136 526.65Z" fill="#62D0FC"/>
<path d="M551.729 510.051H521.522V525.393H551.729V510.051Z" fill="#E91F25"/>
<path d="M551.727 510.051H536.628V525.393H551.727V510.051Z" fill="#BF0613"/>
<path d="M523.379 511.7H535.404C535.605 511.7 535.767 511.849 535.767 512.033V518.783H523.379C523.178 518.783 523.016 518.634 523.016 518.451V512.033C523.016 511.849 523.179 511.701 523.379 511.701V511.7Z" fill="black"/>
<path d="M537.885 511.7H549.91C550.111 511.7 550.273 511.849 550.273 512.033V518.45C550.273 518.634 550.11 518.782 549.91 518.782H537.522V512.032C537.522 511.848 537.685 511.699 537.885 511.699V511.7Z" fill="black"/>
<path d="M523.391 519.56H535.767V522.385C535.767 522.575 535.598 522.729 535.391 522.729H523.391C523.183 522.729 523.015 522.575 523.015 522.385V519.904C523.015 519.714 523.183 519.56 523.391 519.56V519.56Z" fill="black"/>
<path d="M537.521 519.56H549.896C550.104 519.56 550.272 519.715 550.272 519.905V522.384C550.272 522.574 550.104 522.728 549.896 522.728H537.897C537.69 522.728 537.521 522.574 537.521 522.384V519.56V519.56Z" fill="black"/>
<path fill-rule="evenodd" clip-rule="evenodd" d="M521.513 510.094L551.732 510.087C551.655 508.743 551.868 507.545 550.6 506.742C549.504 506.048 548.183 505.803 546.619 505.569C541.382 504.785 531.991 504.784 526.744 505.566C525.35 505.773 523.675 506.08 522.74 506.719C521.81 507.355 521.431 508.466 521.512 510.094L521.513 510.094Z" fill="white"/>
<path fill-rule="evenodd" clip-rule="evenodd" d="M536.624 510.091L551.731 510.087C551.654 508.743 551.868 507.545 550.599 506.742C549.503 506.048 548.182 505.803 546.618 505.569C544 505.176 540.279 504.981 536.621 504.98L536.623 510.09L536.624 510.091Z" fill="#E3E6E8"/>
<path d="M538.131 506.613H528.811C528.632 506.613 528.487 506.745 528.487 506.909V508.597C528.487 508.76 528.632 508.893 528.811 508.893H538.131C538.31 508.893 538.455 508.76 538.455 508.597V506.909C538.455 506.745 538.31 506.613 538.131 506.613Z" fill="#020100"/>
<path d="M544.871 506.285H542.391C542.212 506.285 542.067 506.417 542.067 506.581V508.924C542.067 509.087 542.212 509.22 542.391 509.22H544.871C545.049 509.22 545.194 509.087 545.194 508.924V506.581C545.194 506.417 545.049 506.285 544.871 506.285Z" fill="#020100"/>
<path fill-rule="evenodd" clip-rule="evenodd" d="M551.732 527.45L548.353 527.586C544.629 527.736 541.199 528.231 539.092 531.002L536.62 534.251L534.151 530.999C532.037 528.216 528.591 527.717 524.852 527.576L521.519 527.45V525.334H551.732V527.45Z" fill="#FBCE01"/>
<path fill-rule="evenodd" clip-rule="evenodd" d="M536.627 525.334H551.733V527.45L548.354 527.586C544.63 527.736 541.2 528.231 539.093 531.002L536.622 534.251L536.627 525.334Z" fill="#F9BE03"/>
<path d="M539.298 527.186H533.954C533.821 527.186 533.712 527.087 533.712 526.964C533.712 526.842 533.821 526.743 533.954 526.743H539.298C539.432 526.743 539.54 526.842 539.54 526.964C539.54 527.087 539.432 527.186 539.298 527.186Z" fill="black"/>
<path d="M539.298 528.344H533.954C533.821 528.344 533.712 528.245 533.712 528.123C533.712 528 533.821 527.901 533.954 527.901H539.298C539.432 527.901 539.54 528 539.54 528.123C539.54 528.245 539.432 528.344 539.298 528.344Z" fill="black"/>
<path d="M539.298 529.503H533.954C533.821 529.503 533.712 529.404 533.712 529.281C533.712 529.159 533.821 529.06 533.954 529.06H539.298C539.432 529.06 539.54 529.159 539.54 529.281C539.54 529.404 539.432 529.503 539.298 529.503Z" fill="black"/>
<path d="M551.729 524.451H521.522V525.693H551.729V524.451Z" fill="#029D3D"/>
<path d="M551.734 524.451H536.625V525.693H551.734V524.451Z" fill="#07702C"/>
<path d="M530.104 531.015C530.71 531.015 531.202 530.565 531.202 530.01C531.202 529.456 530.71 529.006 530.104 529.006C529.498 529.006 529.007 529.456 529.007 530.01C529.007 530.565 529.498 531.015 530.104 531.015Z" fill="white"/>
<path d="M543.148 531.015C543.754 531.015 544.245 530.565 544.245 530.01C544.245 529.456 543.754 529.006 543.148 529.006C542.542 529.006 542.05 529.456 542.05 530.01C542.05 530.565 542.542 531.015 543.148 531.015Z" fill="white"/>
<path d="M521.032 515.744H519.256C518.977 515.744 518.75 515.951 518.75 516.207V519.009C518.75 519.265 518.977 519.473 519.256 519.473H521.032C521.311 519.473 521.538 519.265 521.538 519.009V516.207C521.538 515.951 521.311 515.744 521.032 515.744Z" fill="#020100"/>
<path d="M553.994 515.744H552.219C551.939 515.744 551.713 515.951 551.713 516.207V519.009C551.713 519.265 551.939 519.473 552.219 519.473H553.994C554.273 519.473 554.5 519.265 554.5 519.009V516.207C554.5 515.951 554.273 515.744 553.994 515.744Z" fill="#020100"/>
</g>
<path d="M462.326 678.347C444.549 679.424 420.627 692.258 410.888 698.541L667.258 698.54C630.634 679.244 594.009 673.859 583.31 672.513C560.595 666.051 548.881 665.034 545.863 665.333H537.633C534.752 663.538 484.548 674.757 462.326 678.347Z" fill="#4C4C4C" stroke="black"/>
<path d="M538.027 700.459V665.253H540.735V700.459H538.027Z" fill="#424242" stroke="black"/>
<path d="M542.541 700.459V665.253H546.151V700.459H542.541Z" fill="#424242" stroke="black"/>
<path d="M540.735 700.459V665.253H542.54V700.459H540.735Z" fill="#282828" stroke="black"/>
<path d="M480.487 605.24C475.966 611.862 477.348 618.116 478.603 620.415C482.748 621.105 488.776 614.552 491.414 611.103C494.051 607.654 499.703 607.654 503.47 607.999C508.293 608.275 506.987 612.483 505.731 614.552C505.401 615.277 504.731 616.479 503.819 617.656C502.996 618.719 501.977 619.761 500.833 620.415C497.819 622.623 494.051 627.544 492.544 629.728C489.907 635.936 488.399 635.591 485.009 639.04C484.104 640.42 472.073 647.433 466.17 650.767L454.49 656.631C454.49 635.936 435.651 630.763 421.711 627.659L422.841 625.244C423.595 623.635 424.725 619.381 425.102 615.932C425.102 611.448 427.363 601.101 431.507 595.927C436.631 590.961 441.429 591.558 443.187 592.478C444.066 591.099 446.502 587.925 449.215 586.27C452.229 583.787 458.258 585.925 460.895 587.305C461.398 586.96 462.553 586.063 463.156 585.235C465.416 582.476 477.473 584.2 477.473 586.27C478.076 585.718 480.236 586.04 481.241 586.27C483.125 586.5 487.872 587.443 491.79 589.374C496.688 591.788 497.819 597.652 495.181 598.686C491.39 599.988 488.902 598.532 487.646 597.068C487.304 596.67 487.054 596.271 486.892 595.927C486.264 596.617 484.104 599.445 480.487 605.24Z" fill="#E1BE98"/>
<path d="M486.892 595.927C486.264 596.617 484.104 599.445 480.487 605.24C475.966 611.862 477.348 618.116 478.603 620.415C482.748 621.105 488.776 614.552 491.414 611.103C494.051 607.654 499.703 607.654 503.47 607.999M486.892 595.927C487.144 595.467 487.646 594.341 487.646 593.513M486.892 595.927C487.054 596.271 487.304 596.67 487.646 597.068M477.473 586.27C478.076 585.718 480.236 586.04 481.241 586.27C483.125 586.5 487.872 587.443 491.79 589.374C496.688 591.788 497.819 597.652 495.181 598.686C491.39 599.988 488.902 598.532 487.646 597.068M477.473 586.27C477.473 584.2 465.416 582.476 463.156 585.235C462.553 586.063 461.398 586.96 460.895 587.305M477.473 586.27C474.082 590.294 466.471 598.204 463.156 597.652M460.895 587.305C458.258 585.925 452.229 583.787 449.215 586.27C446.502 587.925 444.066 591.099 443.187 592.478M460.895 587.305C458.132 590.409 451.928 596.479 449.215 595.927M443.187 592.478C441.429 591.558 436.631 590.961 431.507 595.927C427.363 601.101 425.102 611.448 425.102 615.932C424.725 619.381 423.595 623.635 422.841 625.244L421.711 627.659C435.651 630.763 454.49 635.936 454.49 656.631L466.17 650.767C472.073 647.433 484.104 640.42 485.009 639.04C488.399 635.591 489.907 635.936 492.544 629.728C494.051 627.544 497.819 622.623 500.833 620.415C501.977 619.761 502.996 618.719 503.819 617.656M443.187 592.478C441.177 595.352 436.782 601.032 435.275 600.756M503.47 607.999C508.293 608.275 506.987 612.483 505.731 614.552C505.401 615.277 504.731 616.479 503.819 617.656M503.47 607.999C497.442 611.586 501.191 615.932 503.819 617.656M435.275 605.24L433.391 609.034M449.215 600.066L445.824 605.24M465.416 600.756L462.025 603.515M487.646 597.068C489.153 597.068 490.66 596.962 492.167 595.237" stroke="black" stroke-linecap="round"/>
<g style="mix-blend-mode:multiply">
<path d="M488.023 636.281C468.431 644.835 456.499 647.893 452.983 648.353C452.983 649.732 453.586 653.181 455.997 655.941C472.952 647.663 482.371 641.11 488.023 636.281Z" fill="#CAA480" fill-opacity="0.2"/>
</g>
<path d="M363.311 660.77C322.017 678.429 299.556 694.206 298.049 696.735L413.045 694.93L432.26 684.396L439.796 680.084C444.317 677.9 453.887 670.979 455.997 660.77C455.997 632.143 434.521 629.383 425.102 627.314C417.566 625.658 413.924 627.314 413.045 628.349C410.659 630.303 405.585 634.557 404.379 635.937C398.652 635.937 392.951 637.086 390.816 637.661C382.903 640.075 377.252 653.182 363.311 660.77Z" fill="#4C4C4E"/>
<path d="M404.379 635.937C398.652 635.937 392.951 637.086 390.816 637.661C382.903 640.075 377.252 653.182 363.311 660.77C322.017 678.429 299.556 694.206 298.049 696.735L413.045 694.93L432.26 684.396M404.379 635.937C405.585 634.557 410.659 630.303 413.045 628.349C413.924 627.314 417.566 625.658 425.102 627.314C434.521 629.383 455.997 632.143 455.997 660.77C453.887 670.979 444.317 677.9 439.796 680.084L432.26 684.396M404.379 635.937C408.398 636.396 416.963 637.937 419.073 640.42M432.26 684.396C434.27 680.199 437.46 669.599 434.144 660.77" stroke="black" stroke-linecap="round"/>
<g style="mix-blend-mode:multiply">
<path d="M430.376 660.08C443.036 660.632 451.224 651.112 453.736 646.284C454.239 647.663 455.469 651.802 456.374 657.321C456.374 671.117 440.8 681.004 433.014 684.223L416.304 694.027C408.115 696.933 402.646 694.027 383.355 694.027C402.194 683.335 416.436 673.186 430.376 660.08Z" fill="#393B39" fill-opacity="0.3"/>
</g>
<path d="M590.237 608.949C595.146 615.336 594.138 621.65 593.021 624.009C588.924 624.904 582.514 618.661 579.676 615.349C576.837 612.036 571.194 612.318 567.452 612.85C562.653 613.366 564.208 617.503 565.585 619.507C565.958 620.214 566.698 621.381 567.679 622.511C568.563 623.531 569.643 624.521 570.824 625.117C573.965 627.171 578.02 631.896 579.655 634.002C582.658 640.07 584.142 639.651 587.733 642.925C588.718 644.258 601.149 650.661 607.242 653.696L619.253 658.968C618.022 638.304 636.525 632.199 650.26 628.405L648.988 626.05C648.139 624.481 646.758 620.29 646.176 616.864C645.91 612.387 643.037 602.168 638.591 597.209C633.179 592.505 628.424 593.341 626.723 594.347C625.763 593.014 623.141 589.967 620.334 588.449C617.177 586.119 611.284 588.555 608.733 590.064C608.211 589.745 607.004 588.907 606.353 588.111C603.931 585.468 591.995 587.791 592.118 589.858C591.483 589.337 589.346 589.766 588.356 590.045C586.489 590.369 581.804 591.547 578.007 593.671C573.26 596.326 572.48 602.237 575.175 603.139C579.038 604.249 581.435 602.672 582.603 601.147C582.92 600.733 583.147 600.322 583.287 599.97C583.955 600.628 586.281 603.344 590.237 608.949Z" fill="#E1BE98"/>
<path d="M583.287 599.97C583.955 600.628 586.281 603.344 590.237 608.949C595.146 615.336 594.138 621.65 593.021 624.009C588.924 624.904 582.514 618.661 579.676 615.349C576.837 612.036 571.194 612.318 567.452 612.85M583.287 599.97C583.009 599.523 582.441 598.424 582.391 597.597M583.287 599.97C583.147 600.322 582.92 600.733 582.603 601.147M592.118 589.858C591.483 589.337 589.346 589.766 588.356 590.045C586.489 590.369 581.804 591.547 578.007 593.671C573.26 596.326 572.48 602.237 575.175 603.139C579.038 604.249 581.435 602.672 582.603 601.147M592.118 589.858C591.995 587.791 603.931 585.468 606.353 588.111C607.004 588.907 608.211 589.745 608.733 590.064M592.118 589.858C595.743 593.706 603.814 601.225 607.091 600.509M608.733 590.064C611.284 588.555 617.177 586.119 620.334 588.449C623.141 589.967 625.763 593.014 626.723 594.347M608.733 590.064C611.677 593.026 618.233 598.778 620.909 598.092M626.723 594.347C628.424 593.341 633.179 592.505 638.591 597.209C643.037 602.168 645.91 612.387 646.176 616.864C646.758 620.29 648.139 624.481 648.988 626.05L650.26 628.405C636.525 632.199 618.022 638.304 619.253 658.968L607.242 653.696C601.149 650.661 588.718 644.258 587.733 642.925C584.142 639.651 582.658 640.07 579.655 634.002C578.02 631.896 573.965 627.171 570.824 625.117C569.643 624.521 568.563 623.531 567.679 622.511M626.723 594.347C628.9 597.117 633.627 602.569 635.116 602.218M567.452 612.85C562.653 613.366 564.208 617.503 565.585 619.507C565.958 620.214 566.698 621.381 567.679 622.511M567.452 612.85C573.685 616.132 570.2 620.658 567.679 622.511M635.382 606.695L637.489 610.39M621.155 602.224L624.849 607.221M605.019 603.721L608.569 606.307M582.603 601.147C581.098 601.222 579.587 601.191 577.979 599.544" stroke="black" stroke-linecap="round"/>
<g style="mix-blend-mode:multiply">
<path d="M584.56 640.32C604.632 647.885 616.727 650.343 620.266 650.627C620.348 652.005 619.951 655.479 617.707 658.354C600.285 650.934 590.49 644.86 584.56 640.32Z" fill="#CAA480" fill-opacity="0.2"/>
</g>
<path d="M711.448 658.01C753.731 673.584 779.796 693.833 781.451 696.284L661.391 696.284L643.101 685.584L635.321 681.654C630.676 679.699 620.709 673.265 617.994 663.176C616.291 634.591 637.571 630.766 646.853 628.23C654.279 626.201 658.014 627.672 658.954 628.662C661.453 630.494 666.772 634.489 668.058 635.806C673.777 635.521 681.401 635.339 683.567 635.806C691.611 637.823 697.077 651.128 711.448 658.01Z" fill="#4C4C4E"/>
<path d="M668.058 635.806C673.777 635.521 681.401 635.339 683.567 635.806C691.611 637.823 697.077 651.128 711.448 658.01C753.731 673.584 779.796 693.833 781.451 696.284L661.391 696.284L643.101 685.584M668.058 635.806C666.772 634.489 661.453 630.494 658.954 628.662C658.014 627.672 654.279 626.201 646.853 628.23C637.571 630.766 616.291 634.591 617.994 663.176C620.709 673.265 630.676 679.699 635.321 681.654L643.101 685.584M668.058 635.806C664.073 636.466 655.612 638.431 653.653 641.016M643.101 685.584C640.845 681.494 637.029 671.068 639.815 662.087" stroke="black" stroke-linecap="round"/>
<g style="mix-blend-mode:multiply">
<path d="M643.536 661.21C630.928 662.392 622.185 653.295 619.39 648.599C618.97 650.001 617.988 654.195 617.413 659.751C618.234 673.526 634.372 682.623 642.339 685.449L656.426 693.379C658.662 692.922 673.994 693.379 694.339 693.379C669.096 678.949 658.235 673.602 643.536 661.21Z" fill="#393B39" fill-opacity="0.3"/>
</g>
<defs>
<clipPath id="clip0_2041_138">
<rect width="271.275" height="209.702" fill="white" transform="translate(403.626 459)"/>
</clipPath>
</defs>
</svg>
