<svg width="608" height="194" viewBox="0 0 608 194" fill="none" xmlns="http://www.w3.org/2000/svg">
<g clip-path="url(#clip0_2172_39)">
<path d="M511.965 0H95.7441C42.8661 0 0 43.1494 0 96.377V96.3774C0 149.605 42.8661 192.754 95.7441 192.754H511.965C564.844 192.754 607.71 149.605 607.71 96.377C607.71 43.1494 564.844 0 511.965 0Z" fill="white"/>
<path d="M178.44 119.455C177.37 119.455 176.44 119.056 175.648 118.26C174.903 117.463 174.531 116.526 174.531 115.449V72.16C174.531 71.0825 174.903 70.1455 175.648 69.3489C176.44 68.5526 177.37 68.1543 178.44 68.1543H203.154C204.226 68.1543 205.133 68.5526 205.877 69.3489C206.668 70.1455 207.065 71.0825 207.065 72.16V73.7763C207.065 74.8539 206.668 75.7908 205.877 76.5873C205.133 77.3837 204.226 77.782 203.154 77.782H186.958C186.586 77.782 186.399 77.9693 186.399 78.3442V87.6204C186.399 88.0421 186.586 88.253 186.958 88.253H201.758C202.828 88.253 203.736 88.6511 204.481 89.4476C205.272 90.244 205.668 91.1811 205.668 92.2586V93.3127C205.668 94.3903 205.272 95.3273 204.481 96.1237C203.736 96.9202 202.828 97.3183 201.758 97.3183H186.958C186.586 97.3183 186.399 97.5058 186.399 97.8805V109.265C186.399 109.64 186.586 109.827 186.958 109.827H203.154C204.226 109.827 205.133 110.225 205.877 111.022C206.668 111.818 207.065 112.755 207.065 113.833V115.449C207.065 116.526 206.668 117.463 205.877 118.26C205.133 119.056 204.226 119.455 203.154 119.455H178.44ZM214.353 78.0631C213.282 78.0631 212.351 77.6649 211.56 76.8684C210.769 76.072 210.374 75.1349 210.374 74.0574V72.16C210.374 71.0825 210.769 70.1455 211.56 69.3489C212.351 68.5526 213.282 68.1543 214.353 68.1543H245.489C246.56 68.1543 247.491 68.5526 248.282 69.3489C249.074 70.1455 249.469 71.0825 249.469 72.16V74.0574C249.469 75.1349 249.074 76.072 248.282 76.8684C247.491 77.6649 246.56 78.0631 245.489 78.0631H236.554C236.181 78.0631 235.995 78.2505 235.995 78.6253V115.449C235.995 116.526 235.599 117.463 234.808 118.26C234.016 119.056 233.086 119.455 232.016 119.455H227.827C226.757 119.455 225.825 119.056 225.035 118.26C224.243 117.463 223.847 116.526 223.847 115.449V78.6253C223.847 78.2505 223.661 78.0631 223.289 78.0631H214.353ZM257.435 119.455C256.365 119.455 255.433 119.056 254.642 118.26C253.851 117.463 253.456 116.526 253.456 115.449V72.16C253.456 71.0825 253.851 70.1455 254.642 69.3489C255.433 68.5526 256.365 68.1543 257.435 68.1543H261.415C262.485 68.1543 263.392 68.5526 264.137 69.3489C264.929 70.1455 265.324 71.0825 265.324 72.16V87.6204C265.324 88.0421 265.533 88.253 265.953 88.253H280.334C280.753 88.253 280.963 88.0421 280.963 87.6204V72.16C280.963 71.0825 281.335 70.1455 282.079 69.3489C282.87 68.5526 283.801 68.1543 284.872 68.1543H288.851C289.921 68.1543 290.852 68.5526 291.643 69.3489C292.435 70.1455 292.831 71.0825 292.831 72.16V115.449C292.831 116.526 292.435 117.463 291.643 118.26C290.852 119.056 289.921 119.455 288.851 119.455H284.872C283.801 119.455 282.87 119.056 282.079 118.26C281.335 117.463 280.963 116.526 280.963 115.449V97.8805C280.963 97.5058 280.753 97.3183 280.334 97.3183H265.953C265.533 97.3183 265.324 97.5058 265.324 97.8805V115.449C265.324 116.526 264.929 117.463 264.137 118.26C263.392 119.056 262.485 119.455 261.415 119.455H257.435Z" fill="#D02119"/>
<path d="M302.642 119.455C301.572 119.455 300.641 119.056 299.85 118.26C299.058 117.463 298.662 116.527 298.662 115.449V72.1601C298.662 71.0826 299.058 70.1455 299.85 69.349C300.641 68.5526 301.572 68.1544 302.642 68.1544H306.621C307.831 68.1544 308.925 68.4824 309.902 69.1382C310.88 69.7941 311.601 70.6843 312.067 71.8087L322.888 98.3023C322.888 98.3491 322.911 98.3725 322.958 98.3725C323.004 98.3725 323.027 98.3491 323.027 98.3023L333.848 71.8087C334.313 70.6843 335.036 69.7941 336.012 69.1382C336.99 68.4824 338.084 68.1544 339.294 68.1544H343.553C344.623 68.1544 345.554 68.5526 346.345 69.349C347.136 70.1455 347.531 71.0826 347.531 72.1601V115.449C347.531 116.527 347.136 117.463 346.345 118.26C345.554 119.056 344.623 119.455 343.553 119.455H340.201C339.131 119.455 338.201 119.056 337.409 118.26C336.664 117.463 336.292 116.527 336.292 115.449V88.1124C336.292 88.0656 336.269 88.0422 336.222 88.0422C336.129 88.0422 336.083 88.0656 336.083 88.1124L329.38 104.065C328.915 105.189 328.17 106.079 327.146 106.735C326.169 107.391 325.075 107.719 323.865 107.719H322.05C320.84 107.719 319.723 107.391 318.699 106.735C317.722 106.079 317 105.189 316.534 104.065L309.832 88.1124C309.832 88.0656 309.786 88.0422 309.693 88.0422C309.647 88.0422 309.624 88.0656 309.624 88.1124V115.449C309.624 116.527 309.227 117.463 308.436 118.26C307.692 119.056 306.784 119.455 305.713 119.455H302.642ZM391.623 100.832C391.623 113.716 385.108 120.158 372.075 120.158C359.044 120.158 352.528 113.716 352.528 100.832V72.1601C352.528 71.0826 352.923 70.1455 353.714 69.349C354.506 68.5526 355.436 68.1544 356.508 68.1544H360.556C361.627 68.1544 362.558 68.5526 363.349 69.349C364.14 70.1455 364.536 71.0826 364.536 72.1601V101.676C364.536 104.861 365.141 107.134 366.351 108.492C367.561 109.851 369.516 110.53 372.216 110.53C374.914 110.53 376.87 109.851 378.079 108.492C379.29 107.134 379.895 104.861 379.895 101.676V72.1601C379.895 71.0826 380.291 70.1455 381.082 69.349C381.872 68.5526 382.804 68.1544 383.874 68.1544H387.644C388.715 68.1544 389.646 68.5526 390.437 69.349C391.228 70.1455 391.623 71.0826 391.623 72.1601V100.832ZM400.657 119.455C399.585 119.455 398.655 119.056 397.863 118.26C397.072 117.463 396.677 116.527 396.677 115.449V72.1601C396.677 71.0826 397.072 70.1455 397.863 69.349C398.655 68.5526 399.585 68.1544 400.657 68.1544H404.635C405.845 68.1544 406.94 68.4824 407.916 69.1382C408.894 69.7941 409.615 70.6843 410.081 71.8087L420.902 98.3023C420.902 98.3491 420.926 98.3725 420.972 98.3725C421.018 98.3725 421.042 98.3491 421.042 98.3023L431.863 71.8087C432.328 70.6843 433.049 69.7941 434.027 69.1382C435.004 68.4824 436.098 68.1544 437.308 68.1544H441.567C442.637 68.1544 443.568 68.5526 444.359 69.349C445.15 70.1455 445.546 71.0826 445.546 72.1601V115.449C445.546 116.527 445.15 117.463 444.359 118.26C443.568 119.056 442.637 119.455 441.567 119.455H438.215C437.145 119.455 436.215 119.056 435.423 118.26C434.678 117.463 434.306 116.527 434.306 115.449V88.1124C434.306 88.0656 434.283 88.0422 434.236 88.0422C434.144 88.0422 434.096 88.0656 434.096 88.1124L427.394 104.065C426.929 105.189 426.185 106.079 425.161 106.735C424.183 107.391 423.09 107.719 421.879 107.719H420.064C418.854 107.719 417.738 107.391 416.714 106.735C415.736 106.079 415.015 105.189 414.549 104.065L407.847 88.1124C407.847 88.0656 407.8 88.0422 407.707 88.0422C407.661 88.0422 407.638 88.0656 407.638 88.1124V115.449C407.638 116.527 407.241 117.463 406.45 118.26C405.706 119.056 404.798 119.455 403.728 119.455H400.657ZM462.9 97.6698V110.038C462.9 110.46 463.108 110.718 463.527 110.811C464.505 110.999 465.692 111.092 467.088 111.092C470.392 111.092 472.813 110.484 474.348 109.265C475.885 108 476.652 106.079 476.652 103.503C476.652 99.1925 473.162 97.0374 466.18 97.0374H463.457C463.085 97.0374 462.9 97.2481 462.9 97.6698ZM462.9 77.5713V87.9016C462.9 88.2765 463.085 88.4638 463.457 88.4638H465.203C471.998 88.4638 475.395 86.4258 475.395 82.35C475.395 78.4613 472.556 76.5171 466.879 76.5171C465.529 76.5171 464.389 76.6108 463.457 76.7982C463.085 76.8919 462.9 77.1496 462.9 77.5713ZM455.15 119.595C454.033 119.502 453.102 119.01 452.357 118.12C451.612 117.229 451.24 116.223 451.24 115.098V72.5114C451.24 71.3402 451.612 70.3329 452.357 69.4897C453.149 68.5995 454.102 68.1075 455.219 68.0139C458.85 67.639 462.41 67.4517 465.901 67.4517C479.398 67.4517 486.147 71.8321 486.147 80.593C486.147 83.5446 485.192 86.0511 483.285 88.1124C481.423 90.1738 478.909 91.4857 475.744 92.0479C475.698 92.0479 475.675 92.0947 475.675 92.1884C475.675 92.2352 475.721 92.2587 475.815 92.2587C479.491 92.774 482.4 94.1796 484.542 96.4752C486.729 98.7708 487.822 101.512 487.822 104.697C487.822 109.898 486.1 113.786 482.656 116.363C479.258 118.893 473.906 120.158 466.599 120.158C462.923 120.158 459.106 119.97 455.15 119.595ZM508.206 78.5551L503.11 98.724C503.064 98.8645 503.087 99.0051 503.18 99.1456C503.319 99.2393 503.459 99.2861 503.598 99.2861H512.954C513.093 99.2861 513.21 99.2393 513.303 99.1456C513.442 99.0051 513.488 98.8645 513.442 98.724L508.346 78.5551C508.346 78.5082 508.323 78.4848 508.277 78.4848C508.229 78.4848 508.206 78.5082 508.206 78.5551ZM489.566 119.455C488.589 119.455 487.798 119.056 487.192 118.26C486.635 117.463 486.517 116.597 486.843 115.66L500.946 71.9492C501.318 70.8248 501.969 69.9112 502.9 69.2085C503.878 68.5058 504.948 68.1544 506.112 68.1544H510.72C511.93 68.1544 513.023 68.5058 514.001 69.2085C514.978 69.9112 515.63 70.8248 515.956 71.9492L529.988 115.66C530.314 116.597 530.174 117.463 529.57 118.26C529.011 119.056 528.243 119.455 527.265 119.455H522.588C521.424 119.455 520.377 119.104 519.447 118.401C518.515 117.651 517.91 116.714 517.631 115.59L515.956 108.914C515.91 108.539 515.677 108.352 515.258 108.352H501.295C500.922 108.352 500.69 108.539 500.597 108.914L498.921 115.59C498.642 116.714 498.037 117.651 497.105 118.401C496.175 119.104 495.128 119.455 493.965 119.455H489.566ZM536.485 119.455C535.415 119.455 534.484 119.056 533.693 118.26C532.948 117.463 532.576 116.527 532.576 115.449V72.1601C532.576 71.0826 532.948 70.1455 533.693 69.349C534.484 68.5526 535.415 68.1544 536.485 68.1544H541.652C542.722 68.1544 543.629 68.5526 544.374 69.349C545.165 70.1455 545.561 71.0826 545.561 72.1601V115.449C545.561 116.527 545.165 117.463 544.374 118.26C543.629 119.056 542.722 119.455 541.652 119.455H536.485Z" fill="#D02119"/>
<path d="M103.734 24.166V79.4559L57.9023 100.333L103.734 24.166Z" fill="#62D0FC"/>
<path d="M149.546 100.333L103.732 79.4559V24.166L149.546 100.333Z" fill="#1EABE4"/>
<path d="M103.734 127.454V79.4556L57.9023 100.332L103.734 127.454Z" fill="#1EABE4"/>
<path d="M149.546 100.332L103.732 79.4556V127.454L149.546 100.332Z" fill="#0075A5"/>
<path d="M132.029 110.703H75.4316L103.743 127.477L132.029 110.703Z" fill="#E91F25"/>
<path d="M149.583 109.031L103.732 136.152V173.703L149.583 109.031Z" fill="#1EABE4"/>
<path d="M57.9023 109.031L103.734 136.152V173.703L57.9023 109.031Z" fill="#62D0FC"/>
<path d="M132.011 75.0352H75.4688V106.456H132.011V75.0352Z" fill="#E91F25"/>
<path d="M132.008 75.0352H103.746V106.456H132.008V75.0352Z" fill="#BF0613"/>
<path d="M78.9453 78.4121H101.454C101.83 78.4121 102.134 78.7177 102.134 79.0929V92.9184H78.9453C78.5692 92.9184 78.2656 92.6128 78.2656 92.2376V79.0944C78.2656 78.7177 78.5707 78.4136 78.9453 78.4136V78.4121Z" fill="black"/>
<path d="M106.098 78.4136H128.607C128.983 78.4136 129.286 78.7192 129.286 79.0944V92.2376C129.286 92.6143 128.981 92.9184 128.607 92.9184H105.418V79.0929C105.418 78.7162 105.723 78.4121 106.098 78.4121V78.4136Z" fill="black"/>
<path d="M78.9695 94.5118H102.135V100.297C102.135 100.686 101.82 101.002 101.432 101.002H78.9695C78.5813 101.002 78.2656 100.686 78.2656 100.297V95.2152C78.2656 94.8264 78.5813 94.5103 78.9695 94.5103V94.5118Z" fill="black"/>
<path d="M105.418 94.5118H128.582C128.971 94.5118 129.286 94.8279 129.286 95.2167V100.295C129.286 100.684 128.971 101 128.582 101H106.122C105.734 101 105.418 100.684 105.418 100.295V94.5103V94.5118Z" fill="black"/>
<path fill-rule="evenodd" clip-rule="evenodd" d="M75.4533 75.124L132.018 75.1088C131.873 72.3555 132.273 69.9033 129.899 68.2574C127.848 66.8368 125.374 66.3346 122.447 65.855C112.644 64.25 95.0654 64.2484 85.245 65.849C82.6351 66.2741 79.4995 66.9019 77.749 68.212C76.0091 69.5145 75.2992 71.7898 75.4518 75.1225L75.4533 75.124Z" fill="white"/>
<path fill-rule="evenodd" clip-rule="evenodd" d="M103.738 75.117L132.017 75.1094C131.872 72.3561 132.272 69.9039 129.898 68.2579C127.847 66.8374 125.373 66.3352 122.446 65.8556C117.545 65.0523 110.58 64.6514 103.732 64.6499L103.737 75.1155L103.738 75.117Z" fill="#E3E6E8"/>
<path d="M106.562 67.9932H89.1154C88.7809 67.9932 88.5098 68.2648 88.5098 68.5998V72.0565C88.5098 72.3916 88.7809 72.6632 89.1154 72.6632H106.562C106.896 72.6632 107.167 72.3916 107.167 72.0565V68.5998C107.167 68.2648 106.896 67.9932 106.562 67.9932Z" fill="#020100"/>
<path d="M119.175 67.3223H114.533C114.199 67.3223 113.928 67.5939 113.928 67.9289V72.7275C113.928 73.0625 114.199 73.3341 114.533 73.3341H119.175C119.509 73.3341 119.78 73.0625 119.78 72.7275V67.9289C119.78 67.5939 119.509 67.3223 119.175 67.3223Z" fill="#020100"/>
<path fill-rule="evenodd" clip-rule="evenodd" d="M132.017 110.67L125.692 110.948C118.721 111.255 112.301 112.27 108.357 117.945L103.731 124.599L99.1077 117.939C95.152 112.24 88.7012 111.217 81.7022 110.928L75.4629 110.67V106.337H132.017V110.67Z" fill="#FBCE01"/>
<path fill-rule="evenodd" clip-rule="evenodd" d="M103.743 106.337H132.019V110.67L125.693 110.948C118.723 111.255 112.302 112.27 108.359 117.945L103.732 124.599L103.743 106.337Z" fill="#F9BE03"/>
<path d="M108.742 110.129H98.7402C98.4895 110.129 98.2871 109.926 98.2871 109.675C98.2871 109.424 98.4895 109.221 98.7402 109.221H108.742C108.993 109.221 109.195 109.424 109.195 109.675C109.195 109.926 108.993 110.129 108.742 110.129Z" fill="black"/>
<path d="M108.742 112.501H98.7402C98.4895 112.501 98.2871 112.298 98.2871 112.047C98.2871 111.796 98.4895 111.593 98.7402 111.593H108.742C108.993 111.593 109.195 111.796 109.195 112.047C109.195 112.298 108.993 112.501 108.742 112.501Z" fill="black"/>
<path d="M108.742 114.874H98.7402C98.4895 114.874 98.2871 114.672 98.2871 114.421C98.2871 114.17 98.4895 113.967 98.7402 113.967H108.742C108.993 113.967 109.195 114.17 109.195 114.421C109.195 114.672 108.993 114.874 108.742 114.874Z" fill="black"/>
<path d="M132.011 104.527H75.4688V107.072H132.011V104.527Z" fill="#029D3D"/>
<path d="M132.026 104.527H103.746V107.072H132.026V104.527Z" fill="#07702C"/>
<path d="M91.5385 117.972C92.6729 117.972 93.5926 117.051 93.5926 115.914C93.5926 114.778 92.6729 113.857 91.5385 113.857C90.404 113.857 89.4844 114.778 89.4844 115.914C89.4844 117.051 90.404 117.972 91.5385 117.972Z" fill="white"/>
<path d="M115.954 117.972C117.089 117.972 118.009 117.051 118.009 115.914C118.009 114.778 117.089 113.857 115.954 113.857C114.82 113.857 113.9 114.778 113.9 115.914C113.9 117.051 114.82 117.972 115.954 117.972Z" fill="white"/>
<path d="M74.553 86.6953H71.2302C70.7072 86.6953 70.2832 87.12 70.2832 87.6438V93.3834C70.2832 93.9073 70.7072 94.3319 71.2302 94.3319H74.553C75.076 94.3319 75.5 93.9073 75.5 93.3834V87.6438C75.5 87.12 75.076 86.6953 74.553 86.6953Z" fill="#020100"/>
<path d="M136.252 86.6953H132.929C132.406 86.6953 131.982 87.12 131.982 87.6438V93.3834C131.982 93.9073 132.406 94.3319 132.929 94.3319H136.252C136.775 94.3319 137.199 93.9073 137.199 93.3834V87.6438C137.199 87.12 136.775 86.6953 136.252 86.6953Z" fill="#020100"/>
</g>
<defs>
<clipPath id="clip0_2172_39">
<rect width="607.998" height="193.327" fill="white"/>
</clipPath>
</defs>
</svg>
