<svg width="24" height="40" viewBox="0 0 24 40" fill="none" xmlns="http://www.w3.org/2000/svg">
<path d="M11.8988 0.356934V14.458L0.249058 19.7824L11.8988 0.356934Z" fill="white"/>
<path d="M11.7999 0.714422V14.3939L0.498159 19.5594L11.7999 0.714422ZM11.9976 0L0 20.0056L11.9976 14.5218V0Z" fill="#E2231A"/>
<path d="M12.0965 14.458V0.356934L23.7413 19.7824L12.0965 14.458Z" fill="white"/>
<path d="M12.1952 0.714834L23.4924 19.5598L12.1952 14.3943V0.714834ZM11.9976 0V14.5222L23.9904 20.006L11.9976 0Z" fill="#E2231A"/>
<path d="M0.170757 20.0148L11.9185 14.6455V26.9904L0.170757 20.0148Z" fill="white"/>
<path d="M11.8395 14.7692V26.8509L0.341997 20.0241L11.8395 14.7688M11.9976 14.5225L0 20.0062L11.9976 27.1299V14.5225Z" fill="#E2231A"/>
<path d="M12.0766 14.6455L23.8197 20.0148L12.0766 26.9904V14.6455Z" fill="white"/>
<path d="M12.1557 14.7692L23.6489 20.0245L12.1557 26.8512V14.7696M11.9976 14.5225V27.1299L23.9904 20.0062L11.9976 14.5225Z" fill="#E2231A"/>
<path d="M12.0965 29.4703L23.6509 22.6128L12.0965 38.9651V29.4703Z" fill="white"/>
<path d="M23.3014 22.9349L12.1949 38.6536V29.527L23.3014 22.9353M24 22.29L11.9976 29.4136V39.2765L24 22.29Z" fill="#E2231A"/>
<path d="M0.349064 22.6128L11.8988 29.4703V38.9651L0.349064 22.6128Z" fill="white"/>
<path d="M0.698226 22.9353L11.7999 29.527V38.6536L0.698226 22.9353ZM0 22.29L11.9976 39.2765V29.4136L0 22.29Z" fill="#E2231A"/>
<path d="M19.4006 13.5996H4.59933V21.6141H19.4006V13.5996Z" fill="#E2231A"/>
<path d="M5.50861 14.2485H11.4009C11.4993 14.2485 11.5788 14.3288 11.5788 14.4273V20.4011H5.50861C5.41015 20.4011 5.33067 20.3208 5.33067 20.2222V14.4273C5.33067 14.3284 5.41056 14.2485 5.50861 14.2485Z" fill="white"/>
<path d="M12.6167 14.2485H18.5089C18.6075 14.2485 18.687 14.3288 18.687 14.4273V20.2222C18.687 20.3212 18.607 20.4011 18.5089 20.4011H12.4388V14.4273C12.4388 14.3284 12.5187 14.2485 12.6167 14.2485Z" fill="white"/>
<path fill-rule="evenodd" clip-rule="evenodd" d="M4.59467 13.0665L19.4018 13.0625C19.3638 12.3394 19.4687 12.0131 18.8472 11.5808C18.3101 11.2077 17.6626 11.0758 16.8962 10.9498C14.3303 10.5282 9.72861 10.5279 7.15787 10.9482C6.47467 11.0599 5.65388 11.2248 5.19564 11.5689C4.74015 11.911 4.55435 12.1907 4.59426 13.0661L4.59467 13.0665Z" fill="#E2231A"/>
<path d="M11.651 11.5688H8.17717C8.08961 11.5688 8.01863 11.6402 8.01863 11.7282V12.3616C8.01863 12.4496 8.08961 12.5209 8.17717 12.5209H11.651C11.7385 12.5209 11.8095 12.4496 11.8095 12.3616V11.7282C11.8095 11.6402 11.7385 11.5688 11.651 11.5688Z" fill="white"/>
<path d="M15.1234 11.3525H14.2513C14.1636 11.3525 14.0926 11.4239 14.0926 11.5119V12.4186C14.0926 12.5066 14.1636 12.578 14.2513 12.578H15.1234C15.2111 12.578 15.2818 12.5066 15.2818 12.4186V11.5119C15.2818 11.4239 15.2111 11.3525 15.1234 11.3525Z" fill="white"/>
<path fill-rule="evenodd" clip-rule="evenodd" d="M19.4023 22.7205L17.7464 22.7936C15.9216 22.8743 14.2409 23.1409 13.2086 24.6312L11.9976 26.3794L10.7873 24.6299C9.75183 23.133 8.06318 22.8644 6.23102 22.7884L4.59773 22.7205L2.84464 21.5825H21.198L19.4017 22.7205H19.4023Z" fill="#E2231A"/>
<path fill-rule="evenodd" clip-rule="evenodd" d="M21.8647 21.0728H2.18837L3.47847 21.9124H20.4528L21.8647 21.0728Z" fill="white"/>
<path d="M4.55667 16.4233H3.68685C3.54992 16.4233 3.43894 16.5349 3.43894 16.6725V18.18C3.43894 18.3176 3.54992 18.4292 3.68685 18.4292H4.55667C4.69357 18.4292 4.80455 18.3176 4.80455 18.18V16.6725C4.80455 16.5349 4.69357 16.4233 4.55667 16.4233Z" fill="#E2231A"/>
<path d="M20.3123 16.4233H19.4425C19.3056 16.4233 19.1947 16.5349 19.1947 16.6725V18.18C19.1947 18.3176 19.3056 18.4292 19.4425 18.4292H20.3123C20.4492 18.4292 20.5601 18.3176 20.5601 18.18V16.6725C20.5601 16.5349 20.4492 16.4233 20.3123 16.4233Z" fill="#E2231A"/>
<path d="M19.4621 13.0649H4.55307V13.5986H19.4621V13.0649Z" fill="white"/>
<path fill-rule="evenodd" clip-rule="evenodd" d="M19.6801 13.0655H4.31941L4.59616 12.6006H19.4034L19.6801 13.0655Z" fill="#E2231A"/>
</svg>
