<svg width="64" height="103" viewBox="0 0 64 103" fill="none" xmlns="http://www.w3.org/2000/svg">
<path d="M31.7885 0V38.0867L0 52.4677L31.7885 0Z" fill="#62D0FC"/>
<path d="M63.5645 52.4677L31.7886 38.0867V0L63.5645 52.4677Z" fill="#1EABE4"/>
<path d="M31.7885 71.1506V38.0868L0 52.4678L31.7885 71.1506Z" fill="#1EABE4"/>
<path d="M63.5645 52.4678L31.7886 38.0868V71.1506L63.5645 52.4678Z" fill="#0075A5"/>
<path d="M51.4134 64.8156H12.1582L31.7949 76.4316L51.4134 64.8156Z" fill="#E91F25"/>
<path d="M63.5897 58.4598L31.7886 77.1426V103.01L63.5897 58.4598Z" fill="#1EABE4"/>
<path d="M0 58.4598L31.7885 77.1426V103.01L0 58.4598Z" fill="#62D0FC"/>
<path d="M51.4024 35.042H12.1855V56.6864H51.4024V35.042Z" fill="#E91F25"/>
<path d="M51.399 35.042H31.7969V56.6864H51.399V35.042Z" fill="#BF0613"/>
<path d="M14.5964 37.3689H30.2083C30.4692 37.3689 30.6798 37.5794 30.6798 37.8378V47.3616H14.5964C14.3356 47.3616 14.125 47.1511 14.125 46.8927V37.8389C14.125 37.5794 14.3366 37.3699 14.5964 37.3699V37.3689Z" fill="black"/>
<path d="M33.4289 37.369H49.0409C49.3017 37.369 49.5123 37.5795 49.5123 37.8379V46.8917C49.5123 47.1512 49.3007 47.3606 49.0409 47.3606H32.9575V37.8369C32.9575 37.5774 33.1691 37.3679 33.4289 37.3679V37.369Z" fill="black"/>
<path d="M14.6117 48.4581H30.6793V52.4431C30.6793 52.7109 30.4604 52.9287 30.1912 52.9287H14.6117C14.3425 52.9287 14.1235 52.7109 14.1235 52.4431V48.9427C14.1235 48.6748 14.3425 48.457 14.6117 48.457V48.4581Z" fill="black"/>
<path d="M32.957 48.4581H49.0236C49.2928 48.4581 49.5118 48.6759 49.5118 48.9437V52.442C49.5118 52.7099 49.2928 52.9276 49.0236 52.9276H33.4452C33.176 52.9276 32.957 52.7099 32.957 52.442V48.457V48.4581Z" fill="black"/>
<path fill-rule="evenodd" clip-rule="evenodd" d="M12.1737 35.1031L51.4062 35.0926C51.3057 33.196 51.5833 31.5068 49.9365 30.373C48.5139 29.3944 46.798 29.0485 44.7678 28.7181C37.9691 27.6124 25.7764 27.6114 18.9651 28.7139C17.1549 29.0068 14.9801 29.4392 13.766 30.3417C12.5592 31.239 12.0668 32.8063 12.1726 35.102L12.1737 35.1031Z" fill="white"/>
<path fill-rule="evenodd" clip-rule="evenodd" d="M31.7918 35.098L51.4054 35.0928C51.3049 33.1962 51.5825 31.5069 49.9357 30.3731C48.5131 29.3946 46.7972 29.0486 44.767 28.7183C41.3676 28.1649 36.5373 27.8887 31.7876 27.8877L31.7907 35.097L31.7918 35.098Z" fill="#E3E6E8"/>
<path d="M33.7486 30.1909H21.6481C21.4161 30.1909 21.228 30.378 21.228 30.6088V32.99C21.228 33.2208 21.4161 33.4079 21.6481 33.4079H33.7486C33.9806 33.4079 34.1687 33.2208 34.1687 32.99V30.6088C34.1687 30.378 33.9806 30.1909 33.7486 30.1909Z" fill="#020100"/>
<path d="M42.4977 29.7284H39.2785C39.0465 29.7284 38.8584 29.9155 38.8584 30.1463V33.4518C38.8584 33.6826 39.0465 33.8697 39.2785 33.8697H42.4977C42.7297 33.8697 42.9177 33.6826 42.9177 33.4518V30.1463C42.9177 29.9155 42.7297 29.7284 42.4977 29.7284Z" fill="#020100"/>
<path fill-rule="evenodd" clip-rule="evenodd" d="M51.4064 59.5886L47.0191 59.7803C42.1846 59.9919 37.7314 60.6911 34.9962 64.6L31.7875 69.1843L28.5809 64.5959C25.8373 60.6703 21.3631 59.9658 16.5087 59.7668L12.1812 59.5886V56.604H51.4064V59.5886Z" fill="#FBCE01"/>
<path fill-rule="evenodd" clip-rule="evenodd" d="M31.7959 56.604H51.4075V59.5886L47.0202 59.7803C42.1857 59.9919 37.7325 60.6911 34.9973 64.6L31.7886 69.1843L31.7959 56.604Z" fill="#F9BE03"/>
<path d="M35.2635 59.2164H28.3265C28.1526 59.2164 28.0122 59.0768 28.0122 58.9038C28.0122 58.7308 28.1526 58.5912 28.3265 58.5912H35.2635C35.4374 58.5912 35.5778 58.7308 35.5778 58.9038C35.5778 59.0768 35.4374 59.2164 35.2635 59.2164Z" fill="black"/>
<path d="M35.2635 60.8505H28.3265C28.1526 60.8505 28.0122 60.7108 28.0122 60.5379C28.0122 60.3649 28.1526 60.2252 28.3265 60.2252H35.2635C35.4374 60.2252 35.5778 60.3649 35.5778 60.5379C35.5778 60.7108 35.4374 60.8505 35.2635 60.8505Z" fill="black"/>
<path d="M35.2635 62.4848H28.3265C28.1526 62.4848 28.0122 62.3451 28.0122 62.1721C28.0122 61.9991 28.1526 61.8595 28.3265 61.8595H35.2635C35.4374 61.8595 35.5778 61.9991 35.5778 62.1721C35.5778 62.3451 35.4374 62.4848 35.2635 62.4848Z" fill="black"/>
<path d="M51.4024 55.3578H12.1855V57.1106H51.4024V55.3578Z" fill="#029D3D"/>
<path d="M51.4087 55.3578H31.7939V57.1106H51.4087V55.3578Z" fill="#07702C"/>
<path d="M23.327 64.6185C24.1139 64.6185 24.7517 63.9839 24.7517 63.2012C24.7517 62.4185 24.1139 61.7839 23.327 61.7839C22.5402 61.7839 21.9023 62.4185 21.9023 63.2012C21.9023 63.9839 22.5402 64.6185 23.327 64.6185Z" fill="white"/>
<path d="M40.2611 64.6185C41.048 64.6185 41.6858 63.9839 41.6858 63.2012C41.6858 62.4185 41.048 61.7839 40.2611 61.7839C39.4743 61.7839 38.8364 62.4185 38.8364 63.2012C38.8364 63.9839 39.4743 64.6185 40.2611 64.6185Z" fill="white"/>
<path d="M11.5484 43.0736H9.24374C8.88099 43.0736 8.58691 43.3661 8.58691 43.727V47.6807C8.58691 48.0416 8.88099 48.3341 9.24374 48.3341H11.5484C11.9112 48.3341 12.2052 48.0416 12.2052 47.6807V43.727C12.2052 43.3661 11.9112 43.0736 11.5484 43.0736Z" fill="#020100"/>
<path d="M54.3428 43.0736H52.0382C51.6754 43.0736 51.3813 43.3661 51.3813 43.727V47.6807C51.3813 48.0416 51.6754 48.3341 52.0382 48.3341H54.3428C54.7056 48.3341 54.9997 48.0416 54.9997 47.6807V43.727C54.9997 43.3661 54.7056 43.0736 54.3428 43.0736Z" fill="#020100"/>
</svg>
