<svg width="217" height="278" viewBox="0 0 217 278" fill="none" xmlns="http://www.w3.org/2000/svg">
<path d="M6.74121 1.2002C10.3606 1.20026 13.2822 4.02745 13.2822 7.5C13.2822 10.9726 10.3606 13.7997 6.74121 13.7998C3.12174 13.7998 0.200195 10.9726 0.200195 7.5C0.200195 4.02741 3.12174 1.2002 6.74121 1.2002Z" fill="#D9D9D9" stroke="black" stroke-width="0.4"/>
<rect width="3.06941" height="12.351" rx="1.5347" transform="matrix(0.797805 0.602915 -0.630741 0.775994 9.41016 1.7832)" fill="#A0A0A0"/>
<path d="M2.64172 267.636C3.70688 264.317 7.36546 262.45 10.8217 263.481C14.2777 264.513 16.2033 268.046 15.1383 271.365C14.0732 274.683 10.4145 276.55 6.95832 275.519C3.5021 274.488 1.57658 270.955 2.64172 267.636Z" fill="#D9D9D9" stroke="black" stroke-width="0.4"/>
<rect width="3.04515" height="12.4495" rx="1.52258" transform="matrix(0.839817 -0.561086 0.577735 0.803989 4.01367 265.351)" fill="#A0A0A0"/>
<path d="M205.741 0.200195C209.361 0.200259 212.282 3.02745 212.282 6.5C212.282 9.97255 209.361 12.7997 205.741 12.7998C202.122 12.7998 199.2 9.97259 199.2 6.5C199.2 3.02741 202.122 0.200195 205.741 0.200195Z" fill="#D9D9D9" stroke="black" stroke-width="0.4"/>
<rect width="3.06941" height="12.351" rx="1.5347" transform="matrix(0.797805 0.602915 -0.630741 0.775994 208.41 0.783203)" fill="#A0A0A0"/>
<path d="M201.642 267.636C202.707 264.317 206.365 262.45 209.822 263.481C213.278 264.513 215.203 268.046 214.138 271.365C213.073 274.683 209.414 276.55 205.958 275.519C202.502 274.488 200.577 270.955 201.642 267.636Z" fill="#D9D9D9" stroke="black" stroke-width="0.4"/>
<rect width="3.04515" height="12.4495" rx="1.52258" transform="matrix(0.839817 -0.561086 0.577735 0.803989 203.014 265.351)" fill="#A0A0A0"/>
</svg>
