<svg width="216" height="277" viewBox="0 0 216 277" fill="none" xmlns="http://www.w3.org/2000/svg">
<path d="M6.74121 0.200195C10.3606 0.200259 13.2822 3.02745 13.2822 6.5C13.2822 9.97255 10.3606 12.7997 6.74121 12.7998C3.12174 12.7998 0.200195 9.97259 0.200195 6.5C0.200195 3.02741 3.12174 0.200195 6.74121 0.200195Z" fill="#D9D9D9" stroke="black" stroke-width="0.4"/>
<rect width="3.06941" height="12.351" rx="1.5347" transform="matrix(0.797805 0.602915 -0.630741 0.775994 9.41016 0.783203)" fill="#A0A0A0"/>
<path d="M4.64172 266.636C5.70688 263.317 9.36546 261.45 12.8217 262.481C16.2777 263.513 18.2033 267.046 17.1383 270.365C16.0732 273.683 12.4145 275.55 8.95832 274.519C5.5021 273.488 3.57658 269.955 4.64172 266.636Z" fill="#D9D9D9" stroke="black" stroke-width="0.4"/>
<rect width="3.04515" height="12.4495" rx="1.52258" transform="matrix(0.839817 -0.561086 0.577735 0.803989 6.01367 264.351)" fill="#A0A0A0"/>
<path d="M202.741 0.200195C206.361 0.200259 209.282 3.02745 209.282 6.5C209.282 9.97255 206.361 12.7997 202.741 12.7998C199.122 12.7998 196.2 9.97259 196.2 6.5C196.2 3.02741 199.122 0.200195 202.741 0.200195Z" fill="#D9D9D9" stroke="black" stroke-width="0.4"/>
<rect width="3.06941" height="12.351" rx="1.5347" transform="matrix(0.797805 0.602915 -0.630741 0.775994 205.41 0.783203)" fill="#A0A0A0"/>
<path d="M200.642 266.636C201.707 263.317 205.365 261.45 208.822 262.481C212.278 263.513 214.203 267.046 213.138 270.365C212.073 273.683 208.414 275.55 204.958 274.519C201.502 273.488 199.577 269.955 200.642 266.636Z" fill="#D9D9D9" stroke="black" stroke-width="0.4"/>
<rect width="3.04515" height="12.4495" rx="1.52258" transform="matrix(0.839817 -0.561086 0.577735 0.803989 202.014 264.351)" fill="#A0A0A0"/>
</svg>
