<svg width="623" height="471" viewBox="0 0 623 471" fill="none" xmlns="http://www.w3.org/2000/svg">
<rect x="63.5" y="0.5" width="507" height="328" fill="#E2261E" stroke="#0B0B0B"/>
<g clip-path="url(#clip0_2315_180)">
<path d="M411.457 51H205.4C179.222 51 158 72.2035 158 98.3593V98.3595C158 124.515 179.222 145.719 205.4 145.719H411.457C437.636 145.719 458.857 124.515 458.857 98.3593C458.857 72.2035 437.636 51 411.457 51Z" fill="white"/>
<path d="M246.34 109.7C245.81 109.7 245.349 109.504 244.957 109.112C244.588 108.721 244.404 108.261 244.404 107.731V86.4591C244.404 85.9296 244.588 85.4692 244.957 85.0778C245.349 84.6864 245.81 84.4907 246.34 84.4907H258.575C259.105 84.4907 259.554 84.6864 259.923 85.0778C260.314 85.4692 260.511 85.9296 260.511 86.4591V87.2534C260.511 87.7829 260.314 88.2433 259.923 88.6347C259.554 89.026 259.105 89.2217 258.575 89.2217H250.556C250.372 89.2217 250.28 89.3138 250.28 89.498V94.0563C250.28 94.2635 250.372 94.3671 250.556 94.3671H257.884C258.413 94.3671 258.863 94.5628 259.232 94.9542C259.623 95.3455 259.819 95.806 259.819 96.3355V96.8535C259.819 97.383 259.623 97.8434 259.232 98.2348C258.863 98.6262 258.413 98.8218 257.884 98.8218H250.556C250.372 98.8218 250.28 98.914 250.28 99.0981V104.692C250.28 104.877 250.372 104.969 250.556 104.969H258.575C259.105 104.969 259.554 105.164 259.923 105.556C260.314 105.947 260.511 106.407 260.511 106.937V107.731C260.511 108.261 260.314 108.721 259.923 109.112C259.554 109.504 259.105 109.7 258.575 109.7H246.34ZM264.119 89.3599C263.588 89.3599 263.128 89.1642 262.736 88.7728C262.344 88.3814 262.149 87.921 262.149 87.3915V86.4591C262.149 85.9296 262.344 85.4692 262.736 85.0778C263.128 84.6864 263.588 84.4907 264.119 84.4907H279.533C280.064 84.4907 280.524 84.6864 280.916 85.0778C281.308 85.4692 281.503 85.9296 281.503 86.4591V87.3915C281.503 87.921 281.308 88.3814 280.916 88.7728C280.524 89.1642 280.064 89.3599 279.533 89.3599H275.11C274.925 89.3599 274.833 89.4519 274.833 89.6361V107.731C274.833 108.261 274.637 108.721 274.245 109.112C273.853 109.504 273.393 109.7 272.863 109.7H270.789C270.259 109.7 269.798 109.504 269.407 109.112C269.015 108.721 268.819 108.261 268.819 107.731V89.6361C268.819 89.4519 268.727 89.3599 268.542 89.3599H264.119ZM285.447 109.7C284.918 109.7 284.456 109.504 284.065 109.112C283.673 108.721 283.477 108.261 283.477 107.731V86.4591C283.477 85.9296 283.673 85.4692 284.065 85.0778C284.456 84.6864 284.918 84.4907 285.447 84.4907H287.417C287.947 84.4907 288.396 84.6864 288.765 85.0778C289.157 85.4692 289.353 85.9296 289.353 86.4591V94.0563C289.353 94.2635 289.457 94.3671 289.664 94.3671H296.784C296.991 94.3671 297.095 94.2635 297.095 94.0563V86.4591C297.095 85.9296 297.279 85.4692 297.648 85.0778C298.039 84.6864 298.5 84.4907 299.03 84.4907H301C301.53 84.4907 301.991 84.6864 302.383 85.0778C302.774 85.4692 302.971 85.9296 302.971 86.4591V107.731C302.971 108.261 302.774 108.721 302.383 109.112C301.991 109.504 301.53 109.7 301 109.7H299.03C298.5 109.7 298.039 109.504 297.648 109.112C297.279 108.721 297.095 108.261 297.095 107.731V99.0981C297.095 98.914 296.991 98.8218 296.784 98.8218H289.664C289.457 98.8218 289.353 98.914 289.353 99.0981V107.731C289.353 108.261 289.157 108.721 288.765 109.112C288.396 109.504 287.947 109.7 287.417 109.7H285.447Z" fill="#D02119"/>
<path d="M307.829 109.7C307.299 109.7 306.838 109.504 306.447 109.112C306.055 108.721 305.859 108.261 305.859 107.731V86.4592C305.859 85.9297 306.055 85.4693 306.447 85.0779C306.838 84.6865 307.299 84.4908 307.829 84.4908H309.799C310.398 84.4908 310.939 84.652 311.423 84.9743C311.907 85.2966 312.264 85.734 312.495 86.2865L317.852 99.3054C317.852 99.3284 317.863 99.3399 317.887 99.3399C317.91 99.3399 317.921 99.3284 317.921 99.3054L323.278 86.2865C323.508 85.734 323.866 85.2966 324.349 84.9743C324.834 84.652 325.375 84.4908 325.974 84.4908H328.083C328.612 84.4908 329.073 84.6865 329.465 85.0779C329.857 85.4693 330.052 85.9297 330.052 86.4592V107.731C330.052 108.261 329.857 108.721 329.465 109.112C329.073 109.504 328.612 109.7 328.083 109.7H326.423C325.894 109.7 325.433 109.504 325.041 109.112C324.672 108.721 324.488 108.261 324.488 107.731V94.2981C324.488 94.2751 324.477 94.2636 324.453 94.2636C324.407 94.2636 324.384 94.2751 324.384 94.2981L321.066 102.137C320.836 102.69 320.467 103.127 319.96 103.449C319.476 103.772 318.935 103.933 318.336 103.933H317.437C316.838 103.933 316.285 103.772 315.778 103.449C315.294 103.127 314.937 102.69 314.707 102.137L311.389 94.2981C311.389 94.2751 311.366 94.2636 311.32 94.2636C311.297 94.2636 311.285 94.2751 311.285 94.2981V107.731C311.285 108.261 311.089 108.721 310.697 109.112C310.329 109.504 309.88 109.7 309.349 109.7H307.829ZM351.881 100.549C351.881 106.88 348.655 110.045 342.203 110.045C335.752 110.045 332.526 106.88 332.526 100.549V86.4592C332.526 85.9297 332.722 85.4693 333.113 85.0779C333.505 84.6865 333.966 84.4908 334.496 84.4908H336.5C337.031 84.4908 337.491 84.6865 337.883 85.0779C338.275 85.4693 338.47 85.9297 338.47 86.4592V100.963C338.47 102.528 338.77 103.645 339.369 104.313C339.968 104.98 340.936 105.314 342.273 105.314C343.609 105.314 344.577 104.98 345.176 104.313C345.775 103.645 346.074 102.528 346.074 100.963V86.4592C346.074 85.9297 346.27 85.4693 346.662 85.0779C347.053 84.6865 347.515 84.4908 348.044 84.4908H349.911C350.441 84.4908 350.902 84.6865 351.293 85.0779C351.685 85.4693 351.881 85.9297 351.881 86.4592V100.549ZM356.353 109.7C355.822 109.7 355.362 109.504 354.97 109.112C354.578 108.721 354.383 108.261 354.383 107.731V86.4592C354.383 85.9297 354.578 85.4693 354.97 85.0779C355.362 84.6865 355.822 84.4908 356.353 84.4908H358.322C358.922 84.4908 359.463 84.652 359.947 84.9743C360.431 85.2966 360.788 85.734 361.018 86.2865L366.375 99.3054C366.375 99.3284 366.387 99.3399 366.41 99.3399C366.433 99.3399 366.445 99.3284 366.445 99.3054L371.802 86.2865C372.032 85.734 372.389 85.2966 372.874 84.9743C373.357 84.652 373.899 84.4908 374.498 84.4908H376.606C377.136 84.4908 377.597 84.6865 377.988 85.0779C378.38 85.4693 378.576 85.9297 378.576 86.4592V107.731C378.576 108.261 378.38 108.721 377.988 109.112C377.597 109.504 377.136 109.7 376.606 109.7H374.947C374.417 109.7 373.956 109.504 373.565 109.112C373.196 108.721 373.012 108.261 373.012 107.731V94.2981C373.012 94.2751 373 94.2636 372.977 94.2636C372.931 94.2636 372.908 94.2751 372.908 94.2981L369.59 102.137C369.359 102.69 368.991 103.127 368.484 103.449C368 103.772 367.459 103.933 366.859 103.933H365.961C365.362 103.933 364.809 103.772 364.302 103.449C363.818 103.127 363.461 102.69 363.231 102.137L359.913 94.2981C359.913 94.2751 359.889 94.2636 359.843 94.2636C359.82 94.2636 359.809 94.2751 359.809 94.2981V107.731C359.809 108.261 359.613 108.721 359.221 109.112C358.853 109.504 358.403 109.7 357.874 109.7H356.353ZM387.167 98.9946V105.072C387.167 105.28 387.27 105.406 387.478 105.452C387.962 105.544 388.549 105.59 389.241 105.59C390.876 105.59 392.075 105.291 392.835 104.693C393.596 104.071 393.976 103.127 393.976 101.861C393.976 99.7428 392.248 98.6838 388.791 98.6838H387.443C387.259 98.6838 387.167 98.7874 387.167 98.9946ZM387.167 89.1182V94.1946C387.167 94.3787 387.259 94.4708 387.443 94.4708H388.308C391.671 94.4708 393.353 93.4693 393.353 91.4665C393.353 89.5556 391.948 88.6002 389.137 88.6002C388.469 88.6002 387.905 88.6463 387.443 88.7383C387.259 88.7844 387.167 88.911 387.167 89.1182ZM383.331 109.769C382.778 109.723 382.317 109.481 381.948 109.044C381.579 108.606 381.395 108.111 381.395 107.559V86.6318C381.395 86.0563 381.579 85.5613 381.948 85.147C382.34 84.7095 382.812 84.4678 383.365 84.4218C385.162 84.2376 386.925 84.1455 388.653 84.1455C395.335 84.1455 398.676 86.298 398.676 90.6031C398.676 92.0535 398.204 93.2852 397.259 94.2981C396.337 95.3111 395.093 95.9557 393.526 96.232C393.503 96.232 393.492 96.255 393.492 96.3011C393.492 96.3241 393.515 96.3356 393.561 96.3356C395.381 96.5888 396.821 97.2795 397.882 98.4076C398.964 99.5356 399.505 100.882 399.505 102.448C399.505 105.003 398.653 106.914 396.948 108.18C395.266 109.424 392.616 110.045 388.999 110.045C387.179 110.045 385.289 109.953 383.331 109.769ZM409.597 89.6017L407.074 99.5126C407.051 99.5816 407.063 99.6508 407.109 99.7198C407.178 99.7658 407.247 99.7889 407.316 99.7889H411.948C412.017 99.7889 412.074 99.7658 412.12 99.7198C412.189 99.6508 412.212 99.5816 412.189 99.5126L409.666 89.6017C409.666 89.5786 409.655 89.5671 409.632 89.5671C409.609 89.5671 409.597 89.5786 409.597 89.6017ZM400.369 109.7C399.885 109.7 399.494 109.504 399.194 109.112C398.918 108.721 398.859 108.295 399.021 107.835L406.003 86.3556C406.187 85.8031 406.509 85.3541 406.97 85.0088C407.454 84.6635 407.984 84.4908 408.56 84.4908H410.841C411.441 84.4908 411.982 84.6635 412.466 85.0088C412.949 85.3541 413.272 85.8031 413.434 86.3556L420.38 107.835C420.542 108.295 420.473 108.721 420.173 109.112C419.897 109.504 419.517 109.7 419.032 109.7H416.717C416.141 109.7 415.623 109.527 415.162 109.182C414.701 108.813 414.401 108.353 414.263 107.8L413.434 104.52C413.411 104.336 413.296 104.244 413.088 104.244H406.175C405.991 104.244 405.876 104.336 405.83 104.52L405 107.8C404.862 108.353 404.563 108.813 404.101 109.182C403.641 109.527 403.122 109.7 402.546 109.7H400.369ZM423.597 109.7C423.067 109.7 422.606 109.504 422.215 109.112C421.846 108.721 421.662 108.261 421.662 107.731V86.4592C421.662 85.9297 421.846 85.4693 422.215 85.0779C422.606 84.6865 423.067 84.4908 423.597 84.4908H426.155C426.685 84.4908 427.134 84.6865 427.502 85.0779C427.894 85.4693 428.09 85.9297 428.09 86.4592V107.731C428.09 108.261 427.894 108.721 427.502 109.112C427.134 109.504 426.685 109.7 426.155 109.7H423.597Z" fill="#D02119"/>
<path d="M209.357 62.875V90.0442L186.667 100.303L209.357 62.875Z" fill="#62D0FC"/>
<path d="M232.038 100.303L209.357 90.0442V62.875L232.038 100.303Z" fill="#1EABE4"/>
<path d="M209.357 113.631V90.0444L186.667 100.303L209.357 113.631Z" fill="#1EABE4"/>
<path d="M232.038 100.303L209.357 90.0444V113.631L232.038 100.303Z" fill="#0075A5"/>
<path d="M223.364 105.399H195.345L209.361 113.642L223.364 105.399Z" fill="#E91F25"/>
<path d="M232.056 104.578L209.357 117.905V136.357L232.056 104.578Z" fill="#1EABE4"/>
<path d="M186.667 104.578L209.357 117.905V136.357L186.667 104.578Z" fill="#62D0FC"/>
<path d="M223.356 87.8721H195.364V103.312H223.356V87.8721Z" fill="#E91F25"/>
<path d="M223.354 87.8721H209.363V103.312H223.354V87.8721Z" fill="#BF0613"/>
<path d="M197.085 89.5317H208.228C208.414 89.5317 208.565 89.6819 208.565 89.8663V96.6601H197.085C196.899 96.6601 196.748 96.5099 196.748 96.3255V89.867C196.748 89.6819 196.899 89.5325 197.085 89.5325V89.5317Z" fill="black"/>
<path d="M210.528 89.532H221.671C221.857 89.532 222.008 89.6822 222.008 89.8665V96.325C222.008 96.5101 221.857 96.6596 221.671 96.6596H210.191V89.8658C210.191 89.6807 210.342 89.5312 210.528 89.5312V89.532Z" fill="black"/>
<path d="M197.096 97.4422H208.565V100.285C208.565 100.476 208.409 100.631 208.217 100.631H197.096C196.904 100.631 196.748 100.476 196.748 100.285V97.7878C196.748 97.5968 196.904 97.4414 197.096 97.4414V97.4422Z" fill="black"/>
<path d="M210.19 97.4422H221.658C221.851 97.4422 222.007 97.5975 222.007 97.7886V100.284C222.007 100.475 221.851 100.631 221.658 100.631H210.539C210.347 100.631 210.19 100.475 210.19 100.284V97.4414V97.4422Z" fill="black"/>
<path fill-rule="evenodd" clip-rule="evenodd" d="M195.356 87.916L223.359 87.9085C223.287 86.5556 223.486 85.3505 222.31 84.5417C221.295 83.8437 220.07 83.5969 218.621 83.3612C213.768 82.5725 205.065 82.5718 200.203 83.3583C198.911 83.5672 197.359 83.8757 196.492 84.5194C195.631 85.1595 195.28 86.2775 195.355 87.9152L195.356 87.916Z" fill="white"/>
<path fill-rule="evenodd" clip-rule="evenodd" d="M209.359 87.912L223.359 87.9083C223.287 86.5554 223.485 85.3503 222.31 84.5415C221.294 83.8435 220.069 83.5967 218.62 83.361C216.194 82.9663 212.746 82.7693 209.356 82.7686L209.358 87.9113L209.359 87.912Z" fill="#E3E6E8"/>
<path d="M210.756 84.4116H202.119C201.953 84.4116 201.819 84.5451 201.819 84.7097V86.4084C201.819 86.573 201.953 86.7064 202.119 86.7064H210.756C210.921 86.7064 211.056 86.573 211.056 86.4084V84.7097C211.056 84.5451 210.921 84.4116 210.756 84.4116Z" fill="#020100"/>
<path d="M217.001 84.082H214.703C214.537 84.082 214.403 84.2155 214.403 84.3801V86.7381C214.403 86.9028 214.537 87.0362 214.703 87.0362H217.001C217.166 87.0362 217.301 86.9028 217.301 86.7381V84.3801C217.301 84.2155 217.166 84.082 217.001 84.082Z" fill="#020100"/>
<path fill-rule="evenodd" clip-rule="evenodd" d="M223.359 105.382L220.228 105.519C216.777 105.67 213.599 106.169 211.646 108.957L209.356 112.228L207.067 108.954C205.109 106.154 201.915 105.652 198.45 105.51L195.361 105.382V103.253H223.359V105.382Z" fill="#FBCE01"/>
<path fill-rule="evenodd" clip-rule="evenodd" d="M209.362 103.253H223.36V105.382L220.229 105.519C216.778 105.67 213.599 106.169 211.647 108.957L209.357 112.228L209.362 103.253Z" fill="#F9BE03"/>
<path d="M211.837 105.117H206.885C206.761 105.117 206.661 105.017 206.661 104.894C206.661 104.771 206.761 104.671 206.885 104.671H211.837C211.961 104.671 212.061 104.771 212.061 104.894C212.061 105.017 211.961 105.117 211.837 105.117Z" fill="black"/>
<path d="M211.837 106.283H206.885C206.761 106.283 206.661 106.183 206.661 106.06C206.661 105.937 206.761 105.837 206.885 105.837H211.837C211.961 105.837 212.061 105.937 212.061 106.06C212.061 106.183 211.961 106.283 211.837 106.283Z" fill="black"/>
<path d="M211.837 107.448H206.885C206.761 107.448 206.661 107.349 206.661 107.225C206.661 107.102 206.761 107.002 206.885 107.002H211.837C211.961 107.002 212.061 107.102 212.061 107.225C212.061 107.349 211.961 107.448 211.837 107.448Z" fill="black"/>
<path d="M223.356 102.364H195.364V103.615H223.356V102.364Z" fill="#029D3D"/>
<path d="M223.361 102.364H209.36V103.615H223.361V102.364Z" fill="#07702C"/>
<path d="M203.317 108.971C203.879 108.971 204.334 108.518 204.334 107.96C204.334 107.401 203.879 106.949 203.317 106.949C202.756 106.949 202.3 107.401 202.3 107.96C202.3 108.518 202.756 108.971 203.317 108.971Z" fill="white"/>
<path d="M215.404 108.971C215.966 108.971 216.421 108.518 216.421 107.96C216.421 107.401 215.966 106.949 215.404 106.949C214.843 106.949 214.387 107.401 214.387 107.96C214.387 108.518 214.843 108.971 215.404 108.971Z" fill="white"/>
<path d="M194.91 93.6016H193.265C193.006 93.6016 192.796 93.8102 192.796 94.0677V96.8881C192.796 97.1455 193.006 97.3542 193.265 97.3542H194.91C195.169 97.3542 195.379 97.1455 195.379 96.8881V94.0677C195.379 93.8102 195.169 93.6016 194.91 93.6016Z" fill="#020100"/>
<path d="M225.455 93.6016H223.81C223.551 93.6016 223.342 93.8102 223.342 94.0677V96.8881C223.342 97.1455 223.551 97.3542 223.81 97.3542H225.455C225.714 97.3542 225.924 97.1455 225.924 96.8881V94.0677C225.924 93.8102 225.714 93.6016 225.455 93.6016Z" fill="#020100"/>
</g>
<path d="M159.5 210H158V202.5L146.5 192C141.5 191.5 141 189 141 187.5C141 186.3 142 185.667 142.5 185.5C147.7 184.7 148.333 188.5 148 190.5L159.5 201.5V210Z" fill="#0C0C0C" stroke="#0B0B0B"/>
<path d="M108.5 227.818V210.818L86.5 221.704V227.818H108.5Z" fill="#CC2520" stroke="#0B0B0B"/>
<rect x="0.5" y="361.5" width="622" height="38" fill="#CC2520" stroke="#0B0B0B"/>
<path d="M570.353 328.5L621.308 361.5H1.98633L63.3779 328.5H570.353Z" fill="#E1291F" stroke="#0B0B0B"/>
<rect x="119.5" y="228.5" width="51" height="123" fill="#E1291F" stroke="#0B0B0B"/>
<path d="M146.863 262.386V277.63L134.269 283.386L146.863 262.386Z" fill="white"/>
<path d="M146.756 262.772V277.56L134.539 283.144L146.756 262.772ZM146.97 262L134 283.627L146.97 277.699V262Z" fill="#E1291F"/>
<path d="M147.077 277.63V262.386L159.665 283.386L147.077 277.63Z" fill="white"/>
<path d="M147.183 262.773L159.396 283.145L147.183 277.561V262.773ZM146.97 262V277.699L159.934 283.627L146.97 262Z" fill="#E1291F"/>
<path d="M134.185 283.636L146.885 277.832V291.177L134.185 283.636Z" fill="white"/>
<path d="M146.799 277.966V291.027L134.37 283.647L146.799 277.966M146.97 277.699L134 283.627L146.97 291.328V277.699Z" fill="#E1291F"/>
<path d="M147.055 277.832L159.75 283.636L147.055 291.177V277.832Z" fill="white"/>
<path d="M147.141 277.966L159.565 283.647L147.141 291.027V277.966M146.97 277.699V291.328L159.934 283.627L146.97 277.699Z" fill="#E1291F"/>
<path d="M147.077 293.859L159.568 286.445L147.077 304.123V293.859Z" fill="white"/>
<path d="M159.19 286.794L147.183 303.786V293.92L159.19 286.794M159.945 286.097L146.97 293.797V304.46L159.945 286.097Z" fill="#E1291F"/>
<path d="M134.377 286.445L146.863 293.859V304.123L134.377 286.445Z" fill="white"/>
<path d="M134.755 286.794L146.756 293.92V303.786L134.755 286.794ZM134 286.097L146.97 304.46V293.797L134 286.097Z" fill="#E1291F"/>
<path d="M154.973 276.702H138.972V285.366H154.973V276.702Z" fill="#E1291F"/>
<path d="M139.955 277.403H146.324C146.431 277.403 146.517 277.49 146.517 277.596V284.054H139.955C139.848 284.054 139.762 283.967 139.762 283.861V277.596C139.762 277.489 139.849 277.403 139.955 277.403Z" fill="white"/>
<path d="M147.639 277.403H154.009C154.116 277.403 154.202 277.49 154.202 277.596V283.861C154.202 283.968 154.115 284.054 154.009 284.054H147.447V277.596C147.447 277.489 147.533 277.403 147.639 277.403Z" fill="white"/>
<path fill-rule="evenodd" clip-rule="evenodd" d="M138.967 276.125L154.974 276.121C154.933 275.339 155.046 274.987 154.375 274.519C153.794 274.116 153.094 273.973 152.265 273.837C149.492 273.382 144.517 273.381 141.738 273.836C140.999 273.956 140.112 274.135 139.617 274.507C139.124 274.876 138.923 275.179 138.967 276.125L138.967 276.125Z" fill="#E1291F"/>
<path d="M146.595 274.506H142.84C142.745 274.506 142.668 274.583 142.668 274.679V275.363C142.668 275.458 142.745 275.536 142.84 275.536H146.595C146.69 275.536 146.766 275.458 146.766 275.363V274.679C146.766 274.583 146.69 274.506 146.595 274.506Z" fill="white"/>
<path d="M150.349 274.273H149.407C149.312 274.273 149.235 274.35 149.235 274.445V275.425C149.235 275.521 149.312 275.598 149.407 275.598H150.349C150.444 275.598 150.521 275.521 150.521 275.425V274.445C150.521 274.35 150.444 274.273 150.349 274.273Z" fill="white"/>
<path fill-rule="evenodd" clip-rule="evenodd" d="M154.975 286.562L153.184 286.641C151.212 286.728 149.395 287.016 148.279 288.627L146.97 290.517L145.662 288.626C144.542 287.008 142.717 286.717 140.736 286.635L138.97 286.562L137.075 285.332H156.916L154.974 286.562H154.975Z" fill="#E1291F"/>
<path fill-rule="evenodd" clip-rule="evenodd" d="M157.637 284.781H136.366L137.76 285.688H156.11L157.637 284.781Z" fill="white"/>
<path d="M138.926 279.754H137.986C137.838 279.754 137.718 279.875 137.718 280.024V281.653C137.718 281.802 137.838 281.923 137.986 281.923H138.926C139.074 281.923 139.194 281.802 139.194 281.653V280.024C139.194 279.875 139.074 279.754 138.926 279.754Z" fill="#E1291F"/>
<path d="M155.958 279.754H155.018C154.87 279.754 154.75 279.875 154.75 280.024V281.653C154.75 281.802 154.87 281.923 155.018 281.923H155.958C156.106 281.923 156.226 281.802 156.226 281.653V280.024C156.226 279.875 156.106 279.754 155.958 279.754Z" fill="#E1291F"/>
<path d="M155.039 276.124H138.922V276.7H155.039V276.124Z" fill="white"/>
<path fill-rule="evenodd" clip-rule="evenodd" d="M155.275 276.124H138.67L138.969 275.622H154.976L155.275 276.124Z" fill="#E1291F"/>
<rect x="102.5" y="228.5" width="17" height="123" fill="#CC2520" stroke="#0B0B0B"/>
<rect x="108.5" y="210.5" width="73" height="18" fill="#E1291F" stroke="#0B0B0B"/>
<rect x="157.5" y="0.5" width="301" height="10" fill="white" stroke="#0B0B0B"/>
<path d="M361.607 163.849C354.184 161.703 355.809 136.114 348.545 123.568C340.151 121.556 324.496 119.734 321.845 122.952C319.194 126.17 321.624 151.557 323.17 163.849H361.607Z" fill="#090A09" stroke="black"/>
<path d="M358.45 340.562C359.245 339.373 363.522 311.609 361.369 297.239C359.384 283.984 363.853 274.126 366.834 261.775C370.719 245.673 363.853 227.584 363.853 227.584C360.27 228.593 356.387 229.285 352.428 229.737C339.267 231.239 325.269 230.087 318.65 229.071C318.251 231.858 315.137 246.922 320.668 274.126C325.108 295.966 325.517 323.212 326.753 340.562H338.64C338.64 340.562 337.818 319.774 338.64 306.483C339.497 292.616 342.99 272.181 342.99 272.181L346.564 303.842V340.562C351.366 341.058 357.655 341.751 358.45 340.562Z" fill="#898D92"/>
<path d="M342.99 272.181L337.526 248.396C336.731 245.621 333.221 242.945 331.565 241.954M342.99 272.181C342.99 272.181 339.497 292.616 338.64 306.483C337.818 319.774 338.64 340.562 338.64 340.562H326.753C325.517 323.212 325.108 295.966 320.668 274.126C315.137 246.922 318.251 231.858 318.65 229.071C325.269 230.087 339.267 231.239 352.428 229.737M342.99 272.181L346.564 303.842V340.562C351.366 341.058 357.655 341.751 358.45 340.562C359.245 339.373 363.522 311.609 361.369 297.239C359.384 283.984 363.853 274.126 366.834 261.775C370.719 245.673 363.853 227.584 363.853 227.584C360.27 228.593 356.387 229.285 352.428 229.737M361.369 241.954C358.223 241.738 352.031 238.991 352.428 229.737" stroke="#1A1A1A" stroke-linecap="round"/>
<path d="M357.79 164.509C355.814 162.542 349.866 163.188 346.319 156.305C327.545 157.288 322.131 163.188 320.811 164.509C317.541 167.779 314.207 178.376 310.245 184.822H317.663L323.452 211.864L316.181 230.056C335.548 235.563 356.859 231.367 365.093 228.581C365.884 228.188 359.494 217.272 359.165 211.864L361.141 192.689C367.86 191.902 370.363 190.722 372.998 189.739C364.394 169.792 360.26 166.967 357.79 164.509Z" fill="#FFFDFE"/>
<path d="M361.141 192.689C367.86 191.902 370.363 190.722 372.998 189.739C364.394 169.792 360.26 166.967 357.79 164.509C355.814 162.542 349.866 163.188 346.319 156.305C327.545 157.288 322.131 163.188 320.811 164.509C317.541 167.779 314.207 178.376 310.245 184.822H317.663M361.141 192.689L359.165 211.864C359.494 217.272 365.884 228.188 365.093 228.581C356.859 231.367 335.548 235.563 316.181 230.056L323.452 211.864L317.663 184.822M361.141 192.689H359.165L355.706 179.905M317.663 184.822V177.447" stroke="#1A1A1A"/>
<path d="M350.881 136.391C353.299 140.37 349.201 143.687 346.85 144.848C346.85 144.848 345.543 149.13 345.243 151.963C344.972 154.527 345.243 158.566 345.243 158.566C344.068 160.39 342.417 164.647 338.79 166.238C335.162 167.83 332.576 164.249 331.736 162.259V154.604C330.93 154.604 329.385 153.941 328.714 153.609C324.112 150.277 323.195 145.097 322.792 144.699C322.389 144.301 321.661 134.898 321.661 128.929C323.676 128.763 325.433 120.926 334.017 120.926C341.315 120.926 348.545 131.492 344.331 138.381C347.555 134.401 350.041 135.396 350.881 136.391Z" fill="#EEAF85"/>
<path d="M331.736 154.604C330.93 154.604 329.385 153.941 328.714 153.609C324.112 150.277 323.195 145.097 322.792 144.699C322.389 144.301 321.661 134.898 321.661 128.929C323.676 128.763 325.433 120.926 334.017 120.926C341.315 120.926 348.545 131.492 344.331 138.381C347.555 134.401 350.041 135.396 350.881 136.391C353.299 140.37 349.201 143.687 346.85 144.848C346.85 144.848 345.543 149.13 345.243 151.963C344.972 154.527 345.243 158.566 345.243 158.566C344.068 160.39 342.417 164.647 338.79 166.238C335.162 167.83 332.576 164.249 331.736 162.259V154.604ZM331.736 154.604C333.752 154.77 334.61 154.359 338.64 149.981" stroke="#1A1A1A"/>
<path d="M326.289 171.084V172.248V188.942H330.223V171.084C333.107 165.183 329.911 162.292 327.928 162.543C323.12 163.152 324.869 168.884 326.289 171.084Z" fill="#090A09" stroke="#1A1A1A" stroke-linecap="round"/>
<path d="M339.788 355.682H311.501C311.164 353.96 311.097 350.423 313.522 350.047C315.946 349.671 321.94 345.508 324.634 343.473H325.139L326.655 340.186H339.788L340.293 347.229C342.313 350.986 340.798 354.429 339.788 355.682Z" fill="#090A09" stroke="#1A1A1A" stroke-linecap="round"/>
<path d="M362.462 356.317H345.848C342.525 353.969 346.797 345.047 346.797 344.108V340.821H358.19C358.19 342.7 360.721 347.865 361.987 350.213C363.886 352.466 363.095 355.221 362.462 356.317Z" fill="#090A09" stroke="#1A1A1A" stroke-linecap="round"/>
<path d="M334.057 147.007C333.744 147.547 332.273 148.466 328.892 147.817" stroke="#1A1A1A" stroke-linecap="round"/>
<path d="M328.381 140.076C328.381 140.076 327.414 142.718 327.414 143.364C327.414 144.162 328.775 144.503 329.395 144.038" stroke="#1A1A1A" stroke-linecap="round"/>
<path d="M335.09 134.199C334.445 133.649 332.921 132.963 331.991 134.611" stroke="#1A1A1A" stroke-linecap="round"/>
<path d="M324.103 134.634C324.658 134.049 326.029 133.245 327.075 134.709" stroke="#1A1A1A" stroke-linecap="round"/>
<path d="M333.357 125.549C329.924 127.02 321.519 131.317 320.811 129.511C318.347 123.229 323.245 118.497 326.754 116.304C332.037 113.002 336.518 113.825 339.419 115.227C343.3 115.227 348.151 120.712 349.121 123.704C350.092 126.696 349.122 136.125 349.122 135.127C349.122 134.13 345.729 138.257 345.243 138.755C344.855 139.154 344.731 140.072 343.923 140.736C341.958 142.352 345.388 137.945 341.498 135.127C334.574 130.112 337.98 123.567 333.357 125.549Z" fill="#090A09" stroke="#1A1A1A"/>
<path d="M333.024 136.144C332.958 136.144 332.837 136.185 332.709 136.375C332.585 136.563 332.491 136.851 332.491 137.194C332.491 137.537 332.584 137.825 332.709 138.012C332.837 138.203 332.958 138.243 333.024 138.243C333.09 138.243 333.211 138.203 333.338 138.012C333.463 137.825 333.557 137.537 333.557 137.194C333.557 136.851 333.463 136.563 333.338 136.375C333.211 136.184 333.09 136.144 333.024 136.144Z" fill="#FFD600" stroke="#1A1A1A"/>
<path d="M325.793 136.144C325.727 136.144 325.606 136.185 325.478 136.375C325.353 136.563 325.26 136.851 325.26 137.194C325.26 137.537 325.353 137.825 325.478 138.012C325.605 138.203 325.727 138.243 325.793 138.243C325.859 138.243 325.98 138.203 326.107 138.012C326.232 137.825 326.326 137.537 326.326 137.194C326.326 136.851 326.232 136.563 326.107 136.375C325.98 136.184 325.859 136.144 325.793 136.144Z" fill="#FFD600" stroke="#1A1A1A"/>
<path d="M305.132 195.043L317.529 182.647C319.423 180.581 323.52 176.139 324.76 174.899C326.309 173.35 330.958 172.833 333.024 175.932C334.677 178.412 333.024 180.753 331.991 181.614C332.336 181.958 332.818 182.854 331.991 183.68C331.165 184.506 328.203 184.369 326.826 184.197C319.078 199.176 312.363 210.539 310.814 210.023C309.264 209.506 308.231 210.023 305.132 206.923C302.653 204.444 304.099 197.97 305.132 195.043Z" fill="#EEAF85" stroke="#1A1A1A" stroke-linecap="round"/>
<path d="M312.858 212.089L335.09 211.6L324.221 185.229H301L312.858 212.089Z" fill="#7393DC" stroke="#1A1A1A"/>
<path d="M372.917 203.69C374.493 202.504 371.485 195.599 370.5 190C364.588 191.976 362.817 192.491 360.025 192.82L360.518 196.279C351.814 197.794 334.407 198.255 334.407 196.279C334.407 195.291 330.958 192.326 330.465 191.832C330.071 191.437 327.266 190.888 326.031 191.338C325.877 191.395 326.622 191.536 327.017 192.326C327.411 193.117 327.273 194.915 326.524 195.291C325.539 195.785 324.206 195.785 322.09 195.785H316.671C316.276 196.18 316.671 197.596 316.671 198.255C316.276 199.836 316.671 200.725 317.163 200.725C317.163 201.516 318.149 202.372 318.641 202.702C318.678 202.706 318.716 202.711 318.755 202.716C318.83 202.849 318.95 203.137 319.134 203.69C319.528 204.876 320.612 205.501 321.105 205.666C325.046 206.654 332.436 205.172 333.421 205.172C334.209 205.172 335.72 205.501 336.377 205.666C349.205 207.431 361.257 207.478 367.497 208.136C370.65 206.951 372.424 204.678 372.917 203.69Z" fill="#EEAF85"/>
<path d="M318.641 202.702C318.641 202.537 318.74 202.504 319.134 203.69C319.528 204.876 320.612 205.501 321.105 205.666C325.046 206.654 332.436 205.172 333.421 205.172C334.209 205.172 335.72 205.501 336.377 205.666C349.205 207.431 361.257 207.478 367.497 208.136C370.65 206.951 372.424 204.678 372.917 203.69C374.493 202.504 371.485 195.599 370.5 190C364.588 191.976 362.817 192.491 360.025 192.82L360.518 196.279M318.641 202.702C318.149 202.372 317.163 201.516 317.163 200.725M318.641 202.702C319.955 202.866 322.878 203.097 324.061 202.702M317.163 200.725C316.671 200.725 316.276 199.836 316.671 198.255M317.163 200.725C318.805 200.725 322.583 200.627 324.553 200.231M316.671 198.255C316.671 197.596 316.276 196.18 316.671 195.785C316.671 195.785 320.166 195.785 322.09 195.785C324.206 195.785 325.539 195.785 326.524 195.291C327.273 194.915 327.411 193.117 327.017 192.326C326.622 191.536 325.877 191.395 326.031 191.338C327.266 190.888 330.071 191.437 330.465 191.832C330.958 192.326 334.407 195.291 334.407 196.279C334.407 198.255 351.814 197.794 360.518 196.279M316.671 198.255C317.065 198.65 322.254 198.584 325.046 198.255M360.518 196.279L366.43 196.773" stroke="#1A1A1A"/>
<path d="M196.754 352.244H214.254C217.754 349.744 213.254 340.244 213.254 339.244V335.744H201.254C201.254 337.744 198.587 343.244 197.254 345.744C195.254 348.144 196.087 351.077 196.754 352.244Z" fill="#070807" stroke="#1A1A1A" stroke-linecap="round"/>
<path d="M235.254 351.244H263.254C263.587 349.411 263.654 345.644 261.254 345.244C258.854 344.844 252.921 340.411 250.254 338.244H249.754L248.254 334.744H235.254L234.754 342.244C232.754 346.244 234.254 349.911 235.254 351.244Z" fill="#070807" stroke="#1A1A1A" stroke-linecap="round"/>
<path d="M211.754 335.744H201.754C201.754 335.744 201.564 337.054 202.254 337.744C202.944 338.435 209.254 338.744 211.754 337.244C212.591 336.742 211.754 335.744 211.754 335.744Z" fill="#EEAF85"/>
<path d="M242.254 339.244C237.854 339.644 236.754 337.077 236.754 335.744H248.254C248.421 336.411 248.654 337.844 248.254 338.244C247.754 338.744 247.754 338.744 242.254 339.244Z" fill="#EEAF85"/>
<path d="M211.754 335.744H201.754C201.754 335.744 201.564 337.054 202.254 337.744C202.944 338.435 209.254 338.744 211.754 337.244C212.591 336.742 211.754 335.744 211.754 335.744Z" stroke="#1A1A1A" stroke-linecap="round"/>
<path d="M242.254 339.244C237.854 339.644 236.754 337.077 236.754 335.744H248.254C248.421 336.411 248.654 337.844 248.254 338.244C247.754 338.744 247.754 338.744 242.254 339.244Z" stroke="#1A1A1A" stroke-linecap="round"/>
<path d="M204.754 290.244L210.754 221.244C214.361 222.262 218.269 222.96 222.254 223.416C235.501 224.932 249.591 223.769 256.254 222.744C257.054 228.344 252.254 300.077 249.754 335.244H233.754L231.754 266.244L214.754 335.244C209.92 335.744 200.054 336.444 199.254 335.244C198.454 334.044 202.587 304.744 204.754 290.244Z" fill="#3666BA"/>
<path d="M231.754 266.244L214.754 335.244C209.92 335.744 200.054 336.444 199.254 335.244C198.454 334.044 202.587 304.744 204.754 290.244L210.754 221.244C214.361 222.262 218.269 222.96 222.254 223.416M231.754 266.244L233.754 335.244H249.754C252.254 300.077 257.054 228.344 256.254 222.744C249.591 223.769 235.501 224.932 222.254 223.416M231.754 266.244L237.254 242.244C238.054 239.444 241.587 236.744 243.254 235.744M213.254 235.744C216.421 235.525 222.654 232.753 222.254 223.416" stroke="#1A1A1A" stroke-linecap="round"/>
<path d="M208.754 154.744C210.754 152.744 222.587 149.577 228.254 148.244C247.254 149.244 249.754 153.744 255.254 155.744C259.654 157.344 264.087 170.744 265.754 177.244H257.254L258.754 223.244C239.154 228.844 217.587 224.577 209.254 221.744C208.454 221.344 208.921 210.244 209.254 204.744L213.254 185.244C206.454 184.444 199.421 182.244 196.754 181.244C201.254 160.244 206.254 157.244 208.754 154.744Z" fill="#9AD2F3"/>
<path d="M213.254 185.244C206.454 184.444 199.421 182.244 196.754 181.244C201.254 160.244 206.254 157.244 208.754 154.744C210.754 152.744 222.587 149.577 228.254 148.244C247.254 149.244 249.754 153.744 255.254 155.744C259.654 157.344 264.087 170.744 265.754 177.244H257.254M213.254 185.244L209.254 204.744C208.921 210.244 208.454 221.344 209.254 221.744C217.587 224.577 239.154 228.844 258.754 223.244L257.254 177.244M213.254 185.244H215.254L218.754 172.244M257.254 177.244V169.744" stroke="#1A1A1A"/>
<path d="M228.254 136.244V150.244C229.42 152.077 232.654 156.144 236.254 157.744C239.854 159.344 242.421 155.744 243.254 153.744V147.744C244.054 147.744 245.587 147.077 246.254 146.744C249.254 145.744 252.5 139.5 252.754 138.744C253.008 137.988 253.254 126.244 253.254 120.244C251.254 120.077 245.454 119.544 238.254 118.744C231.054 117.944 230.254 125.744 230.754 129.744C227.554 125.744 225.087 126.744 224.254 127.744C221.854 131.744 225.92 135.077 228.254 136.244Z" fill="#EEAF85"/>
<path d="M243.254 147.744C244.054 147.744 245.587 147.077 246.254 146.744C249.254 145.744 252.5 139.5 252.754 138.744C253.008 137.988 253.254 126.244 253.254 120.244C251.254 120.077 245.454 119.544 238.254 118.744C231.054 117.944 230.254 125.744 230.754 129.744C227.554 125.744 225.087 126.744 224.254 127.744C221.854 131.744 225.92 135.077 228.254 136.244V150.244C229.42 152.077 232.654 156.144 236.254 157.744C239.854 159.344 242.421 155.744 243.254 153.744V147.744ZM243.254 147.744C241.254 147.911 236.254 147.144 232.254 142.744" stroke="#1A1A1A"/>
<path d="M305.254 168.744C302.054 173.544 295.587 175.411 292.754 175.744C286.087 184.744 271.854 203.344 268.254 205.744C264.654 208.144 262.421 205.411 261.754 203.744L268.254 188.244L286.754 168.244C286.754 165.844 289.754 161.911 291.254 160.244C291.754 160.244 292.654 160.444 292.254 161.244C291.854 162.044 291.421 164.577 291.254 165.744C292.254 165.744 297.754 163.244 299.754 162.244C301.354 161.444 301.421 162.911 301.254 163.744C302.454 162.944 303.087 164.744 303.254 165.744C304.054 165.344 304.254 166.577 304.254 167.244C305.054 166.844 305.254 168.077 305.254 168.744Z" fill="#EEAF85"/>
<path d="M290.754 169.744C290.587 170.577 290.354 172.344 290.754 172.744M292.754 175.744C295.587 175.411 302.054 173.544 305.254 168.744C305.254 168.077 305.054 166.844 304.254 167.244C304.254 166.577 304.054 165.344 303.254 165.744C303.087 164.744 302.454 162.944 301.254 163.744C301.421 162.911 301.354 161.444 299.754 162.244C297.754 163.244 292.254 165.744 291.254 165.744C291.421 164.577 291.854 162.044 292.254 161.244C292.654 160.444 291.754 160.244 291.254 160.244C289.754 161.911 286.754 165.844 286.754 168.244L268.254 188.244L261.754 203.744C262.421 205.411 264.654 208.144 268.254 205.744C271.854 203.344 286.087 184.744 292.754 175.744Z" stroke="#1A1A1A" stroke-linecap="round"/>
<path d="M240.754 138.744C241.087 139.411 242.654 140.544 246.254 139.744" stroke="#070807" stroke-linecap="round"/>
<path d="M246.754 129.744L247.254 135.744C246.754 135.911 245.654 136.144 245.254 135.744" stroke="#070807" stroke-linecap="round"/>
<path d="M239.254 125.744C240.087 125.077 242.054 124.244 243.254 126.244" stroke="#070807" stroke-linecap="round"/>
<path d="M250.735 126.005C250.17 125.409 248.774 124.591 247.709 126.082" stroke="#070807" stroke-linecap="round"/>
<path d="M257.254 116.244C260.454 106.244 250.588 105.411 245.254 106.244C244.254 108.244 238.254 106.244 234.254 106.244C230.254 106.244 225.254 111.744 224.254 114.744C223.254 117.744 224.254 128.244 224.254 127.244C224.254 126.244 227.754 126.744 228.254 127.244C228.654 127.644 229.667 128.333 230.5 129C230.333 129.333 230.854 129.544 231.254 124.744C231.754 118.744 239.254 118.244 239.754 119.244C240.254 120.244 250.254 120.244 252.254 120.244C253.854 120.244 256.254 117.578 257.254 116.244Z" fill="#070807" stroke="#1A1A1A"/>
<ellipse cx="241.754" cy="128.744" rx="1" ry="1.5" fill="#070807"/>
<ellipse cx="248.754" cy="128.744" rx="1" ry="1.5" fill="#070807"/>
<path d="M262.254 205.244L239.754 204.744L250.754 177.744H274.254L262.254 205.244Z" fill="#78DAC3" stroke="#1A1A1A"/>
<path d="M196.754 200.244C195.154 199.044 196.754 187.411 197.754 181.744C203.754 183.744 210.921 184.911 213.754 185.244L213.254 188.744C222.087 189.077 239.754 189.544 239.754 188.744C239.754 187.744 243.254 184.744 243.754 184.244C244.154 183.844 247.001 183.288 248.254 183.744C248.411 183.801 247.654 183.944 247.254 184.744C246.854 185.544 246.994 187.364 247.754 187.744C248.754 188.244 250.106 188.244 252.254 188.244H257.754C258.154 188.644 257.754 190.077 257.754 190.744C258.154 192.344 257.754 193.244 257.254 193.244C257.254 194.044 256.254 194.911 255.754 195.244C255.717 195.249 255.678 195.254 255.638 195.258C255.562 195.393 255.441 195.684 255.254 196.244C254.854 197.444 253.754 198.077 253.254 198.244C249.254 199.244 241.754 197.744 240.754 197.744C239.954 197.744 238.421 198.077 237.754 198.244C224.554 201.844 208.587 204.077 202.254 204.744C199.054 203.544 197.254 201.244 196.754 200.244Z" fill="#EEAF85"/>
<path d="M255.754 195.244C255.754 195.077 255.654 195.044 255.254 196.244C254.854 197.444 253.754 198.077 253.254 198.244C249.254 199.244 241.754 197.744 240.754 197.744C239.954 197.744 238.421 198.077 237.754 198.244C224.554 201.844 208.587 204.077 202.254 204.744C199.054 203.544 197.254 201.244 196.754 200.244C195.154 199.044 196.754 187.411 197.754 181.744C203.754 183.744 210.921 184.911 213.754 185.244L213.254 188.744M255.754 195.244C256.254 194.911 257.254 194.044 257.254 193.244M255.754 195.244C254.421 195.411 251.454 195.644 250.254 195.244M257.254 193.244C257.754 193.244 258.154 192.344 257.754 190.744M257.254 193.244C255.587 193.244 251.754 193.144 249.754 192.744M257.754 190.744C257.754 190.077 258.154 188.644 257.754 188.244C257.754 188.244 254.207 188.244 252.254 188.244C250.106 188.244 248.754 188.244 247.754 187.744C246.994 187.364 246.854 185.544 247.254 184.744C247.654 183.944 248.411 183.801 248.254 183.744C247.001 183.288 244.154 183.844 243.754 184.244C243.254 184.744 239.754 187.744 239.754 188.744C239.754 189.544 222.087 189.077 213.254 188.744M257.754 190.744C257.354 191.144 252.087 191.077 249.254 190.744M213.254 188.744L207.254 189.244" stroke="#1A1A1A"/>
<path d="M419.732 445.453C420.932 445.053 426.899 441.619 429.732 439.953L447.232 440.453V452.453C439.065 452.453 422.132 452.353 419.732 451.953C416.732 451.453 418.232 445.953 419.732 445.453Z" fill="#0A0A09" stroke="#1A1A1A" stroke-linecap="round"/>
<path d="M465.509 445.733C466.741 445.349 472.864 442.053 475.772 440.453L493.732 440.933V452.453C485.351 452.453 467.973 452.357 465.509 451.973C462.431 451.493 463.97 446.213 465.509 445.733Z" fill="#0A0A09" stroke="#1A1A1A" stroke-linecap="round"/>
<path d="M431.732 358.953L457.232 356.453C470.032 364.453 486.565 388.119 493.232 398.953C494.065 412.786 495.432 440.653 494.232 441.453C493.032 442.253 479.732 441.786 473.232 441.453C472.399 430.286 470.532 407.353 469.732 404.953C468.932 402.553 469.399 389.286 469.732 382.953L448.732 381.453V400.953L447.732 441.453C443.332 442.253 433.232 441.119 428.732 440.453L424.232 367.953C425.032 362.753 429.565 359.786 431.732 358.953Z" fill="#6E6C6D" stroke="#1A1A1A" stroke-linecap="round"/>
<rect x="446.232" y="395.953" width="6" height="63" fill="#A4A2A2" stroke="#1A1A1A"/>
<rect x="480.232" y="395.953" width="6" height="63" fill="#A4A2A2" stroke="#1A1A1A"/>
<rect x="514.232" y="395.953" width="6" height="63" fill="#A4A2A2" stroke="#1A1A1A"/>
<rect x="539.232" y="395.953" width="6" height="63" fill="#A4A2A2" stroke="#1A1A1A"/>
<path d="M484.232 248.953C483.832 244.553 489.399 240.786 492.232 239.453C514.632 235.853 513.232 261.953 509.732 275.453V286.453H490.232V279.453C484.632 278.653 480.622 274.271 480.732 271.953C481.232 261.453 478.565 262.953 479.232 259.953C479.565 258.953 481.832 256.653 482.232 255.453C482.632 254.253 483.732 250.619 484.232 248.953Z" fill="#EEAF85" stroke="#1A1A1A" stroke-linecap="round"/>
<path d="M449.232 335.453L453.732 324.953L472.732 336.453L461.232 350.953C458.832 351.753 455.232 351.286 453.732 350.953C446.132 349.353 447.565 339.953 449.232 335.453Z" fill="#EEAF85" stroke="#1A1A1A" stroke-linecap="round"/>
<path d="M464.232 303.953L451.732 325.453L470.232 336.453L455.232 356.453C454.032 360.053 460.732 365.953 464.232 368.453C469.032 372.453 474.565 373.453 476.732 373.453L533.732 316.453C533.732 311.119 532.332 298.953 526.732 292.953C521.132 286.953 512.732 284.786 509.232 284.453H489.232C475.632 288.453 466.899 299.119 464.232 303.953Z" fill="#F3C430"/>
<path d="M470.232 336.453L455.232 356.453C454.032 360.053 460.732 365.953 464.232 368.453C469.032 372.453 474.565 373.453 476.732 373.453L533.732 316.453C533.732 311.119 532.332 298.953 526.732 292.953C521.132 286.953 512.732 284.786 509.232 284.453H489.232C475.632 288.453 466.899 299.119 464.232 303.953L451.732 325.453L470.232 336.453ZM470.232 336.453L475.732 328.953" stroke="#1A1A1A" stroke-linecap="round"/>
<path d="M485 244.809C483.5 250.452 478.5 240.809 486 237.309C489.321 236.19 497.217 234.567 506.232 238.452C517.232 242.452 517.232 251.952 516.732 258.952C516.332 264.552 511.898 272.619 509.732 275.952C509.332 276.352 502.232 276.119 498.732 275.952C493.132 273.552 492.065 267.286 492.232 264.452C498.732 259.952 493.232 256.452 492.732 256.452C492.232 256.452 488.232 261.452 489.232 258.952C490.232 256.452 489.732 249.952 488.232 250.452C487.032 250.852 486.167 245.309 485 244.809Z" fill="#0A0A09" stroke="#1A1A1A" stroke-linecap="round"/>
<path d="M487 316.809C497 288.809 484.001 278.309 492.5 264.309L516.5 258.309C516.5 258.309 526.047 283.558 528 293.809C529.953 304.06 529.5 316.309 529.5 316.309C516.3 321.909 492.833 319.142 487 316.809Z" fill="#0A0A09"/>
<path d="M442.232 398.452V385.952C442.899 384.452 444.802 381.08 447.232 380.952C456.732 380.452 472.732 380.952 472.732 380.952C473.065 378.286 474.232 371.094 474.232 363.452C474.232 355.452 475.565 332.952 475.732 322.452C476.399 319.786 479.032 314.252 484.232 313.452C485.302 313.288 487.605 313.177 490.732 313.107C502.797 312.839 527.128 313.188 540.232 313.452C542.065 313.786 545.932 315.652 546.732 320.452C547.41 324.52 547.657 360.471 547.717 385.952C547.725 389.728 547.73 393.274 547.731 396.453C547.732 397.557 546.837 398.452 545.732 398.452H483.232H442.232Z" fill="#31AF78"/>
<path d="M442.232 385.952V398.452H483.232M442.232 385.952C442.899 384.452 444.802 381.08 447.232 380.952C456.732 380.452 472.732 380.952 472.732 380.952M442.232 385.952H471.232M472.732 380.952C473.065 378.286 474.232 371.094 474.232 363.452C474.232 355.452 475.565 332.952 475.732 322.452C476.399 319.786 479.032 314.252 484.232 313.452C485.302 313.288 487.605 313.177 490.732 313.107M472.732 380.952C472.899 382.286 472.832 385.152 471.232 385.952M483.232 385.952V398.452M483.232 385.952C483.232 385.952 483.232 345.452 483.232 322.452C483.232 320.854 485.532 316.831 490.732 313.107M483.232 385.952H547.717M483.232 385.952H471.232M483.232 398.452H545.732C546.837 398.452 547.732 397.557 547.731 396.453C547.73 393.274 547.725 389.728 547.717 385.952M490.732 313.107C502.797 312.839 527.128 313.188 540.232 313.452C542.065 313.786 545.932 315.652 546.732 320.452C547.41 324.52 547.657 360.471 547.717 385.952" stroke="#1A1A1A" stroke-linecap="round"/>
<path d="M314.686 437.828C315.853 437.439 321.66 434.098 324.417 432.476L341.447 432.963V444.64C333.5 444.64 317.021 444.543 314.686 444.154C311.766 443.667 313.226 438.315 314.686 437.828Z" fill="#0A0A09" stroke="#1A1A1A" stroke-linecap="round"/>
<path d="M359.234 438.101C360.432 437.727 366.391 434.519 369.221 432.962L386.698 433.43V444.64C378.542 444.64 361.631 444.547 359.234 444.173C356.238 443.706 357.736 438.568 359.234 438.101Z" fill="#0A0A09" stroke="#1A1A1A" stroke-linecap="round"/>
<path d="M326.363 353.651L351.179 351.218C363.635 359.003 379.724 382.035 386.212 392.577C387.023 406.039 388.353 433.157 387.185 433.936C386.017 434.714 373.074 434.26 366.749 433.936C365.938 423.069 364.121 400.752 363.343 398.416C362.564 396.08 363.019 383.17 363.343 377.007L342.907 375.547V394.523L341.934 433.936C337.652 434.714 327.823 433.612 323.444 432.963L319.065 362.409C319.843 357.349 324.255 354.462 326.363 353.651Z" fill="#6E6C6D" stroke="#1A1A1A" stroke-linecap="round"/>
<rect x="340.487" y="389.671" width="5.81204" height="61.2815" fill="#A4A2A2" stroke="#1A1A1A"/>
<rect x="373.574" y="389.671" width="5.81204" height="61.2815" fill="#A4A2A2" stroke="#1A1A1A"/>
<rect x="406.661" y="389.671" width="5.81204" height="61.2815" fill="#A4A2A2" stroke="#1A1A1A"/>
<rect x="430.99" y="389.671" width="5.81204" height="61.2815" fill="#A4A2A2" stroke="#1A1A1A"/>
<path d="M377.453 246.604C377.064 242.323 382.481 238.657 385.239 237.36C407.037 233.856 405.675 259.255 402.269 272.393V283.098H383.292V276.285C377.843 275.507 373.94 271.243 374.047 268.987C374.534 258.769 371.939 260.229 372.587 257.309C372.912 256.336 375.118 254.098 375.507 252.93C375.896 251.762 376.967 248.226 377.453 246.604Z" fill="#EEAF85" stroke="#1A1A1A" stroke-linecap="round"/>
<path d="M343.393 330.782L347.773 320.564L366.262 331.755L355.071 345.866C352.736 346.644 349.232 346.19 347.773 345.866C340.377 344.309 341.772 335.161 343.393 330.782Z" fill="#EEAF85" stroke="#1A1A1A" stroke-linecap="round"/>
<path d="M357.991 300.128L345.826 321.05L363.829 331.755L349.232 351.218C348.064 354.721 354.585 360.463 357.991 362.896C362.662 366.788 368.046 367.762 370.155 367.762L425.624 312.292C425.624 307.102 424.262 295.262 418.812 289.423C413.363 283.584 405.188 281.476 401.782 281.151H382.319C369.084 285.044 360.586 295.424 357.991 300.128Z" fill="#3969BC"/>
<path d="M363.829 331.755L349.232 351.218C348.064 354.721 354.585 360.463 357.991 362.896C362.662 366.788 368.046 367.762 370.155 367.762L425.624 312.292C425.624 307.102 424.262 295.262 418.812 289.423C413.363 283.584 405.188 281.476 401.782 281.151H382.319C369.084 285.044 360.586 295.424 357.991 300.128L345.826 321.05L363.829 331.755ZM363.829 331.755L369.182 324.456" stroke="#1A1A1A" stroke-linecap="round"/>
<path d="M378.201 242.572C376.741 248.064 371.876 238.68 379.174 235.274C382.406 234.185 390.09 232.606 398.863 236.387C409.567 240.279 409.567 249.524 409.081 256.336C408.692 261.786 404.377 269.636 402.269 272.88C401.88 273.269 394.97 273.042 391.564 272.88C386.114 270.544 385.076 264.446 385.239 261.688C391.564 257.309 386.212 253.903 385.725 253.903C385.239 253.903 381.346 258.769 382.319 256.336C383.292 253.903 382.806 247.578 381.346 248.064C380.178 248.454 379.336 243.059 378.201 242.572Z" fill="#0A0A09" stroke="#1A1A1A" stroke-linecap="round"/>
<path d="M378.201 304.367C387.446 262.221 374.795 268.547 382.579 252.791H409.828C409.828 252.791 409.388 266.843 411.288 276.819C413.188 286.795 418.587 302.421 418.587 302.421C405.741 307.871 383.878 306.638 378.201 304.367Z" fill="#0A0A09"/>
<path d="M336.581 392.09V379.926C337.23 378.466 339.083 375.185 341.447 375.06C350.692 374.574 366.262 375.06 366.262 375.06C366.587 372.465 367.722 365.467 367.722 358.03C367.722 350.245 369.02 328.349 369.182 318.131C369.831 315.536 372.393 310.151 377.454 309.373C378.495 309.212 380.736 309.104 383.779 309.037C395.52 308.776 419.198 309.115 431.95 309.373C433.734 309.697 437.497 311.514 438.275 316.185C438.935 320.143 439.175 355.129 439.233 379.926C439.242 383.579 439.247 387.011 439.248 390.091C439.249 391.195 438.353 392.09 437.248 392.09H376.48H336.581Z" fill="#31AF78"/>
<path d="M336.581 379.926V392.09H376.48M336.581 379.926C337.23 378.466 339.083 375.185 341.447 375.06C350.692 374.574 366.262 375.06 366.262 375.06M336.581 379.926H364.803M366.262 375.06C366.587 372.465 367.722 365.467 367.722 358.03C367.722 350.245 369.02 328.349 369.182 318.131C369.831 315.536 372.393 310.151 377.454 309.373C378.495 309.212 380.736 309.104 383.779 309.037M366.262 375.06C366.425 376.358 366.36 379.147 364.803 379.926M376.48 379.926V392.09M376.48 379.926C376.48 379.926 376.48 340.513 376.48 318.131C376.48 316.575 378.719 312.661 383.779 309.037M376.48 379.926H439.233M376.48 379.926H364.803M376.48 392.09H437.248C438.353 392.09 439.249 391.195 439.248 390.091C439.247 387.011 439.242 383.579 439.233 379.926M383.779 309.037C395.52 308.776 419.198 309.115 431.95 309.373C433.734 309.697 437.497 311.514 438.275 316.185C438.935 320.143 439.175 355.129 439.233 379.926" stroke="#1A1A1A" stroke-linecap="round"/>
<path d="M369.732 447.644C370.932 447.244 376.899 443.81 379.732 442.144L397.232 442.644V454.644C389.065 454.644 372.132 454.544 369.732 454.144C366.732 453.644 368.232 448.144 369.732 447.644Z" fill="#0A0A09" stroke="#1A1A1A" stroke-linecap="round"/>
<path d="M415.509 447.924C416.741 447.54 422.864 444.244 425.772 442.644L443.732 443.124V454.644C435.351 454.644 417.973 454.548 415.509 454.164C412.431 453.684 413.97 448.404 415.509 447.924Z" fill="#0A0A09" stroke="#1A1A1A" stroke-linecap="round"/>
<path d="M381.732 361.144L407.232 358.644C420.032 366.644 436.565 390.31 443.232 401.144C444.065 414.977 445.432 442.844 444.232 443.644C443.032 444.444 429.732 443.977 423.232 443.644C422.399 432.477 420.532 409.544 419.732 407.144C418.932 404.744 419.399 391.477 419.732 385.144L398.732 383.644V403.144L397.732 443.644C393.332 444.444 383.232 443.31 378.732 442.644L374.232 370.144C375.032 364.944 379.565 361.977 381.732 361.144Z" fill="#6E6C6D" stroke="#1A1A1A" stroke-linecap="round"/>
<rect x="396.232" y="398.144" width="6" height="63" fill="#A4A2A2" stroke="#1A1A1A"/>
<rect x="430.232" y="398.144" width="6" height="63" fill="#A4A2A2" stroke="#1A1A1A"/>
<rect x="464.232" y="398.144" width="6" height="63" fill="#A4A2A2" stroke="#1A1A1A"/>
<rect x="489.232" y="398.144" width="6" height="63" fill="#A4A2A2" stroke="#1A1A1A"/>
<path d="M434.232 251.144C433.832 246.744 439.399 242.977 442.232 241.644C464.632 238.044 463.232 264.144 459.732 277.644V288.644H440.232V281.644C434.632 280.844 430.622 276.462 430.732 274.144C431.232 263.643 428.565 265.143 429.232 262.143C429.565 261.143 431.832 258.844 432.232 257.644C432.632 256.444 433.732 252.81 434.232 251.144Z" fill="#EEAF85" stroke="#1A1A1A" stroke-linecap="round"/>
<path d="M399.232 337.644L403.732 327.144L422.732 338.644L411.232 353.144C408.832 353.944 405.232 353.477 403.732 353.144C396.132 351.544 397.565 342.144 399.232 337.644Z" fill="#EEAF85" stroke="#1A1A1A" stroke-linecap="round"/>
<path d="M414.232 306.144L401.732 327.644L420.232 338.644L405.232 358.644C404.032 362.244 410.732 368.144 414.232 370.644C419.032 374.644 424.565 375.644 426.732 375.644L483.732 318.644C483.732 313.31 482.332 301.144 476.732 295.144C471.132 289.144 462.732 286.977 459.232 286.644H439.232C425.632 290.644 416.899 301.31 414.232 306.144Z" fill="#3969BC"/>
<path d="M420.232 338.644L405.232 358.644C404.032 362.244 410.732 368.144 414.232 370.644C419.032 374.644 424.565 375.644 426.732 375.644L483.732 318.644C483.732 313.31 482.332 301.144 476.732 295.144C471.132 289.144 462.732 286.977 459.232 286.644H439.232C425.632 290.644 416.899 301.31 414.232 306.144L401.732 327.644L420.232 338.644ZM420.232 338.644L425.732 331.144" stroke="#1A1A1A" stroke-linecap="round"/>
<path d="M434.232 238.644C437.032 235.444 441.065 237.644 442.732 239.144C443.532 239.76 444.732 240.067 445.232 240.144L456.232 240.644C467.232 244.644 467.232 254.144 466.732 261.144C466.332 266.744 461.899 274.81 459.732 278.144C459.332 278.544 452.232 278.31 448.732 278.144C443.132 275.744 442.065 269.477 442.232 266.644C448.732 262.144 443.232 258.644 442.732 258.644C442.232 258.644 438.232 263.644 439.232 261.144C440.232 258.644 439.732 252.144 438.232 252.644C437.032 253.044 434.399 252.144 433.232 251.644C426.432 246.444 431.065 240.81 434.232 238.644Z" fill="#0A0A09" stroke="#1A1A1A" stroke-linecap="round"/>
<path d="M392.232 400.643V388.143C392.899 386.643 394.802 383.271 397.232 383.143C406.732 382.643 422.732 383.143 422.732 383.143C423.065 380.477 424.232 373.285 424.232 365.643C424.232 357.643 425.565 335.143 425.732 324.643C426.399 321.977 429.032 316.443 434.232 315.643C435.302 315.479 437.605 315.368 440.732 315.298C452.797 315.03 477.128 315.379 490.232 315.643C492.065 315.977 495.932 317.843 496.732 322.643C497.41 326.711 497.657 362.662 497.717 388.143C497.725 391.919 497.73 395.465 497.731 398.644C497.732 399.748 496.837 400.643 495.732 400.643H433.232H392.232Z" fill="#31AF78"/>
<path d="M392.232 388.143V400.643H433.232M392.232 388.143C392.899 386.643 394.802 383.271 397.232 383.143C406.732 382.643 422.732 383.143 422.732 383.143M392.232 388.143H421.232M422.732 383.143C423.065 380.477 424.232 373.285 424.232 365.643C424.232 357.643 425.565 335.143 425.732 324.643C426.399 321.977 429.032 316.443 434.232 315.643C435.302 315.479 437.605 315.368 440.732 315.298M422.732 383.143C422.899 384.477 422.832 387.343 421.232 388.143M433.232 388.143V400.643M433.232 388.143C433.232 388.143 433.232 347.643 433.232 324.643C433.232 323.045 435.532 319.022 440.732 315.298M433.232 388.143H497.717M433.232 388.143H421.232M433.232 400.643H495.732C496.837 400.643 497.732 399.748 497.731 398.644C497.73 395.465 497.725 391.919 497.717 388.143M440.732 315.298C452.797 315.03 477.128 315.379 490.232 315.643C492.065 315.977 495.932 317.843 496.732 322.643C497.41 326.711 497.657 362.662 497.717 388.143" stroke="#1A1A1A" stroke-linecap="round"/>
<path d="M488.732 456.644C489.932 456.244 495.899 452.81 498.732 451.144L516.232 451.644V463.644C508.065 463.644 491.132 463.544 488.732 463.144C485.732 462.644 487.232 457.144 488.732 456.644Z" fill="#0A0A09" stroke="#1A1A1A" stroke-linecap="round"/>
<path d="M534.509 456.924C535.741 456.54 541.864 453.244 544.772 451.644L562.732 452.124V463.644C554.351 463.644 536.973 463.548 534.509 463.164C531.431 462.684 532.97 457.404 534.509 456.924Z" fill="#0A0A09" stroke="#1A1A1A" stroke-linecap="round"/>
<path d="M500.732 370.144L526.232 367.644C539.032 375.644 555.565 399.31 562.232 410.144C563.065 423.977 564.432 451.844 563.232 452.644C562.032 453.444 548.732 452.977 542.232 452.644C541.399 441.477 539.532 418.544 538.732 416.144C537.932 413.744 538.399 400.477 538.732 394.144L517.732 392.644V412.144L516.732 452.644C512.332 453.444 502.232 452.31 497.732 451.644L493.232 379.144C494.032 373.944 498.565 370.977 500.732 370.144Z" fill="#6E6C6D" stroke="#1A1A1A" stroke-linecap="round"/>
<rect x="515.232" y="407.144" width="6" height="63" fill="#A4A2A2" stroke="#1A1A1A"/>
<rect x="549.232" y="407.144" width="6" height="63" fill="#A4A2A2" stroke="#1A1A1A"/>
<rect x="583.232" y="407.144" width="6" height="63" fill="#A4A2A2" stroke="#1A1A1A"/>
<rect x="608.232" y="407.144" width="6" height="63" fill="#A4A2A2" stroke="#1A1A1A"/>
<path d="M553.232 260.144C552.832 255.744 558.399 251.977 561.232 250.644C583.632 247.044 582.232 273.144 578.732 286.644V297.644H559.232V290.644C553.632 289.844 549.622 285.462 549.732 283.144C550.232 272.643 547.565 274.143 548.232 271.143C548.565 270.143 550.832 267.844 551.232 266.644C551.632 265.444 552.732 261.81 553.232 260.144Z" fill="#EEAF85" stroke="#1A1A1A" stroke-linecap="round"/>
<path d="M518.232 346.644L522.732 336.144L541.732 347.644L530.232 362.144C527.832 362.944 524.232 362.477 522.732 362.144C515.132 360.544 516.565 351.144 518.232 346.644Z" fill="#EEAF85" stroke="#1A1A1A" stroke-linecap="round"/>
<path d="M533.232 315.144L520.732 336.644L539.232 347.644L524.232 367.644C523.032 371.244 529.732 377.144 533.232 379.644C538.032 383.644 543.565 384.644 545.732 384.644L602.732 327.644C602.732 322.31 601.332 310.144 595.732 304.144C590.132 298.144 581.732 295.977 578.232 295.644H558.232C544.632 299.644 535.899 310.31 533.232 315.144Z" fill="#FFFDFE"/>
<path d="M539.232 347.644L524.232 367.644C523.032 371.244 529.732 377.144 533.232 379.644C538.032 383.644 543.565 384.644 545.732 384.644L602.732 327.644C602.732 322.31 601.332 310.144 595.732 304.144C590.132 298.144 581.732 295.977 578.232 295.644H558.232C544.632 299.644 535.899 310.31 533.232 315.144L520.732 336.644L539.232 347.644ZM539.232 347.644L544.732 340.144" stroke="#1A1A1A" stroke-linecap="round"/>
<path d="M553.232 247.644C556.032 244.444 560.065 246.644 561.732 248.144C562.532 248.76 563.732 249.067 564.232 249.144L575.232 249.644C586.232 253.644 586.232 263.144 585.732 270.144C585.332 275.744 580.899 283.81 578.732 287.144C578.332 287.544 571.232 287.31 567.732 287.144C562.132 284.744 561.065 278.477 561.232 275.644C567.732 271.144 562.232 267.644 561.732 267.644C561.232 267.644 557.232 272.644 558.232 270.144C559.232 267.644 558.732 261.144 557.232 261.644C556.032 262.044 553.399 261.144 552.232 260.644C545.432 255.444 550.065 249.81 553.232 247.644Z" fill="#0A0A09" stroke="#1A1A1A" stroke-linecap="round"/>
<path d="M511.232 409.643V397.143C511.899 395.643 513.802 392.271 516.232 392.143C525.732 391.643 541.732 392.143 541.732 392.143C542.065 389.477 543.232 382.285 543.232 374.643C543.232 366.643 544.565 344.143 544.732 333.643C545.399 330.977 548.032 325.443 553.232 324.643C554.302 324.479 556.605 324.368 559.732 324.298C571.797 324.03 596.128 324.379 609.232 324.643C611.065 324.977 614.932 326.843 615.732 331.643C616.41 335.711 616.657 371.662 616.717 397.143C616.725 400.919 616.73 404.465 616.731 407.644C616.732 408.748 615.837 409.643 614.732 409.643H552.232H511.232Z" fill="#31AF78"/>
<path d="M511.232 397.143V409.643H552.232M511.232 397.143C511.899 395.643 513.802 392.271 516.232 392.143C525.732 391.643 541.732 392.143 541.732 392.143M511.232 397.143H540.232M541.732 392.143C542.065 389.477 543.232 382.285 543.232 374.643C543.232 366.643 544.565 344.143 544.732 333.643C545.399 330.977 548.032 325.443 553.232 324.643C554.302 324.479 556.605 324.368 559.732 324.298M541.732 392.143C541.899 393.477 541.832 396.343 540.232 397.143M552.232 397.143V409.643M552.232 397.143C552.232 397.143 552.232 356.643 552.232 333.643C552.232 332.045 554.532 328.022 559.732 324.298M552.232 397.143H616.717M552.232 397.143H540.232M552.232 409.643H614.732C615.837 409.643 616.732 408.748 616.731 407.644C616.73 404.465 616.725 400.919 616.717 397.143M559.732 324.298C571.797 324.03 596.128 324.379 609.232 324.643C611.065 324.977 614.932 326.843 615.732 331.643C616.41 335.711 616.657 371.662 616.717 397.143" stroke="#1A1A1A" stroke-linecap="round"/>
<path d="M259.732 440.644C260.932 440.244 266.899 436.81 269.732 435.144L287.232 435.644V447.644C279.065 447.644 262.132 447.544 259.732 447.144C256.732 446.644 258.232 441.144 259.732 440.644Z" fill="#0A0A09" stroke="#1A1A1A" stroke-linecap="round"/>
<path d="M305.509 440.924C306.741 440.54 312.864 437.244 315.772 435.644L333.732 436.124V447.644C325.351 447.644 307.973 447.548 305.509 447.164C302.431 446.684 303.97 441.404 305.509 440.924Z" fill="#0A0A09" stroke="#1A1A1A" stroke-linecap="round"/>
<path d="M271.732 354.144L297.232 351.644C310.032 359.644 326.565 383.31 333.232 394.144C334.065 407.977 335.432 435.844 334.232 436.644C333.032 437.444 319.732 436.977 313.232 436.644C312.399 425.477 310.532 402.544 309.732 400.144C308.932 397.744 309.399 384.477 309.732 378.144L288.732 376.644V396.144L287.732 436.644C283.332 437.444 273.232 436.31 268.732 435.644L264.232 363.144C265.032 357.944 269.565 354.977 271.732 354.144Z" fill="#6E6C6D" stroke="#1A1A1A" stroke-linecap="round"/>
<rect x="286.232" y="391.144" width="6" height="63" fill="#A4A2A2" stroke="#1A1A1A"/>
<rect x="320.232" y="391.144" width="6" height="63" fill="#A4A2A2" stroke="#1A1A1A"/>
<rect x="354.232" y="391.144" width="6" height="63" fill="#A4A2A2" stroke="#1A1A1A"/>
<rect x="379.232" y="391.144" width="6" height="63" fill="#A4A2A2" stroke="#1A1A1A"/>
<path d="M324.232 244.144C323.832 239.744 329.399 235.977 332.232 234.644C354.632 231.044 353.232 257.144 349.732 270.644V281.644H330.232V274.644C324.632 273.844 320.622 269.462 320.732 267.144C321.232 256.643 318.565 258.143 319.232 255.143C319.565 254.143 321.832 251.844 322.232 250.644C322.632 249.444 323.732 245.81 324.232 244.144Z" fill="#EEAF85" stroke="#1A1A1A" stroke-linecap="round"/>
<path d="M289.232 330.644L293.732 320.144L312.732 331.644L301.232 346.144C298.832 346.944 295.232 346.477 293.732 346.144C286.132 344.544 287.565 335.144 289.232 330.644Z" fill="#EEAF85" stroke="#1A1A1A" stroke-linecap="round"/>
<path d="M304.232 299.144L291.732 320.644L310.232 331.644L295.232 351.644C294.032 355.244 300.732 361.144 304.232 363.644C309.032 367.644 314.565 368.644 316.732 368.644L373.732 311.644C373.732 306.31 372.332 294.144 366.732 288.144C361.132 282.144 352.732 279.977 349.232 279.644H329.232C315.632 283.644 306.899 294.31 304.232 299.144Z" fill="#F3C430"/>
<path d="M310.232 331.644L295.232 351.644C294.032 355.244 300.732 361.144 304.232 363.644C309.032 367.644 314.565 368.644 316.732 368.644L373.732 311.644C373.732 306.31 372.332 294.144 366.732 288.144C361.132 282.144 352.732 279.977 349.232 279.644H329.232C315.632 283.644 306.899 294.31 304.232 299.144L291.732 320.644L310.232 331.644ZM310.232 331.644L315.732 324.144" stroke="#1A1A1A" stroke-linecap="round"/>
<path d="M324.232 231.644C327.032 228.444 331.065 230.644 332.732 232.144C333.532 232.76 334.732 233.067 335.232 233.144L346.232 233.644C357.232 237.644 357.232 247.144 356.732 254.144C356.332 259.744 351.899 267.81 349.732 271.144C349.332 271.544 342.232 271.31 338.732 271.144C333.132 268.744 332.065 262.477 332.232 259.644C338.732 255.144 333.232 251.644 332.732 251.644C332.232 251.644 328.232 256.644 329.232 254.144C330.232 251.644 329.732 245.144 328.232 245.644C327.032 246.044 324.399 245.144 323.232 244.644C316.432 239.444 321.065 233.81 324.232 231.644Z" fill="#0A0A09" stroke="#1A1A1A" stroke-linecap="round"/>
<path d="M282.232 393.643V381.143C282.899 379.643 284.802 376.271 287.232 376.143C296.732 375.643 312.732 376.143 312.732 376.143C313.065 373.477 314.232 366.285 314.232 358.643C314.232 350.643 315.565 328.143 315.732 317.643C316.399 314.977 319.032 309.443 324.232 308.643C325.302 308.479 327.605 308.368 330.732 308.298C342.797 308.03 367.128 308.379 380.232 308.643C382.065 308.977 385.932 310.843 386.732 315.643C387.41 319.711 387.657 355.662 387.717 381.143C387.725 384.919 387.73 388.465 387.731 391.644C387.732 392.748 386.837 393.643 385.732 393.643H323.232H282.232Z" fill="#31AF78"/>
<path d="M282.232 381.143V393.643H323.232M282.232 381.143C282.899 379.643 284.802 376.271 287.232 376.143C296.732 375.643 312.732 376.143 312.732 376.143M282.232 381.143H311.232M312.732 376.143C313.065 373.477 314.232 366.285 314.232 358.643C314.232 350.643 315.565 328.143 315.732 317.643C316.399 314.977 319.032 309.443 324.232 308.643C325.302 308.479 327.605 308.368 330.732 308.298M312.732 376.143C312.899 377.477 312.832 380.343 311.232 381.143M323.232 381.143V393.643M323.232 381.143C323.232 381.143 323.232 340.643 323.232 317.643C323.232 316.045 325.532 312.022 330.732 308.298M323.232 381.143H387.717M323.232 381.143H311.232M323.232 393.643H385.732C386.837 393.643 387.732 392.748 387.731 391.644C387.73 388.465 387.725 384.919 387.717 381.143M330.732 308.298C342.797 308.03 367.128 308.379 380.232 308.643C382.065 308.977 385.932 310.843 386.732 315.643C387.41 319.711 387.657 355.662 387.717 381.143" stroke="#1A1A1A" stroke-linecap="round"/>
<defs>
<clipPath id="clip0_2315_180">
<rect width="301" height="95" fill="white" transform="translate(158 51)"/>
</clipPath>
</defs>
</svg>
