<svg width="382" height="466" viewBox="0 0 382 466" fill="none" xmlns="http://www.w3.org/2000/svg">
<rect width="382" height="65" fill="#E2231A"/>
<rect x="23" y="76" width="339" height="330" fill="#E1E1E1"/>
<path d="M381.238 454.063L366.786 435.131H18.1699L0.5625 454.063H381.238Z" fill="#D9D9D9" stroke="black" stroke-width="0.490571"/>
<rect y="454.308" width="41.4603" height="10.832" fill="#FFD600"/>
<rect x="41.4604" y="454.308" width="41.4603" height="10.832" fill="#484848"/>
<rect x="82.9205" y="454.308" width="41.4603" height="10.832" fill="#FFD600"/>
<rect x="124.381" y="454.308" width="41.4603" height="10.832" fill="#484848"/>
<rect x="165.841" y="454.308" width="41.4603" height="10.832" fill="#FFD600"/>
<rect x="207.302" y="454.308" width="41.4603" height="10.832" fill="#484848"/>
<rect x="248.762" y="454.308" width="41.4603" height="10.832" fill="#FFD600"/>
<rect x="290.222" y="454.308" width="41.4603" height="10.832" fill="#484848"/>
<rect x="331.683" y="454.308" width="41.4603" height="10.832" fill="#FFD600"/>
<rect x="373.143" y="454.308" width="8.59088" height="10.832" fill="#484848"/>
<rect x="19.1486" y="71.1285" width="3.50943" height="371.509" fill="#868585" stroke="black" stroke-width="0.490571"/>
<rect x="371.149" y="65.1285" width="3.50943" height="382.509" fill="#C5C5C5" stroke="black" stroke-width="0.490571"/>
<rect x="10.1486" y="65.1285" width="3.50943" height="382.509" fill="#C5C5C5" stroke="black" stroke-width="0.490571"/>
<rect x="19.2948" y="72.2253" width="346.133" height="3.24459" fill="#868585" stroke="black" stroke-width="0.490571"/>
<rect x="362.149" y="71.1285" width="3.50943" height="369.509" fill="#868585" stroke="black" stroke-width="0.490571"/>
<path d="M371.394 65.035L363.807 72.0145H21.6704L13.3726 65.035H371.394Z" fill="#726E6E" stroke="black" stroke-width="0.490571"/>
<rect x="148.531" y="422.245" width="88.4064" height="4.36514" fill="#E6E6E6" stroke="black" stroke-width="0.490571"/>
<rect x="153.014" y="430.089" width="79.8155" height="1.37701" fill="#E6E6E6" stroke="black" stroke-width="0.490571"/>
<rect x="153.014" y="434.198" width="79.8155" height="1.37701" fill="#E6E6E6" stroke="black" stroke-width="0.490571"/>
<rect x="152.64" y="427.101" width="4.36514" height="20.7999" fill="#E6E6E6" stroke="black" stroke-width="0.490571"/>
<rect x="228.837" y="427.101" width="4.36514" height="20.7999" fill="#E6E6E6" stroke="black" stroke-width="0.490571"/>
<rect x="47" y="88" width="297" height="88" rx="23.4906" fill="#3FA9F5"/>
<path d="M116.6 124.38C116.6 128.14 115.4 131.76 113 135.24C110.64 138.68 106.04 143.26 99.2 148.98C99.12 149.06 99.08 149.12 99.08 149.16C99.08 149.2 99.1 149.22 99.14 149.22H113.3C114.22 149.22 115.02 149.56 115.7 150.24C116.38 150.88 116.72 151.66 116.72 152.58C116.72 153.5 116.38 154.3 115.7 154.98C115.02 155.66 114.22 156 113.3 156H91.28C90.36 156 89.56 155.66 88.88 154.98C88.24 154.3 87.92 153.5 87.92 152.58C87.92 150.3 88.78 148.48 90.5 147.12C97.42 141.6 102.06 137.3 104.42 134.22C106.78 131.14 107.96 128.14 107.96 125.22C107.96 120.78 105.58 118.56 100.82 118.56C98.38 118.56 95.42 119.24 91.94 120.6C91.18 120.92 90.46 120.86 89.78 120.42C89.14 119.98 88.82 119.38 88.82 118.62V117.6C88.82 116.56 89.1 115.62 89.66 114.78C90.26 113.9 91.04 113.32 92 113.04C95.4 112.08 98.74 111.6 102.02 111.6C106.7 111.6 110.3 112.72 112.82 114.96C115.34 117.2 116.6 120.34 116.6 124.38ZM147.025 121.74C145.665 119.34 143.585 118.14 140.785 118.14C137.985 118.14 135.905 119.34 134.545 121.74C133.185 124.14 132.505 128.26 132.505 134.1C132.505 139.94 133.185 144.06 134.545 146.46C135.905 148.86 137.985 150.06 140.785 150.06C143.585 150.06 145.665 148.86 147.025 146.46C148.385 144.06 149.065 139.94 149.065 134.1C149.065 128.26 148.385 124.14 147.025 121.74ZM153.385 151.26C150.625 154.82 146.425 156.6 140.785 156.6C135.145 156.6 130.925 154.82 128.125 151.26C125.365 147.7 123.985 141.98 123.985 134.1C123.985 126.22 125.365 120.5 128.125 116.94C130.925 113.38 135.145 111.6 140.785 111.6C146.425 111.6 150.625 113.38 153.385 116.94C156.185 120.5 157.585 126.22 157.585 134.1C157.585 141.98 156.185 147.7 153.385 151.26ZM168.811 140.22C168.811 140.26 168.791 140.28 168.751 140.28C168.751 140.28 168.751 140.3 168.751 140.34C168.751 140.38 168.771 140.4 168.811 140.4H180.271C180.591 140.4 180.751 140.22 180.751 139.86V123.24C180.751 123.2 180.731 123.18 180.691 123.18H180.631L168.811 140.22ZM164.251 147C163.371 147 162.591 146.68 161.911 146.04C161.271 145.4 160.951 144.62 160.951 143.7C160.951 141.46 161.591 139.46 162.871 137.7L178.831 114.96C180.111 113.12 181.891 112.2 184.171 112.2H185.491C186.411 112.2 187.211 112.54 187.891 113.22C188.571 113.9 188.911 114.7 188.911 115.62V139.86C188.911 140.22 189.071 140.4 189.391 140.4H192.271C193.191 140.4 193.971 140.72 194.611 141.36C195.251 142 195.571 142.78 195.571 143.7C195.571 144.62 195.251 145.4 194.611 146.04C193.971 146.68 193.191 147 192.271 147H189.391C189.071 147 188.911 147.18 188.911 147.54V152.58C188.911 153.5 188.571 154.3 187.891 154.98C187.211 155.66 186.411 156 185.491 156H184.171C183.251 156 182.451 155.66 181.771 154.98C181.091 154.3 180.751 153.5 180.751 152.58V147.54C180.751 147.18 180.591 147 180.271 147H164.251Z" fill="white"/>
<path d="M217.87 145C217.502 145 217.182 144.864 216.91 144.592C216.654 144.32 216.526 144 216.526 143.632V128.848C216.526 128.48 216.654 128.16 216.91 127.888C217.182 127.616 217.502 127.48 217.87 127.48H218.518C218.886 127.48 219.206 127.616 219.478 127.888C219.75 128.16 219.886 128.48 219.886 128.848V134.296C219.886 134.424 219.95 134.488 220.078 134.488H226.078C226.206 134.488 226.27 134.424 226.27 134.296V128.848C226.27 128.48 226.406 128.16 226.678 127.888C226.95 127.616 227.27 127.48 227.638 127.48H228.286C228.654 127.48 228.966 127.616 229.222 127.888C229.494 128.16 229.63 128.48 229.63 128.848V143.632C229.63 144 229.494 144.32 229.222 144.592C228.966 144.864 228.654 145 228.286 145H227.638C227.27 145 226.95 144.864 226.678 144.592C226.406 144.32 226.27 144 226.27 143.632V137.272C226.27 137.128 226.206 137.056 226.078 137.056H220.078C219.95 137.056 219.886 137.128 219.886 137.272V143.632C219.886 144 219.75 144.32 219.478 144.592C219.206 144.864 218.886 145 218.518 145H217.87ZM238.72 139C236.432 139 235.288 139.704 235.288 141.112C235.288 141.624 235.432 142.04 235.72 142.36C236.024 142.68 236.408 142.84 236.872 142.84C237.784 142.84 238.52 142.56 239.08 142C239.64 141.424 239.92 140.64 239.92 139.648V139.216C239.92 139.072 239.848 139 239.704 139H238.72ZM236.008 145.24C234.92 145.24 234.016 144.888 233.296 144.184C232.592 143.464 232.24 142.536 232.24 141.4C232.24 140.008 232.768 138.928 233.824 138.16C234.896 137.392 236.528 137.008 238.72 137.008H239.704C239.848 137.008 239.92 136.936 239.92 136.792V136.6C239.92 135.864 239.744 135.352 239.392 135.064C239.04 134.76 238.416 134.608 237.52 134.608C236.592 134.608 235.456 134.776 234.112 135.112C233.824 135.192 233.56 135.144 233.32 134.968C233.08 134.776 232.96 134.528 232.96 134.224C232.96 133.856 233.072 133.528 233.296 133.24C233.52 132.936 233.808 132.752 234.16 132.688C235.376 132.416 236.52 132.28 237.592 132.28C239.64 132.28 241.072 132.648 241.888 133.384C242.704 134.12 243.112 135.408 243.112 137.248V143.632C243.112 144 242.976 144.32 242.704 144.592C242.448 144.864 242.136 145 241.768 145H241.504C241.12 145 240.792 144.872 240.52 144.616C240.248 144.344 240.104 144.016 240.088 143.632V143.296C240.088 143.28 240.08 143.272 240.064 143.272C240.032 143.272 240.016 143.28 240.016 143.296C239.04 144.592 237.704 145.24 236.008 145.24ZM251.301 145.24C249.317 145.24 247.789 144.696 246.717 143.608C245.645 142.504 245.109 140.888 245.109 138.76C245.109 136.664 245.621 135.064 246.645 133.96C247.685 132.84 249.157 132.28 251.061 132.28C251.909 132.28 252.725 132.336 253.509 132.448C253.877 132.496 254.181 132.664 254.421 132.952C254.661 133.24 254.781 133.576 254.781 133.96C254.781 134.28 254.653 134.536 254.397 134.728C254.157 134.92 253.877 134.984 253.557 134.92C252.933 134.792 252.237 134.728 251.469 134.728C250.461 134.728 249.709 135.048 249.213 135.688C248.717 136.328 248.469 137.352 248.469 138.76C248.469 140.2 248.733 141.232 249.261 141.856C249.789 142.48 250.605 142.792 251.709 142.792C252.493 142.792 253.173 142.72 253.749 142.576C254.053 142.496 254.325 142.552 254.565 142.744C254.821 142.936 254.949 143.184 254.949 143.488C254.949 143.872 254.829 144.208 254.589 144.496C254.365 144.784 254.069 144.96 253.701 145.024C252.885 145.168 252.085 145.24 251.301 145.24ZM259.281 145C258.913 145 258.593 144.864 258.321 144.592C258.049 144.32 257.913 144 257.913 143.632V128.368C257.913 128 258.049 127.68 258.321 127.408C258.593 127.136 258.913 127 259.281 127H259.761C260.129 127 260.449 127.136 260.721 127.408C260.993 127.68 261.129 128 261.129 128.368V137.608C261.129 137.624 261.137 137.632 261.153 137.632H261.177L264.825 133.528C265.417 132.856 266.169 132.52 267.081 132.52H268.089C268.345 132.52 268.521 132.64 268.617 132.88C268.729 133.12 268.697 133.336 268.521 133.528L264.129 138.376C264.049 138.472 264.049 138.576 264.129 138.688L268.569 143.968C268.745 144.176 268.769 144.4 268.641 144.64C268.529 144.88 268.345 145 268.089 145H267.081C266.169 145 265.425 144.648 264.849 143.944L261.177 139.504C261.177 139.488 261.169 139.48 261.153 139.48C261.137 139.48 261.129 139.488 261.129 139.504V143.632C261.129 144 260.993 144.32 260.721 144.592C260.449 144.864 260.129 145 259.761 145H259.281ZM275.099 134.512C274.283 134.512 273.651 134.744 273.203 135.208C272.771 135.656 272.499 136.384 272.387 137.392C272.387 137.52 272.451 137.584 272.579 137.584H277.283C277.411 137.584 277.475 137.52 277.475 137.392C277.411 135.472 276.619 134.512 275.099 134.512ZM275.699 145.24C273.603 145.24 271.987 144.696 270.851 143.608C269.731 142.504 269.171 140.888 269.171 138.76C269.171 136.648 269.675 135.04 270.683 133.936C271.691 132.832 273.147 132.28 275.051 132.28C278.603 132.28 280.427 134.296 280.523 138.328C280.539 138.712 280.403 139.032 280.115 139.288C279.827 139.544 279.491 139.672 279.107 139.672H272.555C272.411 139.672 272.355 139.744 272.387 139.888C272.499 140.96 272.851 141.744 273.443 142.24C274.051 142.72 274.931 142.96 276.083 142.96C276.803 142.96 277.603 142.84 278.483 142.6C278.771 142.52 279.035 142.568 279.275 142.744C279.531 142.92 279.659 143.16 279.659 143.464C279.659 143.832 279.547 144.16 279.323 144.448C279.115 144.72 278.835 144.888 278.483 144.952C277.587 145.144 276.659 145.24 275.699 145.24ZM284.137 145C283.769 145 283.449 144.864 283.177 144.592C282.905 144.32 282.769 144 282.769 143.632V133.888C282.769 133.52 282.905 133.2 283.177 132.928C283.449 132.656 283.769 132.52 284.137 132.52H284.617C284.985 132.52 285.305 132.656 285.577 132.928C285.849 133.2 285.985 133.52 285.985 133.888V134.896C285.985 134.912 285.993 134.92 286.009 134.92C286.041 134.92 286.057 134.912 286.057 134.896C286.521 134.256 287.129 133.736 287.881 133.336C288.633 132.92 289.457 132.664 290.353 132.568C290.689 132.536 290.977 132.648 291.217 132.904C291.457 133.144 291.577 133.432 291.577 133.768C291.577 134.104 291.457 134.392 291.217 134.632C290.977 134.872 290.689 135.008 290.353 135.04C287.521 135.264 286.105 136.704 286.105 139.36V143.632C286.105 144 285.969 144.32 285.697 144.592C285.425 144.864 285.105 145 284.737 145H284.137ZM297.9 139.96C296.22 139.592 295.02 139.088 294.3 138.448C293.596 137.808 293.244 136.976 293.244 135.952C293.244 134.8 293.668 133.904 294.516 133.264C295.38 132.608 296.652 132.28 298.332 132.28C299.388 132.28 300.436 132.376 301.476 132.568C301.828 132.632 302.108 132.808 302.316 133.096C302.54 133.368 302.652 133.688 302.652 134.056C302.652 134.36 302.532 134.608 302.292 134.8C302.052 134.976 301.78 135.024 301.476 134.944C300.58 134.72 299.636 134.608 298.644 134.608C297.204 134.608 296.484 135.008 296.484 135.808C296.484 136.192 296.62 136.512 296.892 136.768C297.164 137.024 297.628 137.224 298.284 137.368C300.124 137.736 301.38 138.232 302.052 138.856C302.74 139.48 303.084 140.392 303.084 141.592C303.084 142.744 302.652 143.64 301.788 144.28C300.924 144.92 299.668 145.24 298.02 145.24C296.948 145.24 295.852 145.112 294.732 144.856C294.38 144.776 294.092 144.592 293.868 144.304C293.644 144 293.532 143.656 293.532 143.272C293.532 142.968 293.652 142.736 293.892 142.576C294.148 142.416 294.42 142.376 294.708 142.456C295.748 142.744 296.732 142.888 297.66 142.888C299.116 142.888 299.844 142.456 299.844 141.592C299.844 141.176 299.7 140.848 299.412 140.608C299.14 140.368 298.636 140.152 297.9 139.96Z" fill="white"/>
<rect x="50" y="191.739" width="297.098" height="87.5224" rx="23.4906" fill="#3FA9F5"/>
<path d="M141.38 235.54C138.94 235.54 136.98 236.32 135.5 237.88C134.02 239.44 133.28 241.52 133.28 244.12C133.28 246.92 134.02 249.14 135.5 250.78C137.02 252.38 138.98 253.18 141.38 253.18C143.94 253.18 145.94 252.42 147.38 250.9C148.86 249.34 149.6 247.08 149.6 244.12C149.6 241.44 148.86 239.34 147.38 237.82C145.9 236.3 143.9 235.54 141.38 235.54ZM141.38 259.6C130.46 259.6 125 253 125 239.8C125 231.4 126.64 225.1 129.92 220.9C133.24 216.7 137.96 214.6 144.08 214.6C145.84 214.6 147.72 214.76 149.72 215.08C150.68 215.24 151.46 215.72 152.06 216.52C152.7 217.32 153.02 218.22 153.02 219.22C153.02 220.06 152.68 220.72 152 221.2C151.36 221.68 150.62 221.82 149.78 221.62C148.14 221.22 146.32 221.02 144.32 221.02C141.36 221.02 138.92 222.02 137 224.02C135.12 226.02 133.98 228.88 133.58 232.6V232.72L133.7 232.66C135.98 230.62 139.14 229.6 143.18 229.6C147.78 229.6 151.36 230.88 153.92 233.44C156.52 235.96 157.82 239.48 157.82 244C157.82 248.88 156.34 252.7 153.38 255.46C150.42 258.22 146.42 259.6 141.38 259.6ZM169.225 243.22C169.225 243.26 169.205 243.28 169.165 243.28C169.165 243.28 169.165 243.3 169.165 243.34C169.165 243.38 169.185 243.4 169.225 243.4H180.685C181.005 243.4 181.165 243.22 181.165 242.86V226.24C181.165 226.2 181.145 226.18 181.105 226.18H181.045L169.225 243.22ZM164.665 250C163.785 250 163.005 249.68 162.325 249.04C161.685 248.4 161.365 247.62 161.365 246.7C161.365 244.46 162.005 242.46 163.285 240.7L179.245 217.96C180.525 216.12 182.305 215.2 184.585 215.2H185.905C186.825 215.2 187.625 215.54 188.305 216.22C188.985 216.9 189.325 217.7 189.325 218.62V242.86C189.325 243.22 189.485 243.4 189.805 243.4H192.685C193.605 243.4 194.385 243.72 195.025 244.36C195.665 245 195.985 245.78 195.985 246.7C195.985 247.62 195.665 248.4 195.025 249.04C194.385 249.68 193.605 250 192.685 250H189.805C189.485 250 189.325 250.18 189.325 250.54V255.58C189.325 256.5 188.985 257.3 188.305 257.98C187.625 258.66 186.825 259 185.905 259H184.585C183.665 259 182.865 258.66 182.185 257.98C181.505 257.3 181.165 256.5 181.165 255.58V250.54C181.165 250.18 181.005 250 180.685 250H164.665Z" fill="white"/>
<path d="M222.208 229.216V235C222.208 235.112 222.272 235.184 222.4 235.216C223.008 235.296 223.6 235.336 224.176 235.336C225.472 235.336 226.456 235.056 227.128 234.496C227.816 233.92 228.16 233.104 228.16 232.048C228.16 229.92 226.832 228.856 224.176 228.856C223.6 228.856 223.008 228.896 222.4 228.976C222.272 229.008 222.208 229.088 222.208 229.216ZM220.24 244C219.872 244 219.552 243.864 219.28 243.592C219.024 243.32 218.896 243 218.896 242.632V227.968C218.896 227.584 219.024 227.24 219.28 226.936C219.536 226.632 219.856 226.464 220.24 226.432C221.6 226.304 222.912 226.24 224.176 226.24C226.576 226.24 228.376 226.72 229.576 227.68C230.776 228.624 231.376 230 231.376 231.808C231.376 233.808 230.792 235.32 229.624 236.344C228.472 237.368 226.76 237.88 224.488 237.88C223.96 237.88 223.264 237.848 222.4 237.784C222.272 237.784 222.208 237.848 222.208 237.976V242.632C222.208 243 222.072 243.32 221.8 243.592C221.528 243.864 221.208 244 220.84 244H220.24ZM234.516 244C234.148 244 233.828 243.864 233.556 243.592C233.284 243.32 233.148 243 233.148 242.632V232.888C233.148 232.52 233.284 232.2 233.556 231.928C233.828 231.656 234.148 231.52 234.516 231.52H234.996C235.364 231.52 235.684 231.656 235.956 231.928C236.228 232.2 236.364 232.52 236.364 232.888V233.896C236.364 233.912 236.372 233.92 236.388 233.92C236.42 233.92 236.436 233.912 236.436 233.896C236.9 233.256 237.508 232.736 238.26 232.336C239.012 231.92 239.836 231.664 240.732 231.568C241.068 231.536 241.356 231.648 241.596 231.904C241.836 232.144 241.956 232.432 241.956 232.768C241.956 233.104 241.836 233.392 241.596 233.632C241.356 233.872 241.068 234.008 240.732 234.04C237.9 234.264 236.484 235.704 236.484 238.36V242.632C236.484 243 236.348 243.32 236.076 243.592C235.804 243.864 235.484 244 235.116 244H234.516ZM251.327 234.616C250.863 233.944 250.159 233.608 249.215 233.608C248.271 233.608 247.559 233.944 247.079 234.616C246.615 235.272 246.383 236.32 246.383 237.76C246.383 239.2 246.615 240.256 247.079 240.928C247.559 241.584 248.271 241.912 249.215 241.912C250.159 241.912 250.863 241.584 251.327 240.928C251.807 240.256 252.047 239.2 252.047 237.76C252.047 236.32 251.807 235.272 251.327 234.616ZM253.679 242.56C252.623 243.68 251.135 244.24 249.215 244.24C247.295 244.24 245.799 243.68 244.727 242.56C243.671 241.424 243.143 239.824 243.143 237.76C243.143 235.696 243.671 234.104 244.727 232.984C245.799 231.848 247.295 231.28 249.215 231.28C251.135 231.28 252.623 231.848 253.679 232.984C254.751 234.104 255.287 235.696 255.287 237.76C255.287 239.824 254.751 241.424 253.679 242.56ZM256.208 249.256C255.84 249.272 255.536 249.152 255.296 248.896C255.04 248.656 254.912 248.36 254.912 248.008C254.912 247.672 255.04 247.376 255.296 247.12C255.552 246.864 255.856 246.72 256.208 246.688C257.28 246.624 257.968 246.4 258.272 246.016C258.592 245.632 258.752 244.88 258.752 243.76V232.888C258.752 232.52 258.888 232.2 259.16 231.928C259.432 231.656 259.752 231.52 260.12 231.52H260.768C261.136 231.52 261.448 231.656 261.704 231.928C261.976 232.2 262.112 232.52 262.112 232.888V243.76C262.112 245.792 261.712 247.192 260.912 247.96C260.128 248.728 258.56 249.16 256.208 249.256ZM260.768 226C261.136 226 261.448 226.136 261.704 226.408C261.976 226.68 262.112 227 262.112 227.368V227.512C262.112 227.88 261.976 228.2 261.704 228.472C261.448 228.744 261.136 228.88 260.768 228.88H260.12C259.752 228.88 259.432 228.744 259.16 228.472C258.888 228.2 258.752 227.88 258.752 227.512V227.368C258.752 227 258.888 226.68 259.16 226.408C259.432 226.136 259.752 226 260.12 226H260.768ZM270.883 233.512C270.067 233.512 269.435 233.744 268.987 234.208C268.555 234.656 268.283 235.384 268.171 236.392C268.171 236.52 268.235 236.584 268.363 236.584H273.067C273.195 236.584 273.259 236.52 273.259 236.392C273.195 234.472 272.403 233.512 270.883 233.512ZM271.483 244.24C269.387 244.24 267.771 243.696 266.635 242.608C265.515 241.504 264.955 239.888 264.955 237.76C264.955 235.648 265.459 234.04 266.467 232.936C267.475 231.832 268.931 231.28 270.835 231.28C274.387 231.28 276.211 233.296 276.307 237.328C276.323 237.712 276.187 238.032 275.899 238.288C275.611 238.544 275.275 238.672 274.891 238.672H268.339C268.195 238.672 268.139 238.744 268.171 238.888C268.283 239.96 268.635 240.744 269.227 241.24C269.835 241.72 270.715 241.96 271.867 241.96C272.587 241.96 273.387 241.84 274.267 241.6C274.555 241.52 274.819 241.568 275.059 241.744C275.315 241.92 275.443 242.16 275.443 242.464C275.443 242.832 275.331 243.16 275.107 243.448C274.899 243.72 274.619 243.888 274.267 243.952C273.371 244.144 272.443 244.24 271.483 244.24ZM284.139 244.24C282.155 244.24 280.627 243.696 279.555 242.608C278.483 241.504 277.947 239.888 277.947 237.76C277.947 235.664 278.459 234.064 279.483 232.96C280.523 231.84 281.995 231.28 283.899 231.28C284.747 231.28 285.563 231.336 286.347 231.448C286.715 231.496 287.019 231.664 287.259 231.952C287.499 232.24 287.619 232.576 287.619 232.96C287.619 233.28 287.491 233.536 287.235 233.728C286.995 233.92 286.715 233.984 286.395 233.92C285.771 233.792 285.075 233.728 284.307 233.728C283.299 233.728 282.547 234.048 282.051 234.688C281.555 235.328 281.307 236.352 281.307 237.76C281.307 239.2 281.571 240.232 282.099 240.856C282.627 241.48 283.443 241.792 284.547 241.792C285.331 241.792 286.011 241.72 286.587 241.576C286.891 241.496 287.163 241.552 287.403 241.744C287.659 241.936 287.787 242.184 287.787 242.488C287.787 242.872 287.667 243.208 287.427 243.496C287.203 243.784 286.907 243.96 286.539 244.024C285.723 244.168 284.923 244.24 284.139 244.24ZM291.182 234.328C290.862 234.328 290.59 234.216 290.366 233.992C290.142 233.752 290.03 233.472 290.03 233.152C290.03 232.832 290.142 232.56 290.366 232.336C290.59 232.112 290.862 232 291.182 232H292.334C292.478 232 292.55 231.928 292.55 231.784V228.808C292.55 228.44 292.678 228.12 292.934 227.848C293.206 227.576 293.526 227.44 293.894 227.44H294.374C294.742 227.44 295.062 227.576 295.334 227.848C295.606 228.12 295.742 228.44 295.742 228.808V231.784C295.742 231.928 295.814 232 295.958 232H298.694C299.014 232 299.286 232.112 299.51 232.336C299.75 232.56 299.87 232.832 299.87 233.152C299.87 233.472 299.75 233.752 299.51 233.992C299.286 234.216 299.014 234.328 298.694 234.328H295.958C295.814 234.328 295.742 234.392 295.742 234.52V239.368C295.742 240.408 295.854 241.08 296.078 241.384C296.302 241.688 296.766 241.84 297.47 241.84C297.854 241.84 298.142 241.824 298.334 241.792C298.654 241.76 298.934 241.832 299.174 242.008C299.414 242.184 299.534 242.424 299.534 242.728C299.534 243.08 299.414 243.4 299.174 243.688C298.95 243.96 298.67 244.112 298.334 244.144C297.63 244.208 297.102 244.24 296.75 244.24C295.198 244.24 294.11 243.912 293.486 243.256C292.862 242.584 292.55 241.392 292.55 239.68V234.52C292.55 234.392 292.478 234.328 292.334 234.328H291.182ZM306.91 238.96C305.23 238.592 304.03 238.088 303.31 237.448C302.606 236.808 302.254 235.976 302.254 234.952C302.254 233.8 302.678 232.904 303.526 232.264C304.39 231.608 305.662 231.28 307.342 231.28C308.398 231.28 309.446 231.376 310.486 231.568C310.838 231.632 311.118 231.808 311.326 232.096C311.55 232.368 311.662 232.688 311.662 233.056C311.662 233.36 311.542 233.608 311.302 233.8C311.062 233.976 310.79 234.024 310.486 233.944C309.59 233.72 308.646 233.608 307.654 233.608C306.214 233.608 305.494 234.008 305.494 234.808C305.494 235.192 305.63 235.512 305.902 235.768C306.174 236.024 306.638 236.224 307.294 236.368C309.134 236.736 310.39 237.232 311.062 237.856C311.75 238.48 312.094 239.392 312.094 240.592C312.094 241.744 311.662 242.64 310.798 243.28C309.934 243.92 308.678 244.24 307.03 244.24C305.958 244.24 304.862 244.112 303.742 243.856C303.39 243.776 303.102 243.592 302.878 243.304C302.654 243 302.542 242.656 302.542 242.272C302.542 241.968 302.662 241.736 302.902 241.576C303.158 241.416 303.43 241.376 303.718 241.456C304.758 241.744 305.742 241.888 306.67 241.888C308.126 241.888 308.854 241.456 308.854 240.592C308.854 240.176 308.71 239.848 308.422 239.608C308.15 239.368 307.646 239.152 306.91 238.96Z" fill="white"/>
<rect x="50" y="295.478" width="297.098" height="87.5224" rx="23.4906" fill="#3FA9F5"/>
<path d="M82.45 326.748C78.2436 326.861 76.1404 328.288 76.1404 331.029C76.1404 333.621 78.2061 335.442 82.3374 336.494L82.3937 336.55C82.4313 336.55 82.4688 336.55 82.5064 336.55C82.619 336.588 82.7129 336.569 82.7881 336.494C82.8632 336.381 82.9007 336.269 82.9007 336.156V327.255C82.9007 326.917 82.7505 326.748 82.45 326.748ZM83.0697 354.071C87.0884 353.808 89.0977 352.174 89.0977 349.169C89.0977 347.78 88.647 346.634 87.7456 345.733C86.8442 344.832 85.2668 344.062 83.0134 343.423C82.7129 343.348 82.5627 343.461 82.5627 343.761V353.62C82.5627 353.92 82.7317 354.071 83.0697 354.071ZM76.9855 341.451C71.5021 339.085 68.7605 335.611 68.7605 331.029C68.7605 327.875 69.9059 325.377 72.1969 323.537C74.5255 321.696 77.9432 320.757 82.45 320.72C82.7505 320.72 82.9007 320.551 82.9007 320.213V317.903C82.9007 317.114 83.1636 316.457 83.6894 315.931C84.2528 315.368 84.9288 315.086 85.7175 315.086C86.5062 315.086 87.1635 315.368 87.6893 315.931C88.2526 316.457 88.5343 317.114 88.5343 317.903V320.607C88.5343 320.87 88.6845 321.039 88.985 321.114C90.0366 321.227 91.0694 321.396 92.0835 321.621C93.0224 321.809 93.7735 322.279 94.3369 323.03C94.9378 323.781 95.2383 324.645 95.2383 325.621V325.79C95.2383 326.579 94.919 327.199 94.2806 327.649C93.6796 328.062 92.9848 328.175 92.1961 327.987C91.107 327.687 90.0366 327.461 88.985 327.311C88.6845 327.236 88.5343 327.368 88.5343 327.706V337.621V337.902C88.4592 338.203 88.5719 338.428 88.8723 338.578C91.6891 339.78 93.6796 341.207 94.8439 342.86C96.0457 344.512 96.6467 346.578 96.6467 349.057C96.6467 352.475 95.4824 355.141 93.1538 357.056C90.8628 358.934 87.4639 359.948 82.9571 360.099C82.6942 360.099 82.5627 360.268 82.5627 360.606V362.972C82.5627 363.76 82.281 364.418 81.7177 364.944C81.1919 365.507 80.5346 365.789 79.7459 365.789C78.9572 365.789 78.2812 365.507 77.7178 364.944C77.192 364.418 76.9291 363.76 76.9291 362.972V360.324C76.9291 360.024 76.7414 359.836 76.3658 359.761C75.2766 359.61 74.0748 359.347 72.7603 358.972C71.8589 358.709 71.1266 358.183 70.5632 357.395C70.0374 356.568 69.7745 355.667 69.7745 354.69V354.24C69.7745 353.526 70.075 352.963 70.6759 352.55C71.3143 352.137 71.9716 352.08 72.6476 352.381C73.9246 352.906 75.1827 353.301 76.4221 353.564C76.5348 353.601 76.6475 353.582 76.7601 353.507C76.8728 353.395 76.9291 353.282 76.9291 353.169V343.254C76.9291 342.766 77.0043 342.372 77.1545 342.071C77.3047 341.771 77.2484 341.564 76.9855 341.451ZM131.149 331.311C131.149 334.841 130.022 338.24 127.769 341.508C125.553 344.738 121.234 349.038 114.811 354.409C114.736 354.484 114.699 354.54 114.699 354.578C114.699 354.615 114.718 354.634 114.755 354.634H128.05C128.914 354.634 129.665 354.953 130.304 355.592C130.942 356.193 131.261 356.925 131.261 357.789C131.261 358.653 130.942 359.404 130.304 360.042C129.665 360.681 128.914 361 128.05 361H107.375C106.511 361 105.76 360.681 105.122 360.042C104.521 359.404 104.22 358.653 104.22 357.789C104.22 355.648 105.028 353.939 106.643 352.662C113.14 347.479 117.497 343.442 119.713 340.55C121.929 337.658 123.036 334.841 123.036 332.1C123.036 327.931 120.802 325.846 116.333 325.846C114.042 325.846 111.262 326.485 107.995 327.762C107.281 328.062 106.605 328.006 105.967 327.593C105.366 327.18 105.065 326.616 105.065 325.903V324.945C105.065 323.969 105.328 323.086 105.854 322.297C106.417 321.471 107.15 320.926 108.051 320.664C111.244 319.762 114.38 319.312 117.459 319.312C121.853 319.312 125.234 320.363 127.6 322.466C129.966 324.57 131.149 327.518 131.149 331.311ZM153.701 325.339C151.297 325.339 149.4 326.034 148.011 327.424C146.659 328.814 145.983 330.766 145.983 333.283C145.983 336.062 146.659 338.203 148.011 339.705C149.4 341.17 151.297 341.902 153.701 341.902C156.029 341.902 157.87 341.132 159.222 339.592C160.611 338.053 161.306 335.949 161.306 333.283C161.306 330.879 160.593 328.964 159.165 327.537C157.738 326.072 155.917 325.339 153.701 325.339ZM152.011 347.479C147.692 347.479 144.311 346.259 141.87 343.818C139.467 341.339 138.265 337.865 138.265 333.395C138.265 329.076 139.654 325.659 142.434 323.142C145.213 320.588 148.969 319.312 153.701 319.312C158.658 319.312 162.452 320.814 165.081 323.818C167.747 326.785 169.08 331.292 169.08 337.339C169.08 345.677 167.559 351.798 164.517 355.704C161.475 359.61 157.025 361.563 151.166 361.563C149.288 361.563 147.354 361.394 145.363 361.056C144.462 360.906 143.711 360.474 143.11 359.761C142.509 359.009 142.208 358.164 142.208 357.226C142.208 356.437 142.509 355.817 143.11 355.366C143.748 354.878 144.462 354.728 145.25 354.916C147.203 355.329 149.1 355.535 150.94 355.535C153.982 355.535 156.386 354.615 158.151 352.775C159.954 350.897 160.912 348.193 161.024 344.663V344.55L160.912 344.606C158.771 346.522 155.804 347.479 152.011 347.479ZM179.689 361C178.825 361 178.074 360.681 177.436 360.042C176.835 359.404 176.534 358.653 176.534 357.789V323.086C176.534 322.222 176.835 321.471 177.436 320.833C178.074 320.194 178.825 319.875 179.689 319.875H181.21C182.074 319.875 182.825 320.194 183.464 320.833C184.102 321.471 184.421 322.222 184.421 323.086V337.677C184.421 337.715 184.44 337.733 184.478 337.733C184.515 337.733 184.534 337.715 184.534 337.677L195.858 322.466C197.097 320.739 198.787 319.875 200.928 319.875H203.745C204.383 319.875 204.853 320.175 205.153 320.776C205.453 321.377 205.397 321.922 204.984 322.41L192.027 339.198C191.839 339.461 191.839 339.724 192.027 339.987L205.604 358.409C206.017 358.934 206.073 359.498 205.773 360.099C205.472 360.7 204.984 361 204.308 361H201.491C199.35 361 197.679 360.136 196.477 358.409L184.534 341.508C184.534 341.47 184.515 341.451 184.478 341.451C184.44 341.451 184.421 341.47 184.421 341.508V357.789C184.421 358.653 184.102 359.404 183.464 360.042C182.825 360.681 182.074 361 181.21 361H179.689Z" fill="white"/>
<path d="M222.208 343.224V348.264C222.208 348.392 222.28 348.472 222.424 348.504C222.984 348.584 223.512 348.624 224.008 348.624C225.336 348.624 226.304 348.384 226.912 347.904C227.536 347.408 227.848 346.656 227.848 345.648C227.848 344.752 227.488 344.096 226.768 343.68C226.064 343.248 224.888 343.032 223.24 343.032H222.4C222.272 343.032 222.208 343.096 222.208 343.224ZM222.208 336.216V340.32C222.208 340.464 222.272 340.536 222.4 340.536H223.096C224.584 340.536 225.656 340.336 226.312 339.936C226.984 339.52 227.32 338.912 227.32 338.112C227.32 337.344 227.048 336.776 226.504 336.408C225.96 336.04 225.072 335.856 223.84 335.856C223.28 335.856 222.8 335.888 222.4 335.952C222.272 335.984 222.208 336.072 222.208 336.216ZM220.24 351.048C219.856 351.016 219.536 350.856 219.28 350.568C219.024 350.264 218.896 349.912 218.896 349.512V334.968C218.896 334.568 219.024 334.224 219.28 333.936C219.536 333.632 219.864 333.464 220.264 333.432C221.448 333.304 222.592 333.24 223.696 333.24C228.176 333.24 230.416 334.704 230.416 337.632C230.416 338.608 230.088 339.456 229.432 340.176C228.776 340.896 227.912 341.36 226.84 341.568C226.824 341.568 226.816 341.576 226.816 341.592C226.816 341.624 226.824 341.64 226.84 341.64C228.152 341.832 229.176 342.32 229.912 343.104C230.664 343.872 231.04 344.824 231.04 345.96C231.04 347.72 230.464 349.04 229.312 349.92C228.16 350.8 226.368 351.24 223.936 351.24C222.72 351.24 221.488 351.176 220.24 351.048ZM240.515 341.616C240.051 340.944 239.347 340.608 238.403 340.608C237.459 340.608 236.747 340.944 236.267 341.616C235.803 342.272 235.571 343.32 235.571 344.76C235.571 346.2 235.803 347.256 236.267 347.928C236.747 348.584 237.459 348.912 238.403 348.912C239.347 348.912 240.051 348.584 240.515 347.928C240.995 347.256 241.235 346.2 241.235 344.76C241.235 343.32 240.995 342.272 240.515 341.616ZM242.867 349.56C241.811 350.68 240.323 351.24 238.403 351.24C236.483 351.24 234.987 350.68 233.915 349.56C232.859 348.424 232.331 346.824 232.331 344.76C232.331 342.696 232.859 341.104 233.915 339.984C234.987 338.848 236.483 338.28 238.403 338.28C240.323 338.28 241.811 338.848 242.867 339.984C243.939 341.104 244.475 342.696 244.475 344.76C244.475 346.824 243.939 348.424 242.867 349.56ZM250.52 351.24C249.112 351.24 248.088 350.856 247.448 350.088C246.808 349.304 246.488 347.984 246.488 346.128V339.888C246.488 339.52 246.624 339.2 246.896 338.928C247.168 338.656 247.488 338.52 247.856 338.52H248.24C248.608 338.52 248.928 338.656 249.2 338.928C249.472 339.2 249.608 339.52 249.608 339.888V345.792C249.608 346.912 249.76 347.688 250.064 348.12C250.368 348.552 250.88 348.768 251.6 348.768C252.256 348.768 252.864 348.488 253.424 347.928C254 347.368 254.288 346.768 254.288 346.128V339.888C254.288 339.52 254.424 339.2 254.696 338.928C254.968 338.656 255.288 338.52 255.656 338.52H256.136C256.504 338.52 256.816 338.656 257.072 338.928C257.344 339.2 257.48 339.52 257.48 339.888V349.632C257.48 350 257.344 350.32 257.072 350.592C256.816 350.864 256.504 351 256.136 351H255.824C255.44 351 255.112 350.872 254.84 350.616C254.584 350.344 254.448 350.016 254.432 349.632L254.408 349.464C254.408 349.448 254.4 349.44 254.384 349.44C254.368 349.44 254.352 349.448 254.336 349.464C253.248 350.648 251.976 351.24 250.52 351.24ZM261.812 351C261.444 351 261.124 350.864 260.852 350.592C260.58 350.32 260.444 350 260.444 349.632V339.888C260.444 339.52 260.58 339.2 260.852 338.928C261.124 338.656 261.444 338.52 261.812 338.52H262.124C262.508 338.52 262.828 338.656 263.084 338.928C263.356 339.184 263.5 339.504 263.516 339.888V340.056C263.516 340.072 263.524 340.08 263.54 340.08C263.556 340.08 263.572 340.072 263.588 340.056C264.676 338.872 265.948 338.28 267.404 338.28C268.86 338.28 269.916 338.696 270.572 339.528C271.244 340.344 271.58 341.712 271.58 343.632V349.632C271.58 350 271.444 350.32 271.172 350.592C270.9 350.864 270.58 351 270.212 351H269.804C269.436 351 269.116 350.864 268.844 350.592C268.588 350.32 268.46 350 268.46 349.632V343.872C268.46 342.672 268.3 341.856 267.98 341.424C267.676 340.976 267.124 340.752 266.324 340.752C265.668 340.752 265.06 341.032 264.5 341.592C263.94 342.152 263.66 342.752 263.66 343.392V349.632C263.66 350 263.524 350.32 263.252 350.592C262.98 350.864 262.66 351 262.292 351H261.812ZM274.503 341.328C274.183 341.328 273.911 341.216 273.687 340.992C273.463 340.752 273.351 340.472 273.351 340.152C273.351 339.832 273.463 339.56 273.687 339.336C273.911 339.112 274.183 339 274.503 339H275.655C275.799 339 275.871 338.928 275.871 338.784V335.808C275.871 335.44 275.999 335.12 276.255 334.848C276.527 334.576 276.847 334.44 277.215 334.44H277.695C278.063 334.44 278.383 334.576 278.655 334.848C278.927 335.12 279.063 335.44 279.063 335.808V338.784C279.063 338.928 279.135 339 279.279 339H282.015C282.335 339 282.607 339.112 282.831 339.336C283.071 339.56 283.191 339.832 283.191 340.152C283.191 340.472 283.071 340.752 282.831 340.992C282.607 341.216 282.335 341.328 282.015 341.328H279.279C279.135 341.328 279.063 341.392 279.063 341.52V346.368C279.063 347.408 279.175 348.08 279.399 348.384C279.623 348.688 280.087 348.84 280.791 348.84C281.175 348.84 281.463 348.824 281.655 348.792C281.975 348.76 282.255 348.832 282.495 349.008C282.735 349.184 282.855 349.424 282.855 349.728C282.855 350.08 282.735 350.4 282.495 350.688C282.271 350.96 281.991 351.112 281.655 351.144C280.951 351.208 280.423 351.24 280.071 351.24C278.519 351.24 277.431 350.912 276.807 350.256C276.183 349.584 275.871 348.392 275.871 346.68V341.52C275.871 341.392 275.799 341.328 275.655 341.328H274.503ZM288.258 351C287.89 351 287.57 350.864 287.298 350.592C287.026 350.32 286.89 350 286.89 349.632V339.888C286.89 339.52 287.026 339.2 287.298 338.928C287.57 338.656 287.89 338.52 288.258 338.52H288.882C289.25 338.52 289.57 338.656 289.842 338.928C290.114 339.2 290.25 339.52 290.25 339.888V349.632C290.25 350 290.114 350.32 289.842 350.592C289.57 350.864 289.25 351 288.882 351H288.258ZM288.258 335.88C287.89 335.88 287.57 335.744 287.298 335.472C287.026 335.2 286.89 334.88 286.89 334.512V334.368C286.89 334 287.026 333.68 287.298 333.408C287.57 333.136 287.89 333 288.258 333H288.882C289.25 333 289.57 333.136 289.842 333.408C290.114 333.68 290.25 334 290.25 334.368V334.512C290.25 334.88 290.114 335.2 289.842 335.472C289.57 335.744 289.25 335.88 288.882 335.88H288.258ZM299.023 340.512C298.207 340.512 297.575 340.744 297.127 341.208C296.695 341.656 296.423 342.384 296.311 343.392C296.311 343.52 296.375 343.584 296.503 343.584H301.207C301.335 343.584 301.399 343.52 301.399 343.392C301.335 341.472 300.543 340.512 299.023 340.512ZM299.623 351.24C297.527 351.24 295.911 350.696 294.775 349.608C293.655 348.504 293.095 346.888 293.095 344.76C293.095 342.648 293.599 341.04 294.607 339.936C295.615 338.832 297.071 338.28 298.975 338.28C302.527 338.28 304.351 340.296 304.447 344.328C304.463 344.712 304.327 345.032 304.039 345.288C303.751 345.544 303.415 345.672 303.031 345.672H296.479C296.335 345.672 296.279 345.744 296.311 345.888C296.423 346.96 296.775 347.744 297.367 348.24C297.975 348.72 298.855 348.96 300.007 348.96C300.727 348.96 301.527 348.84 302.407 348.6C302.695 348.52 302.959 348.568 303.199 348.744C303.455 348.92 303.583 349.16 303.583 349.464C303.583 349.832 303.471 350.16 303.247 350.448C303.039 350.72 302.759 350.888 302.407 350.952C301.511 351.144 300.583 351.24 299.623 351.24ZM310.989 345.96C309.309 345.592 308.109 345.088 307.389 344.448C306.685 343.808 306.333 342.976 306.333 341.952C306.333 340.8 306.757 339.904 307.605 339.264C308.469 338.608 309.741 338.28 311.421 338.28C312.477 338.28 313.525 338.376 314.565 338.568C314.917 338.632 315.197 338.808 315.405 339.096C315.629 339.368 315.741 339.688 315.741 340.056C315.741 340.36 315.621 340.608 315.381 340.8C315.141 340.976 314.869 341.024 314.565 340.944C313.669 340.72 312.725 340.608 311.733 340.608C310.293 340.608 309.573 341.008 309.573 341.808C309.573 342.192 309.709 342.512 309.981 342.768C310.253 343.024 310.717 343.224 311.373 343.368C313.213 343.736 314.469 344.232 315.141 344.856C315.829 345.48 316.173 346.392 316.173 347.592C316.173 348.744 315.741 349.64 314.877 350.28C314.013 350.92 312.757 351.24 311.109 351.24C310.037 351.24 308.941 351.112 307.821 350.856C307.469 350.776 307.181 350.592 306.957 350.304C306.733 350 306.621 349.656 306.621 349.272C306.621 348.968 306.741 348.736 306.981 348.576C307.237 348.416 307.509 348.376 307.797 348.456C308.837 348.744 309.821 348.888 310.749 348.888C312.205 348.888 312.933 348.456 312.933 347.592C312.933 347.176 312.789 346.848 312.501 346.608C312.229 346.368 311.725 346.152 310.989 345.96Z" fill="white"/>
<g clip-path="url(#clip0_1_168)">
<path d="M95.7908 33C95.4228 33 95.1028 32.864 94.8308 32.592C94.5588 32.32 94.4228 32 94.4228 31.632V16.848C94.4228 16.48 94.5588 16.16 94.8308 15.888C95.1028 15.616 95.4228 15.48 95.7908 15.48H103.951C104.319 15.48 104.639 15.616 104.911 15.888C105.183 16.16 105.319 16.48 105.319 16.848C105.319 17.216 105.183 17.536 104.911 17.808C104.639 18.064 104.319 18.192 103.951 18.192H97.9988C97.8548 18.192 97.7828 18.264 97.7828 18.408V22.272C97.7828 22.416 97.8548 22.488 97.9988 22.488H103.543C103.911 22.488 104.215 22.616 104.455 22.872C104.711 23.128 104.839 23.432 104.839 23.784C104.839 24.136 104.711 24.44 104.455 24.696C104.215 24.936 103.911 25.056 103.543 25.056H97.9988C97.8548 25.056 97.7828 25.128 97.7828 25.272V30.072C97.7828 30.216 97.8548 30.288 97.9988 30.288H103.951C104.319 30.288 104.639 30.424 104.911 30.696C105.183 30.952 105.319 31.264 105.319 31.632C105.319 32 105.183 32.32 104.911 32.592C104.639 32.864 104.319 33 103.951 33H95.7908ZM109.138 18.264C108.77 18.264 108.45 18.136 108.178 17.88C107.906 17.608 107.77 17.288 107.77 16.92V16.848C107.77 16.48 107.906 16.16 108.178 15.888C108.45 15.616 108.77 15.48 109.138 15.48H119.362C119.73 15.48 120.05 15.616 120.322 15.888C120.594 16.16 120.73 16.48 120.73 16.848V16.92C120.73 17.288 120.594 17.608 120.322 17.88C120.05 18.136 119.73 18.264 119.362 18.264H116.146C116.018 18.264 115.954 18.336 115.954 18.48V31.632C115.954 32 115.818 32.32 115.546 32.592C115.274 32.864 114.954 33 114.586 33H113.914C113.546 33 113.226 32.864 112.954 32.592C112.682 32.32 112.546 32 112.546 31.632V18.48C112.546 18.336 112.482 18.264 112.354 18.264H109.138ZM124.786 33C124.418 33 124.098 32.864 123.826 32.592C123.57 32.32 123.442 32 123.442 31.632V16.848C123.442 16.48 123.57 16.16 123.826 15.888C124.098 15.616 124.418 15.48 124.786 15.48H125.434C125.802 15.48 126.122 15.616 126.394 15.888C126.666 16.16 126.802 16.48 126.802 16.848V22.296C126.802 22.424 126.866 22.488 126.994 22.488H132.994C133.122 22.488 133.186 22.424 133.186 22.296V16.848C133.186 16.48 133.322 16.16 133.594 15.888C133.866 15.616 134.186 15.48 134.554 15.48H135.202C135.57 15.48 135.882 15.616 136.138 15.888C136.41 16.16 136.546 16.48 136.546 16.848V31.632C136.546 32 136.41 32.32 136.138 32.592C135.882 32.864 135.57 33 135.202 33H134.554C134.186 33 133.866 32.864 133.594 32.592C133.322 32.32 133.186 32 133.186 31.632V25.272C133.186 25.128 133.122 25.056 132.994 25.056H126.994C126.866 25.056 126.802 25.128 126.802 25.272V31.632C126.802 32 126.666 32.32 126.394 32.592C126.122 32.864 125.802 33 125.434 33H124.786ZM141.218 33C140.85 33 140.53 32.864 140.258 32.592C139.986 32.32 139.85 32 139.85 31.632V16.848C139.85 16.48 139.986 16.16 140.258 15.888C140.53 15.616 140.85 15.48 141.218 15.48H141.818C142.234 15.48 142.618 15.592 142.97 15.816C143.322 16.04 143.578 16.336 143.738 16.704L147.938 25.776C147.938 25.792 147.946 25.8 147.962 25.8C147.978 25.8 147.986 25.792 147.986 25.776L152.186 16.704C152.346 16.336 152.602 16.04 152.954 15.816C153.306 15.592 153.69 15.48 154.106 15.48H154.802C155.17 15.48 155.49 15.616 155.762 15.888C156.034 16.16 156.17 16.48 156.17 16.848V31.632C156.17 32 156.034 32.32 155.762 32.592C155.49 32.864 155.17 33 154.802 33H154.274C153.906 33 153.586 32.864 153.314 32.592C153.042 32.32 152.906 32 152.906 31.632V21.192C152.906 21.176 152.898 21.168 152.882 21.168C152.866 21.168 152.858 21.176 152.858 21.192L149.978 27.36C149.802 27.728 149.53 28.032 149.162 28.272C148.81 28.496 148.434 28.608 148.034 28.608H147.89C147.49 28.608 147.106 28.496 146.738 28.272C146.386 28.032 146.122 27.728 145.946 27.36L143.066 21.192C143.066 21.176 143.058 21.168 143.042 21.168C143.026 21.168 143.018 21.176 143.018 21.192V31.632C143.018 32 142.882 32.32 142.61 32.592C142.338 32.864 142.018 33 141.65 33H141.218ZM163.14 33.24C161.732 33.24 160.708 32.856 160.068 32.088C159.428 31.304 159.108 29.984 159.108 28.128V21.888C159.108 21.52 159.244 21.2 159.516 20.928C159.788 20.656 160.108 20.52 160.476 20.52H160.86C161.228 20.52 161.548 20.656 161.82 20.928C162.092 21.2 162.228 21.52 162.228 21.888V27.792C162.228 28.912 162.38 29.688 162.684 30.12C162.988 30.552 163.5 30.768 164.22 30.768C164.876 30.768 165.484 30.488 166.044 29.928C166.62 29.368 166.908 28.768 166.908 28.128V21.888C166.908 21.52 167.044 21.2 167.316 20.928C167.588 20.656 167.908 20.52 168.276 20.52H168.756C169.124 20.52 169.436 20.656 169.692 20.928C169.964 21.2 170.1 21.52 170.1 21.888V31.632C170.1 32 169.964 32.32 169.692 32.592C169.436 32.864 169.124 33 168.756 33H168.444C168.06 33 167.732 32.872 167.46 32.616C167.204 32.344 167.068 32.016 167.052 31.632L167.028 31.464C167.028 31.448 167.02 31.44 167.004 31.44C166.988 31.44 166.972 31.448 166.956 31.464C165.868 32.648 164.596 33.24 163.14 33.24ZM174.261 33C173.893 33 173.573 32.864 173.301 32.592C173.045 32.32 172.917 32 172.917 31.632V21.888C172.917 21.52 173.045 21.2 173.301 20.928C173.573 20.656 173.893 20.52 174.261 20.52H174.597C174.965 20.52 175.277 20.648 175.533 20.904C175.805 21.16 175.949 21.472 175.965 21.84V22.008C175.965 22.024 175.973 22.032 175.989 22.032C176.021 22.032 176.037 22.024 176.037 22.008C176.981 20.856 178.045 20.28 179.229 20.28C179.949 20.28 180.525 20.416 180.957 20.688C181.405 20.96 181.797 21.44 182.133 22.128C182.133 22.144 182.149 22.152 182.181 22.152C182.197 22.152 182.213 22.144 182.229 22.128C183.237 20.896 184.373 20.28 185.637 20.28C186.965 20.28 187.917 20.64 188.493 21.36C189.085 22.08 189.381 23.32 189.381 25.08V31.632C189.381 32 189.245 32.32 188.973 32.592C188.717 32.864 188.405 33 188.037 33H187.629C187.261 33 186.941 32.864 186.669 32.592C186.397 32.32 186.261 32 186.261 31.632V25.56C186.261 24.392 186.149 23.624 185.925 23.256C185.701 22.888 185.269 22.704 184.629 22.704C184.213 22.704 183.797 22.896 183.381 23.28C182.965 23.664 182.757 24.048 182.757 24.432V31.632C182.757 32 182.621 32.32 182.349 32.592C182.077 32.864 181.757 33 181.389 33H180.981C180.613 33 180.293 32.864 180.021 32.592C179.765 32.32 179.637 32 179.637 31.632V25.56C179.637 24.408 179.517 23.648 179.277 23.28C179.053 22.896 178.621 22.704 177.981 22.704C177.565 22.704 177.149 22.896 176.733 23.28C176.317 23.664 176.109 24.048 176.109 24.432V31.632C176.109 32 175.973 32.32 175.701 32.592C175.429 32.864 175.109 33 174.741 33H174.261ZM195.379 25.128V28.392C195.379 29.032 195.651 29.6 196.195 30.096C196.739 30.592 197.387 30.84 198.139 30.84C198.987 30.84 199.659 30.504 200.155 29.832C200.651 29.144 200.899 28.12 200.899 26.76C200.899 24.04 199.979 22.68 198.139 22.68C197.387 22.68 196.739 22.928 196.195 23.424C195.651 23.92 195.379 24.488 195.379 25.128ZM193.579 33C193.211 33 192.891 32.864 192.619 32.592C192.347 32.32 192.211 32 192.211 31.632V16.368C192.211 16 192.347 15.68 192.619 15.408C192.891 15.136 193.211 15 193.579 15H194.059C194.427 15 194.747 15.136 195.019 15.408C195.291 15.68 195.427 16 195.427 16.368V21.768C195.427 21.784 195.435 21.792 195.451 21.792C195.467 21.792 195.483 21.784 195.499 21.768C196.539 20.776 197.739 20.28 199.099 20.28C200.603 20.28 201.803 20.848 202.699 21.984C203.611 23.104 204.067 24.696 204.067 26.76C204.067 28.76 203.595 30.344 202.651 31.512C201.707 32.664 200.523 33.24 199.099 33.24C197.643 33.24 196.387 32.648 195.331 31.464C195.315 31.448 195.299 31.44 195.283 31.44C195.267 31.44 195.259 31.448 195.259 31.464L195.235 31.632C195.219 32.016 195.075 32.344 194.803 32.616C194.547 32.872 194.227 33 193.843 33H193.579ZM212.058 27C209.77 27 208.626 27.704 208.626 29.112C208.626 29.624 208.77 30.04 209.058 30.36C209.362 30.68 209.746 30.84 210.21 30.84C211.122 30.84 211.858 30.56 212.418 30C212.978 29.424 213.258 28.64 213.258 27.648V27.216C213.258 27.072 213.186 27 213.042 27H212.058ZM209.346 33.24C208.258 33.24 207.354 32.888 206.634 32.184C205.93 31.464 205.578 30.536 205.578 29.4C205.578 28.008 206.106 26.928 207.162 26.16C208.234 25.392 209.866 25.008 212.058 25.008H213.042C213.186 25.008 213.258 24.936 213.258 24.792V24.6C213.258 23.864 213.082 23.352 212.73 23.064C212.378 22.76 211.754 22.608 210.858 22.608C209.93 22.608 208.794 22.776 207.45 23.112C207.162 23.192 206.898 23.144 206.658 22.968C206.418 22.776 206.298 22.528 206.298 22.224C206.298 21.856 206.41 21.528 206.634 21.24C206.858 20.936 207.146 20.752 207.498 20.688C208.714 20.416 209.858 20.28 210.93 20.28C212.978 20.28 214.41 20.648 215.226 21.384C216.042 22.12 216.45 23.408 216.45 25.248V31.632C216.45 32 216.314 32.32 216.042 32.592C215.786 32.864 215.474 33 215.106 33H214.842C214.458 33 214.13 32.872 213.858 32.616C213.586 32.344 213.442 32.016 213.426 31.632V31.296C213.426 31.28 213.418 31.272 213.402 31.272C213.37 31.272 213.354 31.28 213.354 31.296C212.378 32.592 211.042 33.24 209.346 33.24ZM221.229 33C220.861 33 220.541 32.864 220.269 32.592C219.997 32.32 219.861 32 219.861 31.632V21.888C219.861 21.52 219.997 21.2 220.269 20.928C220.541 20.656 220.861 20.52 221.229 20.52H221.853C222.221 20.52 222.541 20.656 222.813 20.928C223.085 21.2 223.221 21.52 223.221 21.888V31.632C223.221 32 223.085 32.32 222.813 32.592C222.541 32.864 222.221 33 221.853 33H221.229ZM221.229 17.88C220.861 17.88 220.541 17.744 220.269 17.472C219.997 17.2 219.861 16.88 219.861 16.512V16.368C219.861 16 219.997 15.68 220.269 15.408C220.541 15.136 220.861 15 221.229 15H221.853C222.221 15 222.541 15.136 222.813 15.408C223.085 15.68 223.221 16 223.221 16.368V16.512C223.221 16.88 223.085 17.2 222.813 17.472C222.541 17.744 222.221 17.88 221.853 17.88H221.229ZM244.874 20.352C244.874 21.856 244.394 23.304 243.434 24.696C242.49 26.072 240.65 27.904 237.914 30.192C237.882 30.224 237.866 30.248 237.866 30.264C237.866 30.28 237.874 30.288 237.89 30.288H243.554C243.922 30.288 244.242 30.424 244.514 30.696C244.786 30.952 244.922 31.264 244.922 31.632C244.922 32 244.786 32.32 244.514 32.592C244.242 32.864 243.922 33 243.554 33H234.746C234.378 33 234.058 32.864 233.786 32.592C233.53 32.32 233.402 32 233.402 31.632C233.402 30.72 233.746 29.992 234.434 29.448C237.202 27.24 239.058 25.52 240.002 24.288C240.946 23.056 241.418 21.856 241.418 20.688C241.418 18.912 240.466 18.024 238.562 18.024C237.586 18.024 236.402 18.296 235.01 18.84C234.706 18.968 234.418 18.944 234.146 18.768C233.89 18.592 233.762 18.352 233.762 18.048V17.64C233.762 17.224 233.874 16.848 234.098 16.512C234.338 16.16 234.65 15.928 235.034 15.816C236.394 15.432 237.73 15.24 239.042 15.24C240.914 15.24 242.354 15.688 243.362 16.584C244.37 17.48 244.874 18.736 244.874 20.352ZM256.471 19.296C255.927 18.336 255.095 17.856 253.975 17.856C252.855 17.856 252.023 18.336 251.479 19.296C250.935 20.256 250.663 21.904 250.663 24.24C250.663 26.576 250.935 28.224 251.479 29.184C252.023 30.144 252.855 30.624 253.975 30.624C255.095 30.624 255.927 30.144 256.471 29.184C257.015 28.224 257.287 26.576 257.287 24.24C257.287 21.904 257.015 20.256 256.471 19.296ZM259.015 31.104C257.911 32.528 256.231 33.24 253.975 33.24C251.719 33.24 250.031 32.528 248.911 31.104C247.807 29.68 247.255 27.392 247.255 24.24C247.255 21.088 247.807 18.8 248.911 17.376C250.031 15.952 251.719 15.24 253.975 15.24C256.231 15.24 257.911 15.952 259.015 17.376C260.135 18.8 260.695 21.088 260.695 24.24C260.695 27.392 260.135 29.68 259.015 31.104ZM274.596 20.352C274.596 21.856 274.116 23.304 273.156 24.696C272.212 26.072 270.372 27.904 267.636 30.192C267.604 30.224 267.588 30.248 267.588 30.264C267.588 30.28 267.596 30.288 267.612 30.288H273.276C273.644 30.288 273.964 30.424 274.236 30.696C274.508 30.952 274.644 31.264 274.644 31.632C274.644 32 274.508 32.32 274.236 32.592C273.964 32.864 273.644 33 273.276 33H264.468C264.1 33 263.78 32.864 263.508 32.592C263.252 32.32 263.124 32 263.124 31.632C263.124 30.72 263.468 29.992 264.156 29.448C266.924 27.24 268.78 25.52 269.724 24.288C270.668 23.056 271.14 21.856 271.14 20.688C271.14 18.912 270.188 18.024 268.284 18.024C267.308 18.024 266.124 18.296 264.732 18.84C264.428 18.968 264.14 18.944 263.868 18.768C263.612 18.592 263.484 18.352 263.484 18.048V17.64C263.484 17.224 263.596 16.848 263.82 16.512C264.06 16.16 264.372 15.928 264.756 15.816C266.116 15.432 267.452 15.24 268.764 15.24C270.636 15.24 272.076 15.688 273.084 16.584C274.092 17.48 274.596 18.736 274.596 20.352ZM279.473 26.688C279.473 26.704 279.465 26.712 279.449 26.712C279.449 26.712 279.449 26.72 279.449 26.736C279.449 26.752 279.457 26.76 279.473 26.76H284.057C284.185 26.76 284.249 26.688 284.249 26.544V19.896C284.249 19.88 284.241 19.872 284.225 19.872H284.201L279.473 26.688ZM277.649 29.4C277.297 29.4 276.985 29.272 276.713 29.016C276.457 28.76 276.329 28.448 276.329 28.08C276.329 27.184 276.585 26.384 277.097 25.68L283.481 16.584C283.993 15.848 284.705 15.48 285.617 15.48H286.145C286.513 15.48 286.833 15.616 287.105 15.888C287.377 16.16 287.513 16.48 287.513 16.848V26.544C287.513 26.688 287.577 26.76 287.705 26.76H288.857C289.225 26.76 289.537 26.888 289.793 27.144C290.049 27.4 290.177 27.712 290.177 28.08C290.177 28.448 290.049 28.76 289.793 29.016C289.537 29.272 289.225 29.4 288.857 29.4H287.705C287.577 29.4 287.513 29.472 287.513 29.616V31.632C287.513 32 287.377 32.32 287.105 32.592C286.833 32.864 286.513 33 286.145 33H285.617C285.249 33 284.929 32.864 284.657 32.592C284.385 32.32 284.249 32 284.249 31.632V29.616C284.249 29.472 284.185 29.4 284.057 29.4L277.649 29.4ZM300.951 33C300.583 33 300.263 32.864 299.991 32.592C299.719 32.32 299.583 32 299.583 31.632V16.848C299.583 16.48 299.719 16.16 299.991 15.888C300.263 15.616 300.583 15.48 300.951 15.48H301.911C302.279 15.48 302.599 15.616 302.871 15.888C303.143 16.16 303.279 16.48 303.279 16.848V31.632C303.279 32 303.143 32.32 302.871 32.592C302.599 32.864 302.279 33 301.911 33H300.951ZM308.154 33C307.786 33 307.466 32.864 307.194 32.592C306.938 32.32 306.81 32 306.81 31.632V21.888C306.81 21.52 306.938 21.2 307.194 20.928C307.466 20.656 307.786 20.52 308.154 20.52H308.49C308.858 20.52 309.17 20.648 309.426 20.904C309.698 21.16 309.842 21.472 309.858 21.84V22.008C309.858 22.024 309.866 22.032 309.882 22.032C309.914 22.032 309.93 22.024 309.93 22.008C310.874 20.856 311.938 20.28 313.122 20.28C313.842 20.28 314.418 20.416 314.85 20.688C315.298 20.96 315.69 21.44 316.026 22.128C316.026 22.144 316.042 22.152 316.074 22.152C316.09 22.152 316.106 22.144 316.122 22.128C317.13 20.896 318.266 20.28 319.53 20.28C320.858 20.28 321.81 20.64 322.386 21.36C322.978 22.08 323.274 23.32 323.274 25.08V31.632C323.274 32 323.138 32.32 322.866 32.592C322.61 32.864 322.298 33 321.93 33H321.522C321.154 33 320.834 32.864 320.562 32.592C320.29 32.32 320.154 32 320.154 31.632V25.56C320.154 24.392 320.042 23.624 319.818 23.256C319.594 22.888 319.162 22.704 318.522 22.704C318.106 22.704 317.69 22.896 317.274 23.28C316.858 23.664 316.65 24.048 316.65 24.432V31.632C316.65 32 316.514 32.32 316.242 32.592C315.97 32.864 315.65 33 315.282 33H314.874C314.506 33 314.186 32.864 313.914 32.592C313.658 32.32 313.53 32 313.53 31.632V25.56C313.53 24.408 313.41 23.648 313.17 23.28C312.946 22.896 312.514 22.704 311.874 22.704C311.458 22.704 311.042 22.896 310.626 23.28C310.21 23.664 310.002 24.048 310.002 24.432V31.632C310.002 32 309.866 32.32 309.594 32.592C309.322 32.864 309.002 33 308.634 33H308.154ZM329.152 25.128V28.392C329.152 29.032 329.424 29.6 329.968 30.096C330.528 30.592 331.176 30.84 331.912 30.84C332.76 30.84 333.432 30.496 333.928 29.808C334.424 29.12 334.672 28.104 334.672 26.76C334.672 24.04 333.752 22.68 331.912 22.68C331.176 22.68 330.528 22.928 329.968 23.424C329.424 23.92 329.152 24.488 329.152 25.128ZM327.352 38.28C326.984 38.28 326.664 38.144 326.392 37.872C326.12 37.6 325.984 37.28 325.984 36.912V21.888C325.984 21.52 326.12 21.2 326.392 20.928C326.664 20.656 326.984 20.52 327.352 20.52H327.64C328.024 20.52 328.352 20.656 328.624 20.928C328.896 21.184 329.04 21.504 329.056 21.888V22.056C329.056 22.072 329.064 22.08 329.08 22.08C329.096 22.08 329.112 22.072 329.128 22.056C329.704 21.416 330.28 20.96 330.856 20.688C331.432 20.416 332.104 20.28 332.872 20.28C334.376 20.28 335.576 20.848 336.472 21.984C337.368 23.104 337.816 24.696 337.816 26.76C337.816 28.76 337.344 30.344 336.4 31.512C335.472 32.664 334.296 33.24 332.872 33.24C331.48 33.24 330.272 32.736 329.248 31.728C329.232 31.712 329.216 31.704 329.2 31.704C329.184 31.704 329.176 31.712 329.176 31.728V36.912C329.176 37.28 329.04 37.6 328.768 37.872C328.512 38.144 328.2 38.28 327.832 38.28H327.352ZM345.787 27C343.499 27 342.355 27.704 342.355 29.112C342.355 29.624 342.499 30.04 342.787 30.36C343.091 30.68 343.475 30.84 343.939 30.84C344.851 30.84 345.587 30.56 346.147 30C346.707 29.424 346.987 28.64 346.987 27.648V27.216C346.987 27.072 346.915 27 346.771 27H345.787ZM343.075 33.24C341.987 33.24 341.083 32.888 340.363 32.184C339.659 31.464 339.307 30.536 339.307 29.4C339.307 28.008 339.835 26.928 340.891 26.16C341.963 25.392 343.595 25.008 345.787 25.008H346.771C346.915 25.008 346.987 24.936 346.987 24.792V24.6C346.987 23.864 346.811 23.352 346.459 23.064C346.107 22.76 345.483 22.608 344.587 22.608C343.659 22.608 342.523 22.776 341.179 23.112C340.891 23.192 340.627 23.144 340.387 22.968C340.147 22.776 340.027 22.528 340.027 22.224C340.027 21.856 340.139 21.528 340.363 21.24C340.587 20.936 340.875 20.752 341.227 20.688C342.443 20.416 343.587 20.28 344.659 20.28C346.707 20.28 348.139 20.648 348.955 21.384C349.771 22.12 350.179 23.408 350.179 25.248V31.632C350.179 32 350.043 32.32 349.771 32.592C349.515 32.864 349.203 33 348.835 33H348.571C348.187 33 347.859 32.872 347.587 32.616C347.315 32.344 347.171 32.016 347.155 31.632V31.296C347.155 31.28 347.147 31.272 347.131 31.272C347.099 31.272 347.083 31.28 347.083 31.296C346.107 32.592 344.771 33.24 343.075 33.24ZM358.222 33.24C356.238 33.24 354.71 32.696 353.638 31.608C352.566 30.504 352.03 28.888 352.03 26.76C352.03 24.664 352.542 23.064 353.566 21.96C354.606 20.84 356.078 20.28 357.982 20.28C358.83 20.28 359.646 20.336 360.43 20.448C360.798 20.496 361.102 20.664 361.342 20.952C361.582 21.24 361.702 21.576 361.702 21.96C361.702 22.28 361.574 22.536 361.318 22.728C361.078 22.92 360.798 22.984 360.478 22.92C359.854 22.792 359.158 22.728 358.39 22.728C357.382 22.728 356.63 23.048 356.134 23.688C355.638 24.328 355.39 25.352 355.39 26.76C355.39 28.2 355.654 29.232 356.182 29.856C356.71 30.48 357.526 30.792 358.63 30.792C359.414 30.792 360.094 30.72 360.67 30.576C360.974 30.496 361.246 30.552 361.486 30.744C361.742 30.936 361.87 31.184 361.87 31.488C361.87 31.872 361.75 32.208 361.51 32.496C361.286 32.784 360.99 32.96 360.622 33.024C359.806 33.168 359.006 33.24 358.222 33.24ZM365.119 23.328C364.799 23.328 364.527 23.216 364.303 22.992C364.079 22.752 363.967 22.472 363.967 22.152C363.967 21.832 364.079 21.56 364.303 21.336C364.527 21.112 364.799 21 365.119 21H366.271C366.415 21 366.487 20.928 366.487 20.784V17.808C366.487 17.44 366.615 17.12 366.871 16.848C367.143 16.576 367.463 16.44 367.831 16.44H368.311C368.679 16.44 368.999 16.576 369.271 16.848C369.543 17.12 369.679 17.44 369.679 17.808V20.784C369.679 20.928 369.751 21 369.895 21H372.631C372.951 21 373.223 21.112 373.447 21.336C373.687 21.56 373.807 21.832 373.807 22.152C373.807 22.472 373.687 22.752 373.447 22.992C373.223 23.216 372.951 23.328 372.631 23.328H369.895C369.751 23.328 369.679 23.392 369.679 23.52V28.368C369.679 29.408 369.791 30.08 370.015 30.384C370.239 30.688 370.703 30.84 371.407 30.84C371.791 30.84 372.079 30.824 372.271 30.792C372.591 30.76 372.871 30.832 373.111 31.008C373.351 31.184 373.471 31.424 373.471 31.728C373.471 32.08 373.351 32.4 373.111 32.688C372.887 32.96 372.607 33.112 372.271 33.144C371.567 33.208 371.039 33.24 370.687 33.24C369.135 33.24 368.047 32.912 367.423 32.256C366.799 31.584 366.487 30.392 366.487 28.68V23.52C366.487 23.392 366.415 23.328 366.271 23.328H365.119Z" fill="white"/>
</g>
<path d="M53.859 54V42.3594H60.8434V43.6094H55.2652V47.6719H60.3121V48.9219H55.2652V54H53.859ZM62.1074 54V45.2656H63.4355V54H62.1074ZM62.7792 43.8125C62.5188 43.8125 62.2949 43.724 62.1074 43.5469C61.9199 43.3698 61.8261 43.1562 61.8261 42.9062C61.8261 42.6562 61.9199 42.4427 62.1074 42.2656C62.2949 42.0885 62.5188 42 62.7792 42C63.0396 42 63.2636 42.0885 63.4511 42.2656C63.6386 42.4427 63.7324 42.6562 63.7324 42.9062C63.7324 43.1562 63.6386 43.3698 63.4511 43.5469C63.2636 43.724 63.0396 43.8125 62.7792 43.8125ZM64.9339 54V45.2656H66.2151V46.5938H66.3089C66.4703 46.1615 66.7594 45.8125 67.176 45.5469C67.5979 45.276 68.0693 45.1406 68.5901 45.1406C68.6891 45.1406 68.8115 45.1432 68.9573 45.1484C69.1031 45.1484 69.2151 45.151 69.2932 45.1562V46.5156C69.2464 46.5052 69.1422 46.4896 68.9807 46.4688C68.8193 46.4479 68.6474 46.4375 68.4651 46.4375C68.0432 46.4375 67.6656 46.526 67.3323 46.7031C66.999 46.8802 66.7359 47.1224 66.5432 47.4297C66.3557 47.737 66.262 48.0885 66.262 48.4844V54H64.9339ZM76.0885 47.2344L74.8854 47.5625C74.7708 47.2656 74.5729 46.9844 74.2916 46.7188C74.0156 46.4479 73.5833 46.3125 72.9947 46.3125C72.4635 46.3125 72.0208 46.4375 71.6666 46.6875C71.3124 46.9323 71.1354 47.2396 71.1354 47.6094C71.1354 47.9427 71.2551 48.2083 71.4947 48.4062C71.7395 48.6042 72.1197 48.7656 72.6354 48.8906L73.9322 49.2031C74.7083 49.3906 75.2864 49.6797 75.6666 50.0703C76.052 50.4609 76.2447 50.9583 76.2447 51.5625C76.2447 52.0625 76.1015 52.5104 75.815 52.9062C75.5286 53.3021 75.1301 53.6146 74.6197 53.8438C74.1093 54.0729 73.5156 54.1875 72.8385 54.1875C71.9479 54.1875 71.2109 53.9922 70.6275 53.6016C70.0494 53.2109 69.6822 52.6458 69.526 51.9062L70.7916 51.5938C70.9114 52.0625 71.1406 52.4141 71.4791 52.6484C71.8229 52.8828 72.2708 53 72.8229 53C73.4426 53 73.9374 52.8672 74.3072 52.6016C74.6822 52.3307 74.8697 52.0104 74.8697 51.6406C74.8697 51.026 74.4374 50.6146 73.5729 50.4062L72.1197 50.0625C71.3176 49.8698 70.7291 49.5755 70.3541 49.1797C69.9791 48.7839 69.7916 48.2865 69.7916 47.6875C69.7916 47.1927 69.9296 46.7552 70.2057 46.375C70.4869 45.9948 70.8697 45.6979 71.3541 45.4844C71.8385 45.2656 72.3854 45.1562 72.9947 45.1562C73.8645 45.1562 74.5442 45.349 75.0338 45.7344C75.5286 46.1146 75.8801 46.6146 76.0885 47.2344ZM81.0869 45.2656V46.4062H76.5712V45.2656H81.0869ZM77.8837 43.1875H79.2119V51.5C79.2119 51.9531 79.3056 52.2865 79.4931 52.5C79.6806 52.7083 79.9775 52.8125 80.3837 52.8125C80.4723 52.8125 80.5634 52.8073 80.6572 52.7969C80.7561 52.7865 80.8629 52.7708 80.9775 52.75L81.2587 53.9531C81.1337 54 80.9801 54.0365 80.7978 54.0625C80.6207 54.0938 80.441 54.1094 80.2587 54.1094C79.5556 54.1094 78.9827 53.901 78.54 53.4844C78.1025 53.0677 77.8837 52.526 77.8837 51.8594V43.1875ZM89.3336 54.1875C88.4951 54.1875 87.7685 54 87.1539 53.625C86.5445 53.25 86.0758 52.7266 85.7477 52.0547C85.4195 51.3776 85.2555 50.5938 85.2555 49.7031C85.2555 48.8073 85.4169 48.0182 85.7399 47.3359C86.0628 46.6536 86.5159 46.1198 87.0992 45.7344C87.6878 45.349 88.3753 45.1562 89.1617 45.1562C89.6149 45.1562 90.0654 45.2318 90.5133 45.3828C90.9612 45.5339 91.3675 45.7786 91.732 46.1172C92.1018 46.4557 92.3961 46.9036 92.6149 47.4609C92.8336 48.0182 92.943 48.7031 92.943 49.5156V50.0938H86.2086V48.9375H92.2164L91.5992 49.375C91.5992 48.7917 91.5081 48.2734 91.3258 47.8203C91.1435 47.3672 90.8701 47.0104 90.5055 46.75C90.1461 46.4896 89.6982 46.3594 89.1617 46.3594C88.6253 46.3594 88.1643 46.4922 87.7789 46.7578C87.3987 47.0182 87.107 47.3594 86.9039 47.7812C86.7008 48.2031 86.5992 48.6562 86.5992 49.1406V49.9062C86.5992 50.5677 86.7138 51.1276 86.943 51.5859C87.1722 52.0443 87.4925 52.3932 87.9039 52.6328C88.3154 52.8672 88.7919 52.9844 89.3336 52.9844C89.6826 52.9844 90.0003 52.9349 90.2867 52.8359C90.5732 52.7318 90.8206 52.5781 91.0289 52.375C91.2373 52.1667 91.3961 51.9115 91.5055 51.6094L92.8024 51.9844C92.6669 52.4219 92.4378 52.8073 92.1149 53.1406C91.7972 53.4688 91.4013 53.7266 90.9274 53.9141C90.4534 54.0964 89.9222 54.1875 89.3336 54.1875ZM100.801 45.2656L97.582 54H96.207L92.9882 45.2656H94.4414L96.8476 52.2344H96.9414L99.3476 45.2656H100.801ZM104.955 54.1875C104.117 54.1875 103.39 54 102.776 53.625C102.166 53.25 101.698 52.7266 101.369 52.0547C101.041 51.3776 100.877 50.5938 100.877 49.7031C100.877 48.8073 101.039 48.0182 101.362 47.3359C101.685 46.6536 102.138 46.1198 102.721 45.7344C103.31 45.349 103.997 45.1562 104.783 45.1562C105.237 45.1562 105.687 45.2318 106.135 45.3828C106.583 45.5339 106.989 45.7786 107.354 46.1172C107.724 46.4557 108.018 46.9036 108.237 47.4609C108.455 48.0182 108.565 48.7031 108.565 49.5156V50.0938H101.83V48.9375H107.838L107.221 49.375C107.221 48.7917 107.13 48.2734 106.948 47.8203C106.765 47.3672 106.492 47.0104 106.127 46.75C105.768 46.4896 105.32 46.3594 104.783 46.3594C104.247 46.3594 103.786 46.4922 103.401 46.7578C103.02 47.0182 102.729 47.3594 102.526 47.7812C102.323 48.2031 102.221 48.6562 102.221 49.1406V49.9062C102.221 50.5677 102.336 51.1276 102.565 51.5859C102.794 52.0443 103.114 52.3932 103.526 52.6328C103.937 52.8672 104.414 52.9844 104.955 52.9844C105.304 52.9844 105.622 52.9349 105.908 52.8359C106.195 52.7318 106.442 52.5781 106.651 52.375C106.859 52.1667 107.018 51.9115 107.127 51.6094L108.424 51.9844C108.289 52.4219 108.06 52.8073 107.737 53.1406C107.419 53.4688 107.023 53.7266 106.549 53.9141C106.075 54.0964 105.544 54.1875 104.955 54.1875ZM109.61 54V45.2656H110.891V46.5938H110.985C111.146 46.1615 111.436 45.8125 111.852 45.5469C112.274 45.276 112.745 45.1406 113.266 45.1406C113.365 45.1406 113.488 45.1432 113.633 45.1484C113.779 45.1484 113.891 45.151 113.969 45.1562V46.5156C113.922 46.5052 113.818 46.4896 113.657 46.4688C113.495 46.4479 113.324 46.4375 113.141 46.4375C112.719 46.4375 112.342 46.526 112.008 46.7031C111.675 46.8802 111.412 47.1224 111.219 47.4297C111.032 47.737 110.938 48.0885 110.938 48.4844V54H109.61ZM118.294 54V42.3594H125.325V43.6094H119.7V47.5H124.95V48.75H119.7V52.75H125.404V54H118.294ZM130.496 45.2656V46.4062H125.98V45.2656H130.496ZM127.293 43.1875H128.621V51.5C128.621 51.9531 128.714 52.2865 128.902 52.5C129.089 52.7083 129.386 52.8125 129.793 52.8125C129.881 52.8125 129.972 52.8073 130.066 52.7969C130.165 52.7865 130.272 52.7708 130.386 52.75L130.668 53.9531C130.543 54 130.389 54.0365 130.207 54.0625C130.03 54.0938 129.85 54.1094 129.668 54.1094C128.964 54.1094 128.392 53.901 127.949 53.4844C127.511 53.0677 127.293 52.526 127.293 51.8594V43.1875ZM133.072 48.75V54H131.744V42.3594H133.072V46.6406H133.197C133.4 46.1875 133.705 45.8281 134.111 45.5625C134.523 45.2917 135.072 45.1562 135.76 45.1562C136.353 45.1562 136.874 45.276 137.322 45.5156C137.77 45.75 138.119 46.112 138.369 46.6016C138.619 47.0859 138.744 47.7031 138.744 48.4531V54H137.4V48.5469C137.4 47.849 137.221 47.3099 136.861 46.9297C136.502 46.5495 136.005 46.3594 135.369 46.3594C134.926 46.3594 134.533 46.4531 134.189 46.6406C133.846 46.8281 133.572 47.099 133.369 47.4531C133.171 47.8073 133.072 48.2396 133.072 48.75ZM143.899 54.1875C143.06 54.1875 142.334 54 141.719 53.625C141.11 53.25 140.641 52.7266 140.313 52.0547C139.985 51.3776 139.821 50.5938 139.821 49.7031C139.821 48.8073 139.982 48.0182 140.305 47.3359C140.628 46.6536 141.081 46.1198 141.664 45.7344C142.253 45.349 142.94 45.1562 143.727 45.1562C144.18 45.1562 144.631 45.2318 145.078 45.3828C145.526 45.5339 145.933 45.7786 146.297 46.1172C146.667 46.4557 146.961 46.9036 147.18 47.4609C147.399 48.0182 147.508 48.7031 147.508 49.5156V50.0938H140.774V48.9375H146.782L146.164 49.375C146.164 48.7917 146.073 48.2734 145.891 47.8203C145.709 47.3672 145.435 47.0104 145.071 46.75C144.711 46.4896 144.263 46.3594 143.727 46.3594C143.19 46.3594 142.729 46.4922 142.344 46.7578C141.964 47.0182 141.672 47.3594 141.469 47.7812C141.266 48.2031 141.164 48.6562 141.164 49.1406V49.9062C141.164 50.5677 141.279 51.1276 141.508 51.5859C141.737 52.0443 142.058 52.3932 142.469 52.6328C142.881 52.8672 143.357 52.9844 143.899 52.9844C144.248 52.9844 144.565 52.9349 144.852 52.8359C145.138 52.7318 145.386 52.5781 145.594 52.375C145.802 52.1667 145.961 51.9115 146.071 51.6094L147.368 51.9844C147.232 52.4219 147.003 52.8073 146.68 53.1406C146.362 53.4688 145.966 53.7266 145.493 53.9141C145.019 54.0964 144.487 54.1875 143.899 54.1875ZM148.553 54V45.2656H149.835V46.5938H149.928C150.09 46.1615 150.379 45.8125 150.796 45.5469C151.217 45.276 151.689 45.1406 152.21 45.1406C152.309 45.1406 152.431 45.1432 152.577 45.1484C152.723 45.1484 152.835 45.151 152.913 45.1562V46.5156C152.866 46.5052 152.762 46.4896 152.6 46.4688C152.439 46.4479 152.267 46.4375 152.085 46.4375C151.663 46.4375 151.285 46.526 150.952 46.7031C150.618 46.8802 150.355 47.1224 150.163 47.4297C149.975 47.737 149.882 48.0885 149.882 48.4844V54H148.553ZM156.927 54.1875C156.088 54.1875 155.362 54 154.747 53.625C154.138 53.25 153.669 52.7266 153.341 52.0547C153.013 51.3776 152.849 50.5938 152.849 49.7031C152.849 48.8073 153.01 48.0182 153.333 47.3359C153.656 46.6536 154.109 46.1198 154.692 45.7344C155.281 45.349 155.968 45.1562 156.755 45.1562C157.208 45.1562 157.659 45.2318 158.106 45.3828C158.554 45.5339 158.961 45.7786 159.325 46.1172C159.695 46.4557 159.989 46.9036 160.208 47.4609C160.427 48.0182 160.536 48.7031 160.536 49.5156V50.0938H153.802V48.9375H159.81L159.192 49.375C159.192 48.7917 159.101 48.2734 158.919 47.8203C158.737 47.3672 158.463 47.0104 158.099 46.75C157.739 46.4896 157.291 46.3594 156.755 46.3594C156.218 46.3594 155.757 46.4922 155.372 46.7578C154.992 47.0182 154.7 47.3594 154.497 47.7812C154.294 48.2031 154.192 48.6562 154.192 49.1406V49.9062C154.192 50.5677 154.307 51.1276 154.536 51.5859C154.765 52.0443 155.086 52.3932 155.497 52.6328C155.909 52.8672 156.385 52.9844 156.927 52.9844C157.276 52.9844 157.593 52.9349 157.88 52.8359C158.166 52.7318 158.414 52.5781 158.622 52.375C158.83 52.1667 158.989 51.9115 159.099 51.6094L160.396 51.9844C160.26 52.4219 160.031 52.8073 159.708 53.1406C159.39 53.4688 158.994 53.7266 158.521 53.9141C158.047 54.0964 157.515 54.1875 156.927 54.1875ZM167.081 50.4375V45.2656H168.41V54H167.081V52.5156H166.988C166.779 52.9583 166.459 53.3359 166.027 53.6484C165.6 53.9609 165.055 54.1146 164.394 54.1094C163.847 54.1094 163.363 53.9922 162.941 53.7578C162.519 53.5182 162.186 53.1536 161.941 52.6641C161.701 52.1745 161.581 51.5573 161.581 50.8125V45.2656H162.91V50.7344C162.91 51.3646 163.089 51.8698 163.449 52.25C163.813 52.6302 164.274 52.8177 164.831 52.8125C165.165 52.8125 165.503 52.7292 165.847 52.5625C166.196 52.3906 166.488 52.1302 166.722 51.7812C166.962 51.4271 167.081 50.9792 167.081 50.4375ZM169.908 54V45.2656H171.189V46.6406H171.314C171.496 46.1719 171.791 45.8073 172.197 45.5469C172.603 45.2865 173.09 45.1562 173.658 45.1562C174.231 45.1562 174.707 45.2865 175.088 45.5469C175.473 45.8073 175.772 46.1719 175.986 46.6406H176.08C176.309 46.1875 176.645 45.8281 177.088 45.5625C177.535 45.2917 178.069 45.1562 178.689 45.1562C179.47 45.1562 180.111 45.401 180.611 45.8906C181.111 46.375 181.361 47.1302 181.361 48.1562V54H180.017V48.1562C180.017 47.5104 179.84 47.0495 179.486 46.7734C179.132 46.4974 178.715 46.3594 178.236 46.3594C177.627 46.3594 177.153 46.5469 176.814 46.9219C176.481 47.2917 176.314 47.7552 176.314 48.3125V54H174.939V48.0156C174.939 47.5208 174.78 47.1224 174.463 46.8203C174.145 46.513 173.731 46.3594 173.22 46.3594C172.871 46.3594 172.546 46.4531 172.244 46.6406C171.942 46.8281 171.697 47.0859 171.509 47.4141C171.327 47.7422 171.236 48.1198 171.236 48.5469V54H169.908ZM187.717 48.75V54H186.389V42.3594H187.717V46.6406H187.842C188.045 46.1875 188.35 45.8281 188.756 45.5625C189.168 45.2917 189.717 45.1562 190.405 45.1562C190.998 45.1562 191.519 45.276 191.967 45.5156C192.415 45.75 192.764 46.112 193.014 46.6016C193.264 47.0859 193.389 47.7031 193.389 48.4531V54H192.045V48.5469C192.045 47.849 191.866 47.3099 191.506 46.9297C191.147 46.5495 190.649 46.3594 190.014 46.3594C189.571 46.3594 189.178 46.4531 188.834 46.6406C188.491 46.8281 188.217 47.099 188.014 47.4531C187.816 47.8073 187.717 48.2396 187.717 48.75ZM197.45 54.2031C196.898 54.2031 196.395 54.099 195.942 53.8906C195.489 53.6771 195.13 53.3698 194.864 52.9688C194.598 52.5677 194.465 52.0833 194.465 51.5156C194.465 51.0156 194.564 50.612 194.762 50.3047C194.96 49.9922 195.223 49.7474 195.551 49.5703C195.885 49.388 196.249 49.2526 196.645 49.1641C197.046 49.0755 197.45 49.0052 197.856 48.9531C198.387 48.8854 198.817 48.8333 199.145 48.7969C199.479 48.7604 199.721 48.6979 199.872 48.6094C200.028 48.5208 200.106 48.3698 200.106 48.1562V48.1094C200.106 47.5521 199.952 47.1198 199.645 46.8125C199.343 46.5 198.882 46.3438 198.262 46.3438C197.627 46.3438 197.127 46.4844 196.762 46.7656C196.398 47.0417 196.143 47.3385 195.997 47.6562L194.715 47.2031C194.945 46.6719 195.249 46.2578 195.63 45.9609C196.015 45.6641 196.432 45.4557 196.88 45.3359C197.333 45.2161 197.778 45.1562 198.215 45.1562C198.497 45.1562 198.82 45.1901 199.184 45.2578C199.549 45.3203 199.903 45.4557 200.247 45.6641C200.596 45.8672 200.882 46.1771 201.106 46.5938C201.335 47.0052 201.45 47.5573 201.45 48.25V54H200.106V52.8125H200.044C199.955 53 199.804 53.2031 199.59 53.4219C199.377 53.6354 199.093 53.8203 198.739 53.9766C198.39 54.1276 197.96 54.2031 197.45 54.2031ZM197.653 53C198.184 53 198.632 52.8958 198.997 52.6875C199.361 52.4792 199.637 52.2109 199.825 51.8828C200.012 51.5495 200.106 51.2031 200.106 50.8438V49.6094C200.049 49.6771 199.924 49.7396 199.731 49.7969C199.544 49.849 199.325 49.8958 199.075 49.9375C198.83 49.9792 198.59 50.0156 198.356 50.0469C198.122 50.0729 197.934 50.0938 197.794 50.1094C197.445 50.1562 197.119 50.2318 196.817 50.3359C196.515 50.4349 196.27 50.5833 196.083 50.7812C195.9 50.9792 195.809 51.25 195.809 51.5938C195.809 52.0573 195.981 52.4089 196.325 52.6484C196.674 52.8828 197.117 53 197.653 53ZM206.48 54.1875C205.667 54.1875 204.964 53.9948 204.37 53.6094C203.782 53.2188 203.326 52.6849 203.003 52.0078C202.685 51.3307 202.526 50.5573 202.526 49.6875C202.526 48.7969 202.69 48.013 203.019 47.3359C203.347 46.6536 203.805 46.1198 204.394 45.7344C204.987 45.349 205.677 45.1562 206.464 45.1562C207.078 45.1562 207.631 45.2708 208.12 45.5C208.615 45.724 209.019 46.0417 209.331 46.4531C209.649 46.8646 209.844 47.3438 209.917 47.8906H208.573C208.506 47.625 208.383 47.375 208.206 47.1406C208.029 46.9062 207.795 46.7188 207.503 46.5781C207.216 46.4323 206.875 46.3594 206.48 46.3594C205.959 46.3594 205.503 46.4948 205.112 46.7656C204.722 47.0365 204.417 47.4193 204.198 47.9141C203.98 48.4036 203.87 48.9792 203.87 49.6406C203.87 50.3125 203.977 50.901 204.19 51.4062C204.404 51.9062 204.706 52.2943 205.097 52.5703C205.493 52.8464 205.953 52.9844 206.48 52.9844C207.006 52.9844 207.456 52.849 207.831 52.5781C208.206 52.3021 208.453 51.9271 208.573 51.4531H209.917C209.844 51.9688 209.657 52.4323 209.355 52.8438C209.058 53.2552 208.664 53.5833 208.175 53.8281C207.69 54.0677 207.125 54.1875 206.48 54.1875ZM212.212 50.8125L212.181 49.1562H212.462L216.275 45.2656H217.931L213.869 49.3906H213.744L212.212 50.8125ZM210.962 54V42.3594H212.29V54H210.962ZM216.494 54L213.087 49.6875L214.04 48.75L218.212 54H216.494ZM221.258 54.2031C220.705 54.2031 220.203 54.099 219.75 53.8906C219.297 53.6771 218.937 53.3698 218.672 52.9688C218.406 52.5677 218.273 52.0833 218.273 51.5156C218.273 51.0156 218.372 50.612 218.57 50.3047C218.768 49.9922 219.031 49.7474 219.359 49.5703C219.692 49.388 220.057 49.2526 220.453 49.1641C220.854 49.0755 221.258 49.0052 221.664 48.9531C222.195 48.8854 222.625 48.8333 222.953 48.7969C223.286 48.7604 223.528 48.6979 223.679 48.6094C223.836 48.5208 223.914 48.3698 223.914 48.1562V48.1094C223.914 47.5521 223.76 47.1198 223.453 46.8125C223.151 46.5 222.69 46.3438 222.07 46.3438C221.435 46.3438 220.935 46.4844 220.57 46.7656C220.205 47.0417 219.95 47.3385 219.804 47.6562L218.523 47.2031C218.752 46.6719 219.057 46.2578 219.437 45.9609C219.823 45.6641 220.239 45.4557 220.687 45.3359C221.14 45.2161 221.586 45.1562 222.023 45.1562C222.304 45.1562 222.627 45.1901 222.992 45.2578C223.356 45.3203 223.711 45.4557 224.054 45.6641C224.403 45.8672 224.69 46.1771 224.914 46.5938C225.143 47.0052 225.258 47.5573 225.258 48.25V54H223.914V52.8125H223.851C223.763 53 223.612 53.2031 223.398 53.4219C223.185 53.6354 222.901 53.8203 222.547 53.9766C222.198 54.1276 221.768 54.2031 221.258 54.2031ZM221.461 53C221.992 53 222.44 52.8958 222.804 52.6875C223.169 52.4792 223.445 52.2109 223.633 51.8828C223.82 51.5495 223.914 51.2031 223.914 50.8438V49.6094C223.856 49.6771 223.731 49.7396 223.539 49.7969C223.351 49.849 223.133 49.8958 222.883 49.9375C222.638 49.9792 222.398 50.0156 222.164 50.0469C221.929 50.0729 221.742 50.0938 221.601 50.1094C221.252 50.1562 220.927 50.2318 220.625 50.3359C220.323 50.4349 220.078 50.5833 219.89 50.7812C219.708 50.9792 219.617 51.25 219.617 51.5938C219.617 52.0573 219.789 52.4089 220.133 52.6484C220.481 52.8828 220.924 53 221.461 53ZM230.537 45.2656V46.4062H226.022V45.2656H230.537ZM227.334 43.1875H228.662V51.5C228.662 51.9531 228.756 52.2865 228.943 52.5C229.131 52.7083 229.428 52.8125 229.834 52.8125C229.923 52.8125 230.014 52.8073 230.107 52.7969C230.206 52.7865 230.313 52.7708 230.428 52.75L230.709 53.9531C230.584 54 230.43 54.0365 230.248 54.0625C230.071 54.0938 229.891 54.1094 229.709 54.1094C229.006 54.1094 228.433 53.901 227.99 53.4844C227.553 53.0677 227.334 52.526 227.334 51.8594V43.1875ZM233.114 48.75V54H231.786V42.3594H233.114V46.6406H233.239C233.442 46.1875 233.746 45.8281 234.153 45.5625C234.564 45.2917 235.114 45.1562 235.801 45.1562C236.395 45.1562 236.916 45.276 237.364 45.5156C237.812 45.75 238.161 46.112 238.411 46.6016C238.661 47.0859 238.786 47.7031 238.786 48.4531V54H237.442V48.5469C237.442 47.849 237.262 47.3099 236.903 46.9297C236.543 46.5495 236.046 46.3594 235.411 46.3594C234.968 46.3594 234.575 46.4531 234.231 46.6406C233.887 46.8281 233.614 47.099 233.411 47.4531C233.213 47.8073 233.114 48.2396 233.114 48.75ZM243.815 54.1875C243.029 54.1875 242.339 54 241.745 53.625C241.151 53.25 240.688 52.724 240.354 52.0469C240.026 51.3698 239.862 50.5833 239.862 49.6875C239.862 48.776 240.026 47.9818 240.354 47.3047C240.688 46.6224 241.151 46.0938 241.745 45.7188C242.339 45.3438 243.029 45.1562 243.815 45.1562C244.607 45.1562 245.3 45.3438 245.893 45.7188C246.487 46.0938 246.951 46.6224 247.284 47.3047C247.617 47.9818 247.784 48.776 247.784 49.6875C247.784 50.5833 247.617 51.3698 247.284 52.0469C246.951 52.724 246.487 53.25 245.893 53.625C245.3 54 244.607 54.1875 243.815 54.1875ZM243.815 52.9844C244.419 52.9844 244.914 52.8307 245.3 52.5234C245.685 52.2161 245.971 51.8125 246.159 51.3125C246.346 50.8073 246.44 50.2656 246.44 49.6875C246.44 49.099 246.346 48.5521 246.159 48.0469C245.971 47.5417 245.685 47.1354 245.3 46.8281C244.914 46.5156 244.419 46.3594 243.815 46.3594C243.221 46.3594 242.732 46.5156 242.346 46.8281C241.961 47.1354 241.675 47.5417 241.487 48.0469C241.3 48.5521 241.206 49.099 241.206 49.6875C241.206 50.2656 241.3 50.8073 241.487 51.3125C241.675 51.8125 241.961 52.2161 242.346 52.5234C242.732 52.8307 243.221 52.9844 243.815 52.9844ZM250.189 48.75V54H248.86V45.2656H250.142V46.6406H250.267C250.47 46.1927 250.78 45.8333 251.196 45.5625C251.613 45.2917 252.152 45.1562 252.814 45.1562C253.402 45.1562 253.918 45.276 254.36 45.5156C254.803 45.7552 255.147 46.1198 255.392 46.6094C255.642 47.0938 255.767 47.7083 255.767 48.4531V54H254.439V48.5469C254.439 47.8646 254.259 47.3307 253.899 46.9453C253.54 46.5547 253.051 46.3594 252.431 46.3594C252.004 46.3594 251.621 46.4531 251.282 46.6406C250.944 46.8281 250.676 47.099 250.478 47.4531C250.285 47.8073 250.189 48.2396 250.189 48.75ZM260.795 54V45.2656H262.123V54H260.795ZM261.467 43.8125C261.206 43.8125 260.982 43.724 260.795 43.5469C260.607 43.3698 260.513 43.1562 260.513 42.9062C260.513 42.6562 260.607 42.4427 260.795 42.2656C260.982 42.0885 261.206 42 261.467 42C261.727 42 261.951 42.0885 262.138 42.2656C262.326 42.4427 262.42 42.6562 262.42 42.9062C262.42 43.1562 262.326 43.3698 262.138 43.5469C261.951 43.724 261.727 43.8125 261.467 43.8125ZM264.949 48.75V54H263.621V45.2656H264.902V46.6406H265.027C265.231 46.1927 265.54 45.8333 265.957 45.5625C266.374 45.2917 266.913 45.1562 267.574 45.1562C268.163 45.1562 268.678 45.276 269.121 45.5156C269.564 45.7552 269.908 46.1198 270.152 46.6094C270.402 47.0938 270.527 47.7083 270.527 48.4531V54H269.199V48.5469C269.199 47.8646 269.02 47.3307 268.66 46.9453C268.301 46.5547 267.811 46.3594 267.191 46.3594C266.764 46.3594 266.382 46.4531 266.043 46.6406C265.704 46.8281 265.436 47.099 265.238 47.4531C265.046 47.8073 264.949 48.2396 264.949 48.75ZM275.727 42.3594H277.415L281.368 52.0156H281.509L285.462 42.3594H287.204V54H285.821V45.1562H285.712L282.048 54H280.782L277.165 45.1562H277.055V54H275.727V42.3594ZM294.382 50.4375V45.2656H295.71V54H294.382V52.5156H294.288C294.08 52.9583 293.76 53.3359 293.327 53.6484C292.9 53.9609 292.356 54.1146 291.694 54.1094C291.148 54.1094 290.663 53.9922 290.241 53.7578C289.819 53.5182 289.486 53.1536 289.241 52.6641C289.002 52.1745 288.882 51.5573 288.882 50.8125V45.2656H290.21V50.7344C290.21 51.3646 290.39 51.8698 290.749 52.25C291.114 52.6302 291.575 52.8177 292.132 52.8125C292.465 52.8125 292.804 52.7292 293.148 52.5625C293.496 52.3906 293.788 52.1302 294.023 51.7812C294.262 51.4271 294.382 50.9792 294.382 50.4375ZM297.208 54V45.2656H298.49V46.6406H298.615C298.797 46.1719 299.091 45.8073 299.497 45.5469C299.904 45.2865 300.391 45.1562 300.958 45.1562C301.531 45.1562 302.008 45.2865 302.388 45.5469C302.774 45.8073 303.073 46.1719 303.287 46.6406H303.38C303.609 46.1875 303.945 45.8281 304.388 45.5625C304.836 45.2917 305.37 45.1562 305.99 45.1562C306.771 45.1562 307.412 45.401 307.912 45.8906C308.412 46.375 308.662 47.1302 308.662 48.1562V54H307.318V48.1562C307.318 47.5104 307.141 47.0495 306.787 46.7734C306.432 46.4974 306.016 46.3594 305.537 46.3594C304.927 46.3594 304.453 46.5469 304.115 46.9219C303.781 47.2917 303.615 47.7552 303.615 48.3125V54H302.24V48.0156C302.24 47.5208 302.081 47.1224 301.763 46.8203C301.445 46.513 301.031 46.3594 300.521 46.3594C300.172 46.3594 299.846 46.4531 299.544 46.6406C299.242 46.8281 298.997 47.0859 298.81 47.4141C298.628 47.7422 298.537 48.1198 298.537 48.5469V54H297.208ZM314.144 54.1875C313.587 54.1875 313.139 54.0938 312.801 53.9062C312.462 53.7135 312.202 53.4974 312.019 53.2578C311.837 53.013 311.696 52.8125 311.597 52.6562H311.441V54H310.16V42.3594H311.488V46.6562H311.597C311.696 46.5052 311.834 46.3125 312.011 46.0781C312.189 45.8385 312.444 45.625 312.777 45.4375C313.11 45.25 313.561 45.1562 314.129 45.1562C314.863 45.1562 315.509 45.3411 316.066 45.7109C316.623 46.0755 317.058 46.5964 317.371 47.2734C317.689 47.9453 317.847 48.7396 317.847 49.6562C317.847 50.5781 317.691 51.3802 317.379 52.0625C317.066 52.7396 316.631 53.263 316.074 53.6328C315.517 54.0026 314.873 54.1875 314.144 54.1875ZM313.972 52.9844C314.53 52.9844 314.996 52.8359 315.371 52.5391C315.746 52.237 316.027 51.8333 316.215 51.3281C316.407 50.8229 316.504 50.2604 316.504 49.6406C316.504 49.026 316.41 48.4714 316.222 47.9766C316.035 47.4818 315.754 47.0885 315.379 46.7969C315.009 46.5052 314.54 46.3594 313.972 46.3594C313.426 46.3594 312.967 46.4974 312.597 46.7734C312.228 47.0443 311.946 47.4271 311.754 47.9219C311.566 48.4115 311.472 48.9844 311.472 49.6406C311.472 50.2969 311.569 50.8776 311.761 51.3828C311.954 51.8828 312.235 52.276 312.605 52.5625C312.98 52.8438 313.436 52.9844 313.972 52.9844ZM321.486 54.2031C320.934 54.2031 320.432 54.099 319.979 53.8906C319.525 53.6771 319.166 53.3698 318.9 52.9688C318.635 52.5677 318.502 52.0833 318.502 51.5156C318.502 51.0156 318.601 50.612 318.799 50.3047C318.997 49.9922 319.26 49.7474 319.588 49.5703C319.921 49.388 320.286 49.2526 320.682 49.1641C321.083 49.0755 321.486 49.0052 321.893 48.9531C322.424 48.8854 322.854 48.8333 323.182 48.7969C323.515 48.7604 323.757 48.6979 323.908 48.6094C324.065 48.5208 324.143 48.3698 324.143 48.1562V48.1094C324.143 47.5521 323.989 47.1198 323.682 46.8125C323.38 46.5 322.919 46.3438 322.299 46.3438C321.663 46.3438 321.163 46.4844 320.799 46.7656C320.434 47.0417 320.179 47.3385 320.033 47.6562L318.752 47.2031C318.981 46.6719 319.286 46.2578 319.666 45.9609C320.051 45.6641 320.468 45.4557 320.916 45.3359C321.369 45.2161 321.815 45.1562 322.252 45.1562C322.533 45.1562 322.856 45.1901 323.221 45.2578C323.585 45.3203 323.94 45.4557 324.283 45.6641C324.632 45.8672 324.919 46.1771 325.143 46.5938C325.372 47.0052 325.486 47.5573 325.486 48.25V54H324.143V52.8125H324.08C323.992 53 323.841 53.2031 323.627 53.4219C323.413 53.6354 323.13 53.8203 322.775 53.9766C322.426 54.1276 321.997 54.2031 321.486 54.2031ZM321.69 53C322.221 53 322.669 52.8958 323.033 52.6875C323.398 52.4792 323.674 52.2109 323.861 51.8828C324.049 51.5495 324.143 51.2031 324.143 50.8438V49.6094C324.085 49.6771 323.96 49.7396 323.768 49.7969C323.58 49.849 323.361 49.8958 323.111 49.9375C322.867 49.9792 322.627 50.0156 322.393 50.0469C322.158 50.0729 321.971 50.0938 321.83 50.1094C321.481 50.1562 321.156 50.2318 320.854 50.3359C320.551 50.4349 320.307 50.5833 320.119 50.7812C319.937 50.9792 319.846 51.25 319.846 51.5938C319.846 52.0573 320.018 52.4089 320.361 52.6484C320.71 52.8828 321.153 53 321.69 53ZM326.985 54V45.2656H328.313V54H326.985ZM327.657 43.8125C327.396 43.8125 327.172 43.724 326.985 43.5469C326.797 43.3698 326.704 43.1562 326.704 42.9062C326.704 42.6562 326.797 42.4427 326.985 42.2656C327.172 42.0885 327.396 42 327.657 42C327.917 42 328.141 42.0885 328.329 42.2656C328.516 42.4427 328.61 42.6562 328.61 42.9062C328.61 43.1562 328.516 43.3698 328.329 43.5469C328.141 43.724 327.917 43.8125 327.657 43.8125Z" fill="#F3F3F3"/>
<line x1="81" y1="49.5" x2="84" y2="49.5" stroke="white"/>
<defs>
<clipPath id="clip0_1_168">
<rect width="205" height="24" fill="white" transform="translate(88 10)"/>
</clipPath>
</defs>
</svg>
