<svg width="876" height="496" viewBox="0 0 876 496" fill="none" xmlns="http://www.w3.org/2000/svg">
<path d="M874.61 470.72L841.272 427.049H41.6162L1.00391 470.72H874.61Z" fill="#D9D9D9" stroke="black" stroke-width="0.875648"/>
<rect width="875.496" height="139.634" fill="#E2231A"/>
<rect x="52.2556" y="164.477" width="777.838" height="215.019" fill="#E1E1E1"/>
<rect y="471.157" width="95.0881" height="24.8428" fill="#FFD600"/>
<rect x="95.0881" y="471.157" width="95.0881" height="24.8428" fill="#484848"/>
<rect x="190.176" y="471.157" width="95.0881" height="24.8428" fill="#FFD600"/>
<rect x="285.264" y="471.157" width="95.0881" height="24.8428" fill="#484848"/>
<rect x="380.352" y="471.157" width="95.0881" height="24.8428" fill="#FFD600"/>
<rect x="475.44" y="471.157" width="95.0881" height="24.8428" fill="#484848"/>
<rect x="570.529" y="471.157" width="95.0881" height="24.8428" fill="#FFD600"/>
<rect x="665.616" y="471.157" width="95.0881" height="24.8428" fill="#484848"/>
<rect x="760.705" y="471.157" width="95.0881" height="24.8428" fill="#FFD600"/>
<rect x="855.793" y="471.157" width="19.7029" height="24.8428" fill="#484848"/>
<rect x="44.127" y="164.915" width="7.69085" height="270.682" fill="#868585" stroke="black" stroke-width="0.875648"/>
<rect x="13.2876" y="140.072" width="7.69085" height="325.508" fill="#C5C5C5" stroke="black" stroke-width="0.875648"/>
<rect x="851.947" y="140.072" width="7.69085" height="325.508" fill="#C5C5C5" stroke="black" stroke-width="0.875648"/>
<rect x="44.127" y="156.348" width="794.095" height="7.69085" fill="#868585" stroke="black" stroke-width="0.875648"/>
<rect x="306.262" y="157.205" width="7.69085" height="278.392" fill="#868585" stroke="black" stroke-width="0.875648"/>
<rect x="830.563" y="156.086" width="7.69085" height="278.392" fill="#868585" stroke="black" stroke-width="0.875648"/>
<rect x="568.396" y="157.205" width="7.69085" height="278.392" fill="#868585" stroke="black" stroke-width="0.875648"/>
<path d="M852.101 139.857L834.428 156.115H49.6554L30.3263 139.857H852.101Z" fill="#726E6E" stroke="black" stroke-width="0.875648"/>
<rect x="61.2217" y="176.977" width="234.793" height="188.813" rx="26.2694" fill="#3FA9F5"/>
<rect x="323.749" y="176.977" width="234.793" height="188.813" rx="26.2694" fill="#3FA9F5"/>
<rect x="586.276" y="176.977" width="234.793" height="188.813" rx="26.2694" fill="#3FA9F5"/>
<rect x="340.528" y="391.07" width="203.007" height="10.2608" fill="#E6E6E6" stroke="black" stroke-width="0.875648"/>
<rect x="350.807" y="409.06" width="183.304" height="3.4076" fill="#E6E6E6" stroke="black" stroke-width="0.875648"/>
<rect x="350.807" y="418.483" width="183.304" height="3.4076" fill="#E6E6E6" stroke="black" stroke-width="0.875648"/>
<rect x="349.951" y="402.206" width="10.2608" height="47.9534" fill="#E6E6E6" stroke="black" stroke-width="0.875648"/>
<rect x="524.707" y="402.206" width="10.2608" height="47.9534" fill="#E6E6E6" stroke="black" stroke-width="0.875648"/>
<path d="M148.805 244.797C148.805 249.497 147.305 254.022 144.305 258.372C141.355 262.672 135.605 268.397 127.055 275.547C126.955 275.647 126.905 275.722 126.905 275.772C126.905 275.822 126.93 275.847 126.98 275.847H144.68C145.83 275.847 146.83 276.272 147.68 277.122C148.53 277.922 148.955 278.897 148.955 280.047C148.955 281.197 148.53 282.197 147.68 283.047C146.83 283.897 145.83 284.322 144.68 284.322H117.155C116.005 284.322 115.005 283.897 114.155 283.047C113.355 282.197 112.955 281.197 112.955 280.047C112.955 277.197 114.03 274.922 116.18 273.222C124.83 266.322 130.63 260.947 133.58 257.097C136.53 253.247 138.005 249.497 138.005 245.847C138.005 240.297 135.03 237.522 129.08 237.522C126.03 237.522 122.33 238.372 117.98 240.072C117.03 240.472 116.13 240.397 115.28 239.847C114.48 239.297 114.08 238.547 114.08 237.597V236.322C114.08 235.022 114.43 233.847 115.13 232.797C115.88 231.697 116.855 230.972 118.055 230.622C122.305 229.422 126.48 228.822 130.58 228.822C136.43 228.822 140.93 230.222 144.08 233.022C147.23 235.822 148.805 239.747 148.805 244.797ZM186.809 241.497C185.109 238.497 182.509 236.997 179.009 236.997C175.509 236.997 172.909 238.497 171.209 241.497C169.509 244.497 168.659 249.647 168.659 256.947C168.659 264.247 169.509 269.397 171.209 272.397C172.909 275.397 175.509 276.897 179.009 276.897C182.509 276.897 185.109 275.397 186.809 272.397C188.509 269.397 189.359 264.247 189.359 256.947C189.359 249.647 188.509 244.497 186.809 241.497ZM194.759 278.397C191.309 282.847 186.059 285.072 179.009 285.072C171.959 285.072 166.684 282.847 163.184 278.397C159.734 273.947 158.009 266.797 158.009 256.947C158.009 247.097 159.734 239.947 163.184 235.497C166.684 231.047 171.959 228.822 179.009 228.822C186.059 228.822 191.309 231.047 194.759 235.497C198.259 239.947 200.009 247.097 200.009 256.947C200.009 266.797 198.259 273.947 194.759 278.397ZM214.014 264.597C214.014 264.647 213.989 264.672 213.939 264.672C213.939 264.672 213.939 264.697 213.939 264.747C213.939 264.797 213.964 264.822 214.014 264.822H228.339C228.739 264.822 228.939 264.597 228.939 264.147V243.372C228.939 243.322 228.914 243.297 228.864 243.297H228.789L214.014 264.597ZM208.314 273.072C207.214 273.072 206.239 272.672 205.389 271.872C204.589 271.072 204.189 270.097 204.189 268.947C204.189 266.147 204.989 263.647 206.589 261.447L226.539 233.022C228.139 230.722 230.364 229.572 233.214 229.572H234.864C236.014 229.572 237.014 229.997 237.864 230.847C238.714 231.697 239.139 232.697 239.139 233.847V264.147C239.139 264.597 239.339 264.822 239.739 264.822H243.339C244.489 264.822 245.464 265.222 246.264 266.022C247.064 266.822 247.464 267.797 247.464 268.947C247.464 270.097 247.064 271.072 246.264 271.872C245.464 272.672 244.489 273.072 243.339 273.072H239.739C239.339 273.072 239.139 273.297 239.139 273.747V280.047C239.139 281.197 238.714 282.197 237.864 283.047C237.014 283.897 236.014 284.322 234.864 284.322H233.214C232.064 284.322 231.064 283.897 230.214 283.047C229.364 282.197 228.939 281.197 228.939 280.047V273.747C228.939 273.297 228.739 273.072 228.339 273.072H208.314Z" fill="white"/>
<path d="M417.14 254.997C414.09 254.997 411.64 255.972 409.79 257.922C407.94 259.872 407.015 262.472 407.015 265.722C407.015 269.222 407.94 271.997 409.79 274.047C411.69 276.047 414.14 277.047 417.14 277.047C420.34 277.047 422.84 276.097 424.64 274.197C426.49 272.247 427.415 269.422 427.415 265.722C427.415 262.372 426.49 259.747 424.64 257.847C422.79 255.947 420.29 254.997 417.14 254.997ZM417.14 285.072C403.49 285.072 396.665 276.822 396.665 260.322C396.665 249.822 398.715 241.947 402.815 236.697C406.965 231.447 412.865 228.822 420.515 228.822C422.715 228.822 425.065 229.022 427.565 229.422C428.765 229.622 429.74 230.222 430.49 231.222C431.29 232.222 431.69 233.347 431.69 234.597C431.69 235.647 431.265 236.472 430.415 237.072C429.615 237.672 428.69 237.847 427.64 237.597C425.59 237.097 423.315 236.847 420.815 236.847C417.115 236.847 414.065 238.097 411.665 240.597C409.315 243.097 407.89 246.672 407.39 251.322V251.472L407.54 251.397C410.39 248.847 414.34 247.572 419.39 247.572C425.14 247.572 429.615 249.172 432.815 252.372C436.065 255.522 437.69 259.922 437.69 265.572C437.69 271.672 435.84 276.447 432.14 279.897C428.44 283.347 423.44 285.072 417.14 285.072ZM451.92 264.597C451.92 264.647 451.895 264.672 451.845 264.672C451.845 264.672 451.845 264.697 451.845 264.747C451.845 264.797 451.87 264.822 451.92 264.822H466.245C466.645 264.822 466.845 264.597 466.845 264.147V243.372C466.845 243.322 466.82 243.297 466.77 243.297H466.695L451.92 264.597ZM446.22 273.072C445.12 273.072 444.145 272.672 443.295 271.872C442.495 271.072 442.095 270.097 442.095 268.947C442.095 266.147 442.895 263.647 444.495 261.447L464.445 233.022C466.045 230.722 468.27 229.572 471.12 229.572H472.77C473.92 229.572 474.92 229.997 475.77 230.847C476.62 231.697 477.045 232.697 477.045 233.847V264.147C477.045 264.597 477.245 264.822 477.645 264.822H481.245C482.395 264.822 483.37 265.222 484.17 266.022C484.97 266.822 485.37 267.797 485.37 268.947C485.37 270.097 484.97 271.072 484.17 271.872C483.37 272.672 482.395 273.072 481.245 273.072H477.645C477.245 273.072 477.045 273.297 477.045 273.747V280.047C477.045 281.197 476.62 282.197 475.77 283.047C474.92 283.897 473.92 284.322 472.77 284.322H471.12C469.97 284.322 468.97 283.897 468.12 283.047C467.27 282.197 466.845 281.197 466.845 280.047V273.747C466.845 273.297 466.645 273.072 466.245 273.072H446.22Z" fill="white"/>
<path d="M631.262 238.722C625.662 238.872 622.862 240.772 622.862 244.422C622.862 247.872 625.612 250.297 631.112 251.697L631.187 251.772C631.237 251.772 631.287 251.772 631.337 251.772C631.487 251.822 631.612 251.797 631.712 251.697C631.812 251.547 631.862 251.397 631.862 251.247V239.397C631.862 238.947 631.662 238.722 631.262 238.722ZM632.087 275.097C637.437 274.747 640.112 272.572 640.112 268.572C640.112 266.722 639.512 265.197 638.312 263.997C637.112 262.797 635.012 261.772 632.012 260.922C631.612 260.822 631.412 260.972 631.412 261.372V274.497C631.412 274.897 631.637 275.097 632.087 275.097ZM623.987 258.297C616.687 255.147 613.037 250.522 613.037 244.422C613.037 240.222 614.562 236.897 617.612 234.447C620.712 231.997 625.262 230.747 631.262 230.697C631.662 230.697 631.862 230.472 631.862 230.022V226.947C631.862 225.897 632.212 225.022 632.912 224.322C633.662 223.572 634.562 223.197 635.612 223.197C636.662 223.197 637.537 223.572 638.237 224.322C638.987 225.022 639.362 225.897 639.362 226.947V230.547C639.362 230.897 639.562 231.122 639.962 231.222C641.362 231.372 642.737 231.597 644.087 231.897C645.337 232.147 646.337 232.772 647.087 233.772C647.887 234.772 648.287 235.922 648.287 237.222V237.447C648.287 238.497 647.862 239.322 647.012 239.922C646.212 240.472 645.287 240.622 644.237 240.372C642.787 239.972 641.362 239.672 639.962 239.472C639.562 239.372 639.362 239.547 639.362 239.997V253.197V253.572C639.262 253.972 639.412 254.272 639.812 254.472C643.562 256.072 646.212 257.972 647.762 260.172C649.362 262.372 650.162 265.122 650.162 268.422C650.162 272.972 648.612 276.522 645.512 279.072C642.462 281.572 637.937 282.922 631.937 283.122C631.587 283.122 631.412 283.347 631.412 283.797V286.947C631.412 287.997 631.037 288.872 630.287 289.572C629.587 290.322 628.712 290.697 627.662 290.697C626.612 290.697 625.712 290.322 624.962 289.572C624.262 288.872 623.912 287.997 623.912 286.947V283.422C623.912 283.022 623.662 282.772 623.162 282.672C621.712 282.472 620.112 282.122 618.362 281.622C617.162 281.272 616.187 280.572 615.437 279.522C614.737 278.422 614.387 277.222 614.387 275.922V275.322C614.387 274.372 614.787 273.622 615.587 273.072C616.437 272.522 617.312 272.447 618.212 272.847C619.912 273.547 621.587 274.072 623.237 274.422C623.387 274.472 623.537 274.447 623.687 274.347C623.837 274.197 623.912 274.047 623.912 273.897V260.697C623.912 260.047 624.012 259.522 624.212 259.122C624.412 258.722 624.337 258.447 623.987 258.297ZM696.051 244.797C696.051 249.497 694.551 254.022 691.551 258.372C688.601 262.672 682.851 268.397 674.301 275.547C674.201 275.647 674.151 275.722 674.151 275.772C674.151 275.822 674.176 275.847 674.226 275.847H691.926C693.076 275.847 694.076 276.272 694.926 277.122C695.776 277.922 696.201 278.897 696.201 280.047C696.201 281.197 695.776 282.197 694.926 283.047C694.076 283.897 693.076 284.322 691.926 284.322H664.401C663.251 284.322 662.251 283.897 661.401 283.047C660.601 282.197 660.201 281.197 660.201 280.047C660.201 277.197 661.276 274.922 663.426 273.222C672.076 266.322 677.876 260.947 680.826 257.097C683.776 253.247 685.251 249.497 685.251 245.847C685.251 240.297 682.276 237.522 676.326 237.522C673.276 237.522 669.576 238.372 665.226 240.072C664.276 240.472 663.376 240.397 662.526 239.847C661.726 239.297 661.326 238.547 661.326 237.597V236.322C661.326 235.022 661.676 233.847 662.376 232.797C663.126 231.697 664.101 230.972 665.301 230.622C669.551 229.422 673.726 228.822 677.826 228.822C683.676 228.822 688.176 230.222 691.326 233.022C694.476 235.822 696.051 239.747 696.051 244.797ZM726.03 236.847C722.83 236.847 720.305 237.772 718.455 239.622C716.655 241.472 715.755 244.072 715.755 247.422C715.755 251.122 716.655 253.972 718.455 255.972C720.305 257.922 722.83 258.897 726.03 258.897C729.13 258.897 731.58 257.872 733.38 255.822C735.23 253.772 736.155 250.972 736.155 247.422C736.155 244.222 735.205 241.672 733.305 239.772C731.405 237.822 728.98 236.847 726.03 236.847ZM723.78 266.322C718.03 266.322 713.53 264.697 710.28 261.447C707.08 258.147 705.48 253.522 705.48 247.572C705.48 241.822 707.33 237.272 711.03 233.922C714.73 230.522 719.73 228.822 726.03 228.822C732.63 228.822 737.68 230.822 741.18 234.822C744.73 238.772 746.505 244.772 746.505 252.822C746.505 263.922 744.48 272.072 740.43 277.272C736.38 282.472 730.455 285.072 722.655 285.072C720.155 285.072 717.58 284.847 714.93 284.397C713.73 284.197 712.73 283.622 711.93 282.672C711.13 281.672 710.73 280.547 710.73 279.297C710.73 278.247 711.13 277.422 711.93 276.822C712.78 276.172 713.73 275.972 714.78 276.222C717.38 276.772 719.905 277.047 722.355 277.047C726.405 277.047 729.605 275.822 731.955 273.372C734.355 270.872 735.63 267.272 735.78 262.572V262.422L735.63 262.497C732.78 265.047 728.83 266.322 723.78 266.322ZM760.585 284.322C759.435 284.322 758.435 283.897 757.585 283.047C756.785 282.197 756.385 281.197 756.385 280.047V233.847C756.385 232.697 756.785 231.697 757.585 230.847C758.435 229.997 759.435 229.572 760.585 229.572H762.61C763.76 229.572 764.76 229.997 765.61 230.847C766.46 231.697 766.885 232.697 766.885 233.847V253.272C766.885 253.322 766.91 253.347 766.96 253.347C767.01 253.347 767.035 253.322 767.035 253.272L782.11 233.022C783.76 230.722 786.01 229.572 788.86 229.572H792.61C793.46 229.572 794.085 229.972 794.485 230.772C794.885 231.572 794.81 232.297 794.26 232.947L777.01 255.297C776.76 255.647 776.76 255.997 777.01 256.347L795.085 280.872C795.635 281.572 795.71 282.322 795.31 283.122C794.91 283.922 794.26 284.322 793.36 284.322H789.61C786.76 284.322 784.535 283.172 782.935 280.872L767.035 258.372C767.035 258.322 767.01 258.297 766.96 258.297C766.91 258.297 766.885 258.322 766.885 258.372V280.047C766.885 281.197 766.46 282.197 765.61 283.047C764.76 283.897 763.76 284.322 762.61 284.322H760.585Z" fill="white"/>
<path d="M139.784 325.033C139.432 325.033 139.125 324.903 138.864 324.642C138.619 324.382 138.496 324.075 138.496 323.722V309.554C138.496 309.202 138.619 308.895 138.864 308.634C139.125 308.374 139.432 308.243 139.784 308.243H140.405C140.758 308.243 141.065 308.374 141.325 308.634C141.586 308.895 141.716 309.202 141.716 309.554V314.775C141.716 314.898 141.778 314.959 141.9 314.959H147.65C147.773 314.959 147.834 314.898 147.834 314.775V309.554C147.834 309.202 147.965 308.895 148.225 308.634C148.486 308.374 148.793 308.243 149.145 308.243H149.766C150.119 308.243 150.418 308.374 150.663 308.634C150.924 308.895 151.054 309.202 151.054 309.554V323.722C151.054 324.075 150.924 324.382 150.663 324.642C150.418 324.903 150.119 325.033 149.766 325.033H149.145C148.793 325.033 148.486 324.903 148.225 324.642C147.965 324.382 147.834 324.075 147.834 323.722V317.627C147.834 317.489 147.773 317.42 147.65 317.42H141.9C141.778 317.42 141.716 317.489 141.716 317.627V323.722C141.716 324.075 141.586 324.382 141.325 324.642C141.065 324.903 140.758 325.033 140.405 325.033H139.784ZM159.711 319.283C157.518 319.283 156.422 319.958 156.422 321.307C156.422 321.798 156.56 322.197 156.836 322.503C157.127 322.81 157.495 322.963 157.94 322.963C158.814 322.963 159.519 322.695 160.056 322.158C160.593 321.606 160.861 320.855 160.861 319.904V319.49C160.861 319.352 160.792 319.283 160.654 319.283H159.711ZM157.112 325.263C156.069 325.263 155.203 324.926 154.513 324.251C153.838 323.561 153.501 322.672 153.501 321.583C153.501 320.249 154.007 319.214 155.019 318.478C156.046 317.742 157.61 317.374 159.711 317.374H160.654C160.792 317.374 160.861 317.305 160.861 317.167V316.983C160.861 316.278 160.692 315.787 160.355 315.511C160.018 315.22 159.42 315.074 158.561 315.074C157.672 315.074 156.583 315.235 155.295 315.557C155.019 315.634 154.766 315.588 154.536 315.419C154.306 315.235 154.191 314.998 154.191 314.706C154.191 314.354 154.298 314.039 154.513 313.763C154.728 313.472 155.004 313.296 155.341 313.234C156.506 312.974 157.603 312.843 158.63 312.843C160.593 312.843 161.965 313.196 162.747 313.901C163.529 314.607 163.92 315.841 163.92 317.604V323.722C163.92 324.075 163.79 324.382 163.529 324.642C163.284 324.903 162.985 325.033 162.632 325.033H162.379C162.011 325.033 161.697 324.911 161.436 324.665C161.175 324.405 161.037 324.09 161.022 323.722V323.4C161.022 323.385 161.014 323.377 160.999 323.377C160.968 323.377 160.953 323.385 160.953 323.4C160.018 324.642 158.737 325.263 157.112 325.263ZM171.713 325.263C169.811 325.263 168.347 324.742 167.32 323.699C166.292 322.641 165.779 321.093 165.779 319.053C165.779 317.045 166.269 315.511 167.251 314.453C168.247 313.38 169.658 312.843 171.483 312.843C172.295 312.843 173.077 312.897 173.829 313.004C174.181 313.05 174.473 313.211 174.703 313.487C174.933 313.763 175.048 314.085 175.048 314.453C175.048 314.76 174.925 315.005 174.68 315.189C174.45 315.373 174.181 315.435 173.875 315.373C173.277 315.251 172.61 315.189 171.874 315.189C170.908 315.189 170.187 315.496 169.712 316.109C169.236 316.723 168.999 317.704 168.999 319.053C168.999 320.433 169.252 321.422 169.758 322.02C170.264 322.618 171.046 322.917 172.104 322.917C172.855 322.917 173.507 322.848 174.059 322.71C174.35 322.634 174.611 322.687 174.841 322.871C175.086 323.055 175.209 323.293 175.209 323.584C175.209 323.952 175.094 324.274 174.864 324.55C174.649 324.826 174.365 324.995 174.013 325.056C173.231 325.194 172.464 325.263 171.713 325.263ZM179.305 325.033C178.952 325.033 178.645 324.903 178.385 324.642C178.124 324.382 177.994 324.075 177.994 323.722V309.094C177.994 308.742 178.124 308.435 178.385 308.174C178.645 307.914 178.952 307.783 179.305 307.783H179.765C180.117 307.783 180.424 307.914 180.685 308.174C180.945 308.435 181.076 308.742 181.076 309.094V317.949C181.076 317.965 181.083 317.972 181.099 317.972H181.122L184.618 314.039C185.185 313.395 185.906 313.073 186.78 313.073H187.746C187.991 313.073 188.16 313.188 188.252 313.418C188.359 313.648 188.328 313.855 188.16 314.039L183.951 318.685C183.874 318.777 183.874 318.877 183.951 318.984L188.206 324.044C188.374 324.244 188.397 324.458 188.275 324.688C188.167 324.918 187.991 325.033 187.746 325.033H186.78C185.906 325.033 185.193 324.696 184.641 324.021L181.122 319.766C181.122 319.751 181.114 319.743 181.099 319.743C181.083 319.743 181.076 319.751 181.076 319.766V323.722C181.076 324.075 180.945 324.382 180.685 324.642C180.424 324.903 180.117 325.033 179.765 325.033H179.305ZM194.409 314.982C193.627 314.982 193.021 315.205 192.592 315.649C192.178 316.079 191.917 316.776 191.81 317.742C191.81 317.865 191.871 317.926 191.994 317.926H196.502C196.624 317.926 196.686 317.865 196.686 317.742C196.624 315.902 195.865 314.982 194.409 314.982ZM194.984 325.263C192.975 325.263 191.426 324.742 190.338 323.699C189.264 322.641 188.728 321.093 188.728 319.053C188.728 317.029 189.211 315.488 190.177 314.43C191.143 313.372 192.538 312.843 194.363 312.843C197.767 312.843 199.515 314.775 199.607 318.639C199.622 319.007 199.492 319.314 199.216 319.559C198.94 319.805 198.618 319.927 198.25 319.927H191.971C191.833 319.927 191.779 319.996 191.81 320.134C191.917 321.162 192.254 321.913 192.822 322.388C193.404 322.848 194.248 323.078 195.352 323.078C196.042 323.078 196.808 322.963 197.652 322.733C197.928 322.657 198.181 322.703 198.411 322.871C198.656 323.04 198.779 323.27 198.779 323.561C198.779 323.914 198.671 324.228 198.457 324.504C198.257 324.765 197.989 324.926 197.652 324.987C196.793 325.171 195.904 325.263 194.984 325.263ZM203.015 325.033C202.662 325.033 202.355 324.903 202.095 324.642C201.834 324.382 201.704 324.075 201.704 323.722V314.384C201.704 314.032 201.834 313.725 202.095 313.464C202.355 313.204 202.662 313.073 203.015 313.073H203.475C203.827 313.073 204.134 313.204 204.395 313.464C204.655 313.725 204.786 314.032 204.786 314.384V315.35C204.786 315.366 204.793 315.373 204.809 315.373C204.839 315.373 204.855 315.366 204.855 315.35C205.299 314.737 205.882 314.239 206.603 313.855C207.323 313.457 208.113 313.211 208.972 313.119C209.294 313.089 209.57 313.196 209.8 313.441C210.03 313.671 210.145 313.947 210.145 314.269C210.145 314.591 210.03 314.867 209.8 315.097C209.57 315.327 209.294 315.458 208.972 315.488C206.258 315.703 204.901 317.083 204.901 319.628V323.722C204.901 324.075 204.77 324.382 204.51 324.642C204.249 324.903 203.942 325.033 203.59 325.033H203.015ZM216.15 320.203C214.54 319.851 213.39 319.368 212.7 318.754C212.025 318.141 211.688 317.344 211.688 316.362C211.688 315.258 212.094 314.4 212.907 313.786C213.735 313.158 214.954 312.843 216.564 312.843C217.576 312.843 218.58 312.935 219.577 313.119C219.914 313.181 220.182 313.349 220.382 313.625C220.596 313.886 220.704 314.193 220.704 314.545C220.704 314.837 220.589 315.074 220.359 315.258C220.129 315.427 219.868 315.473 219.577 315.396C218.718 315.182 217.813 315.074 216.863 315.074C215.483 315.074 214.793 315.458 214.793 316.224C214.793 316.592 214.923 316.899 215.184 317.144C215.444 317.39 215.889 317.581 216.518 317.719C218.281 318.072 219.485 318.547 220.129 319.145C220.788 319.743 221.118 320.617 221.118 321.767C221.118 322.871 220.704 323.73 219.876 324.343C219.048 324.957 217.844 325.263 216.265 325.263C215.237 325.263 214.187 325.141 213.114 324.895C212.776 324.819 212.5 324.642 212.286 324.366C212.071 324.075 211.964 323.745 211.964 323.377C211.964 323.086 212.079 322.864 212.309 322.71C212.554 322.557 212.815 322.519 213.091 322.595C214.087 322.871 215.03 323.009 215.92 323.009C217.315 323.009 218.013 322.595 218.013 321.767C218.013 321.369 217.875 321.054 217.599 320.824C217.338 320.594 216.855 320.387 216.15 320.203Z" fill="white"/>
<path d="M402.081 310.865V316.408C402.081 316.516 402.142 316.585 402.265 316.615C402.848 316.692 403.415 316.73 403.967 316.73C405.209 316.73 406.152 316.462 406.796 315.925C407.455 315.373 407.785 314.591 407.785 313.579C407.785 311.54 406.512 310.52 403.967 310.52C403.415 310.52 402.848 310.559 402.265 310.635C402.142 310.666 402.081 310.743 402.081 310.865ZM400.195 325.033C399.842 325.033 399.536 324.903 399.275 324.642C399.03 324.382 398.907 324.075 398.907 323.722V309.669C398.907 309.301 399.03 308.972 399.275 308.68C399.52 308.389 399.827 308.228 400.195 308.197C401.498 308.075 402.756 308.013 403.967 308.013C406.267 308.013 407.992 308.473 409.142 309.393C410.292 310.298 410.867 311.617 410.867 313.349C410.867 315.266 410.307 316.715 409.188 317.696C408.084 318.678 406.443 319.168 404.266 319.168C403.76 319.168 403.093 319.138 402.265 319.076C402.142 319.076 402.081 319.138 402.081 319.26V323.722C402.081 324.075 401.951 324.382 401.69 324.642C401.429 324.903 401.123 325.033 400.77 325.033H400.195ZM413.821 325.033C413.468 325.033 413.162 324.903 412.901 324.642C412.64 324.382 412.51 324.075 412.51 323.722V314.384C412.51 314.032 412.64 313.725 412.901 313.464C413.162 313.204 413.468 313.073 413.821 313.073H414.281C414.634 313.073 414.94 313.204 415.201 313.464C415.462 313.725 415.592 314.032 415.592 314.384V315.35C415.592 315.366 415.6 315.373 415.615 315.373C415.646 315.373 415.661 315.366 415.661 315.35C416.106 314.737 416.688 314.239 417.409 313.855C418.13 313.457 418.919 313.211 419.778 313.119C420.1 313.089 420.376 313.196 420.606 313.441C420.836 313.671 420.951 313.947 420.951 314.269C420.951 314.591 420.836 314.867 420.606 315.097C420.376 315.327 420.1 315.458 419.778 315.488C417.064 315.703 415.707 317.083 415.707 319.628V323.722C415.707 324.075 415.577 324.382 415.316 324.642C415.055 324.903 414.749 325.033 414.396 325.033H413.821ZM429.877 316.04C429.432 315.396 428.758 315.074 427.853 315.074C426.948 315.074 426.266 315.396 425.806 316.04C425.361 316.669 425.139 317.673 425.139 319.053C425.139 320.433 425.361 321.445 425.806 322.089C426.266 322.718 426.948 323.032 427.853 323.032C428.758 323.032 429.432 322.718 429.877 322.089C430.337 321.445 430.567 320.433 430.567 319.053C430.567 317.673 430.337 316.669 429.877 316.04ZM432.131 323.653C431.119 324.727 429.693 325.263 427.853 325.263C426.013 325.263 424.579 324.727 423.552 323.653C422.54 322.565 422.034 321.031 422.034 319.053C422.034 317.075 422.54 315.55 423.552 314.476C424.579 313.388 426.013 312.843 427.853 312.843C429.693 312.843 431.119 313.388 432.131 314.476C433.158 315.55 433.672 317.075 433.672 319.053C433.672 321.031 433.158 322.565 432.131 323.653ZM434.499 330.07C434.146 330.086 433.855 329.971 433.625 329.725C433.38 329.495 433.257 329.212 433.257 328.874C433.257 328.552 433.38 328.269 433.625 328.023C433.87 327.778 434.162 327.64 434.499 327.609C435.526 327.548 436.186 327.333 436.477 326.965C436.784 326.597 436.937 325.877 436.937 324.803V314.384C436.937 314.032 437.067 313.725 437.328 313.464C437.589 313.204 437.895 313.073 438.248 313.073H438.869C439.222 313.073 439.521 313.204 439.766 313.464C440.027 313.725 440.157 314.032 440.157 314.384V324.803C440.157 326.751 439.774 328.092 439.007 328.828C438.256 329.564 436.753 329.978 434.499 330.07ZM438.869 307.783C439.222 307.783 439.521 307.914 439.766 308.174C440.027 308.435 440.157 308.742 440.157 309.094V309.232C440.157 309.585 440.027 309.892 439.766 310.152C439.521 310.413 439.222 310.543 438.869 310.543H438.248C437.895 310.543 437.589 310.413 437.328 310.152C437.067 309.892 436.937 309.585 436.937 309.232V309.094C436.937 308.742 437.067 308.435 437.328 308.174C437.589 307.914 437.895 307.783 438.248 307.783H438.869ZM448.508 314.982C447.726 314.982 447.12 315.205 446.691 315.649C446.277 316.079 446.016 316.776 445.909 317.742C445.909 317.865 445.97 317.926 446.093 317.926H450.601C450.723 317.926 450.785 317.865 450.785 317.742C450.723 315.902 449.964 314.982 448.508 314.982ZM449.083 325.263C447.074 325.263 445.525 324.742 444.437 323.699C443.363 322.641 442.827 321.093 442.827 319.053C442.827 317.029 443.31 315.488 444.276 314.43C445.242 313.372 446.637 312.843 448.462 312.843C451.866 312.843 453.614 314.775 453.706 318.639C453.721 319.007 453.591 319.314 453.315 319.559C453.039 319.805 452.717 319.927 452.349 319.927H446.07C445.932 319.927 445.878 319.996 445.909 320.134C446.016 321.162 446.353 321.913 446.921 322.388C447.503 322.848 448.347 323.078 449.451 323.078C450.141 323.078 450.907 322.963 451.751 322.733C452.027 322.657 452.28 322.703 452.51 322.871C452.755 323.04 452.878 323.27 452.878 323.561C452.878 323.914 452.77 324.228 452.556 324.504C452.356 324.765 452.088 324.926 451.751 324.987C450.892 325.171 450.003 325.263 449.083 325.263ZM461.156 325.263C459.255 325.263 457.791 324.742 456.763 323.699C455.736 322.641 455.222 321.093 455.222 319.053C455.222 317.045 455.713 315.511 456.694 314.453C457.691 313.38 459.102 312.843 460.926 312.843C461.739 312.843 462.521 312.897 463.272 313.004C463.625 313.05 463.916 313.211 464.146 313.487C464.376 313.763 464.491 314.085 464.491 314.453C464.491 314.76 464.369 315.005 464.123 315.189C463.893 315.373 463.625 315.435 463.318 315.373C462.72 315.251 462.053 315.189 461.317 315.189C460.351 315.189 459.631 315.496 459.155 316.109C458.68 316.723 458.442 317.704 458.442 319.053C458.442 320.433 458.695 321.422 459.201 322.02C459.707 322.618 460.489 322.917 461.547 322.917C462.299 322.917 462.95 322.848 463.502 322.71C463.794 322.634 464.054 322.687 464.284 322.871C464.53 323.055 464.652 323.293 464.652 323.584C464.652 323.952 464.537 324.274 464.307 324.55C464.093 324.826 463.809 324.995 463.456 325.056C462.674 325.194 461.908 325.263 461.156 325.263ZM467.851 315.764C467.545 315.764 467.284 315.657 467.069 315.442C466.855 315.212 466.747 314.944 466.747 314.637C466.747 314.331 466.855 314.07 467.069 313.855C467.284 313.641 467.545 313.533 467.851 313.533H468.955C469.093 313.533 469.162 313.464 469.162 313.326V310.474C469.162 310.122 469.285 309.815 469.53 309.554C469.791 309.294 470.098 309.163 470.45 309.163H470.91C471.263 309.163 471.57 309.294 471.83 309.554C472.091 309.815 472.221 310.122 472.221 310.474V313.326C472.221 313.464 472.29 313.533 472.428 313.533H475.05C475.357 313.533 475.618 313.641 475.832 313.855C476.062 314.07 476.177 314.331 476.177 314.637C476.177 314.944 476.062 315.212 475.832 315.442C475.618 315.657 475.357 315.764 475.05 315.764H472.428C472.29 315.764 472.221 315.826 472.221 315.948V320.594C472.221 321.591 472.329 322.235 472.543 322.526C472.758 322.818 473.203 322.963 473.877 322.963C474.245 322.963 474.521 322.948 474.705 322.917C475.012 322.887 475.28 322.956 475.51 323.124C475.74 323.293 475.855 323.523 475.855 323.814C475.855 324.152 475.74 324.458 475.51 324.734C475.296 324.995 475.027 325.141 474.705 325.171C474.031 325.233 473.525 325.263 473.187 325.263C471.7 325.263 470.657 324.949 470.059 324.32C469.461 323.676 469.162 322.534 469.162 320.893V315.948C469.162 315.826 469.093 315.764 468.955 315.764H467.851ZM482.869 320.203C481.259 319.851 480.109 319.368 479.419 318.754C478.744 318.141 478.407 317.344 478.407 316.362C478.407 315.258 478.813 314.4 479.626 313.786C480.454 313.158 481.673 312.843 483.283 312.843C484.295 312.843 485.299 312.935 486.296 313.119C486.633 313.181 486.901 313.349 487.101 313.625C487.315 313.886 487.423 314.193 487.423 314.545C487.423 314.837 487.308 315.074 487.078 315.258C486.848 315.427 486.587 315.473 486.296 315.396C485.437 315.182 484.532 315.074 483.582 315.074C482.202 315.074 481.512 315.458 481.512 316.224C481.512 316.592 481.642 316.899 481.903 317.144C482.163 317.39 482.608 317.581 483.237 317.719C485 318.072 486.204 318.547 486.848 319.145C487.507 319.743 487.837 320.617 487.837 321.767C487.837 322.871 487.423 323.73 486.595 324.343C485.767 324.957 484.563 325.263 482.984 325.263C481.956 325.263 480.906 325.141 479.833 324.895C479.495 324.819 479.219 324.642 479.005 324.366C478.79 324.075 478.683 323.745 478.683 323.377C478.683 323.086 478.798 322.864 479.028 322.71C479.273 322.557 479.534 322.519 479.81 322.595C480.806 322.871 481.749 323.009 482.639 323.009C484.034 323.009 484.732 322.595 484.732 321.767C484.732 321.369 484.594 321.054 484.318 320.824C484.057 320.594 483.574 320.387 482.869 320.203Z" fill="white"/>
<path d="M660.579 317.581V322.411C660.579 322.534 660.648 322.611 660.786 322.641C661.322 322.718 661.828 322.756 662.304 322.756C663.576 322.756 664.504 322.526 665.087 322.066C665.685 321.591 665.984 320.87 665.984 319.904C665.984 319.046 665.639 318.417 664.949 318.018C664.274 317.604 663.147 317.397 661.568 317.397H660.763C660.64 317.397 660.579 317.459 660.579 317.581ZM660.579 310.865V314.798C660.579 314.936 660.64 315.005 660.763 315.005H661.43C662.856 315.005 663.883 314.814 664.512 314.43C665.156 314.032 665.478 313.449 665.478 312.682C665.478 311.946 665.217 311.402 664.696 311.049C664.174 310.697 663.323 310.52 662.143 310.52C661.606 310.52 661.146 310.551 660.763 310.612C660.64 310.643 660.579 310.727 660.579 310.865ZM658.693 325.079C658.325 325.049 658.018 324.895 657.773 324.619C657.527 324.328 657.405 323.991 657.405 323.607V309.669C657.405 309.286 657.527 308.956 657.773 308.68C658.018 308.389 658.332 308.228 658.716 308.197C659.85 308.075 660.947 308.013 662.005 308.013C666.298 308.013 668.445 309.416 668.445 312.222C668.445 313.158 668.13 313.97 667.502 314.66C666.873 315.35 666.045 315.795 665.018 315.994C665.002 315.994 664.995 316.002 664.995 316.017C664.995 316.048 665.002 316.063 665.018 316.063C666.275 316.247 667.256 316.715 667.962 317.466C668.682 318.202 669.043 319.115 669.043 320.203C669.043 321.89 668.491 323.155 667.387 323.998C666.283 324.842 664.565 325.263 662.235 325.263C661.069 325.263 659.889 325.202 658.693 325.079ZM678.068 316.04C677.623 315.396 676.949 315.074 676.044 315.074C675.139 315.074 674.457 315.396 673.997 316.04C673.552 316.669 673.33 317.673 673.33 319.053C673.33 320.433 673.552 321.445 673.997 322.089C674.457 322.718 675.139 323.032 676.044 323.032C676.949 323.032 677.623 322.718 678.068 322.089C678.528 321.445 678.758 320.433 678.758 319.053C678.758 317.673 678.528 316.669 678.068 316.04ZM680.322 323.653C679.31 324.727 677.884 325.263 676.044 325.263C674.204 325.263 672.77 324.727 671.743 323.653C670.731 322.565 670.225 321.031 670.225 319.053C670.225 317.075 670.731 315.55 671.743 314.476C672.77 313.388 674.204 312.843 676.044 312.843C677.884 312.843 679.31 313.388 680.322 314.476C681.349 315.55 681.863 317.075 681.863 319.053C681.863 321.031 681.349 322.565 680.322 323.653ZM687.601 325.263C686.252 325.263 685.271 324.895 684.657 324.159C684.044 323.408 683.737 322.143 683.737 320.364V314.384C683.737 314.032 683.868 313.725 684.128 313.464C684.389 313.204 684.696 313.073 685.048 313.073H685.416C685.769 313.073 686.076 313.204 686.336 313.464C686.597 313.725 686.727 314.032 686.727 314.384V320.042C686.727 321.116 686.873 321.859 687.164 322.273C687.456 322.687 687.946 322.894 688.636 322.894C689.265 322.894 689.848 322.626 690.384 322.089C690.936 321.553 691.212 320.978 691.212 320.364V314.384C691.212 314.032 691.343 313.725 691.603 313.464C691.864 313.204 692.171 313.073 692.523 313.073H692.983C693.336 313.073 693.635 313.204 693.88 313.464C694.141 313.725 694.271 314.032 694.271 314.384V323.722C694.271 324.075 694.141 324.382 693.88 324.642C693.635 324.903 693.336 325.033 692.983 325.033H692.684C692.316 325.033 692.002 324.911 691.741 324.665C691.496 324.405 691.366 324.09 691.35 323.722L691.327 323.561C691.327 323.546 691.32 323.538 691.304 323.538C691.289 323.538 691.274 323.546 691.258 323.561C690.216 324.696 688.997 325.263 687.601 325.263ZM698.367 325.033C698.015 325.033 697.708 324.903 697.447 324.642C697.187 324.382 697.056 324.075 697.056 323.722V314.384C697.056 314.032 697.187 313.725 697.447 313.464C697.708 313.204 698.015 313.073 698.367 313.073H698.666C699.034 313.073 699.341 313.204 699.586 313.464C699.847 313.71 699.985 314.016 700 314.384V314.545C700 314.561 700.008 314.568 700.023 314.568C700.039 314.568 700.054 314.561 700.069 314.545C701.112 313.411 702.331 312.843 703.726 312.843C705.122 312.843 706.134 313.242 706.762 314.039C707.406 314.821 707.728 316.132 707.728 317.972V323.722C707.728 324.075 707.598 324.382 707.337 324.642C707.077 324.903 706.77 325.033 706.417 325.033H706.026C705.674 325.033 705.367 324.903 705.106 324.642C704.861 324.382 704.738 324.075 704.738 323.722V318.202C704.738 317.052 704.585 316.27 704.278 315.856C703.987 315.427 703.458 315.212 702.691 315.212C702.063 315.212 701.48 315.481 700.943 316.017C700.407 316.554 700.138 317.129 700.138 317.742V323.722C700.138 324.075 700.008 324.382 699.747 324.642C699.487 324.903 699.18 325.033 698.827 325.033H698.367ZM710.475 315.764C710.168 315.764 709.908 315.657 709.693 315.442C709.478 315.212 709.371 314.944 709.371 314.637C709.371 314.331 709.478 314.07 709.693 313.855C709.908 313.641 710.168 313.533 710.475 313.533H711.579C711.717 313.533 711.786 313.464 711.786 313.326V310.474C711.786 310.122 711.909 309.815 712.154 309.554C712.415 309.294 712.721 309.163 713.074 309.163H713.534C713.887 309.163 714.193 309.294 714.454 309.554C714.715 309.815 714.845 310.122 714.845 310.474V313.326C714.845 313.464 714.914 313.533 715.052 313.533H717.674C717.981 313.533 718.241 313.641 718.456 313.855C718.686 314.07 718.801 314.331 718.801 314.637C718.801 314.944 718.686 315.212 718.456 315.442C718.241 315.657 717.981 315.764 717.674 315.764H715.052C714.914 315.764 714.845 315.826 714.845 315.948V320.594C714.845 321.591 714.952 322.235 715.167 322.526C715.382 322.818 715.826 322.963 716.501 322.963C716.869 322.963 717.145 322.948 717.329 322.917C717.636 322.887 717.904 322.956 718.134 323.124C718.364 323.293 718.479 323.523 718.479 323.814C718.479 324.152 718.364 324.458 718.134 324.734C717.919 324.995 717.651 325.141 717.329 325.171C716.654 325.233 716.148 325.263 715.811 325.263C714.324 325.263 713.281 324.949 712.683 324.32C712.085 323.676 711.786 322.534 711.786 320.893V315.948C711.786 315.826 711.717 315.764 711.579 315.764H710.475ZM723.601 325.033C723.249 325.033 722.942 324.903 722.681 324.642C722.421 324.382 722.29 324.075 722.29 323.722V314.384C722.29 314.032 722.421 313.725 722.681 313.464C722.942 313.204 723.249 313.073 723.601 313.073H724.199C724.552 313.073 724.859 313.204 725.119 313.464C725.38 313.725 725.51 314.032 725.51 314.384V323.722C725.51 324.075 725.38 324.382 725.119 324.642C724.859 324.903 724.552 325.033 724.199 325.033H723.601ZM723.601 310.543C723.249 310.543 722.942 310.413 722.681 310.152C722.421 309.892 722.29 309.585 722.29 309.232V309.094C722.29 308.742 722.421 308.435 722.681 308.174C722.942 307.914 723.249 307.783 723.601 307.783H724.199C724.552 307.783 724.859 307.914 725.119 308.174C725.38 308.435 725.51 308.742 725.51 309.094V309.232C725.51 309.585 725.38 309.892 725.119 310.152C724.859 310.413 724.552 310.543 724.199 310.543H723.601ZM733.863 314.982C733.081 314.982 732.475 315.205 732.046 315.649C731.632 316.079 731.371 316.776 731.264 317.742C731.264 317.865 731.325 317.926 731.448 317.926H735.956C736.079 317.926 736.14 317.865 736.14 317.742C736.079 315.902 735.32 314.982 733.863 314.982ZM734.438 325.263C732.429 325.263 730.881 324.742 729.792 323.699C728.719 322.641 728.182 321.093 728.182 319.053C728.182 317.029 728.665 315.488 729.631 314.43C730.597 313.372 731.992 312.843 733.817 312.843C737.221 312.843 738.969 314.775 739.061 318.639C739.076 319.007 738.946 319.314 738.67 319.559C738.394 319.805 738.072 319.927 737.704 319.927H731.425C731.287 319.927 731.233 319.996 731.264 320.134C731.371 321.162 731.709 321.913 732.276 322.388C732.859 322.848 733.702 323.078 734.806 323.078C735.496 323.078 736.263 322.963 737.106 322.733C737.382 322.657 737.635 322.703 737.865 322.871C738.11 323.04 738.233 323.27 738.233 323.561C738.233 323.914 738.126 324.228 737.911 324.504C737.712 324.765 737.443 324.926 737.106 324.987C736.247 325.171 735.358 325.263 734.438 325.263ZM745.275 320.203C743.665 319.851 742.515 319.368 741.825 318.754C741.15 318.141 740.813 317.344 740.813 316.362C740.813 315.258 741.219 314.4 742.032 313.786C742.86 313.158 744.079 312.843 745.689 312.843C746.701 312.843 747.705 312.935 748.702 313.119C749.039 313.181 749.307 313.349 749.507 313.625C749.721 313.886 749.829 314.193 749.829 314.545C749.829 314.837 749.714 315.074 749.484 315.258C749.254 315.427 748.993 315.473 748.702 315.396C747.843 315.182 746.938 315.074 745.988 315.074C744.608 315.074 743.918 315.458 743.918 316.224C743.918 316.592 744.048 316.899 744.309 317.144C744.569 317.39 745.014 317.581 745.643 317.719C747.406 318.072 748.61 318.547 749.254 319.145C749.913 319.743 750.243 320.617 750.243 321.767C750.243 322.871 749.829 323.73 749.001 324.343C748.173 324.957 746.969 325.263 745.39 325.263C744.362 325.263 743.312 325.141 742.239 324.895C741.901 324.819 741.625 324.642 741.411 324.366C741.196 324.075 741.089 323.745 741.089 323.377C741.089 323.086 741.204 322.864 741.434 322.71C741.679 322.557 741.94 322.519 742.216 322.595C743.212 322.871 744.155 323.009 745.045 323.009C746.44 323.009 747.138 322.595 747.138 321.767C747.138 321.369 747 321.054 746.724 320.824C746.463 320.594 745.98 320.387 745.275 320.203Z" fill="white"/>
<g clip-path="url(#clip0_1_167)">
<path d="M247.477 71C246.741 71 246.101 70.728 245.557 70.184C245.013 69.64 244.741 69 244.741 68.264V38.696C244.741 37.96 245.013 37.32 245.557 36.776C246.101 36.232 246.741 35.96 247.477 35.96H263.797C264.533 35.96 265.173 36.232 265.717 36.776C266.261 37.32 266.533 37.96 266.533 38.696C266.533 39.432 266.261 40.072 265.717 40.616C265.173 41.128 264.533 41.384 263.797 41.384H251.893C251.605 41.384 251.461 41.528 251.461 41.816V49.544C251.461 49.832 251.605 49.976 251.893 49.976H262.981C263.717 49.976 264.325 50.232 264.805 50.744C265.317 51.256 265.573 51.864 265.573 52.568C265.573 53.272 265.317 53.88 264.805 54.392C264.325 54.872 263.717 55.112 262.981 55.112H251.893C251.605 55.112 251.461 55.256 251.461 55.544V65.144C251.461 65.432 251.605 65.576 251.893 65.576H263.797C264.533 65.576 265.173 65.848 265.717 66.392C266.261 66.904 266.533 67.528 266.533 68.264C266.533 69 266.261 69.64 265.717 70.184C265.173 70.728 264.533 71 263.797 71H247.477ZM274.276 41.528C273.54 41.528 272.9 41.272 272.356 40.76C271.812 40.216 271.54 39.576 271.54 38.84V38.696C271.54 37.96 271.812 37.32 272.356 36.776C272.9 36.232 273.54 35.96 274.276 35.96H294.724C295.46 35.96 296.1 36.232 296.644 36.776C297.188 37.32 297.46 37.96 297.46 38.696V38.84C297.46 39.576 297.188 40.216 296.644 40.76C296.1 41.272 295.46 41.528 294.724 41.528H288.292C288.036 41.528 287.908 41.672 287.908 41.96V68.264C287.908 69 287.636 69.64 287.092 70.184C286.548 70.728 285.908 71 285.172 71H283.828C283.092 71 282.452 70.728 281.908 70.184C281.364 69.64 281.092 69 281.092 68.264V41.96C281.092 41.672 280.964 41.528 280.708 41.528H274.276ZM305.677 71C304.941 71 304.301 70.728 303.757 70.184C303.245 69.64 302.989 69 302.989 68.264V38.696C302.989 37.96 303.245 37.32 303.757 36.776C304.301 36.232 304.941 35.96 305.677 35.96H306.973C307.709 35.96 308.349 36.232 308.893 36.776C309.437 37.32 309.709 37.96 309.709 38.696V49.592C309.709 49.848 309.837 49.976 310.093 49.976H322.093C322.349 49.976 322.477 49.848 322.477 49.592V38.696C322.477 37.96 322.749 37.32 323.293 36.776C323.837 36.232 324.477 35.96 325.213 35.96L326.509 35.96C327.245 35.96 327.869 36.232 328.381 36.776C328.925 37.32 329.197 37.96 329.197 38.696V68.264C329.197 69 328.925 69.64 328.381 70.184C327.869 70.728 327.245 71 326.509 71H325.213C324.477 71 323.837 70.728 323.293 70.184C322.749 69.64 322.477 69 322.477 68.264V55.544C322.477 55.256 322.349 55.112 322.093 55.112H310.093C309.837 55.112 309.709 55.256 309.709 55.544V68.264C309.709 69 309.437 69.64 308.893 70.184C308.349 70.728 307.709 71 306.973 71H305.677ZM338.646 71C337.91 71 337.27 70.728 336.726 70.184C336.182 69.64 335.91 69 335.91 68.264V38.696C335.91 37.96 336.182 37.32 336.726 36.776C337.27 36.232 337.91 35.96 338.646 35.96H339.846C340.678 35.96 341.446 36.184 342.15 36.632C342.854 37.08 343.366 37.672 343.686 38.408L352.086 56.552C352.086 56.584 352.102 56.6 352.134 56.6C352.166 56.6 352.182 56.584 352.182 56.552L360.582 38.408C360.902 37.672 361.414 37.08 362.118 36.632C362.822 36.184 363.59 35.96 364.422 35.96H365.814C366.55 35.96 367.19 36.232 367.734 36.776C368.278 37.32 368.55 37.96 368.55 38.696V68.264C368.55 69 368.278 69.64 367.734 70.184C367.19 70.728 366.55 71 365.814 71H364.758C364.022 71 363.382 70.728 362.838 70.184C362.294 69.64 362.022 69 362.022 68.264V47.384C362.022 47.352 362.006 47.336 361.974 47.336C361.942 47.336 361.926 47.352 361.926 47.384L356.166 59.72C355.814 60.456 355.27 61.064 354.534 61.544C353.83 61.992 353.078 62.216 352.278 62.216H351.99C351.19 62.216 350.422 61.992 349.686 61.544C348.982 61.064 348.454 60.456 348.102 59.72L342.342 47.384C342.342 47.352 342.326 47.336 342.294 47.336C342.262 47.336 342.246 47.352 342.246 47.384V68.264C342.246 69 341.974 69.64 341.43 70.184C340.886 70.728 340.246 71 339.51 71H338.646ZM382.598 71.48C379.782 71.48 377.734 70.712 376.454 69.176C375.174 67.608 374.534 64.968 374.534 61.256V48.776C374.534 48.04 374.806 47.4 375.35 46.856C375.894 46.312 376.534 46.04 377.27 46.04H378.038C378.774 46.04 379.414 46.312 379.958 46.856C380.502 47.4 380.774 48.04 380.774 48.776V60.584C380.774 62.824 381.078 64.376 381.686 65.24C382.294 66.104 383.318 66.536 384.758 66.536C386.07 66.536 387.286 65.976 388.406 64.856C389.558 63.736 390.134 62.536 390.134 61.256V48.776C390.134 48.04 390.406 47.4 390.95 46.856C391.494 46.312 392.134 46.04 392.87 46.04H393.83C394.566 46.04 395.19 46.312 395.702 46.856C396.246 47.4 396.518 48.04 396.518 48.776V68.264C396.518 69 396.246 69.64 395.702 70.184C395.19 70.728 394.566 71 393.83 71H393.206C392.438 71 391.782 70.744 391.238 70.232C390.726 69.688 390.454 69.032 390.422 68.264L390.374 67.928C390.374 67.896 390.358 67.88 390.326 67.88C390.294 67.88 390.262 67.896 390.23 67.928C388.054 70.296 385.51 71.48 382.598 71.48ZM404.945 71C404.209 71 403.569 70.728 403.025 70.184C402.513 69.64 402.257 69 402.257 68.264V48.776C402.257 48.04 402.513 47.4 403.025 46.856C403.569 46.312 404.209 46.04 404.945 46.04H405.617C406.353 46.04 406.977 46.296 407.489 46.808C408.033 47.32 408.321 47.944 408.353 48.68V49.016C408.353 49.048 408.369 49.064 408.401 49.064C408.465 49.064 408.497 49.048 408.497 49.016C410.385 46.712 412.513 45.56 414.881 45.56C416.321 45.56 417.473 45.832 418.337 46.376C419.233 46.92 420.017 47.88 420.689 49.256C420.689 49.288 420.721 49.304 420.785 49.304C420.817 49.304 420.849 49.288 420.881 49.256C422.897 46.792 425.169 45.56 427.697 45.56C430.353 45.56 432.257 46.28 433.409 47.72C434.593 49.16 435.185 51.64 435.185 55.16V68.264C435.185 69 434.913 69.64 434.369 70.184C433.857 70.728 433.233 71 432.497 71H431.681C430.945 71 430.305 70.728 429.761 70.184C429.217 69.64 428.945 69 428.945 68.264V56.12C428.945 53.784 428.721 52.248 428.273 51.512C427.825 50.776 426.961 50.408 425.681 50.408C424.849 50.408 424.017 50.792 423.185 51.56C422.353 52.328 421.937 53.096 421.937 53.864V68.264C421.937 69 421.665 69.64 421.121 70.184C420.577 70.728 419.937 71 419.201 71H418.385C417.649 71 417.009 70.728 416.465 70.184C415.953 69.64 415.697 69 415.697 68.264V56.12C415.697 53.816 415.457 52.296 414.977 51.56C414.529 50.792 413.665 50.408 412.385 50.408C411.553 50.408 410.721 50.792 409.889 51.56C409.057 52.328 408.641 53.096 408.641 53.864V68.264C408.641 69 408.369 69.64 407.825 70.184C407.281 70.728 406.641 71 405.905 71H404.945ZM447.286 55.256V61.784C447.286 63.064 447.83 64.2 448.918 65.192C450.006 66.184 451.302 66.68 452.806 66.68C454.502 66.68 455.846 66.008 456.838 64.664C457.83 63.288 458.326 61.24 458.326 58.52C458.326 53.08 456.486 50.36 452.806 50.36C451.302 50.36 450.006 50.856 448.918 51.848C447.83 52.84 447.286 53.976 447.286 55.256ZM443.686 71C442.95 71 442.31 70.728 441.766 70.184C441.222 69.64 440.95 69 440.95 68.264V37.736C440.95 37 441.222 36.36 441.766 35.816C442.31 35.272 442.95 35 443.686 35H444.646C445.382 35 446.022 35.272 446.566 35.816C447.11 36.36 447.382 37 447.382 37.736V48.536C447.382 48.568 447.398 48.584 447.43 48.584C447.462 48.584 447.494 48.568 447.526 48.536C449.606 46.552 452.006 45.56 454.726 45.56C457.734 45.56 460.134 46.696 461.926 48.968C463.75 51.208 464.662 54.392 464.662 58.52C464.662 62.52 463.718 65.688 461.83 68.024C459.942 70.328 457.574 71.48 454.726 71.48C451.814 71.48 449.302 70.296 447.19 67.928C447.158 67.896 447.126 67.88 447.094 67.88C447.062 67.88 447.046 67.896 447.046 67.928L446.998 68.264C446.966 69.032 446.678 69.688 446.134 70.232C445.622 70.744 444.982 71 444.214 71H443.686ZM480.75 59C476.174 59 473.886 60.408 473.886 63.224C473.886 64.248 474.174 65.08 474.75 65.72C475.358 66.36 476.126 66.68 477.054 66.68C478.878 66.68 480.35 66.12 481.47 65C482.59 63.848 483.15 62.28 483.15 60.296V59.432C483.15 59.144 483.006 59 482.718 59H480.75ZM475.326 71.48C473.15 71.48 471.342 70.776 469.902 69.368C468.494 67.928 467.79 66.072 467.79 63.8C467.79 61.016 468.846 58.856 470.958 57.32C473.102 55.784 476.366 55.016 480.75 55.016H482.718C483.006 55.016 483.15 54.872 483.15 54.584V54.2C483.15 52.728 482.798 51.704 482.094 51.128C481.39 50.52 480.142 50.216 478.35 50.216C476.494 50.216 474.222 50.552 471.534 51.224C470.958 51.384 470.43 51.288 469.95 50.936C469.47 50.552 469.23 50.056 469.23 49.448C469.23 48.712 469.454 48.056 469.902 47.48C470.35 46.872 470.926 46.504 471.63 46.376C474.062 45.832 476.35 45.56 478.494 45.56C482.59 45.56 485.454 46.296 487.086 47.768C488.718 49.24 489.534 51.816 489.534 55.496V68.264C489.534 69 489.262 69.64 488.718 70.184C488.206 70.728 487.582 71 486.846 71H486.318C485.55 71 484.894 70.744 484.35 70.232C483.806 69.688 483.518 69.032 483.486 68.264V67.592C483.486 67.56 483.47 67.544 483.438 67.544C483.374 67.544 483.342 67.56 483.342 67.592C481.39 70.184 478.718 71.48 475.326 71.48ZM499.197 71C498.461 71 497.821 70.728 497.277 70.184C496.733 69.64 496.461 69 496.461 68.264V48.776C496.461 48.04 496.733 47.4 497.277 46.856C497.821 46.312 498.461 46.04 499.197 46.04H500.445C501.181 46.04 501.821 46.312 502.365 46.856C502.909 47.4 503.181 48.04 503.181 48.776V68.264C503.181 69 502.909 69.64 502.365 70.184C501.821 70.728 501.181 71 500.445 71H499.197ZM499.197 40.76C498.461 40.76 497.821 40.488 497.277 39.944C496.733 39.4 496.461 38.76 496.461 38.024V37.736C496.461 37 496.733 36.36 497.277 35.816C497.821 35.272 498.461 35 499.197 35H500.445C501.181 35 501.821 35.272 502.365 35.816C502.909 36.36 503.181 37 503.181 37.736V38.024C503.181 38.76 502.909 39.4 502.365 39.944C501.821 40.488 501.181 40.76 500.445 40.76H499.197ZM546.697 45.704C546.697 48.712 545.737 51.608 543.817 54.392C541.929 57.144 538.249 60.808 532.777 65.384C532.713 65.448 532.681 65.496 532.681 65.528C532.681 65.56 532.697 65.576 532.729 65.576H544.057C544.793 65.576 545.433 65.848 545.977 66.392C546.521 66.904 546.793 67.528 546.793 68.264C546.793 69 546.521 69.64 545.977 70.184C545.433 70.728 544.793 71 544.057 71H526.441C525.705 71 525.065 70.728 524.521 70.184C524.009 69.64 523.753 69 523.753 68.264C523.753 66.44 524.441 64.984 525.817 63.896C531.353 59.48 535.065 56.04 536.953 53.576C538.841 51.112 539.785 48.712 539.785 46.376C539.785 42.824 537.881 41.048 534.073 41.048C532.121 41.048 529.753 41.592 526.969 42.68C526.361 42.936 525.785 42.888 525.241 42.536C524.729 42.184 524.473 41.704 524.473 41.096V40.28C524.473 39.448 524.697 38.696 525.145 38.024C525.625 37.32 526.249 36.856 527.017 36.632C529.737 35.864 532.409 35.48 535.033 35.48C538.777 35.48 541.657 36.376 543.673 38.168C545.689 39.96 546.697 42.472 546.697 45.704ZM569.997 43.592C568.909 41.672 567.245 40.712 565.005 40.712C562.765 40.712 561.101 41.672 560.013 43.592C558.925 45.512 558.381 48.808 558.381 53.48C558.381 58.152 558.925 61.448 560.013 63.368C561.101 65.288 562.765 66.248 565.005 66.248C567.245 66.248 568.909 65.288 569.997 63.368C571.085 61.448 571.629 58.152 571.629 53.48C571.629 48.808 571.085 45.512 569.997 43.592ZM575.085 67.208C572.877 70.056 569.517 71.48 565.005 71.48C560.493 71.48 557.117 70.056 554.877 67.208C552.669 64.36 551.565 59.784 551.565 53.48C551.565 47.176 552.669 42.6 554.877 39.752C557.117 36.904 560.493 35.48 565.005 35.48C569.517 35.48 572.877 36.904 575.085 39.752C577.325 42.6 578.445 47.176 578.445 53.48C578.445 59.784 577.325 64.36 575.085 67.208ZM606.352 45.704C606.352 48.712 605.392 51.608 603.472 54.392C601.584 57.144 597.904 60.808 592.432 65.384C592.368 65.448 592.336 65.496 592.336 65.528C592.336 65.56 592.352 65.576 592.384 65.576H603.712C604.448 65.576 605.088 65.848 605.632 66.392C606.176 66.904 606.448 67.528 606.448 68.264C606.448 69 606.176 69.64 605.632 70.184C605.088 70.728 604.448 71 603.712 71H586.096C585.36 71 584.72 70.728 584.176 70.184C583.664 69.64 583.408 69 583.408 68.264C583.408 66.44 584.096 64.984 585.472 63.896C591.008 59.48 594.72 56.04 596.608 53.576C598.496 51.112 599.44 48.712 599.44 46.376C599.44 42.824 597.536 41.048 593.728 41.048C591.776 41.048 589.408 41.592 586.624 42.68C586.016 42.936 585.44 42.888 584.896 42.536C584.384 42.184 584.128 41.704 584.128 41.096V40.28C584.128 39.448 584.352 38.696 584.8 38.024C585.28 37.32 585.904 36.856 586.672 36.632C589.392 35.864 592.064 35.48 594.688 35.48C598.432 35.48 601.312 36.376 603.328 38.168C605.344 39.96 606.352 42.472 606.352 45.704ZM616.211 58.376C616.211 58.408 616.195 58.424 616.163 58.424C616.163 58.424 616.163 58.44 616.163 58.472C616.163 58.504 616.179 58.52 616.211 58.52H625.379C625.636 58.52 625.764 58.376 625.764 58.088V44.792C625.764 44.76 625.748 44.744 625.715 44.744H625.668L616.211 58.376ZM612.563 63.8C611.859 63.8 611.235 63.544 610.691 63.032C610.179 62.52 609.923 61.896 609.923 61.16C609.923 59.368 610.435 57.768 611.459 56.36L624.228 38.168C625.252 36.696 626.676 35.96 628.499 35.96H629.556C630.292 35.96 630.932 36.232 631.476 36.776C632.02 37.32 632.292 37.96 632.292 38.696V58.088C632.292 58.376 632.42 58.52 632.676 58.52H634.98C635.716 58.52 636.34 58.776 636.851 59.288C637.364 59.8 637.62 60.424 637.62 61.16C637.62 61.896 637.364 62.52 636.851 63.032C636.34 63.544 635.716 63.8 634.98 63.8H632.676C632.42 63.8 632.292 63.944 632.292 64.232V68.264C632.292 69 632.02 69.64 631.476 70.184C630.932 70.728 630.292 71 629.556 71H628.499C627.763 71 627.123 70.728 626.58 70.184C626.036 69.64 625.764 69 625.764 68.264V64.232C625.764 63.944 625.636 63.8 625.379 63.8H612.563ZM659.38 71C658.644 71 658.004 70.728 657.46 70.184C656.916 69.64 656.644 69 656.644 68.264V38.696C656.644 37.96 656.916 37.32 657.46 36.776C658.004 36.232 658.644 35.96 659.38 35.96H661.3C662.036 35.96 662.676 36.232 663.22 36.776C663.764 37.32 664.036 37.96 664.036 38.696V68.264C664.036 69 663.764 69.64 663.22 70.184C662.676 70.728 662.036 71 661.3 71H659.38ZM673.891 71C673.155 71 672.515 70.728 671.971 70.184C671.459 69.64 671.203 69 671.203 68.264V48.776C671.203 48.04 671.459 47.4 671.971 46.856C672.515 46.312 673.155 46.04 673.891 46.04H674.563C675.299 46.04 675.923 46.296 676.435 46.808C676.979 47.32 677.267 47.944 677.299 48.68V49.016C677.299 49.048 677.315 49.064 677.347 49.064C677.411 49.064 677.443 49.048 677.443 49.016C679.331 46.712 681.459 45.56 683.827 45.56C685.267 45.56 686.419 45.832 687.283 46.376C688.179 46.92 688.963 47.88 689.635 49.256C689.635 49.288 689.667 49.304 689.731 49.304C689.763 49.304 689.795 49.288 689.827 49.256C691.843 46.792 694.115 45.56 696.643 45.56C699.299 45.56 701.203 46.28 702.355 47.72C703.539 49.16 704.131 51.64 704.131 55.16V68.264C704.131 69 703.859 69.64 703.315 70.184C702.803 70.728 702.179 71 701.443 71H700.627C699.891 71 699.251 70.728 698.707 70.184C698.163 69.64 697.891 69 697.891 68.264V56.12C697.891 53.784 697.667 52.248 697.219 51.512C696.771 50.776 695.907 50.408 694.627 50.408C693.795 50.408 692.963 50.792 692.131 51.56C691.299 52.328 690.883 53.096 690.883 53.864V68.264C690.883 69 690.611 69.64 690.067 70.184C689.523 70.728 688.883 71 688.147 71H687.331C686.595 71 685.955 70.728 685.411 70.184C684.899 69.64 684.643 69 684.643 68.264V56.12C684.643 53.816 684.403 52.296 683.923 51.56C683.475 50.792 682.611 50.408 681.331 50.408C680.499 50.408 679.667 50.792 678.835 51.56C678.003 52.328 677.587 53.096 677.587 53.864V68.264C677.587 69 677.315 69.64 676.771 70.184C676.227 70.728 675.587 71 674.851 71H673.891ZM715.992 55.256V61.784C715.992 63.064 716.536 64.2 717.624 65.192C718.744 66.184 720.04 66.68 721.512 66.68C723.208 66.68 724.552 65.992 725.544 64.616C726.536 63.24 727.032 61.208 727.032 58.52C727.032 53.08 725.192 50.36 721.512 50.36C720.04 50.36 718.744 50.856 717.624 51.848C716.536 52.84 715.992 53.976 715.992 55.256ZM712.392 81.56C711.656 81.56 711.016 81.288 710.472 80.744C709.928 80.2 709.656 79.56 709.656 78.824V48.776C709.656 48.04 709.928 47.4 710.472 46.856C711.016 46.312 711.656 46.04 712.392 46.04H712.968C713.736 46.04 714.392 46.312 714.936 46.856C715.48 47.368 715.768 48.008 715.8 48.776V49.112C715.8 49.144 715.816 49.16 715.848 49.16C715.88 49.16 715.912 49.144 715.944 49.112C717.096 47.832 718.248 46.92 719.4 46.376C720.552 45.832 721.896 45.56 723.432 45.56C726.44 45.56 728.84 46.696 730.632 48.968C732.424 51.208 733.32 54.392 733.32 58.52C733.32 62.52 732.376 65.688 730.488 68.024C728.632 70.328 726.28 71.48 723.432 71.48C720.648 71.48 718.232 70.472 716.184 68.456C716.152 68.424 716.12 68.408 716.088 68.408C716.056 68.408 716.04 68.424 716.04 68.456V78.824C716.04 79.56 715.768 80.2 715.224 80.744C714.712 81.288 714.088 81.56 713.352 81.56H712.392ZM749.368 59C744.792 59 742.504 60.408 742.504 63.224C742.504 64.248 742.792 65.08 743.368 65.72C743.976 66.36 744.744 66.68 745.672 66.68C747.496 66.68 748.968 66.12 750.088 65C751.208 63.848 751.768 62.28 751.768 60.296V59.432C751.768 59.144 751.624 59 751.336 59H749.368ZM743.944 71.48C741.768 71.48 739.96 70.776 738.52 69.368C737.112 67.928 736.408 66.072 736.408 63.8C736.408 61.016 737.464 58.856 739.576 57.32C741.72 55.784 744.984 55.016 749.368 55.016H751.336C751.624 55.016 751.768 54.872 751.768 54.584V54.2C751.768 52.728 751.416 51.704 750.712 51.128C750.008 50.52 748.76 50.216 746.968 50.216C745.112 50.216 742.84 50.552 740.152 51.224C739.576 51.384 739.048 51.288 738.568 50.936C738.088 50.552 737.848 50.056 737.848 49.448C737.848 48.712 738.072 48.056 738.52 47.48C738.968 46.872 739.544 46.504 740.248 46.376C742.68 45.832 744.968 45.56 747.112 45.56C751.208 45.56 754.072 46.296 755.704 47.768C757.336 49.24 758.152 51.816 758.152 55.496V68.264C758.152 69 757.88 69.64 757.336 70.184C756.824 70.728 756.2 71 755.464 71H754.936C754.168 71 753.512 70.744 752.968 70.232C752.424 69.688 752.136 69.032 752.104 68.264V67.592C752.104 67.56 752.088 67.544 752.056 67.544C751.992 67.544 751.96 67.56 751.96 67.592C750.008 70.184 747.336 71.48 743.944 71.48ZM774.343 71.48C770.375 71.48 767.319 70.392 765.175 68.216C763.031 66.008 761.959 62.776 761.959 58.52C761.959 54.328 762.983 51.128 765.031 48.92C767.111 46.68 770.055 45.56 773.863 45.56C775.559 45.56 777.191 45.672 778.759 45.896C779.495 45.992 780.103 46.328 780.583 46.904C781.063 47.48 781.303 48.152 781.303 48.92C781.303 49.56 781.047 50.072 780.535 50.456C780.055 50.84 779.495 50.968 778.855 50.84C777.607 50.584 776.215 50.456 774.679 50.456C772.663 50.456 771.159 51.096 770.167 52.376C769.175 53.656 768.679 55.704 768.679 58.52C768.679 61.4 769.207 63.464 770.263 64.712C771.319 65.96 772.951 66.584 775.159 66.584C776.727 66.584 778.087 66.44 779.239 66.152C779.847 65.992 780.391 66.104 780.871 66.488C781.383 66.872 781.639 67.368 781.639 67.976C781.639 68.744 781.399 69.416 780.919 69.992C780.471 70.568 779.879 70.92 779.143 71.048C777.511 71.336 775.911 71.48 774.343 71.48ZM788.242 51.656C787.602 51.656 787.058 51.432 786.61 50.984C786.162 50.504 785.938 49.944 785.938 49.304C785.938 48.664 786.162 48.12 786.61 47.672C787.058 47.224 787.602 47 788.242 47H790.546C790.834 47 790.978 46.856 790.978 46.568V40.616C790.978 39.88 791.234 39.24 791.746 38.696C792.29 38.152 792.93 37.88 793.666 37.88H794.626C795.362 37.88 796.002 38.152 796.546 38.696C797.09 39.24 797.362 39.88 797.362 40.616V46.568C797.362 46.856 797.506 47 797.794 47H803.266C803.906 47 804.45 47.224 804.898 47.672C805.378 48.12 805.618 48.664 805.618 49.304C805.618 49.944 805.378 50.504 804.898 50.984C804.45 51.432 803.906 51.656 803.266 51.656H797.794C797.506 51.656 797.362 51.784 797.362 52.04V61.736C797.362 63.816 797.586 65.16 798.034 65.768C798.482 66.376 799.41 66.68 800.818 66.68C801.586 66.68 802.162 66.648 802.546 66.584C803.186 66.52 803.746 66.664 804.226 67.016C804.706 67.368 804.946 67.848 804.946 68.456C804.946 69.16 804.706 69.8 804.226 70.376C803.778 70.92 803.218 71.224 802.546 71.288C801.138 71.416 800.082 71.48 799.378 71.48C796.274 71.48 794.098 70.824 792.85 69.512C791.602 68.168 790.978 65.784 790.978 62.36V52.04C790.978 51.784 790.834 51.656 790.546 51.656H788.242Z" fill="white"/>
</g>
<path d="M236.369 104V86.5391H246.845V88.4141H238.478V94.5078H246.048V96.3828H238.478V104H236.369ZM248.678 104V90.8984H250.671V104H248.678ZM249.686 88.7188C249.296 88.7188 248.96 88.5859 248.678 88.3203C248.397 88.0547 248.257 87.7344 248.257 87.3594C248.257 86.9844 248.397 86.6641 248.678 86.3984C248.96 86.1328 249.296 86 249.686 86C250.077 86 250.413 86.1328 250.694 86.3984C250.975 86.6641 251.116 86.9844 251.116 87.3594C251.116 87.7344 250.975 88.0547 250.694 88.3203C250.413 88.5859 250.077 88.7188 249.686 88.7188ZM252.855 104V90.8984H254.777V92.8906H254.918C255.16 92.2422 255.594 91.7188 256.219 91.3203C256.851 90.9141 257.558 90.7109 258.34 90.7109C258.488 90.7109 258.672 90.7148 258.891 90.7227C259.109 90.7227 259.277 90.7266 259.394 90.7344V92.7734C259.324 92.7578 259.168 92.7344 258.926 92.7031C258.683 92.6719 258.426 92.6562 258.152 92.6562C257.519 92.6562 256.953 92.7891 256.453 93.0547C255.953 93.3203 255.558 93.6836 255.269 94.1445C254.988 94.6055 254.848 95.1328 254.848 95.7266V104H252.855ZM269.524 93.8516L267.72 94.3438C267.548 93.8984 267.251 93.4766 266.829 93.0781C266.415 92.6719 265.767 92.4688 264.884 92.4688C264.087 92.4688 263.423 92.6562 262.892 93.0312C262.36 93.3984 262.095 93.8594 262.095 94.4141C262.095 94.9141 262.274 95.3125 262.634 95.6094C263.001 95.9062 263.571 96.1484 264.345 96.3359L266.29 96.8047C267.454 97.0859 268.321 97.5195 268.892 98.1055C269.47 98.6914 269.759 99.4375 269.759 100.344C269.759 101.094 269.544 101.766 269.114 102.359C268.685 102.953 268.087 103.422 267.321 103.766C266.556 104.109 265.665 104.281 264.649 104.281C263.314 104.281 262.208 103.988 261.333 103.402C260.466 102.816 259.915 101.969 259.681 100.859L261.579 100.391C261.759 101.094 262.103 101.621 262.61 101.973C263.126 102.324 263.798 102.5 264.626 102.5C265.556 102.5 266.298 102.301 266.853 101.902C267.415 101.496 267.696 101.016 267.696 100.461C267.696 99.5391 267.048 98.9219 265.751 98.6094L263.571 98.0938C262.368 97.8047 261.485 97.3633 260.923 96.7695C260.36 96.1758 260.079 95.4297 260.079 94.5312C260.079 93.7891 260.286 93.1328 260.7 92.5625C261.122 91.9922 261.696 91.5469 262.423 91.2266C263.149 90.8984 263.97 90.7344 264.884 90.7344C266.189 90.7344 267.208 91.0234 267.942 91.6016C268.685 92.1719 269.212 92.9219 269.524 93.8516ZM276.959 90.8984V92.6094H270.186V90.8984H276.959ZM272.155 87.7812H274.147V100.25C274.147 100.93 274.287 101.43 274.569 101.75C274.85 102.062 275.295 102.219 275.905 102.219C276.037 102.219 276.174 102.211 276.315 102.195C276.463 102.18 276.623 102.156 276.795 102.125L277.217 103.93C277.03 104 276.799 104.055 276.526 104.094C276.26 104.141 275.991 104.164 275.717 104.164C274.662 104.164 273.803 103.852 273.139 103.227C272.483 102.602 272.155 101.789 272.155 100.789V87.7812ZM289.204 104.281C287.946 104.281 286.856 104 285.934 103.438C285.02 102.875 284.317 102.09 283.825 101.082C283.333 100.066 283.087 98.8906 283.087 97.5547C283.087 96.2109 283.329 95.0273 283.813 94.0039C284.298 92.9805 284.977 92.1797 285.852 91.6016C286.735 91.0234 287.766 90.7344 288.946 90.7344C289.626 90.7344 290.301 90.8477 290.973 91.0742C291.645 91.3008 292.255 91.668 292.801 92.1758C293.356 92.6836 293.798 93.3555 294.126 94.1914C294.454 95.0273 294.618 96.0547 294.618 97.2734V98.1406H284.516V96.4062H293.528L292.602 97.0625C292.602 96.1875 292.466 95.4102 292.192 94.7305C291.919 94.0508 291.508 93.5156 290.962 93.125C290.423 92.7344 289.751 92.5391 288.946 92.5391C288.141 92.5391 287.45 92.7383 286.872 93.1367C286.301 93.5273 285.864 94.0391 285.559 94.6719C285.255 95.3047 285.102 95.9844 285.102 96.7109V97.8594C285.102 98.8516 285.274 99.6914 285.618 100.379C285.962 101.066 286.442 101.59 287.059 101.949C287.676 102.301 288.391 102.477 289.204 102.477C289.727 102.477 290.204 102.402 290.633 102.254C291.063 102.098 291.434 101.867 291.747 101.562C292.059 101.25 292.298 100.867 292.462 100.414L294.407 100.977C294.204 101.633 293.86 102.211 293.376 102.711C292.899 103.203 292.305 103.59 291.594 103.871C290.883 104.145 290.087 104.281 289.204 104.281ZM306.342 90.8984L301.514 104H299.451L294.623 90.8984H296.803L300.412 101.352H300.553L304.162 90.8984H306.342ZM312.511 104.281C311.253 104.281 310.163 104 309.241 103.438C308.327 102.875 307.624 102.09 307.132 101.082C306.64 100.066 306.394 98.8906 306.394 97.5547C306.394 96.2109 306.636 95.0273 307.12 94.0039C307.605 92.9805 308.284 92.1797 309.159 91.6016C310.042 91.0234 311.073 90.7344 312.253 90.7344C312.933 90.7344 313.608 90.8477 314.28 91.0742C314.952 91.3008 315.562 91.668 316.108 92.1758C316.663 92.6836 317.105 93.3555 317.433 94.1914C317.761 95.0273 317.925 96.0547 317.925 97.2734V98.1406H307.823V96.4062H316.835L315.909 97.0625C315.909 96.1875 315.773 95.4102 315.499 94.7305C315.226 94.0508 314.816 93.5156 314.269 93.125C313.73 92.7344 313.058 92.5391 312.253 92.5391C311.448 92.5391 310.757 92.7383 310.179 93.1367C309.608 93.5273 309.171 94.0391 308.866 94.6719C308.562 95.3047 308.409 95.9844 308.409 96.7109V97.8594C308.409 98.8516 308.581 99.6914 308.925 100.379C309.269 101.066 309.749 101.59 310.366 101.949C310.983 102.301 311.698 102.477 312.511 102.477C313.034 102.477 313.511 102.402 313.941 102.254C314.37 102.098 314.741 101.867 315.054 101.562C315.366 101.25 315.605 100.867 315.769 100.414L317.714 100.977C317.511 101.633 317.167 102.211 316.683 102.711C316.206 103.203 315.612 103.59 314.901 103.871C314.191 104.145 313.394 104.281 312.511 104.281ZM319.43 104V90.8984H321.352V92.8906H321.492C321.735 92.2422 322.168 91.7188 322.793 91.3203C323.426 90.9141 324.133 90.7109 324.914 90.7109C325.063 90.7109 325.246 90.7148 325.465 90.7227C325.684 90.7227 325.852 90.7266 325.969 90.7344V92.7734C325.899 92.7578 325.742 92.7344 325.5 92.7031C325.258 92.6719 325 92.6562 324.727 92.6562C324.094 92.6562 323.528 92.7891 323.028 93.0547C322.528 93.3203 322.133 93.6836 321.844 94.1445C321.563 94.6055 321.422 95.1328 321.422 95.7266V104H319.43ZM332.331 104V86.5391H342.878V88.4141H334.44V94.25H342.315V96.125H334.44V102.125H342.995V104H332.331ZM350.57 90.8984V92.6094H343.797V90.8984H350.57ZM345.766 87.7812H347.758V100.25C347.758 100.93 347.898 101.43 348.18 101.75C348.461 102.062 348.906 102.219 349.516 102.219C349.648 102.219 349.785 102.211 349.926 102.195C350.074 102.18 350.234 102.156 350.406 102.125L350.828 103.93C350.641 104 350.41 104.055 350.137 104.094C349.871 104.141 349.601 104.164 349.328 104.164C348.273 104.164 347.414 103.852 346.75 103.227C346.094 102.602 345.766 101.789 345.766 100.789V87.7812ZM354.372 96.125V104H352.38V86.5391H354.372V92.9609H354.56C354.864 92.2812 355.321 91.7422 355.931 91.3438C356.548 90.9375 357.372 90.7344 358.403 90.7344C359.294 90.7344 360.075 90.9141 360.747 91.2734C361.419 91.625 361.942 92.168 362.317 92.9023C362.692 93.6289 362.88 94.5547 362.88 95.6797V104H360.864V95.8203C360.864 94.7734 360.595 93.9648 360.056 93.3945C359.517 92.8242 358.771 92.5391 357.817 92.5391C357.153 92.5391 356.564 92.6797 356.048 92.9609C355.532 93.2422 355.122 93.6484 354.817 94.1797C354.521 94.7109 354.372 95.3594 354.372 96.125ZM370.549 104.281C369.291 104.281 368.201 104 367.28 103.438C366.366 102.875 365.662 102.09 365.17 101.082C364.678 100.066 364.432 98.8906 364.432 97.5547C364.432 96.2109 364.674 95.0273 365.158 94.0039C365.643 92.9805 366.323 92.1797 367.198 91.6016C368.08 91.0234 369.112 90.7344 370.291 90.7344C370.971 90.7344 371.647 90.8477 372.319 91.0742C372.991 91.3008 373.6 91.668 374.147 92.1758C374.701 92.6836 375.143 93.3555 375.471 94.1914C375.799 95.0273 375.963 96.0547 375.963 97.2734V98.1406H365.862V96.4062H374.873L373.948 97.0625C373.948 96.1875 373.811 95.4102 373.537 94.7305C373.264 94.0508 372.854 93.5156 372.307 93.125C371.768 92.7344 371.096 92.5391 370.291 92.5391C369.487 92.5391 368.795 92.7383 368.217 93.1367C367.647 93.5273 367.209 94.0391 366.905 94.6719C366.6 95.3047 366.448 95.9844 366.448 96.7109V97.8594C366.448 98.8516 366.619 99.6914 366.963 100.379C367.307 101.066 367.787 101.59 368.405 101.949C369.022 102.301 369.737 102.477 370.549 102.477C371.073 102.477 371.549 102.402 371.979 102.254C372.408 102.098 372.78 101.867 373.092 101.562C373.405 101.25 373.643 100.867 373.807 100.414L375.752 100.977C375.549 101.633 375.205 102.211 374.721 102.711C374.244 103.203 373.651 103.59 372.94 103.871C372.229 104.145 371.432 104.281 370.549 104.281ZM377.468 104V90.8984H379.39V92.8906H379.531C379.773 92.2422 380.207 91.7188 380.832 91.3203C381.464 90.9141 382.171 90.7109 382.953 90.7109C383.101 90.7109 383.285 90.7148 383.503 90.7227C383.722 90.7227 383.89 90.7266 384.007 90.7344V92.7734C383.937 92.7578 383.781 92.7344 383.539 92.7031C383.296 92.6719 383.039 92.6562 382.765 92.6562C382.132 92.6562 381.566 92.7891 381.066 93.0547C380.566 93.3203 380.171 93.6836 379.882 94.1445C379.601 94.6055 379.46 95.1328 379.46 95.7266V104H377.468ZM389.966 104.281C388.708 104.281 387.618 104 386.696 103.438C385.782 102.875 385.079 102.09 384.587 101.082C384.094 100.066 383.848 98.8906 383.848 97.5547C383.848 96.2109 384.091 95.0273 384.575 94.0039C385.059 92.9805 385.739 92.1797 386.614 91.6016C387.497 91.0234 388.528 90.7344 389.708 90.7344C390.387 90.7344 391.063 90.8477 391.735 91.0742C392.407 91.3008 393.016 91.668 393.563 92.1758C394.118 92.6836 394.559 93.3555 394.887 94.1914C395.216 95.0273 395.38 96.0547 395.38 97.2734V98.1406H385.278V96.4062H394.29L393.364 97.0625C393.364 96.1875 393.227 95.4102 392.954 94.7305C392.68 94.0508 392.27 93.5156 391.723 93.125C391.184 92.7344 390.512 92.5391 389.708 92.5391C388.903 92.5391 388.212 92.7383 387.633 93.1367C387.063 93.5273 386.626 94.0391 386.321 94.6719C386.016 95.3047 385.864 95.9844 385.864 96.7109V97.8594C385.864 98.8516 386.036 99.6914 386.38 100.379C386.723 101.066 387.204 101.59 387.821 101.949C388.438 102.301 389.153 102.477 389.966 102.477C390.489 102.477 390.966 102.402 391.395 102.254C391.825 102.098 392.196 101.867 392.508 101.562C392.821 101.25 393.059 100.867 393.223 100.414L395.169 100.977C394.966 101.633 394.622 102.211 394.137 102.711C393.661 103.203 393.067 103.59 392.356 103.871C391.645 104.145 390.848 104.281 389.966 104.281ZM405.135 98.6562V90.8984H407.127V104H405.135V101.773H404.994C404.682 102.438 404.201 103.004 403.553 103.473C402.912 103.941 402.096 104.172 401.103 104.164C400.283 104.164 399.557 103.988 398.924 103.637C398.291 103.277 397.791 102.73 397.424 101.996C397.064 101.262 396.885 100.336 396.885 99.2188V90.8984H398.877V99.1016C398.877 100.047 399.146 100.805 399.685 101.375C400.232 101.945 400.924 102.227 401.76 102.219C402.26 102.219 402.767 102.094 403.283 101.844C403.807 101.586 404.244 101.195 404.596 100.672C404.955 100.141 405.135 99.4688 405.135 98.6562ZM409.312 104V90.8984H411.234V92.9609H411.421C411.694 92.2578 412.136 91.7109 412.745 91.3203C413.355 90.9297 414.085 90.7344 414.937 90.7344C415.796 90.7344 416.511 90.9297 417.081 91.3203C417.659 91.7109 418.109 92.2578 418.429 92.9609H418.569C418.913 92.2812 419.417 91.7422 420.081 91.3438C420.753 90.9375 421.554 90.7344 422.484 90.7344C423.655 90.7344 424.616 91.1016 425.366 91.8359C426.116 92.5625 426.491 93.6953 426.491 95.2344V104H424.476V95.2344C424.476 94.2656 424.21 93.5742 423.679 93.1602C423.148 92.7461 422.523 92.5391 421.804 92.5391C420.89 92.5391 420.179 92.8203 419.671 93.3828C419.171 93.9375 418.921 94.6328 418.921 95.4688V104H416.859V95.0234C416.859 94.2812 416.62 93.6836 416.144 93.2305C415.667 92.7695 415.046 92.5391 414.28 92.5391C413.757 92.5391 413.269 92.6797 412.816 92.9609C412.362 93.2422 411.995 93.6289 411.714 94.1211C411.441 94.6133 411.304 95.1797 411.304 95.8203V104H409.312ZM435.9 96.125V104H433.908V86.5391H435.9V92.9609H436.087C436.392 92.2812 436.849 91.7422 437.459 91.3438C438.076 90.9375 438.9 90.7344 439.931 90.7344C440.822 90.7344 441.603 90.9141 442.275 91.2734C442.947 91.625 443.47 92.168 443.845 92.9023C444.22 93.6289 444.408 94.5547 444.408 95.6797V104H442.392V95.8203C442.392 94.7734 442.123 93.9648 441.584 93.3945C441.044 92.8242 440.298 92.5391 439.345 92.5391C438.681 92.5391 438.091 92.6797 437.576 92.9609C437.06 93.2422 436.65 93.6484 436.345 94.1797C436.048 94.7109 435.9 95.3594 435.9 96.125ZM450.436 104.305C449.608 104.305 448.854 104.148 448.175 103.836C447.495 103.516 446.956 103.055 446.557 102.453C446.159 101.852 445.96 101.125 445.96 100.273C445.96 99.5234 446.108 98.918 446.405 98.457C446.702 97.9883 447.096 97.6211 447.589 97.3555C448.089 97.082 448.635 96.8789 449.229 96.7461C449.831 96.6133 450.436 96.5078 451.046 96.4297C451.842 96.3281 452.487 96.25 452.979 96.1953C453.479 96.1406 453.842 96.0469 454.069 95.9141C454.303 95.7812 454.421 95.5547 454.421 95.2344V95.1641C454.421 94.3281 454.19 93.6797 453.729 93.2188C453.276 92.75 452.585 92.5156 451.655 92.5156C450.702 92.5156 449.952 92.7266 449.405 93.1484C448.858 93.5625 448.475 94.0078 448.257 94.4844L446.335 93.8047C446.678 93.0078 447.135 92.3867 447.706 91.9414C448.284 91.4961 448.909 91.1836 449.581 91.0039C450.26 90.8242 450.928 90.7344 451.585 90.7344C452.007 90.7344 452.491 90.7852 453.038 90.8867C453.585 90.9805 454.116 91.1836 454.632 91.4961C455.155 91.8008 455.585 92.2656 455.921 92.8906C456.264 93.5078 456.436 94.3359 456.436 95.375V104H454.421V102.219H454.327C454.194 102.5 453.967 102.805 453.647 103.133C453.327 103.453 452.901 103.73 452.37 103.965C451.846 104.191 451.202 104.305 450.436 104.305ZM450.741 102.5C451.538 102.5 452.21 102.344 452.757 102.031C453.303 101.719 453.717 101.316 453.999 100.824C454.28 100.324 454.421 99.8047 454.421 99.2656V97.4141C454.335 97.5156 454.147 97.6094 453.858 97.6953C453.577 97.7734 453.249 97.8438 452.874 97.9062C452.507 97.9688 452.147 98.0234 451.796 98.0703C451.444 98.1094 451.163 98.1406 450.952 98.1641C450.428 98.2344 449.94 98.3477 449.487 98.5039C449.034 98.6523 448.667 98.875 448.385 99.1719C448.112 99.4688 447.975 99.875 447.975 100.391C447.975 101.086 448.233 101.613 448.749 101.973C449.272 102.324 449.936 102.5 450.741 102.5ZM463.918 104.281C462.699 104.281 461.644 103.992 460.754 103.414C459.871 102.828 459.187 102.027 458.703 101.012C458.227 99.9961 457.988 98.8359 457.988 97.5312C457.988 96.1953 458.234 95.0195 458.727 94.0039C459.219 92.9805 459.906 92.1797 460.789 91.6016C461.68 91.0234 462.715 90.7344 463.894 90.7344C464.816 90.7344 465.644 90.9062 466.379 91.25C467.121 91.5859 467.727 92.0625 468.195 92.6797C468.672 93.2969 468.965 94.0156 469.074 94.8359H467.059C466.957 94.4375 466.773 94.0625 466.508 93.7109C466.242 93.3594 465.891 93.0781 465.453 92.8672C465.023 92.6484 464.512 92.5391 463.918 92.5391C463.137 92.5391 462.453 92.7422 461.867 93.1484C461.281 93.5547 460.824 94.1289 460.496 94.8711C460.168 95.6055 460.004 96.4688 460.004 97.4609C460.004 98.4688 460.164 99.3516 460.484 100.109C460.805 100.859 461.258 101.441 461.844 101.855C462.437 102.27 463.129 102.477 463.918 102.477C464.707 102.477 465.383 102.273 465.945 101.867C466.508 101.453 466.879 100.891 467.059 100.18H469.074C468.965 100.953 468.684 101.648 468.23 102.266C467.785 102.883 467.195 103.375 466.461 103.742C465.734 104.102 464.887 104.281 463.918 104.281ZM472.454 99.2188L472.407 96.7344H472.829L478.548 90.8984H481.032L474.939 97.0859H474.751L472.454 99.2188ZM470.579 104V86.5391H472.571V104H470.579ZM478.876 104L473.767 97.5312L475.196 96.125L481.454 104H478.876ZM485.959 104.305C485.131 104.305 484.377 104.148 483.698 103.836C483.018 103.516 482.479 103.055 482.08 102.453C481.682 101.852 481.483 101.125 481.483 100.273C481.483 99.5234 481.631 98.918 481.928 98.457C482.225 97.9883 482.619 97.6211 483.112 97.3555C483.612 97.082 484.159 96.8789 484.752 96.7461C485.354 96.6133 485.959 96.5078 486.569 96.4297C487.366 96.3281 488.01 96.25 488.502 96.1953C489.002 96.1406 489.366 96.0469 489.592 95.9141C489.826 95.7812 489.944 95.5547 489.944 95.2344V95.1641C489.944 94.3281 489.713 93.6797 489.252 93.2188C488.799 92.75 488.108 92.5156 487.178 92.5156C486.225 92.5156 485.475 92.7266 484.928 93.1484C484.381 93.5625 483.998 94.0078 483.78 94.4844L481.858 93.8047C482.201 93.0078 482.659 92.3867 483.229 91.9414C483.807 91.4961 484.432 91.1836 485.104 91.0039C485.784 90.8242 486.451 90.7344 487.108 90.7344C487.53 90.7344 488.014 90.7852 488.561 90.8867C489.108 90.9805 489.639 91.1836 490.155 91.4961C490.678 91.8008 491.108 92.2656 491.444 92.8906C491.787 93.5078 491.959 94.3359 491.959 95.375V104H489.944V102.219H489.85C489.717 102.5 489.491 102.805 489.17 103.133C488.85 103.453 488.424 103.73 487.893 103.965C487.369 104.191 486.725 104.305 485.959 104.305ZM486.264 102.5C487.061 102.5 487.733 102.344 488.28 102.031C488.826 101.719 489.241 101.316 489.522 100.824C489.803 100.324 489.944 99.8047 489.944 99.2656V97.4141C489.858 97.5156 489.67 97.6094 489.381 97.6953C489.1 97.7734 488.772 97.8438 488.397 97.9062C488.03 97.9688 487.67 98.0234 487.319 98.0703C486.967 98.1094 486.686 98.1406 486.475 98.1641C485.951 98.2344 485.463 98.3477 485.01 98.5039C484.557 98.6523 484.19 98.875 483.909 99.1719C483.635 99.4688 483.498 99.875 483.498 100.391C483.498 101.086 483.756 101.613 484.272 101.973C484.795 102.324 485.459 102.5 486.264 102.5ZM499.816 90.8984V92.6094H493.043V90.8984H499.816ZM495.011 87.7812H497.003V100.25C497.003 100.93 497.144 101.43 497.425 101.75C497.707 102.062 498.152 102.219 498.761 102.219C498.894 102.219 499.031 102.211 499.171 102.195C499.32 102.18 499.48 102.156 499.652 102.125L500.074 103.93C499.886 104 499.656 104.055 499.382 104.094C499.117 104.141 498.847 104.164 498.574 104.164C497.519 104.164 496.66 103.852 495.996 103.227C495.339 102.602 495.011 101.789 495.011 100.789V87.7812ZM503.618 96.125V104H501.626V86.5391H503.618V92.9609H503.805C504.11 92.2812 504.567 91.7422 505.176 91.3438C505.794 90.9375 506.618 90.7344 507.649 90.7344C508.54 90.7344 509.321 90.9141 509.993 91.2734C510.665 91.625 511.188 92.168 511.563 92.9023C511.938 93.6289 512.126 94.5547 512.126 95.6797V104H510.11V95.8203C510.11 94.7734 509.841 93.9648 509.301 93.3945C508.762 92.8242 508.016 92.5391 507.063 92.5391C506.399 92.5391 505.809 92.6797 505.294 92.9609C504.778 93.2422 504.368 93.6484 504.063 94.1797C503.766 94.7109 503.618 95.3594 503.618 96.125ZM519.607 104.281C518.428 104.281 517.393 104 516.502 103.438C515.611 102.875 514.916 102.086 514.416 101.07C513.924 100.055 513.678 98.875 513.678 97.5312C513.678 96.1641 513.924 94.9727 514.416 93.957C514.916 92.9336 515.611 92.1406 516.502 91.5781C517.393 91.0156 518.428 90.7344 519.607 90.7344C520.795 90.7344 521.834 91.0156 522.725 91.5781C523.615 92.1406 524.31 92.9336 524.81 93.957C525.31 94.9727 525.56 96.1641 525.56 97.5312C525.56 98.875 525.31 100.055 524.81 101.07C524.31 102.086 523.615 102.875 522.725 103.438C521.834 104 520.795 104.281 519.607 104.281ZM519.607 102.477C520.514 102.477 521.256 102.246 521.834 101.785C522.412 101.324 522.842 100.719 523.123 99.9688C523.404 99.2109 523.545 98.3984 523.545 97.5312C523.545 96.6484 523.404 95.8281 523.123 95.0703C522.842 94.3125 522.412 93.7031 521.834 93.2422C521.256 92.7734 520.514 92.5391 519.607 92.5391C518.717 92.5391 517.982 92.7734 517.404 93.2422C516.826 93.7031 516.396 94.3125 516.115 95.0703C515.834 95.8281 515.693 96.6484 515.693 97.5312C515.693 98.3984 515.834 99.2109 516.115 99.9688C516.396 100.719 516.826 101.324 517.404 101.785C517.982 102.246 518.717 102.477 519.607 102.477ZM529.105 96.125V104H527.112V90.8984H529.034V92.9609H529.222C529.526 92.2891 529.991 91.75 530.616 91.3438C531.241 90.9375 532.05 90.7344 533.042 90.7344C533.925 90.7344 534.698 90.9141 535.362 91.2734C536.026 91.6328 536.542 92.1797 536.909 92.9141C537.284 93.6406 537.472 94.5625 537.472 95.6797V104H535.48V95.8203C535.48 94.7969 535.21 93.9961 534.671 93.418C534.132 92.832 533.398 92.5391 532.468 92.5391C531.827 92.5391 531.253 92.6797 530.745 92.9609C530.237 93.2422 529.835 93.6484 529.538 94.1797C529.249 94.7109 529.105 95.3594 529.105 96.125ZM544.888 104V90.8984H546.88V104H544.888ZM545.896 88.7188C545.505 88.7188 545.169 88.5859 544.888 88.3203C544.607 88.0547 544.466 87.7344 544.466 87.3594C544.466 86.9844 544.607 86.6641 544.888 86.3984C545.169 86.1328 545.505 86 545.896 86C546.287 86 546.623 86.1328 546.904 86.3984C547.185 86.6641 547.326 86.9844 547.326 87.3594C547.326 87.7344 547.185 88.0547 546.904 88.3203C546.623 88.5859 546.287 88.7188 545.896 88.7188ZM551.057 96.125V104H549.065V90.8984H550.987V92.9609H551.175C551.479 92.2891 551.944 91.75 552.569 91.3438C553.194 90.9375 554.003 90.7344 554.995 90.7344C555.878 90.7344 556.651 90.9141 557.315 91.2734C557.979 91.6328 558.495 92.1797 558.862 92.9141C559.237 93.6406 559.425 94.5625 559.425 95.6797V104H557.432V95.8203C557.432 94.7969 557.163 93.9961 556.624 93.418C556.085 92.832 555.35 92.5391 554.421 92.5391C553.78 92.5391 553.206 92.6797 552.698 92.9609C552.19 93.2422 551.788 93.6484 551.491 94.1797C551.202 94.7109 551.057 95.3594 551.057 96.125ZM567.099 86.5391H569.63L575.56 101.023H575.771L581.7 86.5391H584.314V104H582.239V90.7344H582.075L576.579 104H574.681L569.255 90.7344H569.091V104H567.099V86.5391ZM595.018 98.6562V90.8984H597.01V104H595.018V101.773H594.877C594.565 102.438 594.084 103.004 593.436 103.473C592.795 103.941 591.979 104.172 590.987 104.164C590.166 104.164 589.44 103.988 588.807 103.637C588.174 103.277 587.674 102.73 587.307 101.996C586.948 101.262 586.768 100.336 586.768 99.2188V90.8984H588.76V99.1016C588.76 100.047 589.03 100.805 589.569 101.375C590.116 101.945 590.807 102.227 591.643 102.219C592.143 102.219 592.651 102.094 593.166 101.844C593.69 101.586 594.127 101.195 594.479 100.672C594.838 100.141 595.018 99.4688 595.018 98.6562ZM599.195 104V90.8984H601.117V92.9609H601.304C601.578 92.2578 602.019 91.7109 602.628 91.3203C603.238 90.9297 603.968 90.7344 604.82 90.7344C605.679 90.7344 606.394 90.9297 606.964 91.3203C607.543 91.7109 607.992 92.2578 608.312 92.9609H608.453C608.796 92.2812 609.3 91.7422 609.964 91.3438C610.636 90.9375 611.437 90.7344 612.367 90.7344C613.539 90.7344 614.5 91.1016 615.25 91.8359C616 92.5625 616.375 93.6953 616.375 95.2344V104H614.359V95.2344C614.359 94.2656 614.093 93.5742 613.562 93.1602C613.031 92.7461 612.406 92.5391 611.687 92.5391C610.773 92.5391 610.062 92.8203 609.554 93.3828C609.054 93.9375 608.804 94.6328 608.804 95.4688V104H606.742V95.0234C606.742 94.2812 606.503 93.6836 606.027 93.2305C605.55 92.7695 604.929 92.5391 604.164 92.5391C603.64 92.5391 603.152 92.6797 602.699 92.9609C602.246 93.2422 601.878 93.6289 601.597 94.1211C601.324 94.6133 601.187 95.1797 601.187 95.8203V104H599.195ZM624.536 104.281C623.7 104.281 623.028 104.141 622.52 103.859C622.012 103.57 621.622 103.246 621.348 102.887C621.075 102.52 620.864 102.219 620.716 101.984H620.481V104H618.559V86.5391H620.552V92.9844H620.716C620.864 92.7578 621.071 92.4688 621.337 92.1172C621.602 91.7578 621.985 91.4375 622.485 91.1562C622.985 90.875 623.661 90.7344 624.512 90.7344C625.614 90.7344 626.583 91.0117 627.419 91.5664C628.255 92.1133 628.907 92.8945 629.376 93.9102C629.852 94.918 630.091 96.1094 630.091 97.4844C630.091 98.8672 629.856 100.07 629.387 101.094C628.919 102.109 628.266 102.895 627.43 103.449C626.594 104.004 625.63 104.281 624.536 104.281ZM624.278 102.477C625.114 102.477 625.813 102.254 626.376 101.809C626.938 101.355 627.36 100.75 627.641 99.9922C627.93 99.2344 628.075 98.3906 628.075 97.4609C628.075 96.5391 627.934 95.707 627.653 94.9648C627.372 94.2227 626.95 93.6328 626.387 93.1953C625.833 92.7578 625.13 92.5391 624.278 92.5391C623.458 92.5391 622.77 92.7461 622.216 93.1602C621.661 93.5664 621.239 94.1406 620.95 94.8828C620.669 95.6172 620.528 96.4766 620.528 97.4609C620.528 98.4453 620.673 99.3164 620.962 100.074C621.251 100.824 621.673 101.414 622.227 101.844C622.79 102.266 623.473 102.477 624.278 102.477ZM635.486 104.305C634.658 104.305 633.904 104.148 633.225 103.836C632.545 103.516 632.006 103.055 631.607 102.453C631.209 101.852 631.01 101.125 631.01 100.273C631.01 99.5234 631.158 98.918 631.455 98.457C631.752 97.9883 632.146 97.6211 632.639 97.3555C633.139 97.082 633.685 96.8789 634.279 96.7461C634.881 96.6133 635.486 96.5078 636.096 96.4297C636.893 96.3281 637.537 96.25 638.029 96.1953C638.529 96.1406 638.893 96.0469 639.119 95.9141C639.353 95.7812 639.471 95.5547 639.471 95.2344V95.1641C639.471 94.3281 639.24 93.6797 638.779 93.2188C638.326 92.75 637.635 92.5156 636.705 92.5156C635.752 92.5156 635.002 92.7266 634.455 93.1484C633.908 93.5625 633.525 94.0078 633.307 94.4844L631.385 93.8047C631.728 93.0078 632.185 92.3867 632.756 91.9414C633.334 91.4961 633.959 91.1836 634.631 91.0039C635.31 90.8242 635.978 90.7344 636.635 90.7344C637.057 90.7344 637.541 90.7852 638.088 90.8867C638.635 90.9805 639.166 91.1836 639.682 91.4961C640.205 91.8008 640.635 92.2656 640.971 92.8906C641.314 93.5078 641.486 94.3359 641.486 95.375V104H639.471V102.219H639.377C639.244 102.5 639.018 102.805 638.697 103.133C638.377 103.453 637.951 103.73 637.42 103.965C636.896 104.191 636.252 104.305 635.486 104.305ZM635.791 102.5C636.588 102.5 637.26 102.344 637.807 102.031C638.353 101.719 638.768 101.316 639.049 100.824C639.33 100.324 639.471 99.8047 639.471 99.2656V97.4141C639.385 97.5156 639.197 97.6094 638.908 97.6953C638.627 97.7734 638.299 97.8438 637.924 97.9062C637.557 97.9688 637.197 98.0234 636.846 98.0703C636.494 98.1094 636.213 98.1406 636.002 98.1641C635.478 98.2344 634.99 98.3477 634.537 98.5039C634.084 98.6523 633.717 98.875 633.435 99.1719C633.162 99.4688 633.025 99.875 633.025 100.391C633.025 101.086 633.283 101.613 633.799 101.973C634.322 102.324 634.986 102.5 635.791 102.5ZM643.671 104V90.8984H645.663V104H643.671ZM644.679 88.7188C644.288 88.7188 643.952 88.5859 643.671 88.3203C643.39 88.0547 643.249 87.7344 643.249 87.3594C643.249 86.9844 643.39 86.6641 643.671 86.3984C643.952 86.1328 644.288 86 644.679 86C645.069 86 645.405 86.1328 645.687 86.3984C645.968 86.6641 646.109 86.9844 646.109 87.3594C646.109 87.7344 645.968 88.0547 645.687 88.3203C645.405 88.5859 645.069 88.7188 644.679 88.7188Z" fill="#F3F3F3"/>
<path d="M57.6746 16V54.0867L25.8861 68.4677L57.6746 16Z" fill="#62D0FC"/>
<path d="M89.4506 68.4677L57.6747 54.0867V16L89.4506 68.4677Z" fill="#1EABE4"/>
<path d="M57.6746 87.1507V54.0869L25.886 68.4679L57.6746 87.1507Z" fill="#1EABE4"/>
<path d="M89.4506 68.4679L57.6747 54.0869V87.1507L89.4506 68.4679Z" fill="#0075A5"/>
<path d="M77.2993 80.8156H38.0441L57.6808 92.4316L77.2993 80.8156Z" fill="#E91F25"/>
<path d="M89.4758 74.4598L57.6747 93.1426V119.01L89.4758 74.4598Z" fill="#1EABE4"/>
<path d="M25.886 74.4598L57.6746 93.1426V119.01L25.886 74.4598Z" fill="#62D0FC"/>
<path d="M77.2882 51.042H38.0714V72.6864H77.2882V51.042Z" fill="#E91F25"/>
<path d="M77.285 51.042H57.6829V72.6864H77.285V51.042Z" fill="#BF0613"/>
<path d="M40.4821 53.3688H56.094C56.3549 53.3688 56.5654 53.5793 56.5654 53.8377V63.3615H40.4821C40.2212 63.3615 40.0107 63.151 40.0107 62.8925V53.8388C40.0107 53.5793 40.2223 53.3698 40.4821 53.3698V53.3688Z" fill="black"/>
<path d="M59.315 53.3689H74.9269C75.1878 53.3689 75.3983 53.5794 75.3983 53.8378V62.8916C75.3983 63.1511 75.1867 63.3606 74.9269 63.3606H58.8436V53.8368C58.8436 53.5773 59.0552 53.3679 59.315 53.3679V53.3689Z" fill="black"/>
<path d="M40.4976 64.458H56.5653V68.443C56.5653 68.7108 56.3463 68.9286 56.0771 68.9286H40.4976C40.2284 68.9286 40.0095 68.7108 40.0095 68.443V64.9426C40.0095 64.6748 40.2284 64.457 40.4976 64.457V64.458Z" fill="black"/>
<path d="M58.8427 64.458H74.9092C75.1785 64.458 75.3974 64.6758 75.3974 64.9436V68.442C75.3974 68.7098 75.1785 68.9276 74.9092 68.9276H59.3308C59.0616 68.9276 58.8427 68.7098 58.8427 68.442V64.457V64.458Z" fill="black"/>
<path fill-rule="evenodd" clip-rule="evenodd" d="M38.0596 51.1031L77.2922 51.0927C77.1916 49.1961 77.4692 47.5068 75.8224 46.373C74.3998 45.3945 72.6839 45.0485 70.6537 44.7182C63.855 43.6125 51.6623 43.6115 44.851 44.714C43.0408 45.0068 40.8661 45.4393 39.6519 46.3418C38.4451 47.239 37.9528 48.8063 38.0586 51.1021L38.0596 51.1031Z" fill="white"/>
<path fill-rule="evenodd" clip-rule="evenodd" d="M57.6776 51.098L77.2913 51.0928C77.1907 49.1962 77.4683 47.5069 75.8216 46.3731C74.399 45.3946 72.683 45.0486 70.6529 44.7183C67.2535 44.1649 62.4231 43.8887 57.6735 43.8877L57.6766 51.097L57.6776 51.098Z" fill="#E3E6E8"/>
<path d="M59.6346 46.1909H47.5341C47.3021 46.1909 47.114 46.378 47.114 46.6088V48.99C47.114 49.2208 47.3021 49.4079 47.5341 49.4079H59.6346C59.8666 49.4079 60.0546 49.2208 60.0546 48.99V46.6088C60.0546 46.378 59.8666 46.1909 59.6346 46.1909Z" fill="#020100"/>
<path d="M68.3838 45.7284H65.1646C64.9326 45.7284 64.7445 45.9155 64.7445 46.1463V49.4518C64.7445 49.6826 64.9326 49.8697 65.1646 49.8697H68.3838C68.6158 49.8697 68.8038 49.6826 68.8038 49.4518V46.1463C68.8038 45.9155 68.6158 45.7284 68.3838 45.7284Z" fill="#020100"/>
<path fill-rule="evenodd" clip-rule="evenodd" d="M77.2923 75.5886L72.9051 75.7804C68.0705 75.9919 63.6173 76.6912 60.8821 80.6001L57.6734 85.1843L54.4668 80.5959C51.7232 76.6703 47.249 75.9659 42.3946 75.7668L38.0671 75.5886V72.6041H77.2923V75.5886Z" fill="#FBCE01"/>
<path fill-rule="evenodd" clip-rule="evenodd" d="M57.6818 72.6041H77.2934V75.5886L72.9062 75.7804C68.0716 75.9919 63.6184 76.6912 60.8832 80.6001L57.6745 85.1843L57.6818 72.6041Z" fill="#F9BE03"/>
<path d="M61.1494 75.2164H54.2123C54.0384 75.2164 53.8981 75.0767 53.8981 74.9038C53.8981 74.7308 54.0384 74.5911 54.2123 74.5911H61.1494C61.3232 74.5911 61.4636 74.7308 61.4636 74.9038C61.4636 75.0767 61.3232 75.2164 61.1494 75.2164Z" fill="black"/>
<path d="M61.1494 76.8505H54.2123C54.0384 76.8505 53.8981 76.7108 53.8981 76.5379C53.8981 76.3649 54.0384 76.2252 54.2123 76.2252H61.1494C61.3232 76.2252 61.4636 76.3649 61.4636 76.5379C61.4636 76.7108 61.3232 76.8505 61.1494 76.8505Z" fill="black"/>
<path d="M61.1494 78.4848H54.2123C54.0384 78.4848 53.8981 78.3452 53.8981 78.1722C53.8981 77.9992 54.0384 77.8596 54.2123 77.8596H61.1494C61.3232 77.8596 61.4636 77.9992 61.4636 78.1722C61.4636 78.3452 61.3232 78.4848 61.1494 78.4848Z" fill="black"/>
<path d="M77.2882 71.3578H38.0714V73.1106H77.2882V71.3578Z" fill="#029D3D"/>
<path d="M77.2944 71.3578H57.6797V73.1106H77.2944V71.3578Z" fill="#07702C"/>
<path d="M49.2132 80.6186C50 80.6186 50.6379 79.984 50.6379 79.2013C50.6379 78.4186 50 77.7841 49.2132 77.7841C48.4264 77.7841 47.7885 78.4186 47.7885 79.2013C47.7885 79.984 48.4264 80.6186 49.2132 80.6186Z" fill="white"/>
<path d="M66.1474 80.6185C66.9342 80.6185 67.572 79.984 67.572 79.2013C67.572 78.4185 66.9342 77.784 66.1474 77.784C65.3605 77.784 64.7227 78.4185 64.7227 79.2013C64.7227 79.984 65.3605 80.6185 66.1474 80.6185Z" fill="white"/>
<path d="M37.4343 59.0736H35.1297C34.7669 59.0736 34.4728 59.3661 34.4728 59.727V63.6807C34.4728 64.0416 34.7669 64.3341 35.1297 64.3341H37.4343C37.7971 64.3341 38.0911 64.0416 38.0911 63.6807V59.727C38.0911 59.3661 37.7971 59.0736 37.4343 59.0736Z" fill="#020100"/>
<path d="M80.2288 59.0736H77.9241C77.5613 59.0736 77.2673 59.3661 77.2673 59.727V63.6807C77.2673 64.0416 77.5613 64.3341 77.9241 64.3341H80.2288C80.5915 64.3341 80.8856 64.0416 80.8856 63.6807V59.727C80.8856 59.3661 80.5915 59.0736 80.2288 59.0736Z" fill="#020100"/>
<path d="M818.277 16V54.0867L786.489 68.4677L818.277 16Z" fill="#62D0FC"/>
<path d="M850.053 68.4677L818.277 54.0867V16L850.053 68.4677Z" fill="#1EABE4"/>
<path d="M818.277 87.1507V54.0869L786.489 68.4679L818.277 87.1507Z" fill="#1EABE4"/>
<path d="M850.053 68.4679L818.277 54.0869V87.1507L850.053 68.4679Z" fill="#0075A5"/>
<path d="M837.902 80.8156H798.647L818.283 92.4316L837.902 80.8156Z" fill="#E91F25"/>
<path d="M850.078 74.4598L818.277 93.1426V119.01L850.078 74.4598Z" fill="#1EABE4"/>
<path d="M786.489 74.4598L818.277 93.1426V119.01L786.489 74.4598Z" fill="#62D0FC"/>
<path d="M837.891 51.042H798.674V72.6864H837.891V51.042Z" fill="#E91F25"/>
<path d="M837.887 51.042H818.285V72.6864H837.887V51.042Z" fill="#BF0613"/>
<path d="M801.085 53.3688H816.696C816.957 53.3688 817.168 53.5793 817.168 53.8377V63.3615H801.085C800.824 63.3615 800.613 63.151 800.613 62.8925V53.8388C800.613 53.5793 800.825 53.3698 801.085 53.3698V53.3688Z" fill="black"/>
<path d="M819.917 53.3689H835.529C835.79 53.3689 836.001 53.5794 836.001 53.8378V62.8916C836.001 63.1511 835.789 63.3606 835.529 63.3606H819.446V53.8368C819.446 53.5773 819.658 53.3679 819.917 53.3679V53.3689Z" fill="black"/>
<path d="M801.1 64.458H817.168V68.443C817.168 68.7108 816.949 68.9286 816.68 68.9286H801.1C800.831 68.9286 800.612 68.7108 800.612 68.443V64.9426C800.612 64.6748 800.831 64.457 801.1 64.457V64.458Z" fill="black"/>
<path d="M819.445 64.458H835.512C835.781 64.458 836 64.6758 836 64.9436V68.442C836 68.7098 835.781 68.9276 835.512 68.9276H819.933C819.664 68.9276 819.445 68.7098 819.445 68.442V64.457V64.458Z" fill="black"/>
<path fill-rule="evenodd" clip-rule="evenodd" d="M798.662 51.1031L837.895 51.0927C837.794 49.1961 838.072 47.5068 836.425 46.373C835.002 45.3945 833.286 45.0485 831.256 44.7182C824.457 43.6125 812.265 43.6115 805.454 44.714C803.643 45.0068 801.469 45.4393 800.254 46.3418C799.048 47.239 798.555 48.8063 798.661 51.1021L798.662 51.1031Z" fill="white"/>
<path fill-rule="evenodd" clip-rule="evenodd" d="M818.28 51.098L837.894 51.0928C837.793 49.1962 838.071 47.5069 836.424 46.3731C835.001 45.3946 833.286 45.0486 831.255 44.7183C827.856 44.1649 823.026 43.8887 818.276 43.8877L818.279 51.097L818.28 51.098Z" fill="#E3E6E8"/>
<path d="M820.237 46.1909H808.137C807.905 46.1909 807.716 46.378 807.716 46.6088V48.99C807.716 49.2208 807.905 49.4079 808.137 49.4079H820.237C820.469 49.4079 820.657 49.2208 820.657 48.99V46.6088C820.657 46.378 820.469 46.1909 820.237 46.1909Z" fill="#020100"/>
<path d="M828.986 45.7284H825.767C825.535 45.7284 825.347 45.9155 825.347 46.1463V49.4518C825.347 49.6826 825.535 49.8697 825.767 49.8697H828.986C829.218 49.8697 829.406 49.6826 829.406 49.4518V46.1463C829.406 45.9155 829.218 45.7284 828.986 45.7284Z" fill="#020100"/>
<path fill-rule="evenodd" clip-rule="evenodd" d="M837.895 75.5886L833.508 75.7804C828.673 75.9919 824.22 76.6912 821.485 80.6001L818.276 85.1843L815.069 80.5959C812.326 76.6703 807.852 75.9659 802.997 75.7668L798.67 75.5886V72.6041H837.895V75.5886Z" fill="#FBCE01"/>
<path fill-rule="evenodd" clip-rule="evenodd" d="M818.284 72.6041H837.896V75.5886L833.509 75.7804C828.674 75.9919 824.221 76.6912 821.486 80.6001L818.277 85.1843L818.284 72.6041Z" fill="#F9BE03"/>
<path d="M821.752 75.2164H814.815C814.641 75.2164 814.501 75.0767 814.501 74.9038C814.501 74.7308 814.641 74.5911 814.815 74.5911H821.752C821.926 74.5911 822.066 74.7308 822.066 74.9038C822.066 75.0767 821.926 75.2164 821.752 75.2164Z" fill="black"/>
<path d="M821.752 76.8505H814.815C814.641 76.8505 814.501 76.7108 814.501 76.5379C814.501 76.3649 814.641 76.2252 814.815 76.2252H821.752C821.926 76.2252 822.066 76.3649 822.066 76.5379C822.066 76.7108 821.926 76.8505 821.752 76.8505Z" fill="black"/>
<path d="M821.752 78.4848H814.815C814.641 78.4848 814.501 78.3452 814.501 78.1722C814.501 77.9992 814.641 77.8596 814.815 77.8596H821.752C821.926 77.8596 822.066 77.9992 822.066 78.1722C822.066 78.3452 821.926 78.4848 821.752 78.4848Z" fill="black"/>
<path d="M837.891 71.3578H798.674V73.1106H837.891V71.3578Z" fill="#029D3D"/>
<path d="M837.897 71.3578H818.282V73.1106H837.897V71.3578Z" fill="#07702C"/>
<path d="M809.816 80.6186C810.603 80.6186 811.24 79.984 811.24 79.2013C811.24 78.4186 810.603 77.7841 809.816 77.7841C809.029 77.7841 808.391 78.4186 808.391 79.2013C808.391 79.984 809.029 80.6186 809.816 80.6186Z" fill="white"/>
<path d="M826.75 80.6185C827.537 80.6185 828.175 79.984 828.175 79.2013C828.175 78.4185 827.537 77.784 826.75 77.784C825.963 77.784 825.325 78.4185 825.325 79.2013C825.325 79.984 825.963 80.6185 826.75 80.6185Z" fill="white"/>
<path d="M798.037 59.0736H795.732C795.369 59.0736 795.075 59.3661 795.075 59.727V63.6807C795.075 64.0416 795.369 64.3341 795.732 64.3341H798.037C798.4 64.3341 798.694 64.0416 798.694 63.6807V59.727C798.694 59.3661 798.4 59.0736 798.037 59.0736Z" fill="#020100"/>
<path d="M840.831 59.0736H838.527C838.164 59.0736 837.87 59.3661 837.87 59.727V63.6807C837.87 64.0416 838.164 64.3341 838.527 64.3341H840.831C841.194 64.3341 841.488 64.0416 841.488 63.6807V59.727C841.488 59.3661 841.194 59.0736 840.831 59.0736Z" fill="#020100"/>
<line x1="277" y1="97.5" x2="281" y2="97.5" stroke="white"/>
<defs>
<clipPath id="clip0_1_167">
<rect width="456" height="48" fill="white" transform="translate(190 32)"/>
</clipPath>
</defs>
</svg>
