<svg width="22" height="21" viewBox="0 0 22 21" fill="none" xmlns="http://www.w3.org/2000/svg">
<path d="M9.71519 0.0514785C13.2627 -0.249948 17.5524 0.80261 20.6604 2.41645C21.8101 2.99771 21.7208 3.37359 21.14 4.37265C17.9739 9.819 14.5838 15.1668 11.444 20.6265C11.2932 20.7717 11.0881 20.9546 10.8741 20.9917C10.7115 21.0198 10.5573 20.9752 10.4244 20.8821C10.1765 20.7087 10.0165 20.429 9.8593 20.1813C8.97352 18.7856 8.19073 17.3266 7.34194 15.9089C6.54334 14.5751 0.0919955 4.0617 0.00488974 3.43139C-0.0226708 3.23188 0.0696573 3.05565 0.196726 2.90575C1.05778 1.89003 5.17053 0.675504 6.47726 0.424045C7.54219 0.219165 8.6354 0.147531 9.71519 0.0514785ZM11.0622 18.4279C11.8912 17.2289 12.4987 15.9198 13.2077 14.8744C14.9516 11.992 16.9916 8.73236 18.6317 5.80293C17.7806 5.75084 17.2721 5.71471 16.4496 5.51251C13.8278 4.86795 11.3566 3.49216 8.58434 3.71433C8.12988 3.83677 7.06909 4.01166 6.8275 4.42721C6.5833 4.84713 8.32339 9.8821 8.56708 10.6214C9.42327 13.219 10.165 15.8414 11.0622 18.4279ZM8.47344 15.075C7.96176 12.9614 7.09157 10.6751 6.47784 8.54533C6.27281 7.90134 4.93554 4.28097 5.36998 3.78935C7.24809 1.66391 10.9719 2.20677 13.3665 3.07294C14.6783 3.53443 18.7788 5.10585 19.6952 3.85414C19.6915 3.70254 19.679 3.5688 19.528 3.48256C16.9428 2.00599 13.1734 1.31837 10.3405 1.43927C10.2354 1.444 10.1306 1.45183 10.0261 1.46291C7.29973 1.59877 4.35307 2.1206 1.96626 3.53055C1.94203 3.54481 1.86588 3.66027 1.84753 3.69054C1.99483 4.41351 7.67673 13.954 8.47344 15.075Z" fill="url(#paint0_linear_2277_167)"/>
<defs>
<linearGradient id="paint0_linear_2277_167" x1="10.8393" y1="0.14005" x2="10.4735" y2="20.8364" gradientUnits="userSpaceOnUse">
<stop stop-color="#52974D"/>
<stop offset="1" stop-color="#7BB37A"/>
</linearGradient>
</defs>
</svg>
