<svg width="98" height="21" viewBox="0 0 98 21" fill="none" xmlns="http://www.w3.org/2000/svg">
<g clip-path="url(#clip0_2277_156)">
<path d="M8.92432 7.14844L6.33236 16.9954H0L1.28402 12.1511L8.92432 7.14844Z" fill="white"/>
<path d="M22.4025 4.02148C23.8859 4.0294 24.9307 4.35394 25.5208 5.01093C26.111 5.66792 26.2546 6.60196 25.9276 7.82887C25.7122 8.66792 25.2736 9.43573 24.6595 10.0452C24.0215 10.6785 23.2399 11.1376 22.3706 11.375C23.0326 11.5254 23.4393 11.9925 23.5669 12.7919L23.5908 12.9661L24.0693 16.9951H21.1185L20.624 12.6574C20.616 12.5149 20.5762 12.3724 20.5044 12.2458C20.4326 12.1191 20.3289 12.0162 20.2093 11.9371C19.9621 11.8104 19.6909 11.7471 19.4118 11.7392H19.2443H17.4259L16.0382 16.9872H13.2788L16.7082 4.02148H22.4025ZM98 7.41726L94.4909 12.4357L90.3517 18.3882L90.3198 18.4199L89.3947 19.7497L89.3628 19.7972L89.3229 19.8605L88.5254 21.0004H85.7819L88.988 16.5123L87.5365 7.73389H90.3836L91.1014 13.4568L94.5786 8.55711L94.6265 8.48586L94.6823 8.40671L94.7381 8.33547L95.1688 7.42518H98V7.41726ZM73.6914 8.11383C74.2178 8.5571 74.5607 9.1666 74.6803 9.84734C74.8239 10.6943 74.7601 11.5729 74.5129 12.3962C74.2816 13.3064 73.8908 14.1613 73.3485 14.9212C72.854 15.6178 72.216 16.1956 71.4743 16.6072C70.7725 16.9872 69.9989 17.1851 69.2013 17.1851C68.6351 17.2088 68.0768 17.0663 67.5903 16.7814C67.2155 16.5597 66.9284 16.2194 66.7689 15.8157L66.721 15.6574L65.3094 21.0004H62.5739L65.3732 10.3935L65.3892 10.346L65.3971 10.2985L66.083 7.72597H68.7547L68.3001 9.2141L68.2922 9.27742C68.6829 8.72333 69.2093 8.27214 69.8154 7.97927C70.4216 7.66265 71.0915 7.50433 71.7694 7.50433C72.4473 7.46476 73.1331 7.68639 73.6914 8.11383ZM70.3897 9.58613C70.0706 9.57821 69.7516 9.64154 69.4486 9.76027C69.1535 9.879 68.8823 10.0611 68.651 10.2827C68.1087 10.8368 67.7339 11.5413 67.5664 12.2933C67.3271 13.1719 67.3431 13.8368 67.5824 14.2959C67.8216 14.755 68.2762 14.9925 68.9541 14.9925C69.6001 15.0083 70.2222 14.7629 70.6927 14.3117C71.2191 13.7655 71.5859 13.0848 71.7534 12.3407C71.9847 11.4779 71.9688 10.7893 71.7295 10.3064C71.4902 9.8236 71.0436 9.58613 70.3897 9.58613ZM82.6716 7.90803C83.0384 8.13758 83.3255 8.47795 83.485 8.88164L83.5409 9.03204L83.8918 7.71805H86.5715L84.1151 16.9793H81.4274L81.7863 15.6099C81.3796 16.0927 80.8691 16.4727 80.2949 16.7339C79.7367 16.9872 79.1385 17.1217 78.5324 17.1217C77.8306 17.1534 77.1287 16.9555 76.5545 16.536C76.0282 16.1244 75.6772 15.5228 75.5656 14.8658C75.422 14.0268 75.4699 13.1719 75.7171 12.3566C75.9564 11.4463 76.3551 10.5835 76.9054 9.81568C77.4079 9.11119 78.0539 8.51753 78.8035 8.09009C79.4894 7.69431 80.271 7.48059 81.0605 7.48059C81.6348 7.46476 82.193 7.60724 82.6716 7.90803ZM81.2839 9.60988C80.9569 9.60988 80.6299 9.6732 80.3348 9.79985C80.0317 9.9265 79.7606 10.1086 79.5293 10.3381C78.995 10.9001 78.6121 11.5967 78.4447 12.3566C78.2214 13.2115 78.2214 13.8605 78.4766 14.3276C78.7238 14.7946 79.1864 15.0162 79.8722 15.0162C80.1912 15.0241 80.5103 14.9608 80.8133 14.8421C81.1164 14.7233 81.3796 14.5413 81.6108 14.3196C82.0814 13.821 82.4243 13.2273 82.6157 12.5624L82.6795 12.317C82.9188 11.4384 82.9108 10.7655 82.6556 10.3144C82.4084 9.84734 81.9538 9.60988 81.2839 9.60988ZM64.7033 7.62307L64.8787 7.69431L64.1929 10.2194C63.8021 10.0136 63.3714 9.91067 62.9408 9.91067C62.2868 9.88692 61.6488 10.1006 61.1304 10.5043C60.6838 10.8843 60.3568 11.3909 60.1893 11.945L60.1335 12.1587L58.8574 16.9951H56.1299L58.6022 7.73389H61.2899L60.939 9.09536C61.2739 8.63626 61.7046 8.26423 62.1911 7.98718C62.7334 7.67848 63.3395 7.52017 63.9616 7.52017C64.2088 7.50433 64.464 7.536 64.7033 7.62307ZM54.6305 8.06634C55.2367 8.44629 55.6753 9.04787 55.8428 9.74444C56.0422 10.5835 56.0103 11.47 55.755 12.2933C55.5158 13.2273 55.0931 14.098 54.495 14.8421C53.9287 15.5624 53.2109 16.1323 52.3895 16.5202C51.5521 16.908 50.6429 17.1059 49.7178 17.098C48.7448 17.098 47.9473 16.908 47.3252 16.5202C46.7111 16.1402 46.2725 15.5386 46.097 14.8421C45.9056 14.003 45.9375 13.1165 46.1847 12.2933C46.424 11.3671 46.8467 10.4964 47.4448 9.74444C48.0111 9.03204 48.7368 8.4542 49.5662 8.06634C50.4116 7.67848 51.3368 7.47267 52.2699 7.4885C53.0913 7.44893 53.9128 7.65473 54.6305 8.06634ZM51.7116 9.57821C51.0656 9.5703 50.4435 9.81568 49.973 10.259C49.4865 10.7181 49.1196 11.3909 48.8883 12.2933C48.4098 14.1059 48.8724 15.0083 50.276 15.0083C50.9141 15.0241 51.5282 14.7787 51.9907 14.3355C52.4692 13.8843 52.8201 13.2035 53.0594 12.2933C53.2987 11.3988 53.3066 10.726 53.0674 10.259C52.8361 9.79193 52.3815 9.57821 51.7116 9.57821ZM46.1688 7.72597L45.6903 9.56238L39.6689 14.8421H44.502L43.9277 17.003H35.9285L36.431 15.0954L42.3566 9.89484H37.8506L38.4248 7.73389H46.1688V7.72597ZM32.6667 7.90803C33.0335 8.13758 33.3206 8.47795 33.4801 8.88164L33.536 9.03204L33.8869 7.71805H36.5745L34.1261 16.9793H31.4385L31.7974 15.6099C31.3906 16.0848 30.8882 16.4648 30.3219 16.726C29.7557 16.9872 29.1416 17.1217 28.5116 17.1217C27.8097 17.1534 27.1239 16.9476 26.5576 16.536C26.0312 16.1244 25.6803 15.5228 25.5687 14.8658C25.4251 14.0268 25.473 13.1719 25.7202 12.3566C25.9515 11.4463 26.3582 10.5835 26.9085 9.81568C27.411 9.11119 28.057 8.51753 28.7987 8.09009C29.4845 7.69431 30.2661 7.4885 31.0557 7.4885C31.6299 7.47267 32.1882 7.61515 32.6667 7.90803ZM31.2869 9.60988C30.96 9.60988 30.641 9.6732 30.3379 9.79985C30.0348 9.9265 29.7637 10.1086 29.5324 10.3381C28.9901 10.9001 28.6152 11.5967 28.4478 12.3566C28.2244 13.2115 28.2324 13.8605 28.4797 14.3276C28.7269 14.7946 29.1895 15.0162 29.8753 15.0162C30.1943 15.0241 30.5133 14.9608 30.8164 14.8421C31.1115 14.7233 31.3906 14.5413 31.6139 14.3196C32.0845 13.8289 32.4354 13.2273 32.6188 12.5624L32.6826 12.317C32.9139 11.4384 32.89 10.7814 32.6587 10.3144C32.4115 9.84734 31.9489 9.60988 31.2869 9.60988ZM21.4136 6.18243H18.8535L17.9523 9.5703H20.5124C21.3179 9.5703 21.9559 9.43573 22.3866 9.15869C22.8411 8.86581 23.1681 8.40671 23.2878 7.86845C23.4473 7.29853 23.3755 6.86317 23.0724 6.58613C22.7694 6.32491 22.2191 6.18243 21.4136 6.18243Z" fill="white"/>
<path d="M14.6745 0L10.1764 16.9947H7.08999L10.1286 5.48549L5.47101 8.53298L6.30044 5.50132L14.6745 0Z" fill="#3395FF"/>
</g>
<defs>
<clipPath id="clip0_2277_156">
<rect width="98" height="21" fill="white"/>
</clipPath>
</defs>
</svg>
