<svg xmlns="http://www.w3.org/2000/svg" viewBox="0 0 830.77 154.22"><defs><style>.cls-1{fill:#0f1821;}</style></defs><g id="Layer_2" data-name="Layer 2"><g id="Layer_1-2" data-name="Layer 1"><polygon class="cls-1" points="60.2 104.98 0 69.41 60.2 154.22 120.43 69.41 60.2 104.98"/><path class="cls-1" d="M60.21,93.4.07,58V39L6.54,32.1l6.35,7v9.28h8.19v8.55h14v-8.3h4.61V21.75L34.4,16.68V0H45V7h8.77V0h13V7h8.78V0H86V16.68l-5.27,5.07V48.62h4.48v8.3H99.48V48.37h8.08V39.09l6.32-7L120.36,39V58L60.21,93.4Z"/><path class="cls-1" d="M177.45,113.16a2.5,2.5,0,0,1-2.6-2.6V43.13a2.5,2.5,0,0,1,2.6-2.6H225.9a2.48,2.48,0,0,1,2.59,2.6v9.75a2.47,2.47,0,0,1-2.59,2.59H192.8v14h30.82a2.42,2.42,0,0,1,1.86.78,2.69,2.69,0,0,1,.73,1.92v9a2.55,2.55,0,0,1-.73,1.82,2.42,2.42,0,0,1-1.86.78H192.8V98.22h33.93a2.47,2.47,0,0,1,2.59,2.59v9.75a2.48,2.48,0,0,1-2.59,2.6Z"/><path class="cls-1" d="M256.61,113.16a2.5,2.5,0,0,1-2.6-2.6V56.82H235.55a2.42,2.42,0,0,1-1.87-.78,2.55,2.55,0,0,1-.73-1.81V43.13a2.5,2.5,0,0,1,2.6-2.6h55.82a2.5,2.5,0,0,1,2.59,2.6v11.1a2.55,2.55,0,0,1-.73,1.81,2.42,2.42,0,0,1-1.86.78H272.9v53.74a2.5,2.5,0,0,1-2.6,2.6Z"/><path class="cls-1" d="M302.88,113.16a2.48,2.48,0,0,1-2.59-2.6V43.13a2.48,2.48,0,0,1,2.59-2.6h13.39a2.5,2.5,0,0,1,2.59,2.6v25h25.63v-25a2.48,2.48,0,0,1,2.59-2.6h13.38a2.5,2.5,0,0,1,2.6,2.6v67.43a2.5,2.5,0,0,1-2.6,2.6H347.08a2.48,2.48,0,0,1-2.59-2.6V84.73H318.86v25.83a2.5,2.5,0,0,1-2.59,2.6Z"/><path class="cls-1" d="M400.51,113.16a2.48,2.48,0,0,1-2.59-2.6V43.13a2.48,2.48,0,0,1,2.59-2.6h31.65q8.91,0,14.63,2.49a17.68,17.68,0,0,1,8.45,7.11A21,21,0,0,1,458,61.07a14.82,14.82,0,0,1-1.4,6.59,16.21,16.21,0,0,1-7.21,7.42,18.52,18.52,0,0,1,7,6.12,16.62,16.62,0,0,1,3.06,10,21.89,21.89,0,0,1-3.06,11.78,19.63,19.63,0,0,1-8.92,7.57,34.76,34.76,0,0,1-14.37,2.65Zm16-43.78h13.59c2.84,0,5-.73,6.38-2.18a7.7,7.7,0,0,0,2.13-5.61,7.36,7.36,0,0,0-2.13-5.44C435,54.73,432.92,54,430.08,54H416.49Zm0,30.29H431q4.46,0,6.74-2.59A8.56,8.56,0,0,0,431,82.55H416.49Z"/><path class="cls-1" d="M491.61,114.2q-12.25,0-19.51-6.64t-7.57-19.72V84.21a30,30,0,0,1,3.68-14.06,22.37,22.37,0,0,1,9.34-8.92,30.16,30.16,0,0,1,13.95-3.06q9.13,0,15.1,3.63a23,23,0,0,1,9,9.86,32.21,32.21,0,0,1,3,14.21v2.49a2.44,2.44,0,0,1-.78,1.87A2.57,2.57,0,0,1,516,91h-33.2v.72a17.35,17.35,0,0,0,1,5.5,8.48,8.48,0,0,0,2.91,3.94,7.79,7.79,0,0,0,4.77,1.46,8,8,0,0,0,3.48-.68,9.35,9.35,0,0,0,2.33-1.55,17.48,17.48,0,0,0,1.46-1.51,5.58,5.58,0,0,1,1.5-1.3,4.76,4.76,0,0,1,1.82-.26H515a2.56,2.56,0,0,1,1.71.58,1.73,1.73,0,0,1,.57,1.6,9.19,9.19,0,0,1-1.76,4.26,21.62,21.62,0,0,1-4.83,4.93,26.39,26.39,0,0,1-7.93,4A35.8,35.8,0,0,1,491.61,114.2Zm-8.82-33.52h17.53v-.2a15.85,15.85,0,0,0-1-5.81,8,8,0,0,0-3-3.84,8.5,8.5,0,0,0-4.83-1.35,8,8,0,0,0-4.72,1.35,8.65,8.65,0,0,0-3,3.84,15,15,0,0,0-1,5.81Z"/><path class="cls-1" d="M527.82,113.16a2.5,2.5,0,0,1-2.6-2.6V42.09a2.5,2.5,0,0,1,2.6-2.6h12.24a2.48,2.48,0,0,1,2.59,2.6v68.47a2.48,2.48,0,0,1-2.59,2.6Z"/><path class="cls-1" d="M578.24,136A36.29,36.29,0,0,1,565,133.91a25.91,25.91,0,0,1-8.3-5,20,20,0,0,1-4.41-5.76,13.47,13.47,0,0,1-1.45-4.51,2.1,2.1,0,0,1,.72-1.87,2.94,2.94,0,0,1,2-.73h13.17a2.78,2.78,0,0,1,1.61.47,3.24,3.24,0,0,1,1.09,1.61,14.18,14.18,0,0,0,1.4,2.39,6.49,6.49,0,0,0,2.49,2,10.25,10.25,0,0,0,4.41.78,12.07,12.07,0,0,0,5.19-1,6.43,6.43,0,0,0,3.11-3.22,14.29,14.29,0,0,0,1-6v-7a17.61,17.61,0,0,1-6.12,4.2,22.82,22.82,0,0,1-9,1.61,25.86,25.86,0,0,1-9.34-1.56,16.64,16.64,0,0,1-6.74-4.67,22.17,22.17,0,0,1-4.2-7.57A38.45,38.45,0,0,1,549.81,88q-.1-2.7,0-5.4a39.61,39.61,0,0,1,1.76-10.06,22.12,22.12,0,0,1,4.21-7.68,18,18,0,0,1,6.79-4.93,23.83,23.83,0,0,1,9.34-1.71,20.19,20.19,0,0,1,9.6,2.13,21.15,21.15,0,0,1,6.59,5.34V61.8a2.56,2.56,0,0,1,.72-1.81,2.44,2.44,0,0,1,1.87-.78h11.93a2.61,2.61,0,0,1,1.92.78,2.46,2.46,0,0,1,.78,1.81v49.91A25.59,25.59,0,0,1,602.1,125a20.49,20.49,0,0,1-9.23,8.19A34.46,34.46,0,0,1,578.24,136Zm-.73-37.45a9.21,9.21,0,0,0,5.4-1.45A8.77,8.77,0,0,0,586,93.34a13.68,13.68,0,0,0,1.09-4.87c.07-.76.1-1.84.1-3.22s0-2.42-.1-3.11a13.94,13.94,0,0,0-1.09-5,8.46,8.46,0,0,0-3.06-3.69,9.51,9.51,0,0,0-5.4-1.4,9.11,9.11,0,0,0-5.44,1.46,8,8,0,0,0-2.91,3.94,20.64,20.64,0,0,0-1.09,5.5c-.07,1.52-.07,3.08,0,4.67a20.65,20.65,0,0,0,1.09,5.49,8,8,0,0,0,2.91,4A9.11,9.11,0,0,0,577.51,98.53Z"/><path class="cls-1" d="M617,113.16a2.48,2.48,0,0,1-2.59-2.6V61.8a2.56,2.56,0,0,1,.72-1.81,2.45,2.45,0,0,1,1.87-.78H629a2.45,2.45,0,0,1,1.87.78,2.57,2.57,0,0,1,.73,1.81V66a19.36,19.36,0,0,1,6.69-5A21.05,21.05,0,0,1,647,59.21h4.57a2.6,2.6,0,0,1,1.82.72,2.48,2.48,0,0,1,.77,1.87V72.49a2.65,2.65,0,0,1-2.59,2.59H641.53A8.14,8.14,0,0,0,632.6,84v26.56a2.45,2.45,0,0,1-.77,1.87,2.69,2.69,0,0,1-1.92.73Z"/><path class="cls-1" d="M674.62,114.2a22.74,22.74,0,0,1-10-2.13,18.05,18.05,0,0,1-7-5.76A14.29,14.29,0,0,1,661,86.44q6-4.31,16-5.86l13-2V77.16a9,9,0,0,0-1.56-5.71q-1.56-2-5.7-2A8.79,8.79,0,0,0,678,70.62a8,8,0,0,0-2.85,3.11,3,3,0,0,1-2.59,1.35H660.93a2.3,2.3,0,0,1-1.77-.67,2,2,0,0,1-.52-1.61,8.89,8.89,0,0,1,1.41-4.31,18,18,0,0,1,4.3-4.82,23.67,23.67,0,0,1,7.47-3.94,34.18,34.18,0,0,1,11-1.56,37.41,37.41,0,0,1,11.52,1.56,20.06,20.06,0,0,1,7.72,4.35,17.56,17.56,0,0,1,4.41,6.59A23.13,23.13,0,0,1,707.93,79v31.54a2.42,2.42,0,0,1-.78,1.87,2.57,2.57,0,0,1-1.82.73h-12a2.5,2.5,0,0,1-2.6-2.6v-3.63a14.88,14.88,0,0,1-3.63,3.63,18.78,18.78,0,0,1-5.34,2.65A23.13,23.13,0,0,1,674.62,114.2Zm4.88-11.83a11.4,11.4,0,0,0,5.45-1.3,9.05,9.05,0,0,0,3.83-4,15.08,15.08,0,0,0,1.41-6.9V88.67l-8.82,1.56c-3.26.55-5.62,1.4-7.11,2.54a5,5,0,0,0-2.23,4,4.49,4.49,0,0,0,1,3,6.65,6.65,0,0,0,2.69,1.92A9.85,9.85,0,0,0,679.5,102.37Z"/><path class="cls-1" d="M736.67,114.2a23.91,23.91,0,0,1-9-1.61,18.36,18.36,0,0,1-6.85-4.77,22.1,22.1,0,0,1-4.41-7.68,35.86,35.86,0,0,1-1.76-10.33c-.07-1.38-.1-2.61-.1-3.68s0-2.26.1-3.58a34.63,34.63,0,0,1,1.76-10.06,23.07,23.07,0,0,1,4.36-7.68,18.55,18.55,0,0,1,6.85-4.93,23,23,0,0,1,9-1.71,21.31,21.31,0,0,1,8.92,1.71,20.5,20.5,0,0,1,6.33,4.41V42.09a2.48,2.48,0,0,1,2.59-2.6h12.66a2.57,2.57,0,0,1,1.81.73,2.45,2.45,0,0,1,.78,1.87v68.47a2.42,2.42,0,0,1-.78,1.87,2.53,2.53,0,0,1-1.81.73H755.45a2.5,2.5,0,0,1-2.6-2.6v-3.32a19.41,19.41,0,0,1-6.43,5A21.6,21.6,0,0,1,736.67,114.2Zm5.6-13.91a8.38,8.38,0,0,0,8.56-5.39,15.11,15.11,0,0,0,1.09-5.19c.07-1.38.1-2.7.1-3.94s0-2.53-.1-3.84a12.59,12.59,0,0,0-1.14-4.83,8.89,8.89,0,0,0-3.12-3.63,9.48,9.48,0,0,0-5.39-1.4,9.17,9.17,0,0,0-5.45,1.46A7.64,7.64,0,0,0,734,77.47a21.92,21.92,0,0,0-1,5.5,32.89,32.89,0,0,0,0,6.43,21.92,21.92,0,0,0,1,5.5,7.68,7.68,0,0,0,2.85,3.94A9.17,9.17,0,0,0,742.27,100.29Z"/><path class="cls-1" d="M803.79,114.2q-12.24,0-19.5-6.64t-7.58-19.72V84.21a30.13,30.13,0,0,1,3.69-14.06,22.31,22.31,0,0,1,9.34-8.92,30.13,30.13,0,0,1,14-3.06q9.13,0,15.1,3.63a23.15,23.15,0,0,1,9,9.86,32.21,32.21,0,0,1,3,14.21v2.49a2.44,2.44,0,0,1-.78,1.87,2.59,2.59,0,0,1-1.81.73H795v.72a17.35,17.35,0,0,0,1,5.5,8.35,8.35,0,0,0,2.91,3.94,7.79,7.79,0,0,0,4.77,1.46,8,8,0,0,0,3.48-.68,9.35,9.35,0,0,0,2.33-1.55A17.14,17.14,0,0,0,811,98.84a5.59,5.59,0,0,1,1.51-1.3,4.7,4.7,0,0,1,1.81-.26h12.87a2.56,2.56,0,0,1,1.71.58,1.73,1.73,0,0,1,.57,1.6,9.19,9.19,0,0,1-1.76,4.26,21.62,21.62,0,0,1-4.83,4.93,26.33,26.33,0,0,1-7.94,4A35.75,35.75,0,0,1,803.79,114.2ZM795,80.68h17.54v-.2a15.64,15.64,0,0,0-1-5.81,8,8,0,0,0-3-3.84,8.45,8.45,0,0,0-4.82-1.35A8,8,0,0,0,799,70.83a8.58,8.58,0,0,0-3,3.84,15,15,0,0,0-1,5.81Z"/></g></g></svg>