<svg width="108" height="108" viewBox="0 0 108 108" fill="none" xmlns="http://www.w3.org/2000/svg">
<path d="M41.6748 96.1309L41.3135 96.0264C38.1366 95.1152 35.1049 93.834 32.2686 92.2803L31.9395 92.1006L31.6748 92.3652L27.0879 96.9512C25.6645 98.3745 23.3122 98.3781 21.8604 96.9482L10.2236 85.3115C8.80127 83.8891 8.79651 81.539 10.2236 80.0869L14.8096 75.501L15.0762 75.2334L14.8926 74.9043C13.3163 72.0719 12.0603 69.0413 11.1484 65.8623L11.0439 65.5H4.1875C2.14567 65.5 0.5 63.8543 0.5 61.8125V45.3623C0.50008 43.3205 2.14572 41.6748 4.1875 41.6748H11.0693L11.1729 41.3135C12.0841 38.1366 13.3661 35.1049 14.9199 32.2686L15.0996 31.9395L14.835 31.6748L10.249 27.0879C8.82647 25.6653 8.82057 23.3144 10.248 21.8623L10.249 21.8633L21.8633 10.249C23.2856 8.8267 25.6358 8.82127 27.0879 10.248V10.249L31.6748 14.835L31.9414 15.1016L32.2715 14.918C35.1039 13.3417 38.1345 12.0847 41.3135 11.1729L41.6748 11.0693V4.1875C41.6748 2.14572 43.3205 0.50008 45.3623 0.5H61.8125C63.8543 0.5 65.5 2.14567 65.5 4.1875V11.1924H65.9531C69.106 12.1024 72.115 13.3769 74.9316 14.9199L75.2607 15.0996L80.1113 10.249C81.5346 8.82579 83.887 8.82145 85.3389 10.251L96.9766 21.8887C98.3987 23.3111 98.4036 25.6613 96.9766 27.1133L92.3906 31.6992L92.123 31.9658L92.3066 32.2959C93.883 35.1284 95.1399 38.1588 96.0518 41.3379L96.1553 41.7002H103.013C105.055 41.7002 106.7 43.3459 106.7 45.3877V61.8379C106.7 63.8795 105.054 65.5244 103.013 65.5244H96.1309L96.0264 65.8867C95.1152 69.0637 93.8341 72.0953 92.2803 74.9316L92.1006 75.2607L96.9512 80.1113C98.3745 81.5347 98.3781 83.887 96.9482 85.3389L85.3115 96.9766C83.8882 98.3997 81.5358 98.4035 80.084 96.9736L75.2334 92.123L74.9043 92.3066C72.0719 93.883 69.0413 95.1399 65.8623 96.0518L65.5 96.1553V103.013C65.5 105.055 63.8543 106.7 61.8125 106.7H45.3623C43.3206 106.7 41.6748 105.054 41.6748 103.013V96.1309Z" fill="#24B4EC" stroke="black"/>
<path fill-rule="evenodd" clip-rule="evenodd" d="M26.3949 32.078C23.1797 32.9254 20.9365 35.8167 20.9116 39.1565C20.9116 40.8265 21.4599 42.3718 22.407 43.6429C19.2915 45.4874 17.4969 48.9269 17.796 52.516C18.0702 56.1052 20.3881 59.2456 23.7529 60.5666C23.5535 61.5885 23.5535 62.6354 23.7529 63.6822C24.077 65.3023 24.8745 66.7479 25.9961 67.8695C24.2764 70.5613 24.5256 74.0757 26.5943 76.4933C27.8904 78.0137 29.7348 78.911 31.654 79.0356C30.2831 81.7275 31.2053 85.0175 33.7726 86.5877C36.3398 88.158 39.7046 87.485 41.4493 85.0424C42.6955 86.513 44.4651 87.485 46.4591 87.6345C49.4002 87.8838 52.2166 86.3136 53.5626 83.6965C54.9085 86.3385 57.7249 87.8838 60.666 87.6345C62.66 87.4601 64.4545 86.513 65.6758 85.0424C67.4455 87.485 70.7853 88.158 73.3526 86.5877C75.9198 85.0175 76.842 81.7275 75.4711 79.0356C77.3903 78.911 79.2347 78.0387 80.5308 76.4933C82.5995 74.0507 82.8488 70.5613 81.129 67.8695C82.2506 66.7479 83.0731 65.3023 83.3722 63.6822C83.5716 62.6354 83.5716 61.5636 83.3722 60.5666C86.737 59.2456 89.03 56.1052 89.3291 52.516C89.6033 48.9269 87.8087 45.4624 84.7181 43.6429C85.6652 42.3967 86.2136 40.8265 86.2136 39.1565C86.1886 35.8416 83.9454 32.9254 80.7302 32.078C80.8299 30.9564 80.6554 29.8099 80.1569 28.7381C78.9356 26.146 76.169 24.6505 73.3276 25.0493C73.0285 23.7532 72.3556 22.532 71.2838 21.6097C70.237 20.6875 68.9409 20.1392 67.6199 20.0395C66.274 17.3726 63.5573 15.6777 60.5663 15.6777C57.5754 15.6777 54.8586 17.3726 53.5127 20.0395C52.1668 17.3726 49.45 15.6777 46.4591 15.6777C43.4682 15.6777 40.7514 17.3726 39.4055 20.0395C38.0845 20.1641 36.7884 20.6875 35.7416 21.6097C34.6948 22.532 33.9969 23.7532 33.6978 25.0493C30.8564 24.6256 28.0898 26.1211 26.8685 28.7381C26.4946 29.8099 26.2952 30.9564 26.3949 32.078Z" fill="white"/>
<path d="M35.0686 57.1513C37.0232 57.1513 38.6078 55.5667 38.6078 53.612C38.6078 51.6573 37.0232 50.0728 35.0686 50.0728C33.1139 50.0728 31.5293 51.6573 31.5293 53.612C31.5293 55.5667 33.1139 57.1513 35.0686 57.1513Z" fill="#FFD600"/>
<path d="M72.1311 57.1513C74.0858 57.1513 75.6703 55.5667 75.6703 53.612C75.6703 51.6573 74.0858 50.0728 72.1311 50.0728C70.1764 50.0728 68.5918 51.6573 68.5918 53.612C68.5918 55.5667 70.1764 57.1513 72.1311 57.1513Z" fill="#FFD600"/>
<path fill-rule="evenodd" clip-rule="evenodd" d="M62.4496 30.7695C63.8317 29.3874 66.0726 29.3874 67.455 30.7695C68.837 32.1515 68.837 34.3925 67.455 35.7748C66.0729 37.1568 63.8319 37.1568 62.4496 35.7748C61.0676 34.3925 61.0676 32.1515 62.4496 30.7695Z" fill="#FFD600"/>
<path d="M42.2487 36.8183C44.2034 36.8183 45.788 35.2337 45.788 33.279C45.788 31.3243 44.2034 29.7397 42.2487 29.7397C40.2941 29.7397 38.7095 31.3243 38.7095 33.279C38.7095 35.2337 40.2941 36.8183 42.2487 36.8183Z" fill="#FFD600"/>
<path fill-rule="evenodd" clip-rule="evenodd" d="M64.1386 70.4734C66.0409 70.0243 67.9473 71.2022 68.3965 73.1045C68.8456 75.0067 67.6677 76.9129 65.7655 77.3623C63.8632 77.8114 61.957 76.6335 61.5076 74.7313C61.0585 72.829 62.2364 70.9226 64.1386 70.4734Z" fill="#FFD600"/>
<path d="M45.5005 75.3388C46.2689 73.5416 45.4348 71.4618 43.6376 70.6935C41.8404 69.9251 39.7606 70.7592 38.9923 72.5564C38.2239 74.3536 39.058 76.4334 40.8552 77.2017C42.6524 77.9701 44.7322 77.136 45.5005 75.3388Z" fill="#FFD600"/>
<path fill-rule="evenodd" clip-rule="evenodd" d="M34.196 30.2583C33.7473 30.2583 33.2987 29.9841 33.0993 29.5355C31.7783 26.4697 32.551 22.9305 35.0434 20.7371C37.5608 18.5189 41.1499 18.1948 44.0162 19.9146C44.5895 20.2636 44.7639 20.9864 44.4399 21.5596C44.1159 22.1329 43.3682 22.3074 42.7949 21.9834C40.8259 20.8119 38.3583 21.0362 36.6386 22.5566C34.9188 24.077 34.3704 26.4947 35.2926 28.6133C35.5668 29.2114 35.2926 29.9342 34.6695 30.1835C34.52 30.2084 34.3704 30.2583 34.196 30.2583Z" fill="#24B4EC"/>
<path fill-rule="evenodd" clip-rule="evenodd" d="M28.5631 37.536C28.2889 37.536 27.9898 37.4363 27.7655 37.2369C25.2481 34.9937 24.4755 31.3049 25.8962 28.2392C27.3169 25.1735 30.6567 23.4038 33.9717 23.8774C34.6197 23.9771 35.0683 24.5753 34.9686 25.2233C34.869 25.8714 34.2708 26.3449 33.6227 26.2452C31.3297 25.8963 29.0366 27.1425 28.0646 29.2362C27.0925 31.3298 27.6159 33.897 29.3357 35.4174C29.8342 35.8661 29.8841 36.6138 29.4354 37.1123C29.2111 37.4114 28.8871 37.536 28.5631 37.536Z" fill="#24B4EC"/>
<path fill-rule="evenodd" clip-rule="evenodd" d="M26.32 47.4806C26.2203 47.4806 26.0957 47.4557 25.996 47.4308C22.2822 46.4089 19.715 42.9942 19.7399 39.131C19.7649 35.2677 22.3819 31.9029 26.1206 30.9059C26.7686 30.7314 27.4166 31.1302 27.5911 31.7533C27.7656 32.4014 27.3668 33.0494 26.7437 33.2239C24.0519 33.9218 22.1825 36.3643 22.1576 39.131C22.1327 41.8976 24.002 44.3651 26.6689 45.1128C27.3169 45.2873 27.6908 45.9603 27.4914 46.5834C27.317 47.1317 26.8434 47.4806 26.32 47.4806Z" fill="#24B4EC"/>
<path fill-rule="evenodd" clip-rule="evenodd" d="M23.7528 61.7625C23.6032 61.7625 23.4537 61.7376 23.3041 61.6877C19.5406 60.2172 16.9235 56.653 16.5995 52.6152C16.2755 48.5775 18.3193 44.6643 21.8087 42.6205C22.3819 42.2965 23.1047 42.471 23.4537 43.0443C23.8026 43.6175 23.6032 44.3403 23.03 44.6893C20.3381 46.2844 18.743 49.3252 18.9922 52.4408C19.2415 55.5563 21.2853 58.3229 24.1765 59.4695C24.7996 59.7187 25.0987 60.4166 24.8495 61.0148C24.675 61.4634 24.2263 61.7625 23.7528 61.7625Z" fill="#24B4EC"/>
<path fill-rule="evenodd" clip-rule="evenodd" d="M30.2083 71.2587C30.1335 71.2587 30.0587 71.2587 29.984 71.2338C26.2204 70.5608 23.3042 67.6696 22.5565 63.906C22.0331 61.2141 22.731 58.4226 24.4507 56.2791C24.8745 55.7557 25.6222 55.6809 26.1456 56.1046C26.669 56.5284 26.7438 57.2761 26.3201 57.7746C25.024 59.3697 24.5255 61.4135 24.9243 63.4324C25.4726 66.224 27.6411 68.3425 30.4326 68.8659C31.0806 68.9906 31.5044 69.6137 31.4047 70.2617C31.28 70.835 30.7815 71.2587 30.2083 71.2587Z" fill="#24B4EC"/>
<path fill-rule="evenodd" clip-rule="evenodd" d="M32.1022 80.2563C29.6845 80.2563 27.3416 79.2094 25.6717 77.2903C23.2291 74.4489 22.9549 70.4111 24.9738 67.2457C25.3228 66.6974 26.0705 66.5229 26.6188 66.8719C27.1672 67.2208 27.3416 67.9685 26.9927 68.5169C25.5471 70.785 25.7465 73.6762 27.4912 75.72C29.2359 77.7638 32.0773 78.4119 34.5448 77.3401C35.143 77.0659 35.8658 77.365 36.115 77.9632C36.3892 78.5614 36.0901 79.2842 35.4919 79.5335C34.3953 80.0319 33.2487 80.2563 32.1022 80.2563Z" fill="#24B4EC"/>
<path fill-rule="evenodd" clip-rule="evenodd" d="M47.1069 88.8554C46.8826 88.8554 46.6333 88.8554 46.409 88.8305C42.9694 88.5563 40.0533 86.2383 39.0065 82.9483C38.8071 82.3252 39.156 81.6522 39.7791 81.4528C40.4022 81.2534 41.0752 81.6024 41.2746 82.2255C42.0472 84.5933 44.1409 86.2383 46.6084 86.4626C49.0012 86.662 51.2443 85.4657 52.4158 83.3969V20.3631C51.2443 18.2196 49.0261 16.9235 46.5835 16.9235C44.0412 16.9235 41.7481 18.3442 40.6016 20.6123C40.3025 21.2105 39.5797 21.4348 39.0065 21.1606C38.5827 20.9612 38.3335 20.5375 38.3335 20.0889C38.3335 19.9144 38.3833 19.7399 38.4581 19.5655C40.0034 16.4748 43.119 14.5557 46.5586 14.5557C50.0231 14.5557 53.1137 16.4748 54.659 19.5655C54.7338 19.7399 54.7836 19.9144 54.7836 20.0889V83.7209C54.7836 83.9203 54.7338 84.0948 54.659 84.2693C53.1885 87.0857 50.2723 88.8554 47.1069 88.8554Z" fill="#24B4EC"/>
<path fill-rule="evenodd" clip-rule="evenodd" d="M36.7635 88.6062C35.5172 88.6062 34.271 88.2822 33.1494 87.5843C30.0588 85.69 28.9372 81.7021 30.5822 78.462C30.8813 77.8638 31.6041 77.6395 32.2023 77.9385C32.8005 78.2376 33.0248 78.9604 32.7257 79.5586C31.629 81.6772 32.3768 84.2943 34.4206 85.5405C36.4394 86.7867 39.1313 86.2384 40.5021 84.3192C40.9009 83.7709 41.6237 83.6712 42.172 84.045C42.7204 84.4438 42.8201 85.1916 42.4462 85.715C41.1003 87.6092 38.9568 88.6062 36.7635 88.6062Z" fill="#24B4EC"/>
<path fill-rule="evenodd" clip-rule="evenodd" d="M73.0035 30.2583C72.8539 30.2583 72.6795 30.2334 72.5299 30.1586C71.9317 29.8844 71.6576 29.1865 71.9068 28.5884C72.829 26.4947 72.2807 24.0521 70.5609 22.5317C68.8411 21.0113 66.3736 20.787 64.4046 21.9585C63.8313 22.3074 63.1085 22.108 62.7595 21.5347C62.4106 20.9615 62.61 20.2387 63.1833 19.8897C66.0496 18.17 69.6636 18.5189 72.1561 20.7122C74.6485 22.9056 75.4461 26.4449 74.1002 29.5106C73.9008 29.9841 73.4521 30.2583 73.0035 30.2583Z" fill="#24B4EC"/>
<path fill-rule="evenodd" clip-rule="evenodd" d="M78.6362 37.5361C78.3122 37.5361 77.9882 37.4115 77.739 37.1373C77.2903 36.6388 77.3402 35.8911 77.8387 35.4425C79.5834 33.8972 80.1068 31.3549 79.1098 29.2612C78.1378 27.1676 75.8447 25.9213 73.5517 26.2703C72.9036 26.37 72.2805 25.9213 72.2057 25.2484C72.106 24.6003 72.5547 23.9772 73.2276 23.9025C76.5675 23.404 79.8825 25.1985 81.3032 28.2642C82.7239 31.305 81.9761 35.0188 79.4588 37.262C79.2095 37.4364 78.9353 37.5361 78.6362 37.5361Z" fill="#24B4EC"/>
<path fill-rule="evenodd" clip-rule="evenodd" d="M80.8794 47.4808C80.356 47.4808 79.8824 47.1319 79.7328 46.6085C79.5584 45.9604 79.9322 45.3124 80.5553 45.1379C83.2223 44.3902 85.0916 41.9476 85.0667 39.1561C85.0417 36.3894 83.1724 33.9469 80.4806 33.249C79.8325 33.0745 79.4587 32.4265 79.6331 31.7784C79.8076 31.1304 80.4556 30.7565 81.1037 30.931C84.8423 31.903 87.4594 35.2928 87.4843 39.1561C87.5093 43.0193 84.942 46.434 81.2283 47.4559C81.1037 47.4808 80.9791 47.4808 80.8794 47.4808Z" fill="#24B4EC"/>
<path fill-rule="evenodd" clip-rule="evenodd" d="M83.4716 61.7625C82.998 61.7625 82.5494 61.4883 82.35 61.0148C82.1008 60.3917 82.3999 59.7187 83.023 59.4695C85.9391 58.3229 87.9829 55.5563 88.2322 52.4408C88.4814 49.3252 86.8863 46.2844 84.1944 44.6893C83.6212 44.3653 83.4218 43.6175 83.7707 43.0443C84.0947 42.471 84.8425 42.2965 85.4157 42.6205C88.9051 44.6643 90.9489 48.6024 90.6249 52.6152C90.3009 56.653 87.6838 60.1923 83.9202 61.6877C83.7458 61.7376 83.5962 61.7625 83.4716 61.7625Z" fill="#24B4EC"/>
<path fill-rule="evenodd" clip-rule="evenodd" d="M76.9916 71.2587C76.4183 71.2587 75.9198 70.8599 75.8201 70.2866C75.6955 69.6386 76.1442 69.0155 76.7922 68.8908C79.5837 68.3924 81.7522 66.2489 82.3005 63.4573C82.6993 61.4634 82.1759 59.3946 80.8798 57.7995C80.4561 57.2761 80.5309 56.5283 81.0543 56.1295C81.5777 55.7058 82.3254 55.7806 82.7242 56.304C84.4689 58.4475 85.1668 61.2141 84.6185 63.9309C83.8707 67.6945 80.9546 70.5608 77.191 71.2587C77.1411 71.2337 77.0664 71.2587 76.9916 71.2587Z" fill="#24B4EC"/>
<path fill-rule="evenodd" clip-rule="evenodd" d="M75.0967 80.2565C73.9502 80.2565 72.8037 80.0322 71.707 79.5586C71.1088 79.2844 70.8097 78.5865 71.0839 77.9884C71.3581 77.3902 72.056 77.0911 72.6541 77.3652C75.1217 78.437 77.963 77.789 79.7078 75.7452C81.4525 73.7014 81.6519 70.8101 80.2062 68.542C79.8573 67.9937 80.0068 67.2459 80.5801 66.897C81.1284 66.548 81.8762 66.6976 82.2251 67.2708C84.244 70.4363 83.9449 74.474 81.5272 77.3154C79.8573 79.2096 77.5144 80.2565 75.0967 80.2565Z" fill="#24B4EC"/>
<path fill-rule="evenodd" clip-rule="evenodd" d="M53.6119 21.2355C53.4374 21.2355 53.238 21.1856 53.0635 21.1108C52.4653 20.8117 52.241 20.0889 52.5401 19.5157C54.0854 16.425 57.201 14.5059 60.6405 14.5059C64.105 14.5059 67.1957 16.425 68.741 19.5157C69.0401 20.1139 68.7908 20.8117 68.2176 21.1108C67.6194 21.4099 66.8966 21.1607 66.6224 20.5625C65.4759 18.2944 63.1828 16.8737 60.6655 16.8737C58.1232 16.8737 55.8301 18.2944 54.6836 20.5625C54.4593 21.0111 54.0356 21.2355 53.6119 21.2355ZM60.1171 88.8554C56.9268 88.8554 54.0106 87.0858 52.5401 84.2444C52.241 83.6462 52.4653 82.9483 53.0635 82.6243C53.6617 82.3252 54.3596 82.5495 54.6836 83.1477C55.8301 85.366 58.1481 86.6621 60.6405 86.4627C63.1081 86.2633 65.2017 84.5934 65.9744 82.2255C66.1738 81.6024 66.8467 81.2535 67.4698 81.4529C68.0929 81.6523 68.4419 82.3252 68.2425 82.9483C67.1707 86.2384 64.2795 88.5314 60.815 88.8305C60.5658 88.8305 60.3415 88.8554 60.1171 88.8554Z" fill="#24B4EC"/>
<path fill-rule="evenodd" clip-rule="evenodd" d="M70.436 88.6062C68.2675 88.6062 66.0991 87.5843 64.7532 85.715C64.3793 85.1916 64.479 84.4438 65.0274 84.045C65.5757 83.6462 66.3234 83.7709 66.6973 84.3192C68.0931 86.2384 70.76 86.7867 72.7789 85.5405C74.7977 84.2943 75.5455 81.6772 74.4737 79.5586C74.1746 78.9604 74.399 78.2376 74.9971 77.9385C75.5953 77.6395 76.2932 77.8638 76.6172 78.462C78.2622 81.6772 77.1406 85.69 74.05 87.5843C72.9284 88.2822 71.6573 88.6062 70.436 88.6062Z" fill="#24B4EC"/>
<path fill-rule="evenodd" clip-rule="evenodd" d="M35.0687 51.2443C33.7726 51.2443 32.7008 52.2911 32.7008 53.5872C32.7008 54.8832 33.7477 55.955 35.0687 55.955C36.3647 55.955 37.4116 54.9082 37.4116 53.5872C37.4365 52.316 36.3647 51.2443 35.0687 51.2443ZM35.0687 58.3477C32.4516 58.3477 30.3081 56.2292 30.3081 53.6121C30.3081 50.995 32.4267 48.8765 35.0687 48.8765C37.6857 48.8765 39.8043 50.995 39.8043 53.6121C39.8292 56.2292 37.6857 58.3477 35.0687 58.3477Z" fill="#00A859"/>
<path fill-rule="evenodd" clip-rule="evenodd" d="M72.1311 51.2443C70.8351 51.2443 69.7883 52.2911 69.7883 53.5872C69.7883 54.8832 70.8351 55.955 72.1311 55.955C73.4272 55.955 74.499 54.9082 74.499 53.5872C74.474 52.316 73.4272 51.2443 72.1311 51.2443ZM72.1311 58.3477C69.5141 58.3477 67.3955 56.2292 67.3955 53.6121C67.3955 50.995 69.5141 48.8765 72.1311 48.8765C74.7482 48.8765 76.8917 50.995 76.8917 53.6121C76.8668 56.2292 74.7482 58.3477 72.1311 58.3477Z" fill="#00A859"/>
<path fill-rule="evenodd" clip-rule="evenodd" d="M68.5666 54.8088H38.6324C37.9594 54.8088 37.436 54.2853 37.436 53.6124C37.436 52.9394 37.9844 52.416 38.6324 52.416H68.5916C69.2645 52.416 69.7879 52.9644 69.7879 53.6124C69.7879 54.2604 69.2396 54.8088 68.5666 54.8088Z" fill="#24B4EC"/>
<path fill-rule="evenodd" clip-rule="evenodd" d="M64.9529 30.9059C63.6569 30.9059 62.61 31.9528 62.61 33.2737C62.61 34.5698 63.6569 35.6166 64.9529 35.6166C66.249 35.6166 67.3207 34.5698 67.3207 33.2737C67.2958 31.9777 66.249 30.9059 64.9529 30.9059ZM64.9529 38.0094C62.3359 38.0094 60.2173 35.8908 60.2173 33.2737C60.2173 30.6567 62.3359 28.5132 64.9529 28.5132C67.57 28.5132 69.6886 30.6567 69.6886 33.2737C69.6886 35.8908 67.57 38.0094 64.9529 38.0094Z" fill="#00A859"/>
<path fill-rule="evenodd" clip-rule="evenodd" d="M42.2464 30.9059C40.9503 30.9059 39.8786 31.9528 39.8786 33.2737C39.8786 34.5698 40.9254 35.6166 42.2464 35.6166C43.5425 35.6166 44.5893 34.5698 44.5893 33.2737C44.6142 31.9777 43.5425 30.9059 42.2464 30.9059ZM42.2464 38.0094C39.6293 38.0094 37.4858 35.8908 37.4858 33.2737C37.4858 30.6567 39.6293 28.5132 42.2464 28.5132C44.8635 28.5132 46.982 30.6567 46.982 33.2737C47.007 35.8908 44.8635 38.0094 42.2464 38.0094Z" fill="#00A859"/>
<path fill-rule="evenodd" clip-rule="evenodd" d="M64.9528 45.6119H42.2467C41.5737 45.6119 41.0503 45.0884 41.0503 44.4155V36.8385C41.0503 36.1655 41.5737 35.6421 42.2467 35.6421C42.9196 35.6421 43.443 36.1655 43.443 36.8385V43.2191H63.7564V36.8385C63.7564 36.1655 64.2799 35.6421 64.9528 35.6421C65.6258 35.6421 66.1492 36.1655 66.1492 36.8385V44.4155C66.1492 45.0635 65.6009 45.6119 64.9528 45.6119Z" fill="#24B4EC"/>
<path fill-rule="evenodd" clip-rule="evenodd" d="M64.9529 71.5827C63.6569 71.5827 62.61 72.6295 62.61 73.9256C62.61 75.2217 63.6569 76.2934 64.9529 76.2934C66.249 76.2934 67.3207 75.2466 67.3207 73.9256C67.2958 72.6295 66.249 71.5827 64.9529 71.5827ZM64.9529 78.6861C62.3359 78.6861 60.2173 76.5676 60.2173 73.9256C60.2173 71.3085 62.3359 69.1899 64.9529 69.1899C67.57 69.1899 69.6886 71.3085 69.6886 73.9256C69.6886 76.5426 67.57 78.6861 64.9529 78.6861Z" fill="#00A859"/>
<path fill-rule="evenodd" clip-rule="evenodd" d="M42.2464 71.5827C40.9503 71.5827 39.8786 72.6295 39.8786 73.9256C39.8786 75.2217 40.9254 76.2934 42.2464 76.2934C43.5425 76.2934 44.5893 75.2466 44.5893 73.9256C44.6142 72.6295 43.5425 71.5827 42.2464 71.5827ZM42.2464 78.6861C39.6293 78.6861 37.4858 76.5676 37.4858 73.9256C37.4858 71.3085 39.6293 69.1899 42.2464 69.1899C44.8635 69.1899 46.982 71.3085 46.982 73.9256C47.007 76.5426 44.8635 78.6861 42.2464 78.6861Z" fill="#00A859"/>
<path fill-rule="evenodd" clip-rule="evenodd" d="M64.9528 71.5831C64.2799 71.5831 63.7564 71.0596 63.7564 70.3867V64.006H43.443V70.3867C43.443 71.0347 42.8947 71.5831 42.2467 71.5831C41.5986 71.5831 41.0503 71.0347 41.0503 70.3867V62.8097C41.0503 62.1367 41.5737 61.6133 42.2467 61.6133H64.9528C65.6258 61.6133 66.1492 62.1616 66.1492 62.8097V70.3867C66.1492 71.0347 65.6009 71.5831 64.9528 71.5831Z" fill="#24B4EC"/>
</svg>
