<svg width="93" height="93" viewBox="0 0 93 93" fill="none" xmlns="http://www.w3.org/2000/svg">
<circle cx="46.5" cy="45.8418" r="38.2011" fill="#FEFEFE"/>
<rect x="63" y="45" width="4" height="18" rx="2" transform="rotate(90 63 45)" fill="#FFD600"/>
<path d="M93 46.5C93 40.3935 91.7972 34.3469 89.4604 28.7052C87.1236 23.0636 83.6984 17.9375 79.3805 13.6195C75.0625 9.30161 69.9364 5.87644 64.2948 3.5396C58.6531 1.20276 52.6065 -2.66922e-07 46.5 0L46.5 9.85651C51.3121 9.85651 56.0771 10.8043 60.5229 12.6458C64.9686 14.4873 69.0082 17.1865 72.4109 20.5891C75.8135 23.9918 78.5127 28.0314 80.3542 32.4771C82.1957 36.9229 83.1435 41.6879 83.1435 46.5H93Z" fill="#1FAAE1"/>
<path d="M93 46.5C93 52.6065 91.7972 58.6531 89.4604 64.2948C87.1236 69.9364 83.6984 75.0625 79.3805 79.3805C75.0625 83.6984 69.9364 87.1236 64.2948 89.4604C58.6531 91.7972 52.6065 93 46.5 93L46.5 83.1435C51.3121 83.1435 56.0771 82.1957 60.5229 80.3542C64.9686 78.5127 69.0082 75.8135 72.4109 72.4109C75.8135 69.0082 78.5127 64.9686 80.3542 60.5229C82.1957 56.0771 83.1435 51.3121 83.1435 46.5H93Z" fill="#62D0F9"/>
<path d="M0 46.5C0 40.3935 1.20276 34.3469 3.5396 28.7052C5.87645 23.0636 9.30161 17.9375 13.6195 13.6195C17.9375 9.30161 23.0636 5.87644 28.7052 3.5396C34.3469 1.20276 40.3935 -2.66922e-07 46.5 0L46.5 9.85651C41.6879 9.85651 36.9229 10.8043 32.4771 12.6458C28.0314 14.4873 23.9918 17.1865 20.5891 20.5891C17.1865 23.9918 14.4873 28.0314 12.6458 32.4771C10.8043 36.9229 9.85651 41.6879 9.85651 46.5H0Z" fill="#62D0F9"/>
<path d="M0 46.5C0 52.6065 1.20276 58.6531 3.5396 64.2948C5.87645 69.9364 9.30161 75.0625 13.6195 79.3805C17.9375 83.6984 23.0636 87.1236 28.7052 89.4604C34.3469 91.7972 40.3935 93 46.5 93L46.5 83.1435C41.6879 83.1435 36.9229 82.1957 32.4771 80.3542C28.0314 78.5127 23.9918 75.8135 20.5891 72.4109C17.1865 69.0082 14.4873 64.9686 12.6458 60.5229C10.8043 56.0771 9.85651 51.3121 9.85651 46.5H0Z" fill="#1FAAE1"/>
<rect x="45" y="23" width="4" height="26" rx="2" fill="#00A859"/>
<rect x="45" y="13" width="3.68839" height="6.98159" rx="1.84419" fill="black"/>
<rect x="44.6562" y="73.1094" width="3.68839" height="6.98159" rx="1.84419" fill="black"/>
<rect x="19.8906" y="44.6562" width="3.68839" height="6.98159" rx="1.84419" transform="rotate(90 19.8906 44.6562)" fill="black"/>
<rect x="80.4854" y="44.6562" width="3.68839" height="6.98159" rx="1.84419" transform="rotate(90 80.4854 44.6562)" fill="black"/>
</svg>
