<svg width="81" height="100" viewBox="0 0 81 100" fill="none" xmlns="http://www.w3.org/2000/svg">
<path d="M25.456 41.4887C21.7987 37.3813 21.9174 33.9758 22.2758 28.9171C23.1134 17.0981 25.9863 -1.40523 41.862 0.0847088C45.7591 0.450473 48.8307 1.3609 51.4624 4.52644C57.9963 12.5022 58.8319 24.2955 58.9268 34.1635C58.9528 36.8796 57.3276 39.5145 55.7354 41.5166C57.8794 42.2374 59.9793 43.0809 62.0254 44.0425C67.1789 46.4561 69.116 48.4024 71.6188 53.5051C74.6893 59.7883 77.2621 66.3013 79.3141 72.9844C80.0038 75.2771 80.5396 77.3339 80.8944 79.7063C81.64 84.6831 78.3486 90.0859 73.8088 92.1756C74.9712 88.8036 73.383 85.6298 70.5693 83.6477C69.3699 82.8025 68.2924 82.4192 66.922 81.9493C67.2449 78.3743 67.5877 74.8003 67.9496 71.2283C68.1265 69.4273 68.3724 67.4541 68.4093 65.6562C68.3953 65.0001 67.9026 64.0285 67.3828 63.6472C65.9945 62.6267 63.2758 62.9503 61.5696 62.9603L55.9543 62.9523L35.987 62.9383L22.1823 62.9324C19.8982 62.9294 17.5784 62.8886 15.2976 62.9732C14.1858 62.9573 12.6951 64.2445 12.7017 65.3864C12.7136 67.4273 12.997 69.7947 13.2221 71.8395C13.5935 75.2114 13.8137 78.6033 14.2024 81.9632C9.25139 83.2037 6.05321 87.0455 7.24494 92.2154C2.80016 89.5861 -0.948855 84.6423 0.214092 79.2185C2.3 69.49 6.25911 59.6796 10.8464 50.8644C13.4913 45.8906 20.3752 43.1527 25.456 41.4887Z" fill="#1FAAE1"/>
<path d="M45.9531 16.1992C46.23 16.2671 49.7992 18.8209 50.3098 19.1686C51.2497 21.1763 52.2689 25.6137 52.3381 27.9153C52.0392 29.7228 50.9307 32.4512 50.0991 33.9893C46.7837 40.1223 40.8221 43.2056 34.6657 39.555C30.8485 36.9532 28.884 33.0246 27.5191 28.6119C26.9551 26.7885 28.8295 20.7515 29.6478 19.1376C31.0701 19.584 32.5334 19.8748 34.0139 20.0051C38.7235 20.4189 42.3479 19.3753 45.9531 16.1992Z" fill="white"/>
<path d="M46.0966 39.875L46.108 43.0926C45.6941 43.4365 45.2081 43.7907 44.7771 44.119C43.3608 45.2081 41.9369 46.2858 40.5073 47.3519C38.6192 45.9823 36.7473 44.5833 34.893 43.1555C34.891 42.0706 34.8965 40.9858 34.9095 39.9011C38.9078 42.3499 42.1049 42.3197 46.0966 39.875Z" fill="white"/>
<path d="M39.4519 14.9531C41.1378 14.972 43.2908 15.0588 44.862 15.6948C42.0155 17.7247 40.168 18.5292 36.5424 18.6783C34.8948 18.7628 32.7483 18.4302 31.1543 18.0482C33.3978 15.9019 36.3521 15.1175 39.4519 14.9531Z" fill="#154B60"/>
<path d="M53.431 31.1523C53.6624 32.247 53.6099 34.0757 53.4192 35.2005C52.8213 38.7308 50.3483 40.4344 47.4906 42.3677L47.4434 42.3252C47.3063 41.9825 47.3663 39.8881 47.3684 39.3801C50.4511 37.1928 51.9534 34.3944 53.431 31.1523Z" fill="#154B60"/>
<path d="M27.5381 31.1523C27.8086 31.5301 28.2357 32.7567 28.4986 33.2784C29.6754 35.6592 31.4377 37.7551 33.6458 39.4004L33.6218 42.3677C28.6088 39.0063 26.9159 37.1497 27.5381 31.1523Z" fill="#154B60"/>
<path d="M14.8819 63.6451C16.4113 63.4858 19.8155 63.585 21.5204 63.587L33.9341 63.588L54.9341 63.597C58.357 63.599 61.7961 63.57 65.2019 63.6001C66.6505 63.6131 67.3582 64.2793 67.2879 65.6618C67.2346 66.7167 67.121 67.7916 67.0235 68.8345L66.4605 74.7603C65.8523 81.0777 65.1386 88.0413 64.7143 94.3828C64.5445 95.1592 64.4098 95.3085 63.8448 95.8775L31.0176 95.8935H21.6013C20.2468 95.8945 18.6951 96.0558 17.3662 95.8505C17.0826 95.8064 16.866 95.6331 16.7083 95.3976C16.4479 95.0079 16.3741 94.3918 16.3178 93.929C15.7162 88.978 15.4156 83.9519 14.9488 78.9839C14.7764 77.1496 13.4987 65.9894 13.7377 64.9535C13.8878 64.3023 14.3389 63.9787 14.8819 63.6451Z" fill="#E2231A"/>
<path d="M39.0563 77.3219C41.7709 76.9254 44.3394 78.5293 44.7927 80.9044C45.247 83.2795 43.4137 85.5269 40.6992 85.9243C37.9846 86.3218 35.4153 84.7178 34.9615 82.3418C34.5078 79.9667 36.3413 77.7185 39.0563 77.3219Z" fill="#FFD600"/>
<path d="M13.7126 97.2052L67.2808 97.1992C67.3092 98.1749 67.3327 98.5049 66.7664 99.257C66.2795 99.5458 66.1619 99.63 65.6133 99.631C54.7628 99.6611 43.8966 99.6992 33.0478 99.6902L21.2717 99.6681C19.2606 99.6661 17.2072 99.6721 15.1954 99.6451C14.8575 99.64 14.4082 99.4776 14.1786 99.2129C13.6515 98.6042 13.7062 97.9493 13.7126 97.2052Z" fill="#3FA9F5"/>
<path d="M13.6827 83.4922L13.8743 83.548C14.0719 84.462 14.1875 86.0739 14.2908 87.06L14.9535 93.4094C13.1538 93.4337 10.8656 93.6462 9.3104 92.9907C7.32469 91.7408 7.07197 89.6426 7.97712 87.766C9.09505 85.4481 11.1289 84.4071 13.6827 83.4922Z" fill="white"/>
<path d="M66.9274 83.4922C68.2976 84.0375 69.5866 84.6331 70.6062 85.7641C72.3727 87.7221 73.1083 90.8586 70.9473 92.8579C69.7757 93.675 67.5249 93.4328 66.0459 93.4122C66.2902 90.4765 66.5294 86.3363 66.9274 83.4922Z" fill="white"/>
</svg>
