<svg width="577" height="429" viewBox="0 0 577 429" fill="none" xmlns="http://www.w3.org/2000/svg">
<rect x="56.2988" width="463.906" height="429" fill="#DD2B20"/>
<path d="M56.2988 347.164H520.007" stroke="#1A1A1A" stroke-width="2" stroke-linecap="round"/>
<g clip-path="url(#clip0_2565_2)">
<path d="M391.457 54H185.4C159.222 54 138 75.2035 138 101.359V101.36C138 127.515 159.222 148.719 185.4 148.719H391.457C417.636 148.719 438.857 127.515 438.857 101.359C438.857 75.2035 417.636 54 391.457 54Z" fill="white"/>
<path d="M226.34 112.701C225.81 112.701 225.349 112.505 224.957 112.114C224.588 111.722 224.404 111.262 224.404 110.733V89.4606C224.404 88.9311 224.588 88.4706 224.957 88.0792C225.349 87.6879 225.81 87.4922 226.34 87.4922H238.575C239.105 87.4922 239.554 87.6879 239.923 88.0792C240.314 88.4706 240.511 88.9311 240.511 89.4606V90.2548C240.511 90.7843 240.314 91.2447 239.923 91.6361C239.554 92.0275 239.105 92.2232 238.575 92.2232H230.556C230.372 92.2232 230.28 92.3153 230.28 92.4994V97.0578C230.28 97.265 230.372 97.3686 230.556 97.3686H237.884C238.413 97.3686 238.863 97.5643 239.232 97.9557C239.623 98.347 239.819 98.8075 239.819 99.337V99.8549C239.819 100.384 239.623 100.845 239.232 101.236C238.863 101.628 238.413 101.823 237.884 101.823H230.556C230.372 101.823 230.28 101.915 230.28 102.1V107.694C230.28 107.878 230.372 107.97 230.556 107.97H238.575C239.105 107.97 239.554 108.166 239.923 108.557C240.314 108.948 240.511 109.409 240.511 109.939V110.733C240.511 111.262 240.314 111.722 239.923 112.114C239.554 112.505 239.105 112.701 238.575 112.701H226.34ZM244.119 92.3613C243.588 92.3613 243.128 92.1656 242.736 91.7742C242.344 91.3829 242.149 90.9224 242.149 90.3929V89.4606C242.149 88.9311 242.344 88.4706 242.736 88.0792C243.128 87.6879 243.588 87.4922 244.119 87.4922H259.533C260.064 87.4922 260.524 87.6879 260.916 88.0792C261.308 88.4706 261.503 88.9311 261.503 89.4606V90.3929C261.503 90.9224 261.308 91.3829 260.916 91.7742C260.524 92.1656 260.064 92.3613 259.533 92.3613H255.11C254.925 92.3613 254.833 92.4534 254.833 92.6376V110.733C254.833 111.262 254.637 111.722 254.245 112.114C253.853 112.505 253.393 112.701 252.863 112.701H250.789C250.259 112.701 249.798 112.505 249.407 112.114C249.015 111.722 248.819 111.262 248.819 110.733V92.6376C248.819 92.4534 248.727 92.3613 248.542 92.3613H244.119ZM265.447 112.701C264.918 112.701 264.456 112.505 264.065 112.114C263.673 111.722 263.477 111.262 263.477 110.733V89.4606C263.477 88.9311 263.673 88.4706 264.065 88.0792C264.456 87.6879 264.918 87.4922 265.447 87.4922H267.417C267.947 87.4922 268.396 87.6879 268.765 88.0792C269.157 88.4706 269.353 88.9311 269.353 89.4606V97.0578C269.353 97.265 269.457 97.3686 269.664 97.3686H276.784C276.991 97.3686 277.095 97.265 277.095 97.0578V89.4606C277.095 88.9311 277.279 88.4706 277.648 88.0792C278.039 87.6879 278.5 87.4922 279.03 87.4922H281C281.53 87.4922 281.991 87.6879 282.383 88.0792C282.774 88.4706 282.971 88.9311 282.971 89.4606V110.733C282.971 111.262 282.774 111.722 282.383 112.114C281.991 112.505 281.53 112.701 281 112.701H279.03C278.5 112.701 278.039 112.505 277.648 112.114C277.279 111.722 277.095 111.262 277.095 110.733V102.1C277.095 101.915 276.991 101.823 276.784 101.823H269.664C269.457 101.823 269.353 101.915 269.353 102.1V110.733C269.353 111.262 269.157 111.722 268.765 112.114C268.396 112.505 267.947 112.701 267.417 112.701H265.447Z" fill="#D02119"/>
<path d="M287.828 112.699C287.299 112.699 286.838 112.503 286.446 112.112C286.055 111.72 285.858 111.26 285.858 110.73V89.4582C285.858 88.9287 286.055 88.4683 286.446 88.0769C286.838 87.6855 287.299 87.4898 287.828 87.4898H289.799C290.398 87.4898 290.939 87.651 291.423 87.9733C291.907 88.2956 292.264 88.733 292.495 89.2856L297.852 102.304C297.852 102.327 297.863 102.339 297.886 102.339C297.909 102.339 297.921 102.327 297.921 102.304L303.278 89.2856C303.508 88.733 303.866 88.2956 304.349 87.9733C304.833 87.651 305.375 87.4898 305.974 87.4898H308.082C308.612 87.4898 309.073 87.6855 309.465 88.0769C309.856 88.4683 310.052 88.9287 310.052 89.4582V110.73C310.052 111.26 309.856 111.72 309.465 112.112C309.073 112.503 308.612 112.699 308.082 112.699H306.423C305.893 112.699 305.433 112.503 305.041 112.112C304.672 111.72 304.488 111.26 304.488 110.73V97.2972C304.488 97.2741 304.476 97.2626 304.453 97.2626C304.407 97.2626 304.384 97.2741 304.384 97.2972L301.066 105.136C300.836 105.689 300.467 106.126 299.96 106.448C299.476 106.771 298.935 106.932 298.336 106.932H297.437C296.838 106.932 296.285 106.771 295.778 106.448C295.294 106.126 294.937 105.689 294.706 105.136L291.388 97.2972C291.388 97.2741 291.366 97.2626 291.319 97.2626C291.296 97.2626 291.285 97.2741 291.285 97.2972V110.73C291.285 111.26 291.089 111.72 290.697 112.112C290.329 112.503 289.88 112.699 289.349 112.699H287.828ZM331.88 103.548C331.88 109.879 328.655 113.044 322.203 113.044C315.751 113.044 312.526 109.879 312.526 103.548V89.4582C312.526 88.9287 312.721 88.4683 313.113 88.0769C313.505 87.6855 313.965 87.4898 314.496 87.4898H316.5C317.03 87.4898 317.491 87.6855 317.883 88.0769C318.275 88.4683 318.47 88.9287 318.47 89.4582V103.962C318.47 105.527 318.77 106.644 319.369 107.312C319.968 107.979 320.936 108.313 322.272 108.313C323.608 108.313 324.577 107.979 325.175 107.312C325.775 106.644 326.074 105.527 326.074 103.962V89.4582C326.074 88.9287 326.27 88.4683 326.662 88.0769C327.053 87.6855 327.514 87.4898 328.044 87.4898H329.91C330.441 87.4898 330.901 87.6855 331.293 88.0769C331.685 88.4683 331.88 88.9287 331.88 89.4582V103.548ZM336.353 112.699C335.822 112.699 335.361 112.503 334.97 112.112C334.578 111.72 334.382 111.26 334.382 110.73V89.4582C334.382 88.9287 334.578 88.4683 334.97 88.0769C335.361 87.6855 335.822 87.4898 336.353 87.4898H338.322C338.921 87.4898 339.463 87.651 339.947 87.9733C340.431 88.2956 340.788 88.733 341.018 89.2856L346.375 102.304C346.375 102.327 346.387 102.339 346.41 102.339C346.433 102.339 346.445 102.327 346.445 102.304L351.802 89.2856C352.032 88.733 352.389 88.2956 352.873 87.9733C353.357 87.651 353.899 87.4898 354.497 87.4898H356.606C357.136 87.4898 357.596 87.6855 357.988 88.0769C358.38 88.4683 358.576 88.9287 358.576 89.4582V110.73C358.576 111.26 358.38 111.72 357.988 112.112C357.596 112.503 357.136 112.699 356.606 112.699H354.947C354.417 112.699 353.956 112.503 353.564 112.112C353.195 111.72 353.011 111.26 353.011 110.73V97.2972C353.011 97.2741 353 97.2626 352.977 97.2626C352.931 97.2626 352.908 97.2741 352.908 97.2972L349.589 105.136C349.359 105.689 348.991 106.126 348.484 106.448C348 106.771 347.459 106.932 346.859 106.932H345.961C345.361 106.932 344.809 106.771 344.302 106.448C343.818 106.126 343.461 105.689 343.23 105.136L339.912 97.2972C339.912 97.2741 339.889 97.2626 339.843 97.2626C339.82 97.2626 339.809 97.2741 339.809 97.2972V110.73C339.809 111.26 339.612 111.72 339.221 112.112C338.852 112.503 338.403 112.699 337.873 112.699H336.353ZM367.167 101.994V108.071C367.167 108.279 367.27 108.405 367.478 108.451C367.962 108.543 368.549 108.589 369.24 108.589C370.876 108.589 372.075 108.29 372.835 107.692C373.596 107.07 373.975 106.126 373.975 104.86C373.975 102.742 372.248 101.683 368.791 101.683H367.443C367.259 101.683 367.167 101.786 367.167 101.994ZM367.167 92.1173V97.1936C367.167 97.3778 367.259 97.4698 367.443 97.4698H368.307C371.671 97.4698 373.353 96.4684 373.353 94.4655C373.353 92.5546 371.948 91.5993 369.137 91.5993C368.469 91.5993 367.904 91.6453 367.443 91.7374C367.259 91.7834 367.167 91.9101 367.167 92.1173ZM363.331 112.768C362.777 112.722 362.317 112.48 361.948 112.043C361.579 111.605 361.395 111.11 361.395 110.558V89.6309C361.395 89.0553 361.579 88.5604 361.948 88.146C362.34 87.7086 362.812 87.4668 363.365 87.4208C365.162 87.2366 366.925 87.1445 368.653 87.1445C375.335 87.1445 378.676 89.2971 378.676 93.6021C378.676 95.0525 378.203 96.2842 377.259 97.2972C376.337 98.3101 375.093 98.9548 373.526 99.231C373.503 99.231 373.492 99.254 373.492 99.3001C373.492 99.3231 373.515 99.3346 373.561 99.3346C375.381 99.5878 376.821 100.279 377.881 101.407C378.964 102.535 379.505 103.881 379.505 105.447C379.505 108.002 378.653 109.913 376.948 111.179C375.266 112.423 372.616 113.044 368.999 113.044C367.178 113.044 365.289 112.952 363.331 112.768ZM389.597 92.6007L387.074 102.512C387.051 102.581 387.062 102.65 387.108 102.719C387.178 102.765 387.246 102.788 387.315 102.788H391.947C392.016 102.788 392.074 102.765 392.12 102.719C392.189 102.65 392.212 102.581 392.189 102.512L389.666 92.6007C389.666 92.5777 389.654 92.5662 389.632 92.5662C389.608 92.5662 389.597 92.5777 389.597 92.6007ZM380.369 112.699C379.885 112.699 379.493 112.503 379.193 112.112C378.917 111.72 378.859 111.295 379.021 110.834L386.002 89.3546C386.186 88.8021 386.509 88.3531 386.97 88.0078C387.454 87.6625 387.984 87.4898 388.56 87.4898H390.841C391.44 87.4898 391.982 87.6625 392.466 88.0078C392.949 88.3531 393.272 88.8021 393.433 89.3546L400.38 110.834C400.542 111.295 400.473 111.72 400.173 112.112C399.897 112.503 399.516 112.699 399.032 112.699H396.717C396.141 112.699 395.622 112.526 395.162 112.181C394.7 111.812 394.401 111.352 394.263 110.799L393.433 107.519C393.41 107.335 393.295 107.243 393.088 107.243H386.175C385.991 107.243 385.876 107.335 385.83 107.519L385 110.799C384.862 111.352 384.562 111.812 384.101 112.181C383.64 112.526 383.122 112.699 382.546 112.699H380.369ZM403.597 112.699C403.067 112.699 402.606 112.503 402.214 112.112C401.846 111.72 401.661 111.26 401.661 110.73V89.4582C401.661 88.9287 401.846 88.4683 402.214 88.0769C402.606 87.6855 403.067 87.4898 403.597 87.4898H406.155C406.684 87.4898 407.134 87.6855 407.502 88.0769C407.894 88.4683 408.09 88.9287 408.09 89.4582V110.73C408.09 111.26 407.894 111.72 407.502 112.112C407.134 112.503 406.684 112.699 406.155 112.699H403.597Z" fill="#D02119"/>
<path d="M189.358 65.875V93.0442L166.668 103.303L189.358 65.875Z" fill="#62D0FC"/>
<path d="M212.038 103.303L189.357 93.0442V65.875L212.038 103.303Z" fill="#1EABE4"/>
<path d="M189.357 116.629V93.043L166.667 103.302L189.357 116.629Z" fill="#1EABE4"/>
<path d="M212.038 103.302L189.357 93.043V116.629L212.038 103.302Z" fill="#0075A5"/>
<path d="M203.364 108.398H175.345L189.361 116.642L203.364 108.398Z" fill="#E91F25"/>
<path d="M212.056 107.578L189.357 120.906V139.358L212.056 107.578Z" fill="#1EABE4"/>
<path d="M166.667 107.578L189.357 120.906V139.358L166.667 107.578Z" fill="#62D0FC"/>
<path d="M203.356 90.8711H175.364V106.311H203.356V90.8711Z" fill="#E91F25"/>
<path d="M203.355 90.8711H189.363V106.311H203.355V90.8711Z" fill="#BF0613"/>
<path d="M177.085 92.5312H188.228C188.414 92.5312 188.564 92.6814 188.564 92.8658V99.6596H177.085C176.898 99.6596 176.748 99.5094 176.748 99.325V92.8665C176.748 92.6814 176.899 92.532 177.085 92.532V92.5312Z" fill="black"/>
<path d="M190.528 92.532H201.671C201.858 92.532 202.008 92.6822 202.008 92.8665V99.325C202.008 99.5101 201.857 99.6596 201.671 99.6596H190.191V92.8658C190.191 92.6807 190.342 92.5312 190.528 92.5312V92.532Z" fill="black"/>
<path d="M177.096 100.442H188.565V103.285C188.565 103.476 188.409 103.631 188.217 103.631H177.096C176.904 103.631 176.748 103.476 176.748 103.285V100.788C176.748 100.597 176.904 100.441 177.096 100.441V100.442Z" fill="black"/>
<path d="M190.19 100.442H201.658C201.851 100.442 202.007 100.598 202.007 100.789V103.284C202.007 103.475 201.851 103.631 201.658 103.631H190.539C190.347 103.631 190.19 103.475 190.19 103.284V100.441V100.442Z" fill="black"/>
<path fill-rule="evenodd" clip-rule="evenodd" d="M175.356 90.9164L203.36 90.909C203.288 89.5561 203.486 88.351 202.311 87.5422C201.295 86.8442 200.07 86.5974 198.621 86.3617C193.769 85.573 185.066 85.5723 180.204 86.3588C178.912 86.5676 177.36 86.8762 176.493 87.5199C175.632 88.16 175.28 89.278 175.356 90.9157L175.356 90.9164Z" fill="white"/>
<path fill-rule="evenodd" clip-rule="evenodd" d="M189.359 90.913L203.359 90.9093C203.287 89.5563 203.486 88.3513 202.31 87.5425C201.295 86.8445 200.07 86.5977 198.621 86.362C196.194 85.9673 192.747 85.7703 189.356 85.7695L189.359 90.9123L189.359 90.913Z" fill="#E3E6E8"/>
<path d="M190.756 87.4102H182.119C181.954 87.4102 181.819 87.5436 181.819 87.7083V89.4069C181.819 89.5715 181.954 89.705 182.119 89.705H190.756C190.922 89.705 191.056 89.5715 191.056 89.4069V87.7083C191.056 87.5436 190.922 87.4102 190.756 87.4102Z" fill="#020100"/>
<path d="M197.001 87.082H194.703C194.538 87.082 194.403 87.2155 194.403 87.3801V89.7381C194.403 89.9028 194.538 90.0362 194.703 90.0362H197.001C197.167 90.0362 197.301 89.9028 197.301 89.7381V87.3801C197.301 87.2155 197.167 87.082 197.001 87.082Z" fill="#020100"/>
<path fill-rule="evenodd" clip-rule="evenodd" d="M203.359 108.383L200.228 108.52C196.777 108.671 193.599 109.169 191.646 111.958L189.356 115.228L187.067 111.955C185.109 109.155 181.915 108.652 178.45 108.51L175.361 108.383V106.254H203.359V108.383Z" fill="#FBCE01"/>
<path fill-rule="evenodd" clip-rule="evenodd" d="M189.362 106.254H203.36V108.383L200.228 108.52C196.778 108.671 193.599 109.169 191.647 111.958L189.356 115.228L189.362 106.254Z" fill="#F9BE03"/>
<path d="M191.837 108.118H186.885C186.761 108.118 186.661 108.018 186.661 107.895C186.661 107.771 186.761 107.672 186.885 107.672H191.837C191.961 107.672 192.061 107.771 192.061 107.895C192.061 108.018 191.961 108.118 191.837 108.118Z" fill="black"/>
<path d="M191.837 109.282H186.885C186.761 109.282 186.661 109.182 186.661 109.059C186.661 108.936 186.761 108.836 186.885 108.836H191.837C191.961 108.836 192.061 108.936 192.061 109.059C192.061 109.182 191.961 109.282 191.837 109.282Z" fill="black"/>
<path d="M191.837 110.45H186.885C186.761 110.45 186.661 110.35 186.661 110.227C186.661 110.104 186.761 110.004 186.885 110.004H191.837C191.961 110.004 192.061 110.104 192.061 110.227C192.061 110.35 191.961 110.45 191.837 110.45Z" fill="black"/>
<path d="M203.356 105.363H175.364V106.614H203.356V105.363Z" fill="#029D3D"/>
<path d="M203.361 105.363H189.36V106.614H203.361V105.363Z" fill="#07702C"/>
<path d="M183.318 111.971C183.879 111.971 184.335 111.519 184.335 110.96C184.335 110.402 183.879 109.949 183.318 109.949C182.756 109.949 182.301 110.402 182.301 110.96C182.301 111.519 182.756 111.971 183.318 111.971Z" fill="white"/>
<path d="M195.405 111.971C195.966 111.971 196.422 111.519 196.422 110.96C196.422 110.402 195.966 109.949 195.405 109.949C194.843 109.949 194.388 110.402 194.388 110.96C194.388 111.519 194.843 111.971 195.405 111.971Z" fill="white"/>
<path d="M174.91 96.6016H173.265C173.006 96.6016 172.796 96.8102 172.796 97.0677V99.8881C172.796 100.145 173.006 100.354 173.265 100.354H174.91C175.169 100.354 175.379 100.145 175.379 99.8881V97.0677C175.379 96.8102 175.169 96.6016 174.91 96.6016Z" fill="#020100"/>
<path d="M205.456 96.6016H203.811C203.552 96.6016 203.342 96.8102 203.342 97.0677V99.8881C203.342 100.145 203.552 100.354 203.811 100.354H205.456C205.715 100.354 205.924 100.145 205.924 99.8881V97.0677C205.924 96.8102 205.715 96.6016 205.456 96.6016Z" fill="#020100"/>
</g>
<g style="mix-blend-mode:multiply">
<ellipse cx="288.5" cy="384.5" rx="288.5" ry="10.5" fill="#D3D3D3"/>
</g>
<path d="M163.162 237.633L172.311 200.781L200.268 206.881C198.844 218.673 201.708 227.213 203.317 230.008L163.162 237.633Z" fill="#130F08" stroke="#1A1A1A" stroke-linecap="round"/>
<path d="M220.854 384.223L217.295 321.703H213.229L215.771 384.223H220.854Z" fill="#9A9A98" stroke="#1A1A1A" stroke-linecap="round"/>
<path d="M150.963 381.176L154.521 318.656H158.587L156.046 381.176H150.963Z" fill="#9A9A98" stroke="#1A1A1A" stroke-linecap="round"/>
<path d="M158.87 381.436L159.855 318.822L163.918 318.655L163.949 381.227L158.87 381.436Z" fill="#9A9A98" stroke="#1A1A1A" stroke-linecap="round"/>
<path d="M154.267 383.462C152.742 381.683 158.841 377.617 159.858 377.109C160.353 376.861 162.505 375.032 164.687 373.122C166.09 371.894 167.504 370.633 168.499 369.738H183.24C184.028 371.944 184.154 376.532 184.092 379.904C184.074 380.883 184.04 381.76 184.002 382.446C179.343 384.055 168.55 387.325 162.654 387.529C156.758 387.732 154.606 386.427 154.267 385.75V383.462Z" fill="#FBFBF6"/>
<path d="M154.267 383.462C152.742 381.683 158.841 377.617 159.858 377.109C160.353 376.861 162.505 375.032 164.687 373.122M154.267 383.462V385.75C154.606 386.427 156.758 387.732 162.654 387.529C168.55 387.325 179.343 384.055 184.002 382.446C184.04 381.76 184.074 380.883 184.092 379.904M154.267 383.462C154.352 383.971 155.487 384.987 159.35 384.987C164.179 384.987 175.795 382.191 184.092 379.904M184.092 379.904C184.154 376.532 184.028 371.944 183.24 369.738H168.499C167.504 370.633 166.09 371.894 164.687 373.122M164.687 373.122C165.958 373.35 169.007 374.415 171.041 376.854" stroke="#1A1A1A" stroke-linecap="round"/>
<path d="M168.754 378.887C168.076 377.785 165.907 375.43 162.654 374.82" stroke="#1A1A1A" stroke-linecap="round"/>
<path d="M223.244 383.208C224.769 381.429 218.669 377.363 217.653 376.855C217.158 376.607 215.006 374.778 212.824 372.868C211.421 371.64 210.006 370.379 209.012 369.484H194.271C193.483 371.69 193.357 376.278 193.419 379.65C193.437 380.629 193.471 381.506 193.509 382.192C198.168 383.801 208.961 387.071 214.857 387.275C220.753 387.478 222.905 386.173 223.244 385.496V383.208Z" fill="#FBFBF6"/>
<path d="M223.244 383.208C224.769 381.429 218.669 377.363 217.653 376.855C217.158 376.607 215.006 374.778 212.824 372.868M223.244 383.208V385.496C222.905 386.173 220.753 387.478 214.857 387.275C208.961 387.071 198.168 383.801 193.509 382.192C193.471 381.506 193.437 380.629 193.419 379.65M223.244 383.208C223.159 383.717 222.024 384.733 218.161 384.733C213.332 384.733 201.716 381.938 193.419 379.65M193.419 379.65C193.357 376.278 193.483 371.69 194.271 369.484H209.012C210.006 370.379 211.421 371.64 212.824 372.868M212.824 372.868C211.553 373.096 208.503 374.161 206.47 376.6" stroke="#1A1A1A" stroke-linecap="round"/>
<path d="M208.758 378.633C209.436 377.531 211.604 375.176 214.857 374.566" stroke="#1A1A1A" stroke-linecap="round"/>
<path d="M178.411 374.059C176.377 374.059 173.158 371.178 171.803 369.738H182.223C181.799 371.178 180.444 374.059 178.411 374.059Z" fill="#EEAF85" stroke="#1A1A1A" stroke-linecap="round"/>
<path d="M199.251 373.805C201.284 373.805 204.503 370.925 205.858 369.484H195.438C195.862 370.925 197.217 373.805 199.251 373.805Z" fill="#EEAF85" stroke="#1A1A1A" stroke-linecap="round"/>
<path d="M152.742 311.285H157.316H219.328C222.988 314.335 221.022 318.486 219.582 320.18H152.742C150.912 319.57 150.285 318.232 150.2 317.639V313.572C150.81 312.353 152.149 311.539 152.742 311.285Z" fill="#F9F8F6" stroke="#1A1A1A" stroke-linecap="round"/>
<path d="M158.841 288.411L211.45 287.648C214.415 290.105 220.142 296.035 219.328 300.102C219.667 302.474 219.837 310.928 217.804 325.77L212.466 370.246L192.135 370.754L194.93 311.538H180.698L184.51 370.754H164.179L157.062 310.268C154.86 308.234 151.878 301.728 157.571 291.969L158.841 288.411Z" fill="#E02E24"/>
<path d="M219.328 300.102C220.142 296.035 214.415 290.105 211.45 287.648L158.841 288.411L157.571 291.969C151.878 301.728 154.86 308.234 157.062 310.268M219.328 300.102C219.667 302.474 219.837 310.928 217.804 325.77L212.466 370.246L192.135 370.754L194.93 311.538M219.328 300.102C209.925 284.599 199.505 294.765 197.218 297.814C195.388 300.254 194.93 307.98 194.93 311.538M194.93 311.538H180.698M180.698 311.538L184.51 370.754H164.179L157.062 310.268M180.698 311.538C181.105 299.949 176.462 294.68 174.09 293.494C162.145 288.919 158.079 297.56 157.062 300.102C156.249 302.135 156.724 307.726 157.062 310.268" stroke="#1A1A1A" stroke-linecap="round"/>
<path d="M171.803 221.569C174.649 218.113 179.935 217.418 182.223 217.503C185.696 217.757 193.558 218.519 197.217 219.536C200.877 220.552 201.792 224.704 201.792 226.652C210.331 227.465 215.177 236.14 216.532 240.376L222.632 254.1H219.582L213.483 256.133V276.465V290.189C209.671 288.156 201.538 288.918 195.947 290.697C191.474 292.12 184.086 291.798 180.952 291.459C177.902 290.612 170.684 288.918 166.211 288.918C160.62 288.918 158.333 293.239 157.825 292.222C157.418 291.409 157.994 279.345 158.333 273.415L161.128 258.42L146.134 253.337C152.996 233.768 155.537 233.514 158.333 230.718C160.569 228.482 166.72 226.737 169.515 226.144C169.515 223.907 171.04 222.162 171.803 221.569Z" fill="#FBFBF6"/>
<path d="M169.515 226.144C169.515 223.907 171.04 222.162 171.803 221.569C174.649 218.113 179.935 217.418 182.223 217.503C185.696 217.757 193.558 218.519 197.217 219.536C200.877 220.552 201.792 224.704 201.792 226.652M169.515 226.144C166.72 226.737 160.569 228.482 158.333 230.718C155.537 233.514 152.996 233.768 146.134 253.337L161.128 258.42M169.515 226.144C169.6 228.6 172.209 234.124 181.969 236.564M161.128 258.42L158.333 273.415C157.994 279.345 157.418 291.409 157.825 292.222C158.333 293.239 160.62 288.918 166.211 288.918C170.684 288.918 177.902 290.612 180.952 291.459C184.086 291.798 191.474 292.12 195.947 290.697C201.538 288.918 209.671 288.156 213.483 290.189V276.465V256.133L219.582 254.1H222.632L216.532 240.376C215.177 236.14 210.331 227.465 201.792 226.652M161.128 258.42L162.399 258.675L166.211 246.73M201.792 226.652C201.623 229.193 199.098 234.734 190.355 236.564" stroke="#1A1A1A" stroke-linecap="round"/>
<path d="M158.587 265.792L160.112 258.219L148.421 254.152C147.405 259.998 145.88 270.214 145.88 273.468C145.88 276.721 147.913 277.873 149.184 278.296L171.549 279.262V269.655L158.587 265.792Z" fill="#E02E24"/>
<path d="M158.587 265.792L160.112 258.219L148.421 254.152C147.405 259.998 145.88 270.214 145.88 273.468C145.88 276.721 147.913 277.873 149.184 278.296L171.549 279.262V269.655L158.587 265.792ZM158.587 265.792C158.045 265.792 156.754 265.792 155.605 265.792M155.605 265.792C155.496 265.792 155.389 265.792 155.283 265.792C154.063 265.792 154.989 265.792 155.605 265.792Z" stroke="#1A1A1A" stroke-linecap="round"/>
<path d="M224.92 266.555L220.853 254.102H215.771L217.295 278.754C218.99 279.262 222.887 279.465 224.92 276.212C226.953 272.959 225.767 268.419 224.92 266.555Z" fill="#E02E24" stroke="#1A1A1A" stroke-linecap="round"/>
<path d="M178.156 225.889L178.41 219.027C185.12 225.127 191.202 223.941 193.405 222.585L192.897 228.939C192.897 228.939 191.027 230.405 189.593 231.481C187.56 233.005 186.543 235.039 186.543 235.039C186.543 235.039 186.86 234.296 185.272 233.005C183.684 231.715 181.206 230.718 179.173 227.922C178.539 227.05 178.156 225.889 178.156 225.889Z" fill="#EEAF85" stroke="#1A1A1A" stroke-linecap="round"/>
<path d="M171.549 208.864C171.345 206.221 173.328 205.391 174.344 205.306C175.954 201.24 180.952 192.599 188.068 190.566C195.184 188.532 200.013 200.054 201.538 206.069C201.962 206.323 202.707 207.39 202.301 209.627C201.894 211.863 200.098 213.1 199.251 213.439C197.014 221.165 193.405 224.282 191.881 224.875C190.949 225.807 187.967 227.112 183.494 224.875C179.021 222.639 176.378 216.319 175.615 213.439C172.565 213.642 171.633 210.474 171.549 208.864Z" fill="#EEAF85" stroke="#1A1A1A" stroke-linecap="round"/>
<path d="M168.245 276.214L170.279 245.717C170.448 245.124 171.143 243.938 172.566 243.938H218.312C218.821 243.938 219.939 244.242 220.345 245.462L217.804 276.214C218.228 276.722 218.821 278.095 217.804 279.518C216.787 280.941 217.211 280.111 217.55 279.518H166.975C166.72 278.247 166.619 275.808 168.245 276.214Z" fill="#9B9C9B"/>
<path d="M168.245 276.214L170.279 245.717C170.448 245.124 171.143 243.938 172.566 243.938C173.989 243.938 203.656 243.938 218.312 243.938C218.821 243.938 219.939 244.242 220.345 245.462L217.804 276.214M168.245 276.214C166.619 275.808 166.72 278.247 166.975 279.518H217.55C217.211 280.111 216.787 280.941 217.804 279.518C218.821 278.095 218.228 276.722 217.804 276.214M168.245 276.214H217.804" stroke="#1A1A1A" stroke-linecap="round"/>
<path d="M178.157 221.316C174.683 222.333 170.481 226.145 181.461 233.261" stroke="#1A1A1A" stroke-linecap="round"/>
<path d="M195.439 221.824C197.557 223.688 199.658 228.534 191.118 233.007" stroke="#1A1A1A" stroke-linecap="round"/>
<path d="M183.239 234.531V243.426" stroke="#1A1A1A" stroke-linecap="round"/>
<path d="M189.593 234.531V243.426" stroke="#1A1A1A" stroke-linecap="round"/>
<path d="M189.593 209.625L190.864 215.979C190.779 216.487 190.152 217.249 188.322 216.233" stroke="#1A1A1A" stroke-linecap="round"/>
<path d="M185.019 219.539C185.612 220.047 187.509 220.911 190.356 220.302" stroke="#1A1A1A" stroke-linecap="round"/>
<path d="M182.478 207.847C182.986 207.085 184.511 205.967 186.544 207.593" stroke="#1A1A1A" stroke-linecap="round"/>
<path d="M191.817 207.557C192.45 206.895 194.147 206.06 195.865 208.016" stroke="#1A1A1A" stroke-linecap="round"/>
<ellipse cx="184.51" cy="210.898" rx="0.762441" ry="1.01659" transform="rotate(7.64066 184.51 210.898)" fill="black"/>
<ellipse cx="193.787" cy="210.988" rx="0.762441" ry="1.01659" transform="rotate(7.64066 193.787 210.988)" fill="black"/>
<circle cx="194.168" cy="261.472" r="3.3122" fill="#FDFBF6" stroke="#1A1A1A"/>
<path d="M184.511 198.189C182.477 204.085 179.089 206.068 177.649 206.322C176.886 210.642 175.615 209.117 175.107 209.117C174.701 209.117 174.26 207.084 174.091 206.068L172.566 205.559C172.566 205.559 172.066 200.057 172.82 196.664C173.328 194.377 174.091 193.869 174.853 192.344C176.971 189.277 183.748 183.916 193.914 187.007C202.047 191.327 202.301 198.443 201.793 202.764C201.386 206.22 201.115 207.084 201.03 207.084C200.42 210.541 199.59 212.421 199.251 212.93V205.305C193.152 204.797 186.798 200.222 185.781 198.952C184.968 197.935 184.595 198.02 184.511 198.189Z" fill="#130F08" stroke="#1A1A1A" stroke-linecap="round"/>
<path d="M411.973 230.228L403.84 197.48L376.244 207.101C377.667 218.893 374.804 227.433 373.194 230.228H411.973Z" fill="#130F08" stroke="#1A1A1A" stroke-linecap="round"/>
<path d="M355.657 384.442L359.215 321.922H363.282L360.74 384.442H355.657Z" fill="#9A9A98" stroke="#1A1A1A" stroke-linecap="round"/>
<path d="M425.548 381.395L421.99 318.875H417.923L420.465 381.395H425.548Z" fill="#9A9A98" stroke="#1A1A1A" stroke-linecap="round"/>
<path d="M417.64 381.655L416.656 319.041L412.593 318.874L412.562 381.446L417.64 381.655Z" fill="#9A9A98" stroke="#1A1A1A" stroke-linecap="round"/>
<path d="M422.244 383.681C423.769 381.902 417.669 377.836 416.653 377.327C416.158 377.08 414.006 375.25 411.824 373.341C410.421 372.113 409.006 370.852 408.012 369.957H393.271C392.483 372.163 392.357 376.751 392.419 380.123C392.437 381.102 392.471 381.978 392.509 382.664C397.168 384.274 407.961 387.544 413.857 387.747C419.753 387.951 421.905 386.646 422.244 385.968V383.681Z" fill="#FBFBF6"/>
<path d="M422.244 383.681C423.769 381.902 417.669 377.836 416.653 377.327C416.158 377.08 414.006 375.25 411.824 373.341M422.244 383.681V385.968C421.905 386.646 419.753 387.951 413.857 387.747C407.961 387.544 397.168 384.274 392.509 382.664C392.471 381.978 392.437 381.102 392.419 380.123M422.244 383.681C422.159 384.189 421.024 385.206 417.161 385.206C412.332 385.206 400.716 382.41 392.419 380.123M392.419 380.123C392.357 376.751 392.483 372.163 393.271 369.957H408.012C409.006 370.852 410.421 372.113 411.824 373.341M411.824 373.341C410.553 373.568 407.503 374.633 405.47 377.073" stroke="#1A1A1A" stroke-linecap="round"/>
<path d="M407.758 379.105C408.436 378.004 410.604 375.649 413.857 375.039" stroke="#1A1A1A" stroke-linecap="round"/>
<path d="M353.267 383.427C351.742 381.648 357.841 377.582 358.858 377.073C359.353 376.826 361.505 374.997 363.687 373.087C365.09 371.859 366.504 370.598 367.499 369.703H382.24C383.028 371.909 383.154 376.497 383.092 379.869C383.074 380.848 383.04 381.724 383.002 382.41C378.343 384.02 367.55 387.29 361.654 387.493C355.758 387.697 353.606 386.392 353.267 385.714V383.427Z" fill="#FBFBF6"/>
<path d="M353.267 383.427C351.742 381.648 357.841 377.582 358.858 377.073C359.353 376.826 361.505 374.997 363.687 373.087M353.267 383.427V385.714C353.606 386.392 355.758 387.697 361.654 387.493C367.55 387.29 378.343 384.02 383.002 382.41C383.04 381.724 383.074 380.848 383.092 379.869M353.267 383.427C353.352 383.935 354.487 384.952 358.35 384.952C363.179 384.952 374.795 382.156 383.092 379.869M383.092 379.869C383.154 376.497 383.028 371.909 382.24 369.703H367.499C366.504 370.598 365.09 371.859 363.687 373.087M363.687 373.087C364.958 373.314 368.007 374.379 370.041 376.819" stroke="#1A1A1A" stroke-linecap="round"/>
<path d="M367.753 378.852C367.075 377.75 364.906 375.395 361.653 374.785" stroke="#1A1A1A" stroke-linecap="round"/>
<path d="M398.1 374.278C400.133 374.278 403.353 371.397 404.708 369.957H394.288C394.712 371.397 396.067 374.278 398.1 374.278Z" fill="#EEAF85" stroke="#1A1A1A" stroke-linecap="round"/>
<path d="M377.26 374.024C375.227 374.024 372.008 371.143 370.652 369.703H381.072C380.649 371.143 379.293 374.024 377.26 374.024Z" fill="#EEAF85" stroke="#1A1A1A" stroke-linecap="round"/>
<path d="M423.769 311.504H419.194H357.183C353.523 314.554 355.488 318.705 356.928 320.399H423.769C425.599 319.789 426.226 318.451 426.311 317.858V313.791C425.701 312.571 424.362 311.758 423.769 311.504Z" fill="#F9F8F6" stroke="#1A1A1A" stroke-linecap="round"/>
<path d="M417.669 288.63L365.061 287.867C362.096 290.324 356.369 296.254 357.182 300.32C356.843 302.692 356.674 311.147 358.707 325.989L364.044 370.465L384.376 370.973L381.58 311.757H395.813L392 370.973H412.332L419.448 310.486C421.651 308.453 424.633 301.947 418.94 292.188L417.669 288.63Z" fill="#285DA8"/>
<path d="M357.182 300.32C356.369 296.254 362.096 290.324 365.061 287.867L417.669 288.63L418.94 292.188C424.633 301.947 421.651 308.453 419.448 310.486M357.182 300.32C356.843 302.692 356.674 311.147 358.707 325.989L364.044 370.465L384.376 370.973L381.58 311.757M357.182 300.32C366.586 284.817 377.006 294.983 379.293 298.033C381.123 300.473 381.58 308.199 381.58 311.757M381.58 311.757H395.813M395.813 311.757L392 370.973H412.332L419.448 310.486M395.813 311.757C395.406 300.168 400.048 294.899 402.421 293.713C414.365 289.138 418.432 297.779 419.448 300.32C420.262 302.354 419.787 307.945 419.448 310.486" stroke="#1A1A1A" stroke-linecap="round"/>
<path d="M404.708 221.788C401.862 218.331 396.575 217.637 394.288 217.721C390.815 217.976 382.953 218.738 379.293 219.755C375.634 220.771 374.719 224.922 374.719 226.871C366.179 227.684 361.334 236.359 359.978 240.595L353.879 254.319H356.928L363.028 256.352V276.684V290.407C366.84 288.374 374.973 289.137 380.564 290.916C385.037 292.339 392.424 292.017 395.559 291.678C398.609 290.831 405.826 289.137 410.299 289.137C415.891 289.137 418.178 293.457 418.686 292.441C419.093 291.627 418.517 279.564 418.178 273.634L415.382 258.639L430.377 253.556C423.515 233.987 420.974 233.733 418.178 230.937C415.941 228.701 409.791 226.955 406.995 226.362C406.995 224.126 405.471 222.381 404.708 221.788Z" fill="#F2BF20"/>
<path d="M406.995 226.362C406.995 224.126 405.471 222.381 404.708 221.788C401.862 218.331 396.575 217.637 394.288 217.721C390.815 217.976 382.953 218.738 379.293 219.755C375.634 220.771 374.719 224.922 374.719 226.871M406.995 226.362C409.791 226.955 415.941 228.701 418.178 230.937C420.974 233.733 423.515 233.987 430.377 253.556L415.382 258.639M406.995 226.362C406.911 228.819 404.301 234.343 394.542 236.783M415.382 258.639L418.178 273.634C418.517 279.564 419.093 291.627 418.686 292.441C418.178 293.457 415.891 289.137 410.299 289.137C405.826 289.137 398.609 290.831 395.559 291.678C392.424 292.017 385.037 292.339 380.564 290.916C374.973 289.137 366.84 288.374 363.028 290.407V276.684V256.352L356.928 254.319H353.879L359.978 240.595C361.334 236.359 366.179 227.684 374.719 226.871M415.382 258.639L414.112 258.893L410.299 246.948M374.719 226.871C374.888 229.412 377.413 234.953 386.155 236.783" stroke="#1A1A1A" stroke-linecap="round"/>
<path d="M417.924 266.011L416.399 258.437L428.089 254.371C429.106 260.216 430.631 270.433 430.631 273.686C430.631 276.939 428.598 278.091 427.327 278.515L404.962 279.481V269.874L417.924 266.011Z" fill="#285DA8"/>
<path d="M417.924 266.011L416.399 258.437L428.089 254.371C429.106 260.216 430.631 270.433 430.631 273.686C430.631 276.939 428.598 278.091 427.327 278.515L404.962 279.481V269.874L417.924 266.011ZM417.924 266.011C418.465 266.011 419.757 266.011 420.906 266.011M420.906 266.011C421.015 266.011 421.122 266.011 421.227 266.011C422.447 266.011 421.521 266.011 420.906 266.011Z" stroke="#1A1A1A" stroke-linecap="round"/>
<path d="M351.592 266.774L355.658 254.32H360.741L359.216 278.973C357.522 279.481 353.625 279.684 351.592 276.431C349.559 273.178 350.745 268.637 351.592 266.774Z" fill="#285DA8" stroke="#1A1A1A" stroke-linecap="round"/>
<path d="M398.354 226.108L398.1 219.246C391.391 225.346 385.308 224.16 383.106 222.804L383.614 229.158C383.614 229.158 385.484 230.624 386.918 231.699C388.951 233.224 389.968 235.257 389.968 235.257C389.968 235.257 389.65 234.514 391.238 233.224C392.826 231.934 395.305 230.937 397.338 228.141C397.972 227.269 398.354 226.108 398.354 226.108Z" fill="#EEAF85" stroke="#1A1A1A" stroke-linecap="round"/>
<path d="M404.962 209.083C405.165 206.44 403.183 205.61 402.166 205.525C400.557 201.459 395.558 192.818 388.442 190.784C381.326 188.751 376.497 200.273 374.973 206.287C374.549 206.541 373.804 207.609 374.21 209.845C374.617 212.082 376.413 213.319 377.26 213.658C379.496 221.384 383.105 224.501 384.63 225.094C385.562 226.026 388.544 227.331 393.017 225.094C397.49 222.858 400.133 216.538 400.896 213.658C403.945 213.861 404.877 210.693 404.962 209.083Z" fill="#EEAF85" stroke="#1A1A1A" stroke-linecap="round"/>
<path d="M408.266 276.433L406.233 245.935C406.064 245.342 405.369 244.156 403.946 244.156H358.199C357.691 244.156 356.573 244.461 356.166 245.681L358.708 276.433C358.284 276.941 357.691 278.314 358.708 279.737C359.724 281.16 359.301 280.33 358.962 279.737H409.537C409.791 278.466 409.893 276.026 408.266 276.433Z" fill="#9B9C9B"/>
<path d="M408.266 276.433L406.233 245.935C406.064 245.342 405.369 244.156 403.946 244.156C402.523 244.156 372.855 244.156 358.199 244.156C357.691 244.156 356.573 244.461 356.166 245.681L358.708 276.433M408.266 276.433C409.893 276.026 409.791 278.466 409.537 279.737H358.962C359.301 280.33 359.724 281.16 358.708 279.737C357.691 278.314 358.284 276.941 358.708 276.433M408.266 276.433H358.708" stroke="#1A1A1A" stroke-linecap="round"/>
<path d="M398.354 221.535C401.827 222.552 406.029 226.364 395.05 233.48" stroke="#1A1A1A" stroke-linecap="round"/>
<path d="M381.072 222.043C378.954 223.907 376.853 228.752 385.393 233.225" stroke="#1A1A1A" stroke-linecap="round"/>
<path d="M393.271 234.75V243.645" stroke="#1A1A1A" stroke-linecap="round"/>
<path d="M386.918 234.75V243.645" stroke="#1A1A1A" stroke-linecap="round"/>
<path d="M386.918 209.844L385.647 216.197C385.732 216.706 386.359 217.468 388.188 216.452" stroke="#1A1A1A" stroke-linecap="round"/>
<path d="M391.492 219.758C390.899 220.266 389.002 221.13 386.155 220.52" stroke="#1A1A1A" stroke-linecap="round"/>
<path d="M394.034 208.066C393.526 207.304 392.001 206.185 389.968 207.812" stroke="#1A1A1A" stroke-linecap="round"/>
<path d="M384.694 207.776C384.06 207.114 382.364 206.278 380.645 208.234" stroke="#1A1A1A" stroke-linecap="round"/>
<ellipse cx="0.762441" cy="1.01659" rx="0.762441" ry="1.01659" transform="matrix(-0.991121 0.13296 0.13296 0.991121 392.621 210.008)" fill="black"/>
<ellipse cx="0.762441" cy="1.01659" rx="0.762441" ry="1.01659" transform="matrix(-0.991121 0.13296 0.13296 0.991121 383.344 210.098)" fill="black"/>
<circle cx="3.8122" cy="3.8122" r="3.3122" transform="matrix(-1 0 0 1 386.155 257.879)" fill="#FDFBF6" stroke="#1A1A1A"/>
<path d="M392 198.408C394.033 204.304 397.422 206.286 398.862 206.541C401.552 207.899 400.535 213.999 401.044 213.999C401.45 213.999 402.251 207.303 402.42 206.286L403.945 205.778C403.945 205.778 404.445 200.275 403.691 196.883C403.183 194.596 402.42 194.087 401.658 192.563C399.54 189.496 392.763 184.135 382.597 187.225C374.464 191.546 374.21 198.662 374.718 202.982C375.125 206.439 375.396 207.303 375.481 207.303C376.091 210.759 376.921 212.64 377.26 213.148V205.524C383.359 205.016 389.713 200.441 390.729 199.17C391.543 198.154 391.915 198.238 392 198.408Z" fill="#130F08" stroke="#1A1A1A" stroke-linecap="round"/>
<path d="M325.562 384.227L322.004 321.707H317.938L320.48 384.227H325.562Z" fill="#9A9A98" stroke="#1A1A1A" stroke-linecap="round"/>
<path d="M255.672 381.176L259.23 318.656H263.296L260.755 381.176H255.672Z" fill="#9A9A98" stroke="#1A1A1A" stroke-linecap="round"/>
<path d="M263.579 381.436L264.564 318.822L268.627 318.655L268.658 381.227L263.579 381.436Z" fill="#9A9A98" stroke="#1A1A1A" stroke-linecap="round"/>
<path d="M258.976 383.466C257.451 381.687 263.55 377.621 264.567 377.112C265.062 376.865 267.214 375.036 269.396 373.126C270.799 371.898 272.213 370.637 273.208 369.742H287.949C288.737 371.948 288.863 376.536 288.801 379.908C288.783 380.887 288.749 381.763 288.711 382.45C284.052 384.059 273.259 387.329 267.363 387.532C261.467 387.736 259.315 386.431 258.976 385.753V383.466Z" fill="black"/>
<path d="M258.976 383.466C257.451 381.687 263.55 377.621 264.567 377.112C265.062 376.865 267.214 375.036 269.396 373.126M258.976 383.466V385.753C259.315 386.431 261.467 387.736 267.363 387.532C273.259 387.329 284.052 384.059 288.711 382.45C288.749 381.763 288.783 380.887 288.801 379.908M258.976 383.466C259.061 383.974 260.196 384.991 264.059 384.991C268.888 384.991 280.504 382.195 288.801 379.908M288.801 379.908C288.863 376.536 288.737 371.948 287.949 369.742H273.208C272.213 370.637 270.799 371.898 269.396 373.126M269.396 373.126C270.667 373.353 273.716 374.418 275.75 376.858" stroke="#1A1A1A" stroke-linecap="round"/>
<path d="M273.462 378.891C272.784 377.789 270.615 375.434 267.362 374.824" stroke="#1A1A1A" stroke-linecap="round"/>
<path d="M327.953 383.208C329.478 381.429 323.378 377.363 322.362 376.855C321.867 376.607 319.715 374.778 317.533 372.868C316.13 371.64 314.715 370.379 313.721 369.484H298.98C298.192 371.69 298.066 376.278 298.128 379.65C298.146 380.629 298.18 381.506 298.218 382.192C302.877 383.801 313.67 387.071 319.566 387.275C325.462 387.478 327.614 386.173 327.953 385.496V383.208Z" fill="black"/>
<path d="M327.953 383.208C329.478 381.429 323.378 377.363 322.362 376.855C321.867 376.607 319.715 374.778 317.533 372.868M327.953 383.208V385.496C327.614 386.173 325.462 387.478 319.566 387.275C313.67 387.071 302.877 383.801 298.218 382.192C298.18 381.506 298.146 380.629 298.128 379.65M327.953 383.208C327.868 383.717 326.733 384.733 322.87 384.733C318.041 384.733 306.425 381.938 298.128 379.65M298.128 379.65C298.066 376.278 298.192 371.69 298.98 369.484H313.721C314.715 370.379 316.13 371.64 317.533 372.868M317.533 372.868C316.262 373.096 313.212 374.161 311.179 376.6" stroke="#1A1A1A" stroke-linecap="round"/>
<path d="M313.467 378.633C314.145 377.531 316.313 375.176 319.566 374.566" stroke="#1A1A1A" stroke-linecap="round"/>
<path d="M283.12 374.063C281.086 374.063 277.867 371.182 276.512 369.742H286.932C286.508 371.182 285.153 374.063 283.12 374.063Z" fill="#EEAF85" stroke="#1A1A1A" stroke-linecap="round"/>
<path d="M303.96 373.805C305.993 373.805 309.212 370.925 310.567 369.484H300.147C300.571 370.925 301.926 373.805 303.96 373.805Z" fill="#EEAF85" stroke="#1A1A1A" stroke-linecap="round"/>
<path d="M257.451 311.285H262.025H324.037C327.697 314.335 325.731 318.486 324.291 320.18H257.451C255.621 319.57 254.994 318.232 254.909 317.639V313.572C255.519 312.353 256.858 311.539 257.451 311.285Z" fill="#F9F8F6" stroke="#1A1A1A" stroke-linecap="round"/>
<path d="M263.55 288.415L316.159 287.652C319.124 290.109 324.851 296.039 324.037 300.106C324.376 302.478 324.546 310.932 322.513 325.774L317.175 370.25L296.844 370.758L299.639 311.542H285.407L289.219 370.758H268.888L261.771 310.271C259.569 308.238 256.587 301.732 262.28 291.973L263.55 288.415Z" fill="#FBFBF6"/>
<path d="M324.037 300.106C324.851 296.039 319.124 290.109 316.159 287.652L263.55 288.415L262.28 291.973C256.587 301.732 259.569 308.238 261.771 310.271M324.037 300.106C324.376 302.478 324.546 310.932 322.513 325.774L317.175 370.25L296.844 370.758L299.639 311.542M324.037 300.106C314.634 284.603 304.214 294.768 301.927 297.818C300.097 300.258 299.639 307.984 299.639 311.542M299.639 311.542H285.407M285.407 311.542L289.219 370.758H268.888L261.771 310.271M285.407 311.542C285.814 299.953 281.171 294.684 278.799 293.498C266.854 288.923 262.788 297.564 261.771 300.106C260.958 302.139 261.433 307.73 261.771 310.271" stroke="#1A1A1A" stroke-linecap="round"/>
<path d="M329.629 266.555L325.308 253.34L320.479 254.102L322.004 278.755C323.699 279.263 327.596 279.466 329.629 276.213C331.662 272.96 330.476 268.419 329.629 266.555Z" fill="#EEAF85" stroke="#1A1A1A" stroke-linecap="round"/>
<path d="M276.512 221.573C279.358 218.117 284.644 217.422 286.932 217.507C290.405 217.761 298.267 218.523 301.926 219.54C305.586 220.556 306.501 224.707 306.501 226.656C315.04 227.469 319.886 236.144 321.241 240.38L327.341 254.104H324.291L318.192 256.137V276.469V290.193C314.379 288.159 306.247 288.922 300.656 290.701C296.183 292.124 288.795 291.802 285.661 291.463C282.611 290.616 275.393 288.922 270.92 288.922C265.329 288.922 263.042 293.242 262.534 292.226C262.127 291.413 262.703 279.349 263.042 273.419L265.837 258.424L250.843 253.341C257.705 233.772 260.246 233.518 263.042 230.722C265.278 228.486 271.429 226.741 274.224 226.148C274.224 223.911 275.749 222.166 276.512 221.573Z" fill="#2B5CA1"/>
<path d="M274.224 226.148C274.224 223.911 275.749 222.166 276.512 221.573C279.358 218.117 284.644 217.422 286.932 217.507C290.405 217.761 298.267 218.523 301.926 219.54C305.586 220.556 306.501 224.707 306.501 226.656M274.224 226.148C271.429 226.741 265.278 228.486 263.042 230.722C260.246 233.518 257.705 233.772 250.843 253.341L265.837 258.424M274.224 226.148C274.309 228.604 276.918 234.128 286.677 236.568M265.837 258.424L263.042 273.419C262.703 279.349 262.127 291.413 262.534 292.226C263.042 293.242 265.329 288.922 270.92 288.922C275.393 288.922 282.611 290.616 285.661 291.463C288.795 291.802 296.183 292.124 300.656 290.701C306.247 288.922 314.379 288.159 318.192 290.193V276.469V256.137L324.291 254.104H327.341L321.241 240.38C319.886 236.144 315.04 227.469 306.501 226.656M265.837 258.424L267.108 258.678L270.92 246.734M306.501 226.656C306.332 229.197 303.807 234.738 295.064 236.568" stroke="#1A1A1A" stroke-linecap="round"/>
<path d="M263.296 265.794L266.346 256.899L252.368 252.324C251.352 258.17 249.318 270.674 249.318 273.927C249.318 277.18 251.86 278.84 253.131 279.264H276.258V267.827L263.296 265.794Z" fill="#EEAF85"/>
<path d="M263.296 265.794L266.346 256.899L252.368 252.324C251.352 258.17 249.318 270.674 249.318 273.927C249.318 277.18 251.86 278.84 253.131 279.264H276.258V267.827L263.296 265.794ZM263.296 265.794C262.755 265.794 261.463 265.794 260.314 265.794M260.314 265.794C260.205 265.794 260.098 265.794 259.993 265.794C258.773 265.794 259.699 265.794 260.314 265.794Z" stroke="#1A1A1A" stroke-linecap="round"/>
<path d="M282.865 225.893L283.119 219.031C289.829 225.131 295.911 223.945 298.114 222.589L297.606 228.943C297.606 228.943 295.736 230.409 294.302 231.484C292.269 233.009 291.252 235.043 291.252 235.043C291.252 235.043 291.569 234.3 289.981 233.009C288.393 231.719 285.915 230.722 283.882 227.926C283.248 227.054 282.865 225.893 282.865 225.893Z" fill="#EEAF85" stroke="#1A1A1A" stroke-linecap="round"/>
<path d="M276.258 208.864C276.054 206.221 278.037 205.391 279.053 205.306C280.663 201.24 285.661 192.599 292.777 190.566C299.893 188.532 304.722 200.054 306.247 206.069C306.671 206.323 307.416 207.39 307.01 209.627C306.603 211.863 304.807 213.1 303.96 213.439C301.723 221.165 298.114 224.282 296.59 224.875C295.658 225.807 292.676 227.112 288.203 224.875C283.73 222.639 281.087 216.319 280.324 213.439C277.274 213.642 276.342 210.474 276.258 208.864Z" fill="#EEAF85" stroke="#1A1A1A" stroke-linecap="round"/>
<path d="M272.953 276.214L274.987 245.717C275.156 245.124 275.851 243.938 277.274 243.938H323.02C323.529 243.938 324.647 244.242 325.053 245.462L322.512 276.214C322.936 276.722 323.529 278.095 322.512 279.518C321.495 280.941 321.919 280.111 322.258 279.518H271.683C271.428 278.247 271.327 275.808 272.953 276.214Z" fill="#9B9C9B"/>
<path d="M272.953 276.214L274.987 245.717C275.156 245.124 275.851 243.938 277.274 243.938C278.697 243.938 308.365 243.938 323.02 243.938C323.529 243.938 324.647 244.242 325.053 245.462L322.512 276.214M272.953 276.214C271.327 275.808 271.428 278.247 271.683 279.518H322.258C321.919 280.111 321.495 280.941 322.512 279.518C323.529 278.095 322.936 276.722 322.512 276.214M272.953 276.214H322.512" stroke="#1A1A1A" stroke-linecap="round"/>
<path d="M282.866 221.32C279.392 222.337 275.19 226.149 286.17 233.265" stroke="#1A1A1A" stroke-linecap="round"/>
<path d="M300.148 221.828C302.266 223.692 304.366 228.538 295.827 233.011" stroke="#1A1A1A" stroke-linecap="round"/>
<path d="M287.948 234.535V243.43" stroke="#1A1A1A" stroke-linecap="round"/>
<path d="M294.302 234.535V243.43" stroke="#1A1A1A" stroke-linecap="round"/>
<path d="M294.302 209.629L295.573 215.983C295.488 216.491 294.861 217.253 293.031 216.237" stroke="#1A1A1A" stroke-linecap="round"/>
<path d="M289.728 219.539C290.321 220.047 292.218 220.911 295.065 220.302" stroke="#1A1A1A" stroke-linecap="round"/>
<path d="M287.187 207.847C287.695 207.085 289.22 205.967 291.253 207.593" stroke="#1A1A1A" stroke-linecap="round"/>
<path d="M296.526 207.557C297.159 206.895 298.856 206.06 300.574 208.016" stroke="#1A1A1A" stroke-linecap="round"/>
<ellipse cx="289.219" cy="210.898" rx="0.762441" ry="1.01659" transform="rotate(7.64066 289.219 210.898)" fill="black"/>
<ellipse cx="298.496" cy="210.992" rx="0.762441" ry="1.01659" transform="rotate(7.64066 298.496 210.992)" fill="black"/>
<circle cx="298.877" cy="261.472" r="3.3122" fill="#FDFBF6" stroke="#1A1A1A"/>
<path d="M289.219 198.191C287.186 204.087 283.798 206.07 282.357 206.324C281.595 210.644 280.324 209.119 279.816 209.119C279.409 209.119 278.969 207.086 278.799 206.07L277.274 205.561L277.529 196.666C278.037 194.379 278.799 193.871 279.562 192.346C280.172 191.126 281.341 190.99 281.849 191.075C283.679 184.162 293.794 185.484 298.623 187.009C306.755 191.329 307.01 198.445 306.501 202.766C306.095 206.222 305.824 207.086 305.739 207.086C305.129 210.543 304.299 212.423 303.96 212.932V205.307C297.86 204.799 291.507 200.224 290.49 198.954C289.677 197.937 289.304 198.022 289.219 198.191Z" fill="#130F08" stroke="#1A1A1A" stroke-linecap="round"/>
<path d="M93.7803 374.411V370.599H105.725L106.742 374.411C102.675 375.631 96.4065 374.919 93.7803 374.411Z" fill="#EEAF85"/>
<path d="M121.482 373.648L119.449 369.582H133.427V373.648H121.482Z" fill="#EEAF85"/>
<path d="M93.7803 374.411V370.599H105.725L106.742 374.411C102.675 375.631 96.4065 374.919 93.7803 374.411Z" stroke="#1A1A1A" stroke-linecap="round"/>
<path d="M121.482 373.648L119.449 369.582H133.427V373.648H121.482Z" stroke="#1A1A1A" stroke-linecap="round"/>
<path d="M133.48 373.904L133.734 372.379C137.038 374.581 144.408 379.241 147.458 380.257C150.508 381.274 149.915 384.239 149.237 385.594H119.756C118.941 383.008 119.419 377.745 119.756 375.383C120.01 373.604 119.756 371.571 119.756 370.555H120.519C120.519 371.148 121.383 373.7 121.789 373.904C122.196 374.107 129.753 373.988 133.48 373.904Z" fill="#0F0B07" stroke="#1A1A1A" stroke-linecap="round"/>
<path d="M17.79 385.337L24.1437 322.562H28.2101L22.1105 385.337H17.79Z" fill="#989895" stroke="#1A1A1A" stroke-linecap="round"/>
<path d="M72.6865 385.337L68.366 322.562H64.2997L68.366 385.337H72.6865Z" fill="#989895" stroke="#1A1A1A" stroke-linecap="round"/>
<path d="M94.0342 385.337L89.7137 322.562H85.6473L89.7137 385.337H94.0342Z" fill="#989895" stroke="#1A1A1A" stroke-linecap="round"/>
<path d="M57.1836 322.816V382.541H61.7582V322.816H57.1836Z" fill="#989895" stroke="#1A1A1A" stroke-linecap="round"/>
<path d="M71.6695 195.999C78.989 187.257 89.9681 195.406 94.5427 200.574L92.7637 205.657C92.3571 208.097 89.8834 213.959 88.6974 216.585C85.9018 223.956 83.3603 224.718 81.3271 226.497C79.7006 227.92 76.7525 227.09 75.4817 226.497C74.9734 229.547 72.6861 235.24 67.6032 233.613C62.5202 231.987 60.9106 225.142 60.7412 221.922L67.6032 213.027L66.5866 211.757C62.7744 207.69 65.8241 204.386 66.5866 200.574C67.1965 197.524 70.2294 196.254 71.6695 195.999Z" fill="#EEAF85"/>
<path d="M75.4817 226.497C74.9734 229.547 72.6861 235.24 67.6032 233.613C62.5202 231.987 60.9106 225.142 60.7412 221.922L67.6032 213.027L66.5866 211.757C62.7744 207.69 65.8241 204.386 66.5866 200.574C67.1965 197.524 70.2294 196.254 71.6695 195.999C78.989 187.257 89.9681 195.406 94.5427 200.574L92.7637 205.657C92.3571 208.097 89.8834 213.959 88.6974 216.585C85.9018 223.956 83.3603 224.718 81.3271 226.497C79.7006 227.92 76.7525 227.09 75.4817 226.497ZM75.4817 226.497C73.5333 225.565 69.433 222.685 68.6198 218.619" stroke="#1A1A1A" stroke-linecap="round"/>
<path d="M13.2158 243.779C13.2158 235.239 19.4848 233.952 22.6193 234.375H25.1607H37.3598L98.355 324.597H21.3485C17.0789 324.394 17.3669 319.43 18.0446 316.973V294.1C18.6546 292.066 16.9433 274.954 16.0114 266.652L13.2158 243.779Z" fill="#FAFAF9"/>
<path d="M18.0446 316.973V294.1C18.6546 292.066 16.9433 274.954 16.0114 266.652L13.2158 243.779C13.2158 235.239 19.4848 233.952 22.6193 234.375H25.1607M18.0446 316.973C17.3669 319.43 17.0789 324.394 21.3485 324.597H98.355L37.3598 234.375H25.1607M18.0446 316.973C18.8918 315.956 21.3485 314.126 24.3983 314.94M24.3983 314.94V287.238L21.3485 258.519L19.5695 246.32C19.0612 242.931 19.4678 235.798 25.1607 234.375M24.3983 314.94L45.2383 315.448" stroke="#1A1A1A" stroke-linecap="round"/>
<path d="M67.0947 316.465C68.196 316.719 70.4495 317.583 70.6528 319.006" stroke="#1A1A1A" stroke-linecap="round"/>
<path d="M105.979 374.154L106.233 372.629C109.537 374.832 116.907 379.491 119.957 380.508C123.007 381.525 122.414 384.49 121.736 385.845H92.2553C91.0354 383.405 92.0859 378.221 92.7636 375.933C92.967 375.323 93.0178 373.138 93.0178 372.121H93.7802C93.7802 372.714 93.8819 373.951 94.2885 374.154C94.6952 374.358 102.252 374.239 105.979 374.154Z" fill="#0F0B07" stroke="#1A1A1A" stroke-linecap="round"/>
<path d="M44.4755 315.193C34.1063 312.347 31.8529 302.994 32.0223 298.674L75.4815 288.254L76.2439 289.779L103.946 293.337C116.958 292.93 122.245 303.672 123.261 309.094L136.731 370.598H117.416L109.283 342.387L110.045 372.885L91.4927 371.868L84.1225 316.973L69.382 316.21L44.4755 315.193Z" fill="#285DA8"/>
<path d="M109.283 342.387L110.045 372.885L91.4927 371.868L84.1225 316.973L69.382 316.21L44.4755 315.193C34.1063 312.347 31.8529 302.994 32.0223 298.674L75.4815 288.254L76.2439 289.779L103.946 293.337C116.958 292.93 122.245 303.672 123.261 309.094L136.731 370.598H117.416L109.283 342.387ZM109.283 342.387L107.504 311.127C107.504 306.552 104.861 296.997 94.2884 295.37C83.7158 293.743 89.7137 294.692 94.0342 295.37L74.9732 291.558L74.4649 289.779" stroke="#1A1A1A" stroke-linecap="round"/>
<path d="M83.6149 263.348L82.5983 255.215L76.2446 256.994L75.7363 275.801L110.046 276.563L112.333 269.193L83.6149 263.348Z" fill="#EEAF85" stroke="#1A1A1A" stroke-linecap="round"/>
<path d="M81.835 207.434C82.8515 207.179 84.9864 207.129 85.393 208.958" stroke="#1A1A1A" stroke-linecap="round"/>
<path d="M87.6813 212.012L86.6648 218.874C86.3259 219.128 85.2924 219.382 83.8691 218.365" stroke="#1A1A1A" stroke-linecap="round"/>
<path d="M79.2939 218.871C79.8022 219.888 81.2763 221.972 83.1061 222.175" stroke="#1A1A1A" stroke-linecap="round"/>
<path d="M89.7139 210.23C90.0527 210.23 90.7305 210.434 90.7305 211.247" stroke="#1A1A1A" stroke-linecap="round"/>
<mask id="path-161-inside-1_2565_2" fill="white">
<ellipse cx="82.6651" cy="211.457" rx="0.762441" ry="1.01659" transform="rotate(21.6746 82.6651 211.457)"/>
</mask>
<ellipse cx="82.6651" cy="211.457" rx="0.762441" ry="1.01659" transform="rotate(21.6746 82.6651 211.457)" fill="black"/>
<path d="M83.3736 211.738L82.4443 211.369C82.4128 211.448 82.3733 211.474 82.3788 211.471C82.3834 211.468 82.4099 211.453 82.4602 211.446C82.5136 211.439 82.5848 211.443 82.659 211.472L82.2896 212.401L81.9203 213.331C82.474 213.551 83.0243 213.421 83.4225 213.177C83.8203 212.934 84.1271 212.55 84.3029 212.108L83.3736 211.738ZM82.2896 212.401L82.659 211.472C82.7332 211.502 82.7877 211.548 82.8215 211.59C82.8534 211.629 82.8622 211.658 82.8636 211.664C82.8653 211.67 82.8544 211.624 82.8859 211.545L81.9566 211.175L81.0273 210.806C80.8514 211.248 80.8113 211.738 80.9336 212.188C81.0559 212.638 81.3666 213.111 81.9203 213.331L82.2896 212.401ZM81.9566 211.175L82.8859 211.545C82.9174 211.465 82.9569 211.439 82.9514 211.443C82.9468 211.446 82.9203 211.461 82.8701 211.468C82.8166 211.475 82.7454 211.471 82.6712 211.441L83.0406 210.512L83.4099 209.583C82.8562 209.363 82.3059 209.493 81.9077 209.737C81.5099 209.98 81.2031 210.363 81.0273 210.806L81.9566 211.175ZM83.0406 210.512L82.6712 211.441C82.597 211.412 82.5425 211.366 82.5087 211.324C82.4768 211.284 82.468 211.255 82.4666 211.25C82.4649 211.244 82.4758 211.29 82.4443 211.369L83.3736 211.738L84.3029 212.108C84.4788 211.665 84.5189 211.176 84.3966 210.726C84.2743 210.275 83.9636 209.803 83.4099 209.583L83.0406 210.512Z" fill="#1A1A1A" mask="url(#path-161-inside-1_2565_2)"/>
<mask id="path-163-inside-2_2565_2" fill="white">
<ellipse cx="88.5906" cy="213.447" rx="0.687246" ry="0.989535" transform="rotate(21.6746 88.5906 213.447)"/>
</mask>
<ellipse cx="88.5906" cy="213.447" rx="0.687246" ry="0.989535" transform="rotate(21.6746 88.5906 213.447)" fill="black"/>
<path d="M89.2292 213.701L88.2999 213.331C88.2649 213.42 88.2228 213.449 88.2311 213.443C88.2374 213.439 88.271 213.418 88.3345 213.407C88.4023 213.396 88.4957 213.398 88.5944 213.437L88.2251 214.366L87.8558 215.296C88.4219 215.521 88.9683 215.354 89.3363 215.11C89.7081 214.863 89.9917 214.49 90.1585 214.07L89.2292 213.701ZM88.2251 214.366L88.5944 213.437C88.6931 213.476 88.7627 213.539 88.804 213.594C88.8428 213.645 88.8528 213.684 88.8545 213.691C88.8568 213.701 88.8462 213.651 88.8812 213.562L87.9519 213.193L87.0226 212.824C86.8558 213.243 86.8054 213.71 86.9066 214.144C87.0067 214.574 87.2896 215.071 87.8558 215.296L88.2251 214.366ZM87.9519 213.193L88.8812 213.562C88.9163 213.474 88.9584 213.445 88.95 213.451C88.9437 213.455 88.9101 213.476 88.8466 213.487C88.7789 213.498 88.6854 213.496 88.5867 213.457L88.956 212.527L89.3254 211.598C88.7592 211.373 88.2129 211.54 87.8448 211.784C87.473 212.03 87.1894 212.404 87.0226 212.824L87.9519 213.193ZM88.956 212.527L88.5867 213.457C88.488 213.417 88.4185 213.355 88.3771 213.3C88.3384 213.248 88.3283 213.21 88.3266 213.203C88.3244 213.193 88.335 213.243 88.2999 213.331L89.2292 213.701L90.1585 214.07C90.3253 213.65 90.3757 213.184 90.2745 212.749C90.1744 212.319 89.8915 211.823 89.3254 211.598L88.956 212.527Z" fill="#1A1A1A" mask="url(#path-163-inside-2_2565_2)"/>
<path d="M90.2219 191.424C84.529 184.918 78.1923 186.68 75.7356 188.374C68.3652 189.752 69.1278 190.408 66.5864 192.695C64.5532 194.525 63.3672 199.726 63.0283 202.098L63.7908 217.601L64.2991 217.856L68.6196 212.264L68.8737 210.994C66.0272 210.79 65.9933 207.52 66.3322 205.911C66.7558 204.64 68.0096 202.353 69.6361 203.369C71.2626 204.386 71.3304 206.504 71.161 207.436C72.6859 210.739 74.719 207.944 74.4648 206.419C74.2615 205.199 75.7356 203.03 76.498 202.098C78.5312 200.472 80.9032 200.743 81.8351 201.082C86.7147 204.538 90.6455 205.402 92.001 205.402C97.8463 207.436 99.6254 202.353 100.388 199.811C101.15 197.27 97.338 192.949 94.5424 192.949C92.3059 192.949 90.7302 191.933 90.2219 191.424Z" fill="#0F0B07" stroke="#1A1A1A" stroke-linecap="round"/>
<path d="M68.1118 232.597C63.0289 230.361 61.9276 223.363 62.0123 220.144C52.4563 219.737 45.4927 222.347 43.2055 223.702C35.3269 230.056 31.2605 242.255 29.2274 262.841C27.6008 279.309 29.5662 295.287 30.7522 301.217C32.5821 301.42 48.7967 296.558 56.6752 294.101L77.5153 289.018C75.8887 288.205 76.8376 268.178 77.5153 258.266L84.1231 255.725C83.3607 249.286 81.2767 235.393 79.0402 231.327C76.8037 227.26 75.3974 226.582 74.9738 226.752C73.3473 232.851 69.7214 233.19 68.1118 232.597Z" fill="#E12F25"/>
<path d="M77.5153 258.266L84.1231 255.725C83.3607 249.286 81.2767 235.393 79.0402 231.327C76.8037 227.26 75.3974 226.582 74.9738 226.752C73.3473 232.851 69.7214 233.19 68.1118 232.597C63.0289 230.361 61.9276 223.363 62.0123 220.144C52.4563 219.737 45.4927 222.347 43.2055 223.702C35.3269 230.056 31.2605 242.255 29.2274 262.841C27.6008 279.309 29.5662 295.287 30.7522 301.217C32.5821 301.42 48.7967 296.558 56.6752 294.101L77.5153 289.018C75.8887 288.205 76.8376 268.178 77.5153 258.266ZM77.5153 258.266L79.0402 244.034M35.8352 239.205L33.5479 255.725L53.3713 256.487L54.1338 242.255" stroke="#1A1A1A" stroke-linecap="round"/>
<path d="M34.5645 270.211L35.3269 253.945L51.5923 254.454V263.349L79.2943 267.415C81.3275 268.432 83.1912 268.178 83.869 267.923C85.5633 267.246 89.6127 265.941 92.2558 266.144C95.5597 266.399 102.93 270.973 102.93 273.26C102.93 275.09 101.236 274.87 100.389 274.531C100.592 275.954 99.1178 275.971 98.3553 275.802C96.1527 274.616 91.595 272.447 90.9851 273.26C90.3751 274.074 85.8174 275.802 83.6148 276.564C72.1782 277.412 47.8818 279.004 42.1889 278.598C36.496 278.191 34.7339 272.837 34.5645 270.211Z" fill="#EEAF85"/>
<path d="M100.389 274.531C100.592 275.954 99.1178 275.971 98.3553 275.802C96.1527 274.616 91.595 272.447 90.9851 273.26C90.3751 274.074 85.8174 275.802 83.6148 276.564C72.1782 277.412 47.8818 279.004 42.1889 278.598C36.496 278.191 34.7339 272.837 34.5645 270.211L35.3269 253.945L51.5923 254.454V263.349L79.2943 267.415C81.3275 268.432 83.1912 268.178 83.869 267.923C85.5633 267.246 89.6127 265.941 92.2558 266.144C95.5597 266.399 102.93 270.973 102.93 273.26C102.93 275.09 101.236 274.87 100.389 274.531ZM100.389 274.531C98.8636 272.922 95.0514 269.702 92.0017 269.702" stroke="#1A1A1A" stroke-linecap="round"/>
<path d="M78.2773 276.263H107.25L120.974 246.273H122.245H148.93C149.862 246.443 151.472 247.341 150.455 249.577C149.438 251.814 141.052 270.502 136.985 279.567H78.2773V276.263Z" fill="#9C9C9C"/>
<path d="M107.25 276.263H78.2773V279.567H136.985C141.052 270.502 149.438 251.814 150.455 249.577C151.472 247.341 149.862 246.443 148.93 246.273H122.245M107.25 276.263L120.974 246.273H122.245M107.25 276.263C106.911 277.025 106.335 278.652 106.742 279.058C107.504 279.397 109.08 279.618 109.283 277.788L114.112 266.859L122.753 247.798C123.007 247.544 123.261 246.883 122.245 246.273" stroke="#1A1A1A" stroke-linecap="round"/>
<path d="M133.282 260.528C133.735 260.825 134.016 261.359 134.058 262.043C134.101 262.727 133.897 263.528 133.412 264.267C132.927 265.006 132.274 265.511 131.63 265.745C130.986 265.979 130.384 265.933 129.932 265.637C129.479 265.34 129.198 264.806 129.156 264.122C129.114 263.438 129.318 262.638 129.802 261.899C130.287 261.16 130.94 260.654 131.584 260.42C132.228 260.186 132.83 260.232 133.282 260.528Z" fill="#F0F0EF" stroke="#1A1A1A"/>
<path d="M483.458 374.411V370.599H471.513L470.497 374.411C474.563 375.631 480.832 374.919 483.458 374.411Z" fill="#EEAF85"/>
<path d="M455.756 373.648L457.789 369.582H443.811V373.648H455.756Z" fill="#EEAF85"/>
<path d="M483.458 374.411V370.599H471.513L470.497 374.411C474.563 375.631 480.832 374.919 483.458 374.411Z" stroke="#1A1A1A" stroke-linecap="round"/>
<path d="M455.756 373.648L457.789 369.582H443.811V373.648H455.756Z" stroke="#1A1A1A" stroke-linecap="round"/>
<path d="M443.757 373.904L443.503 372.379C440.199 374.581 432.829 379.241 429.779 380.257C426.73 381.274 427.323 384.239 428 385.594H457.481C458.297 383.008 457.818 377.745 457.481 375.383C457.227 373.604 457.481 371.571 457.481 370.555H456.719C456.719 371.148 455.855 373.7 455.448 373.904C455.041 374.107 447.485 373.988 443.757 373.904Z" fill="#0F0B07" stroke="#1A1A1A" stroke-linecap="round"/>
<path d="M559.447 385.337L553.094 322.562H549.027L555.127 385.337H559.447Z" fill="#989895" stroke="#1A1A1A" stroke-linecap="round"/>
<path d="M504.552 385.337L508.872 322.562H512.939L508.872 385.337H504.552Z" fill="#989895" stroke="#1A1A1A" stroke-linecap="round"/>
<path d="M483.204 385.337L487.525 322.562H491.591L487.525 385.337H483.204Z" fill="#989895" stroke="#1A1A1A" stroke-linecap="round"/>
<path d="M520.055 322.816V382.541H515.48V322.816H520.055Z" fill="#989895" stroke="#1A1A1A" stroke-linecap="round"/>
<path d="M505.569 195.999C498.249 187.257 487.27 195.406 482.696 200.574L484.475 205.657C484.881 208.097 487.355 213.959 488.541 216.585C491.337 223.956 493.878 224.718 495.911 226.497C497.538 227.92 500.486 227.09 501.757 226.497C502.265 229.547 504.552 235.24 509.635 233.613C514.718 231.987 516.328 225.142 516.497 221.922L509.635 213.027L510.652 211.757C514.464 207.69 511.414 204.386 510.652 200.574C510.042 197.524 507.009 196.254 505.569 195.999Z" fill="#EEAF85"/>
<path d="M501.757 226.497C502.265 229.547 504.552 235.24 509.635 233.613C514.718 231.987 516.328 225.142 516.497 221.922L509.635 213.027L510.652 211.757C514.464 207.69 511.414 204.386 510.652 200.574C510.042 197.524 507.009 196.254 505.569 195.999C498.249 187.257 487.27 195.406 482.696 200.574L484.475 205.657C484.881 208.097 487.355 213.959 488.541 216.585C491.337 223.956 493.878 224.718 495.911 226.497C497.538 227.92 500.486 227.09 501.757 226.497ZM501.757 226.497C503.705 225.565 507.805 222.685 508.619 218.619" stroke="#1A1A1A" stroke-linecap="round"/>
<path d="M564.022 243.779C564.022 235.239 557.754 233.952 554.619 234.375H552.078H539.879L478.883 324.597H555.89C560.159 324.394 559.871 319.43 559.194 316.973V294.1C558.584 292.066 560.295 274.954 561.227 266.652L564.022 243.779Z" fill="#FAFAF9"/>
<path d="M559.194 316.973V294.1C558.584 292.066 560.295 274.954 561.227 266.652L564.022 243.779C564.022 235.239 557.754 233.952 554.619 234.375H552.078M559.194 316.973C559.871 319.43 560.159 324.394 555.89 324.597H478.883L539.879 234.375H552.078M559.194 316.973C558.347 315.956 555.89 314.126 552.84 314.94M552.84 314.94V287.238L555.89 258.519L557.669 246.32C558.177 242.931 557.77 235.798 552.078 234.375M552.84 314.94L532 315.448" stroke="#1A1A1A" stroke-linecap="round"/>
<path d="M510.144 316.465C509.042 316.719 506.789 317.583 506.585 319.006" stroke="#1A1A1A" stroke-linecap="round"/>
<path d="M471.259 374.154L471.005 372.629C467.701 374.832 460.331 379.491 457.281 380.508C454.231 381.525 454.824 384.49 455.502 385.845H484.983C486.203 383.405 485.152 378.221 484.475 375.933C484.271 375.323 484.22 373.138 484.22 372.121H483.458C483.458 372.714 483.356 373.951 482.95 374.154C482.543 374.358 474.986 374.239 471.259 374.154Z" fill="#0F0B07" stroke="#1A1A1A" stroke-linecap="round"/>
<path d="M532.763 315.193C543.132 312.347 545.385 302.994 545.216 298.674L501.757 288.254L500.994 289.779L473.292 293.337C460.28 292.93 454.994 303.672 453.977 309.094L440.507 370.598H459.823L467.955 342.387L467.193 372.885L485.746 371.868L493.116 316.973L507.856 316.21L532.763 315.193Z" fill="#285DA8"/>
<path d="M467.955 342.387L467.193 372.885L485.746 371.868L493.116 316.973L507.856 316.21L532.763 315.193C543.132 312.347 545.385 302.994 545.216 298.674L501.757 288.254L500.994 289.779L473.292 293.337C460.28 292.93 454.994 303.672 453.977 309.094L440.507 370.598H459.823L467.955 342.387ZM467.955 342.387L469.734 311.127C469.734 306.552 472.377 296.997 482.95 295.37C493.522 293.743 487.525 294.692 483.204 295.37L502.265 291.558L502.773 289.779" stroke="#1A1A1A" stroke-linecap="round"/>
<path d="M493.623 263.348L494.64 255.215L500.994 256.994L501.502 275.801L467.192 276.563L464.905 269.193L493.623 263.348Z" fill="#EEAF85" stroke="#1A1A1A" stroke-linecap="round"/>
<path d="M495.402 207.434C494.386 207.179 492.251 207.129 491.844 208.958" stroke="#1A1A1A" stroke-linecap="round"/>
<path d="M489.557 212.012L490.574 218.874C490.912 219.128 491.946 219.382 493.369 218.365" stroke="#1A1A1A" stroke-linecap="round"/>
<path d="M497.944 218.871C497.436 219.888 495.962 221.972 494.132 222.175" stroke="#1A1A1A" stroke-linecap="round"/>
<path d="M487.524 210.23C487.186 210.23 486.508 210.434 486.508 211.247" stroke="#1A1A1A" stroke-linecap="round"/>
<mask id="path-192-inside-3_2565_2" fill="white">
<ellipse cx="0.762441" cy="1.01659" rx="0.762441" ry="1.01659" transform="matrix(-0.929296 0.369335 0.369335 0.929296 494.906 210.23)"/>
</mask>
<ellipse cx="0.762441" cy="1.01659" rx="0.762441" ry="1.01659" transform="matrix(-0.929296 0.369335 0.369335 0.929296 494.906 210.23)" fill="black"/>
<path d="M493.865 211.738L494.794 211.369C494.825 211.448 494.865 211.474 494.859 211.471C494.855 211.468 494.828 211.453 494.778 211.446C494.725 211.439 494.654 211.443 494.579 211.472L494.949 212.401L495.318 213.331C494.764 213.551 494.214 213.421 493.816 213.177C493.418 212.934 493.111 212.55 492.935 212.108L493.865 211.738ZM494.949 212.401L494.579 211.472C494.505 211.502 494.451 211.548 494.417 211.59C494.385 211.629 494.376 211.658 494.375 211.664C494.373 211.67 494.384 211.624 494.352 211.545L495.282 211.175L496.211 210.806C496.387 211.248 496.427 211.738 496.305 212.188C496.182 212.638 495.872 213.111 495.318 213.331L494.949 212.401ZM495.282 211.175L494.352 211.545C494.321 211.465 494.281 211.439 494.287 211.443C494.291 211.446 494.318 211.461 494.368 211.468C494.422 211.475 494.493 211.471 494.567 211.441L494.198 210.512L493.828 209.583C494.382 209.363 494.932 209.493 495.331 209.737C495.728 209.98 496.035 210.363 496.211 210.806L495.282 211.175ZM494.198 210.512L494.567 211.441C494.641 211.412 494.696 211.366 494.73 211.324C494.761 211.284 494.77 211.255 494.772 211.25C494.773 211.244 494.762 211.29 494.794 211.369L493.865 211.738L492.935 212.108C492.759 211.665 492.719 211.176 492.842 210.726C492.964 210.275 493.275 209.803 493.828 209.583L494.198 210.512Z" fill="#1A1A1A" mask="url(#path-192-inside-3_2565_2)"/>
<mask id="path-194-inside-4_2565_2" fill="white">
<ellipse cx="0.687246" cy="0.989535" rx="0.687246" ry="0.989535" transform="matrix(-0.929296 0.369335 0.369335 0.929296 488.921 212.273)"/>
</mask>
<ellipse cx="0.687246" cy="0.989535" rx="0.687246" ry="0.989535" transform="matrix(-0.929296 0.369335 0.369335 0.929296 488.921 212.273)" fill="black"/>
<path d="M488.009 213.701L488.938 213.331C488.973 213.42 489.016 213.449 489.007 213.443C489.001 213.439 488.967 213.418 488.904 213.407C488.836 213.396 488.743 213.398 488.644 213.437L489.013 214.366L489.383 215.296C488.816 215.521 488.27 215.354 487.902 215.11C487.53 214.863 487.247 214.49 487.08 214.07L488.009 213.701ZM489.013 214.366L488.644 213.437C488.545 213.476 488.476 213.539 488.434 213.594C488.396 213.645 488.385 213.684 488.384 213.691C488.382 213.701 488.392 213.651 488.357 213.562L489.286 213.193L490.216 212.824C490.382 213.243 490.433 213.71 490.332 214.144C490.232 214.574 489.949 215.071 489.383 215.296L489.013 214.366ZM489.286 213.193L488.357 213.562C488.322 213.474 488.28 213.445 488.288 213.451C488.295 213.455 488.328 213.476 488.392 213.487C488.459 213.498 488.553 213.496 488.652 213.457L488.282 212.527L487.913 211.598C488.479 211.373 489.025 211.54 489.393 211.784C489.765 212.03 490.049 212.404 490.216 212.824L489.286 213.193ZM488.282 212.527L488.652 213.457C488.75 213.417 488.82 213.355 488.861 213.3C488.9 213.248 488.91 213.21 488.912 213.203C488.914 213.193 488.903 213.243 488.938 213.331L488.009 213.701L487.08 214.07C486.913 213.65 486.863 213.184 486.964 212.749C487.064 212.319 487.347 211.823 487.913 211.598L488.282 212.527Z" fill="#1A1A1A" mask="url(#path-194-inside-4_2565_2)"/>
<path d="M487.015 191.424C492.708 184.918 499.045 186.68 501.502 188.374C508.872 189.752 508.109 190.408 510.651 192.695C512.684 194.525 513.87 199.726 514.209 202.098L513.447 217.601L512.938 217.856L508.618 212.264L508.364 210.994C511.21 210.79 511.244 207.52 510.905 205.911C510.482 204.64 509.228 202.353 507.601 203.369C505.975 204.386 505.907 206.504 506.076 207.436C504.551 210.739 502.518 207.944 502.772 206.419C502.976 205.199 501.502 203.03 500.739 202.098C498.706 200.472 496.334 200.743 495.402 201.082C490.523 204.538 486.592 205.402 485.236 205.402C479.391 207.436 477.612 202.353 476.849 199.811C476.087 197.27 479.899 192.949 482.695 192.949C484.931 192.949 486.507 191.933 487.015 191.424Z" fill="#0F0B07" stroke="#1A1A1A" stroke-linecap="round"/>
<path d="M509.126 232.597C514.209 230.361 515.311 223.363 515.226 220.144C524.782 219.737 531.746 222.347 534.033 223.702C541.911 230.056 545.978 242.255 548.011 262.841C549.637 279.309 547.672 295.287 546.486 301.217C544.656 301.42 528.442 296.558 520.563 294.101L499.723 289.018C501.35 288.205 500.401 268.178 499.723 258.266L493.115 255.725C493.878 249.286 495.962 235.393 498.198 231.327C500.435 227.26 501.841 226.582 502.264 226.752C503.891 232.851 507.517 233.19 509.126 232.597Z" fill="#22AD6A"/>
<path d="M499.723 258.266L493.115 255.725C493.878 249.286 495.962 235.393 498.198 231.327C500.435 227.26 501.841 226.582 502.264 226.752C503.891 232.851 507.517 233.19 509.126 232.597C514.209 230.361 515.311 223.363 515.226 220.144C524.782 219.737 531.746 222.347 534.033 223.702C541.911 230.056 545.978 242.255 548.011 262.841C549.637 279.309 547.672 295.287 546.486 301.217C544.656 301.42 528.442 296.558 520.563 294.101L499.723 289.018C501.35 288.205 500.401 268.178 499.723 258.266ZM499.723 258.266L498.198 244.034M541.403 239.205L543.69 255.725L523.867 256.487L523.105 242.255" stroke="#1A1A1A" stroke-linecap="round"/>
<path d="M542.674 270.211L541.911 253.945L525.646 254.454V263.349L497.944 267.415C495.911 268.432 494.047 268.178 493.369 267.923C491.675 267.246 487.626 265.941 484.982 266.144C481.679 266.399 474.308 270.973 474.308 273.26C474.308 275.09 476.003 274.87 476.85 274.531C476.646 275.954 478.121 275.971 478.883 275.802C481.086 274.616 485.643 272.447 486.253 273.26C486.863 274.074 491.421 275.802 493.623 276.564C505.06 277.412 529.357 279.004 535.049 278.598C540.742 278.191 542.504 272.837 542.674 270.211Z" fill="#EEAF85"/>
<path d="M476.85 274.531C476.646 275.954 478.121 275.971 478.883 275.802C481.086 274.616 485.643 272.447 486.253 273.26C486.863 274.074 491.421 275.802 493.623 276.564C505.06 277.412 529.357 279.004 535.049 278.598C540.742 278.191 542.504 272.837 542.674 270.211L541.911 253.945L525.646 254.454V263.349L497.944 267.415C495.911 268.432 494.047 268.178 493.369 267.923C491.675 267.246 487.626 265.941 484.982 266.144C481.679 266.399 474.308 270.973 474.308 273.26C474.308 275.09 476.003 274.87 476.85 274.531ZM476.85 274.531C478.375 272.922 482.187 269.702 485.237 269.702" stroke="#1A1A1A" stroke-linecap="round"/>
<path d="M498.961 276.263H469.988L456.264 246.273H454.994H428.308C427.376 246.443 425.767 247.341 426.783 249.577C427.8 251.814 436.187 270.502 440.253 279.567H498.961V276.263Z" fill="#9C9C9C"/>
<path d="M469.988 276.263H498.961V279.567H440.253C436.187 270.502 427.8 251.814 426.783 249.577C425.767 247.341 427.376 246.443 428.308 246.273H454.994M469.988 276.263L456.264 246.273H454.994M469.988 276.263C470.327 277.025 470.903 278.652 470.497 279.058C469.734 279.397 468.158 279.618 467.955 277.788L463.126 266.859L454.485 247.798C454.231 247.544 453.977 246.883 454.994 246.273" stroke="#1A1A1A" stroke-linecap="round"/>
<path d="M443.955 260.528C443.503 260.825 443.221 261.359 443.179 262.043C443.137 262.727 443.34 263.528 443.825 264.267C444.31 265.006 444.963 265.511 445.607 265.745C446.251 265.979 446.854 265.933 447.306 265.637C447.758 265.34 448.039 264.806 448.082 264.122C448.124 263.438 447.92 262.638 447.435 261.899C446.95 261.16 446.297 260.654 445.653 260.42C445.009 260.186 444.407 260.232 443.955 260.528Z" fill="#F0F0EF" stroke="#1A1A1A"/>
<rect x="56.4121" y="279.812" width="459.514" height="6.11611" fill="#F9F9F7" stroke="black"/>
<rect x="65.7871" y="286.93" width="4.85896" height="100.15" fill="#F9F9F7" stroke="black"/>
<rect x="500.521" y="286.93" width="4.85896" height="100.15" fill="#F9F9F7" stroke="black"/>
<defs>
<clipPath id="clip0_2565_2">
<rect width="301" height="95" fill="white" transform="translate(138 54)"/>
</clipPath>
</defs>
</svg>
