<svg width="47" height="82" viewBox="0 0 47 82" fill="none" xmlns="http://www.w3.org/2000/svg">
<path d="M23.1655 0C10.3677 0 0 10.3824 0 23.182C0 35.9815 23.1655 67.1141 23.1655 67.1141C23.1655 67.1141 46.3311 35.9888 46.3311 23.182C46.3311 10.3751 35.9561 0 23.1655 0ZM23.1655 36.331C15.5698 36.331 9.4146 30.1715 9.4146 22.5704C9.4146 14.9693 15.5698 8.80973 23.1655 8.80973C30.7613 8.80973 36.9165 14.9693 36.9165 22.5704C36.9165 30.1715 30.7613 36.331 23.1655 36.331Z" fill="#ED1C24"/>
<path opacity="0.2" d="M23.1652 81.181C32.7245 81.181 40.4739 73.4261 40.4739 63.86C40.4739 54.2939 32.7245 46.5391 23.1652 46.5391C13.6058 46.5391 5.85645 54.2939 5.85645 63.86C5.85645 73.4261 13.6058 81.181 23.1652 81.181Z" fill="#ED1C24"/>
<path opacity="0.4" d="M23.1655 75.3492C29.5062 75.3492 34.6464 70.2054 34.6464 63.8601C34.6464 57.5149 29.5062 52.3711 23.1655 52.3711C16.8248 52.3711 11.6846 57.5149 11.6846 63.8601C11.6846 70.2054 16.8248 75.3492 23.1655 75.3492Z" fill="#ED1C24"/>
</svg>
