<svg width="37" height="37" viewBox="0 0 37 37" fill="none" xmlns="http://www.w3.org/2000/svg">
<path d="M18.0997 36.2351C28.0958 36.2351 36.1992 28.1236 36.1992 18.1175C36.1992 8.11149 28.0958 0 18.0997 0C8.1035 0 0 8.11149 0 18.1175C0 28.1236 8.1035 36.2351 18.0997 36.2351Z" fill="white"/>
<path d="M18.0996 32.8453C26.2252 32.8453 32.8123 26.2517 32.8123 18.118C32.8123 9.98428 26.2252 3.39062 18.0996 3.39062C9.97391 3.39062 3.38672 9.98428 3.38672 18.118C3.38672 26.2517 9.97391 32.8453 18.0996 32.8453Z" fill="#E2231A"/>
<path d="M18.0993 27.7018C23.3868 27.7018 27.6731 23.4112 27.6731 18.1185C27.6731 12.8258 23.3868 8.53516 18.0993 8.53516C12.8118 8.53516 8.52539 12.8258 8.52539 18.1185C8.52539 23.4112 12.8118 27.7018 18.0993 27.7018Z" fill="white"/>
</svg>
