<svg width="141" height="104" viewBox="0 0 141 104" fill="none" xmlns="http://www.w3.org/2000/svg">
<path d="M136.715 97.9697V100.147C136.715 101.528 135.595 102.647 134.215 102.647H6.78516C5.40444 102.647 4.28516 101.528 4.28516 100.147V97.9697H136.715Z" fill="#41A1C5" stroke="black"/>
<path d="M20.98 0.5H120.02C121.401 0.5 122.52 1.61929 122.52 3V76.1514H18.48V3C18.48 1.61929 19.5993 0.5 20.98 0.5Z" fill="#61CFF9" stroke="black"/>
<path d="M25 9C25 7.34315 26.3431 6 28 6H114C115.657 6 117 7.34315 117 9V68C117 69.6569 115.657 71 114 71H28C26.3431 71 25 69.6569 25 68V9Z" fill="white"/>
<path d="M123.018 77.1509L136.82 94.8237C138.102 96.465 136.933 98.8615 134.851 98.8618H6.15039C4.06773 98.8618 2.89791 96.4651 4.17969 94.8237L17.9834 77.1509H123.018Z" fill="#61CFF9" stroke="black"/>
<path d="M22.4124 79.909C22.6001 79.6462 22.9032 79.4902 23.2261 79.4902H118.247C118.57 79.4902 118.873 79.6462 119.061 79.909L122.364 84.5332C122.837 85.195 122.364 86.1144 121.55 86.1144H19.9232C19.1098 86.1144 18.6367 85.195 19.1094 84.5332L22.4124 79.909Z" fill="#2D9CC6"/>
<path d="M56.9881 89.7583C57.0811 89.2903 57.4918 88.9531 57.969 88.9531H83.0317C83.5088 88.9531 83.9195 89.2903 84.0125 89.7583L84.9308 94.3825C85.0536 95.0009 84.5805 95.5773 83.95 95.5773H57.0506C56.4201 95.5773 55.947 95.0009 56.0698 94.3825L56.9881 89.7583Z" fill="#2BB4E7"/>
<path d="M78.9482 25.1816C80.0528 25.1817 80.9482 26.0771 80.9482 27.1816V40.583C80.9482 41.6876 80.0528 42.583 78.9482 42.583H62.5635C61.4589 42.583 60.5635 41.6876 60.5635 40.583V27.1816C60.5635 26.0771 61.4589 25.1816 62.5635 25.1816H78.9482ZM70.8008 30.5625C68.8445 30.6729 68.1777 33.0789 69.6768 34.4375L69.709 34.4658C69.6553 34.7743 69.6141 35.1197 69.584 35.4336C69.5127 36.1771 69.3608 36.9361 69.2959 37.6768C69.4951 37.6416 70.1159 37.6577 70.3486 37.6592L72.3516 37.6768C72.2304 36.7435 72.0977 35.3619 71.918 34.4805C73.4759 33.0442 72.8386 30.6821 70.8008 30.5625Z" fill="#00A859"/>
<path d="M70.7896 13.2495C72.9039 13.2889 74.9668 14.1095 76.4585 15.7544C77.6154 17.0292 78.3673 18.6694 78.604 20.436C78.7 21.1855 78.6796 21.931 78.6782 22.686L78.6724 25.3384C77.6971 25.3471 76.7212 25.3464 75.7456 25.3364H75.4692L75.479 23.0386C75.4864 20.9829 75.4344 19.4651 74.0327 17.8813C73.2214 16.9501 72.1464 16.3779 71.0034 16.2563L71.0044 16.2319C70.9212 16.2312 70.8381 16.2328 70.7554 16.2368C70.673 16.2328 70.5902 16.2312 70.5073 16.2319V16.2563C69.3648 16.3782 68.2901 16.9504 67.479 17.8813C66.0774 19.4651 66.0253 20.9829 66.0327 23.0386L66.0415 25.3384L65.9136 25.3394C64.9328 25.346 63.9519 25.3454 62.9712 25.3374L62.9644 21.938C62.9765 19.5095 63.6291 17.4182 65.2778 15.6821C66.7457 14.1259 68.7259 13.2517 70.7896 13.2485V13.2495Z" fill="#00A859"/>
<rect x="39.7451" y="48.2617" width="62.4564" height="12.302" rx="1" fill="#FFD600"/>
<path d="M50.4466 56.8283L50.5446 55.1025L49.0957 56.0527L48.5759 55.1493L50.1227 54.3738L48.5759 53.5982L49.0957 52.6948L50.5446 53.6451L50.4466 51.9192H51.4821L51.3884 53.6451L52.8372 52.6948L53.3571 53.5982L51.806 54.3738L53.3571 55.1493L52.8372 56.0527L51.3884 55.1025L51.4821 56.8283H50.4466ZM59.9622 56.8283L60.0602 55.1025L58.6114 56.0527L58.0915 55.1493L59.6384 54.3738L58.0915 53.5982L58.6114 52.6948L60.0602 53.6451L59.9622 51.9192H60.9977L60.904 53.6451L62.3529 52.6948L62.8727 53.5982L61.3216 54.3738L62.8727 55.1493L62.3529 56.0527L60.904 55.1025L60.9977 56.8283H59.9622ZM69.4778 56.8283L69.5759 55.1025L68.127 56.0527L67.6071 55.1493L69.154 54.3738L67.6071 53.5982L68.127 52.6948L69.5759 53.6451L69.4778 51.9192H70.5134L70.4196 53.6451L71.8685 52.6948L72.3884 53.5982L70.8372 54.3738L72.3884 55.1493L71.8685 56.0527L70.4196 55.1025L70.5134 56.8283H69.4778ZM78.9935 56.8283L79.0915 55.1025L77.6426 56.0527L77.1227 55.1493L78.6696 54.3738L77.1227 53.5982L77.6426 52.6948L79.0915 53.6451L78.9935 51.9192H80.029L79.9352 53.6451L81.3841 52.6948L81.904 53.5982L80.3529 54.3738L81.904 55.1493L81.3841 56.0527L79.9352 55.1025L80.029 56.8283H78.9935ZM88.5091 56.8283L88.6071 55.1025L87.1582 56.0527L86.6384 55.1493L88.1852 54.3738L86.6384 53.5982L87.1582 52.6948L88.6071 53.6451L88.5091 51.9192H89.5446L89.4509 53.6451L90.8997 52.6948L91.4196 53.5982L89.8685 54.3738L91.4196 55.1493L90.8997 56.0527L89.4509 55.1025L89.5446 56.8283H88.5091Z" fill="black"/>
</svg>
