<svg width="342" height="401" viewBox="0 0 342 401" fill="none" xmlns="http://www.w3.org/2000/svg">
<path d="M13.4428 176C6.01631 176 0 182.025 0 189.452C0 196.88 13.4428 214.946 13.4428 214.946C13.4428 214.946 26.8856 196.884 26.8856 189.452C26.8856 182.021 20.865 176 13.4428 176ZM13.4428 197.083C9.03503 197.083 5.46322 193.508 5.46322 189.097C5.46322 184.687 9.03503 181.112 13.4428 181.112C17.8505 181.112 21.4223 184.687 21.4223 189.097C21.4223 193.508 17.8505 197.083 13.4428 197.083Z" fill="#ED1C24"/>
<path opacity="0.2" d="M13.443 223.108C18.9902 223.108 23.4872 218.608 23.4872 213.057C23.4872 207.506 18.9902 203.006 13.443 203.006C7.89584 203.006 3.39893 207.506 3.39893 213.057C3.39893 218.608 7.89584 223.108 13.443 223.108Z" fill="#ED1C24"/>
<path opacity="0.4" d="M13.4431 219.725C17.1225 219.725 20.1054 216.74 20.1054 213.058C20.1054 209.376 17.1225 206.391 13.4431 206.391C9.76358 206.391 6.78076 209.376 6.78076 213.058C6.78076 216.74 9.76358 219.725 13.4431 219.725Z" fill="#ED1C24"/>
<path d="M328.443 0C321.016 0 315 6.02482 315 13.4523C315 20.8798 328.443 38.9458 328.443 38.9458C328.443 38.9458 341.886 20.884 341.886 13.4523C341.886 6.0206 335.865 0 328.443 0ZM328.443 21.0784C324.035 21.0784 320.463 17.5041 320.463 13.0932C320.463 8.68234 324.035 5.108 328.443 5.108C332.851 5.108 336.422 8.68234 336.422 13.0932C336.422 17.5041 332.851 21.0784 328.443 21.0784Z" fill="#ED1C24"/>
<path opacity="0.2" d="M328.443 47.1083C333.99 47.1083 338.487 42.6082 338.487 37.0571C338.487 31.5059 333.99 27.0059 328.443 27.0059C322.896 27.0059 318.399 31.5059 318.399 37.0571C318.399 42.6082 322.896 47.1083 328.443 47.1083Z" fill="#ED1C24"/>
<path opacity="0.4" d="M328.443 43.7247C332.122 43.7247 335.105 40.7397 335.105 37.0576C335.105 33.3756 332.122 30.3906 328.443 30.3906C324.763 30.3906 321.78 33.3756 321.78 37.0576C321.78 40.7397 324.763 43.7247 328.443 43.7247Z" fill="#ED1C24"/>
<path d="M326.443 353C319.016 353 313 359.025 313 366.452C313 373.88 326.443 391.946 326.443 391.946C326.443 391.946 339.886 373.884 339.886 366.452C339.886 359.021 333.865 353 326.443 353ZM326.443 374.083C322.035 374.083 318.463 370.508 318.463 366.097C318.463 361.687 322.035 358.112 326.443 358.112C330.851 358.112 334.422 361.687 334.422 366.097C334.422 370.508 330.851 374.083 326.443 374.083Z" fill="#ED1C24"/>
<path opacity="0.2" d="M326.443 400.112C331.99 400.112 336.487 395.612 336.487 390.061C336.487 384.51 331.99 380.01 326.443 380.01C320.895 380.01 316.398 384.51 316.398 390.061C316.398 395.612 320.895 400.112 326.443 400.112Z" fill="#ED1C24"/>
<path opacity="0.4" d="M326.443 396.729C330.122 396.729 333.105 393.744 333.105 390.062C333.105 386.379 330.122 383.395 326.443 383.395C322.763 383.395 319.78 386.379 319.78 390.062C319.78 393.744 322.763 396.729 326.443 396.729Z" fill="#ED1C24"/>
<path d="M328.5 55C332.834 81.1667 322.7 130 247.5 116C172.3 102 55 99.5 23 116C5.35794 125.097 8.70031 155.6 9.50031 166" stroke="#E2231A" stroke-width="2" stroke-dasharray="6 6"/>
<path d="M11.4998 233C9.33315 257.333 22.3998 303 91.9998 291C179 276 341 274.5 327 346" stroke="#E2231A" stroke-width="2" stroke-dasharray="6 6"/>
</svg>
