<svg width="859" height="543" viewBox="0 0 859 543" fill="none" xmlns="http://www.w3.org/2000/svg">
<path d="M542.16 457.26C552.156 457.26 560.26 449.149 560.26 439.143C560.26 429.137 552.156 421.025 542.16 421.025C532.164 421.025 524.061 429.137 524.061 439.143C524.061 449.149 532.164 457.26 542.16 457.26Z" fill="white"/>
<path d="M542.16 453.871C550.286 453.871 556.873 447.277 556.873 439.143C556.873 431.01 550.286 424.416 542.16 424.416C534.034 424.416 527.447 431.01 527.447 439.143C527.447 447.277 534.034 453.871 542.16 453.871Z" fill="#E2231A"/>
<path d="M542.16 448.726C547.447 448.726 551.734 444.436 551.734 439.143C551.734 433.85 547.447 429.56 542.16 429.56C536.872 429.56 532.586 433.85 532.586 439.143C532.586 444.436 536.872 448.726 542.16 448.726Z" fill="white"/>
<path d="M142.458 542.202C142.255 542.202 142.052 542.171 141.856 542.092C139.447 541.216 137.523 539.352 136.576 536.988C136.209 536.079 136.655 535.046 137.562 534.678C138.469 534.31 139.502 534.756 139.869 535.664C140.448 537.097 141.614 538.225 143.076 538.757C143.999 539.094 144.469 540.112 144.132 541.028C143.874 541.748 143.194 542.194 142.466 542.194L142.458 542.202ZM148.411 541.967C147.621 541.967 146.901 541.435 146.698 540.628C146.455 539.681 147.034 538.718 147.981 538.475L153.87 536.98C154.817 536.737 155.779 537.316 156.021 538.264C156.264 539.211 155.685 540.174 154.739 540.417L148.849 541.912C148.7 541.951 148.559 541.967 148.411 541.967ZM160.19 538.976C159.4 538.976 158.681 538.444 158.477 537.637C158.235 536.69 158.814 535.727 159.76 535.484L165.65 533.989C166.597 533.746 167.559 534.326 167.801 535.273C168.044 536.22 167.465 537.183 166.518 537.426L160.628 538.921C160.48 538.961 160.339 538.976 160.19 538.976ZM171.962 535.985C171.172 535.985 170.453 535.453 170.249 534.647C170.007 533.699 170.586 532.736 171.532 532.493L177.422 530.998C178.368 530.755 179.33 531.335 179.573 532.282C179.815 533.229 179.237 534.192 178.29 534.435L172.4 535.931C172.252 535.97 172.111 535.985 171.962 535.985ZM183.742 532.995C182.952 532.995 182.232 532.462 182.029 531.656C181.786 530.708 182.365 529.745 183.312 529.503L189.202 528.007C190.148 527.764 191.11 528.344 191.353 529.291C191.595 530.239 191.016 531.202 190.07 531.444L184.18 532.94C184.031 532.979 183.89 532.995 183.742 532.995ZM137.695 532.086C136.717 532.086 135.927 531.296 135.927 530.317V524.233C135.927 523.255 136.717 522.464 137.695 522.464C138.673 522.464 139.463 523.255 139.463 524.233V530.317C139.463 531.296 138.673 532.086 137.695 532.086ZM195.521 530.004C194.731 530.004 194.012 529.471 193.809 528.665C193.566 527.717 194.145 526.754 195.091 526.512L200.981 525.016C201.928 524.773 202.89 525.353 203.132 526.3C203.375 527.248 202.796 528.211 201.849 528.453L195.96 529.949C195.811 529.988 195.67 530.004 195.521 530.004ZM207.301 527.005C206.511 527.005 205.792 526.473 205.588 525.666C205.346 524.719 205.924 523.756 206.871 523.513L212.761 522.017C213.707 521.775 214.669 522.354 214.912 523.302C215.154 524.249 214.575 525.212 213.629 525.455L207.739 526.95C207.591 526.989 207.45 527.005 207.301 527.005ZM219.073 524.014C218.283 524.014 217.563 523.482 217.36 522.675C217.118 521.728 217.696 520.765 218.643 520.522L224.533 519.027C225.479 518.784 226.441 519.363 226.684 520.311C226.926 521.258 226.347 522.221 225.401 522.464L219.511 523.959C219.362 523.998 219.222 524.014 219.073 524.014ZM230.853 521.023C230.063 521.023 229.343 520.491 229.14 519.684C228.897 518.737 229.476 517.774 230.422 517.531L236.312 516.036C237.259 515.793 238.221 516.372 238.463 517.32C238.706 518.267 238.127 519.23 237.18 519.473L231.291 520.968C231.142 521.008 231.001 521.023 230.853 521.023ZM137.695 519.927C136.717 519.927 135.927 519.136 135.927 518.158V512.074C135.927 511.095 136.717 510.305 137.695 510.305C138.673 510.305 139.463 511.095 139.463 512.074V518.158C139.463 519.136 138.673 519.927 137.695 519.927ZM242.632 518.032C241.842 518.032 241.123 517.5 240.919 516.693C240.677 515.746 241.256 514.783 242.202 514.54L248.092 513.045C249.038 512.802 250 513.382 250.243 514.329C250.485 515.276 249.906 516.239 248.96 516.482L243.07 517.977C242.922 518.017 242.781 518.032 242.632 518.032ZM254.412 515.041C253.622 515.041 252.902 514.509 252.699 513.703C252.456 512.755 253.035 511.792 253.982 511.549L259.871 510.054C260.818 509.811 261.78 510.391 262.022 511.338C262.265 512.285 261.686 513.248 260.74 513.491L254.85 514.987C254.701 515.026 254.56 515.041 254.412 515.041ZM266.184 512.043C265.394 512.043 264.674 511.51 264.471 510.704C264.228 509.756 264.807 508.793 265.753 508.551L271.643 507.055C272.59 506.813 273.552 507.392 273.794 508.339C274.037 509.287 273.458 510.25 272.512 510.492L266.622 511.988C266.473 512.027 266.332 512.043 266.184 512.043ZM137.695 507.76C136.717 507.76 135.927 506.969 135.927 505.99V499.907C135.927 498.928 136.717 498.137 137.695 498.137C138.673 498.137 139.463 498.928 139.463 499.907V505.99C139.463 506.969 138.673 507.76 137.695 507.76ZM137.695 495.601C136.717 495.601 135.927 494.81 135.927 493.831V487.748C135.927 486.769 136.717 485.978 137.695 485.978C138.673 485.978 139.463 486.769 139.463 487.748V493.831C139.463 494.81 138.673 495.601 137.695 495.601ZM137.695 483.434C136.717 483.434 135.927 482.643 135.927 481.664V475.581C135.927 474.602 136.717 473.811 137.695 473.811C138.673 473.811 139.463 474.602 139.463 475.581V481.664C139.463 482.643 138.673 483.434 137.695 483.434ZM137.695 471.274C136.717 471.274 135.927 470.484 135.927 469.505V463.421C135.927 462.443 136.717 461.652 137.695 461.652C138.673 461.652 139.463 462.443 139.463 463.421V469.505C139.463 470.484 138.673 471.274 137.695 471.274ZM137.695 459.107C136.717 459.107 135.927 458.316 135.927 457.338V451.254C135.927 450.276 136.717 449.485 137.695 449.485C138.673 449.485 139.463 450.276 139.463 451.254V457.338C139.463 458.316 138.673 459.107 137.695 459.107ZM137.695 446.948C136.717 446.948 135.927 446.157 135.927 445.178V439.095C135.927 438.116 136.717 437.326 137.695 437.326C138.673 437.326 139.463 438.116 139.463 439.095V445.178C139.463 446.157 138.673 446.948 137.695 446.948ZM137.695 434.781C136.717 434.781 135.927 433.99 135.927 433.011V426.928C135.927 425.949 136.717 425.158 137.695 425.158C138.673 425.158 139.463 425.949 139.463 426.928V433.011C139.463 433.99 138.673 434.781 137.695 434.781ZM137.695 422.622C136.717 422.622 135.927 421.831 135.927 420.852V414.769C135.927 413.79 136.717 412.999 137.695 412.999C138.673 412.999 139.463 413.79 139.463 414.769V420.852C139.463 421.831 138.673 422.622 137.695 422.622ZM137.695 410.455C136.717 410.455 135.927 409.664 135.927 408.685V402.602C135.927 401.623 136.717 400.832 137.695 400.832C138.673 400.832 139.463 401.623 139.463 402.602V408.685C139.463 409.664 138.673 410.455 137.695 410.455ZM137.695 398.295C136.717 398.295 135.927 397.505 135.927 396.526V390.442C135.927 389.464 136.717 388.673 137.695 388.673C138.673 388.673 139.463 389.464 139.463 390.442V396.526C139.463 397.505 138.673 398.295 137.695 398.295ZM137.695 386.128C136.717 386.128 135.927 385.337 135.927 384.359V378.275C135.927 377.297 136.717 376.506 137.695 376.506C138.673 376.506 139.463 377.297 139.463 378.275V384.359C139.463 385.337 138.673 386.128 137.695 386.128ZM137.695 373.969C136.717 373.969 135.927 373.178 135.927 372.199V366.116C135.927 365.137 136.717 364.346 137.695 364.346C138.673 364.346 139.463 365.137 139.463 366.116V372.199C139.463 373.178 138.673 373.969 137.695 373.969ZM137.695 361.802C136.717 361.802 135.927 361.011 135.927 360.032V353.949C135.927 352.97 136.717 352.179 137.695 352.179C138.673 352.179 139.463 352.97 139.463 353.949V360.032C139.463 361.011 138.673 361.802 137.695 361.802ZM137.695 349.643C136.717 349.643 135.927 348.852 135.927 347.873V341.79C135.927 340.811 136.717 340.02 137.695 340.02C138.673 340.02 139.463 340.811 139.463 341.79V347.873C139.463 348.852 138.673 349.643 137.695 349.643ZM137.695 337.475C136.717 337.475 135.927 336.685 135.927 335.706V329.622C135.927 328.644 136.717 327.853 137.695 327.853C138.673 327.853 139.463 328.644 139.463 329.622V335.706C139.463 336.685 138.673 337.475 137.695 337.475ZM137.695 325.316C136.717 325.316 135.927 324.525 135.927 323.547V317.463C135.927 316.485 136.717 315.694 137.695 315.694C138.673 315.694 139.463 316.485 139.463 317.463V323.547C139.463 324.525 138.673 325.316 137.695 325.316ZM137.695 313.149C136.717 313.149 135.927 312.358 135.927 311.38V305.296C135.927 304.317 136.717 303.527 137.695 303.527C138.673 303.527 139.463 304.317 139.463 305.296V311.38C139.463 312.358 138.673 313.149 137.695 313.149ZM137.695 300.982C136.717 300.982 135.927 300.191 135.927 299.213V293.129C135.927 292.15 136.717 291.36 137.695 291.36C138.673 291.36 139.463 292.15 139.463 293.129V299.213C139.463 300.191 138.673 300.982 137.695 300.982ZM137.695 288.823C136.717 288.823 135.927 288.032 135.927 287.053V280.97C135.927 279.991 136.717 279.2 137.695 279.2C138.673 279.2 139.463 279.991 139.463 280.97V287.053C139.463 288.032 138.673 288.823 137.695 288.823ZM137.914 276.679C137.773 276.679 137.632 276.664 137.484 276.624C136.537 276.39 135.959 275.427 136.193 274.479C136.655 272.624 137.664 270.987 139.126 269.75L140.3 268.764C141.05 268.129 142.161 268.223 142.795 268.975C143.428 269.727 143.334 270.838 142.584 271.473L141.418 272.459C140.534 273.211 139.916 274.205 139.635 275.34C139.431 276.147 138.712 276.687 137.914 276.687V276.679ZM146.08 267.957C145.579 267.957 145.079 267.746 144.727 267.331C144.093 266.579 144.187 265.467 144.938 264.833L149.576 260.911C150.327 260.276 151.438 260.37 152.071 261.122C152.705 261.874 152.611 262.985 151.86 263.62L147.222 267.542C146.886 267.824 146.487 267.957 146.08 267.957ZM155.357 260.112C154.856 260.112 154.355 259.901 154.003 259.486C153.37 258.734 153.464 257.622 154.215 256.988L158.853 253.065C159.604 252.431 160.715 252.525 161.348 253.277C161.982 254.028 161.888 255.14 161.137 255.774L156.499 259.697C156.162 259.979 155.763 260.112 155.357 260.112ZM164.641 252.259C164.14 252.259 163.64 252.048 163.288 251.633C162.654 250.881 162.748 249.769 163.499 249.135L168.137 245.212C168.888 244.578 169.999 244.672 170.633 245.424C171.266 246.175 171.172 247.287 170.421 247.921L165.783 251.844C165.447 252.126 165.048 252.259 164.641 252.259ZM173.926 244.414C173.425 244.414 172.924 244.202 172.572 243.787C171.939 243.036 172.033 241.924 172.784 241.29L177.422 237.367C178.173 236.733 179.283 236.827 179.917 237.579C180.551 238.33 180.457 239.442 179.706 240.076L175.068 243.999C174.731 244.281 174.332 244.414 173.926 244.414ZM183.21 236.561C182.709 236.561 182.209 236.349 181.857 235.934C181.223 235.183 181.317 234.071 182.068 233.437L186.706 229.514C187.457 228.88 188.568 228.974 189.202 229.726C189.835 230.477 189.741 231.589 188.99 232.223L184.352 236.146C184.016 236.428 183.617 236.561 183.21 236.561ZM192.487 228.716C191.986 228.716 191.485 228.504 191.133 228.089C190.5 227.338 190.594 226.226 191.345 225.592L195.983 221.669C196.734 221.035 197.845 221.129 198.478 221.88C199.112 222.632 199.018 223.744 198.267 224.378L193.629 228.301C193.292 228.582 192.893 228.716 192.487 228.716ZM201.771 220.862C201.271 220.862 200.77 220.651 200.418 220.236C199.784 219.484 199.878 218.373 200.629 217.739L205.267 213.816C206.018 213.182 207.129 213.276 207.763 214.027C208.396 214.779 208.302 215.891 207.551 216.525L202.913 220.448C202.577 220.729 202.178 220.862 201.771 220.862ZM211.056 213.017C210.555 213.017 210.054 212.806 209.702 212.391C209.069 211.639 209.163 210.528 209.914 209.893L214.552 205.971C215.303 205.337 216.414 205.43 217.047 206.182C217.681 206.934 217.587 208.046 216.836 208.68L212.198 212.602C211.861 212.884 211.462 213.017 211.056 213.017ZM220.34 205.164C219.84 205.164 219.339 204.953 218.987 204.538C218.353 203.786 218.447 202.675 219.198 202.04L223.836 198.118C224.587 197.484 225.698 197.577 226.332 198.329C226.965 199.081 226.871 200.193 226.12 200.827L221.482 204.749C221.146 205.031 220.747 205.164 220.34 205.164ZM229.617 197.319C229.116 197.319 228.616 197.108 228.264 196.693C227.63 195.941 227.724 194.829 228.475 194.195L233.113 190.273C233.864 189.638 234.975 189.732 235.608 190.484C236.242 191.236 236.148 192.347 235.397 192.982L230.759 196.904C230.422 197.186 230.023 197.319 229.617 197.319ZM238.901 189.466C238.401 189.466 237.9 189.255 237.548 188.84C236.914 188.088 237.008 186.976 237.759 186.342L242.398 182.42C243.148 181.785 244.259 181.879 244.893 182.631C245.526 183.383 245.432 184.494 244.682 185.129L240.043 189.051C239.707 189.333 239.308 189.466 238.901 189.466ZM248.186 181.621C247.685 181.621 247.185 181.41 246.833 180.995C246.199 180.243 246.293 179.131 247.044 178.497L251.682 174.574C252.433 173.94 253.544 174.034 254.177 174.786C254.811 175.537 254.717 176.649 253.966 177.283L249.328 181.206C248.991 181.488 248.592 181.621 248.186 181.621ZM257.47 173.768C256.97 173.768 256.469 173.556 256.117 173.142C255.483 172.39 255.577 171.278 256.328 170.644L260.967 166.721C261.717 166.087 262.828 166.181 263.462 166.933C264.095 167.684 264.001 168.796 263.25 169.43L258.612 173.353C258.276 173.635 257.877 173.768 257.47 173.768ZM266.747 165.923C266.246 165.923 265.746 165.711 265.394 165.296C264.76 164.545 264.854 163.433 265.605 162.799L270.243 158.876C270.986 158.242 272.105 158.336 272.738 159.088C273.372 159.839 273.278 160.951 272.527 161.585L267.889 165.508C267.56 165.79 267.154 165.923 266.747 165.923ZM276.031 158.07C275.531 158.07 275.03 157.858 274.678 157.443C274.045 156.692 274.138 155.58 274.889 154.946L279.528 151.023C280.279 150.389 281.389 150.483 282.023 151.235C282.656 151.986 282.562 153.098 281.812 153.732L277.173 157.655C276.837 157.937 276.438 158.07 276.031 158.07ZM285.316 150.225C284.815 150.225 284.315 150.013 283.963 149.598C283.329 148.846 283.423 147.735 284.174 147.101L288.812 143.178C289.563 142.544 290.674 142.638 291.307 143.389C291.941 144.141 291.847 145.253 291.096 145.887L286.458 149.81C286.121 150.091 285.723 150.225 285.316 150.225ZM690.774 146.044H684.697C683.719 146.044 682.929 145.245 682.929 144.266C682.929 143.288 683.719 142.497 684.697 142.497H690.774C691.752 142.497 692.542 143.295 692.542 144.274C692.542 145.253 691.752 146.044 690.774 146.044ZM678.619 146.036H672.542C671.564 146.036 670.774 145.237 670.774 144.258C670.774 143.28 671.564 142.489 672.542 142.489H678.619C679.597 142.489 680.387 143.288 680.387 144.266C680.387 145.245 679.597 146.036 678.619 146.036ZM666.472 146.028H660.395C659.417 146.028 658.627 145.229 658.627 144.251C658.627 143.272 659.417 142.481 660.395 142.481H666.472C667.45 142.481 668.24 143.28 668.24 144.258C668.24 145.237 667.45 146.028 666.472 146.028ZM654.317 146.02H648.239C647.262 146.02 646.472 145.221 646.472 144.243C646.472 143.264 647.262 142.473 648.239 142.473H654.317C655.295 142.473 656.085 143.272 656.085 144.251C656.085 145.229 655.295 146.02 654.317 146.02ZM642.17 146.012H636.092C635.114 146.012 634.324 145.214 634.324 144.235C634.324 143.256 635.114 142.465 636.092 142.465H642.17C643.147 142.465 643.937 143.264 643.937 144.243C643.937 145.221 643.147 146.012 642.17 146.012ZM630.015 146.012H623.937C622.959 146.012 622.169 145.214 622.169 144.235C622.169 143.256 622.959 142.465 623.937 142.465H630.015C630.992 142.465 631.782 143.264 631.782 144.243C631.782 145.221 630.992 146.012 630.015 146.012ZM617.867 146.004H611.79C610.812 146.004 610.022 145.206 610.022 144.227C610.022 143.248 610.812 142.458 611.79 142.458H617.867C618.845 142.458 619.635 143.256 619.635 144.235C619.635 145.214 618.845 146.004 617.867 146.004ZM605.712 145.997H599.635C598.657 145.997 597.867 145.198 597.867 144.219C597.867 143.241 598.657 142.45 599.635 142.45H605.712C606.69 142.45 607.48 143.248 607.48 144.227C607.48 145.206 606.69 145.997 605.712 145.997ZM593.565 145.989H587.488C586.51 145.989 585.72 145.19 585.72 144.211C585.72 143.233 586.51 142.442 587.488 142.442H593.565C594.543 142.442 595.333 143.241 595.333 144.219C595.333 145.198 594.543 145.989 593.565 145.989ZM581.41 145.981H575.332C574.355 145.981 573.565 145.182 573.565 144.204C573.565 143.225 574.355 142.434 575.332 142.434H581.41C582.388 142.434 583.178 143.233 583.178 144.211C583.178 145.19 582.388 145.981 581.41 145.981ZM569.263 145.973H563.185C562.207 145.973 561.417 145.174 561.417 144.196C561.417 143.217 562.207 142.426 563.185 142.426H569.263C570.24 142.426 571.031 143.225 571.031 144.204C571.031 145.182 570.24 145.973 569.263 145.973ZM557.108 145.965H551.03C550.052 145.965 549.262 145.167 549.262 144.188C549.262 143.209 550.052 142.418 551.03 142.418H557.108C558.085 142.418 558.875 143.217 558.875 144.196C558.875 145.174 558.085 145.965 557.108 145.965ZM544.96 145.965H538.883C537.905 145.965 537.115 145.167 537.115 144.188C537.115 143.209 537.905 142.418 538.883 142.418H544.96C545.938 142.418 546.728 143.217 546.728 144.196C546.728 145.174 545.938 145.965 544.96 145.965ZM532.805 145.957H526.728C525.75 145.957 524.96 145.159 524.96 144.18C524.96 143.201 525.75 142.411 526.728 142.411H532.805C533.783 142.411 534.573 143.209 534.573 144.188C534.573 145.167 533.783 145.957 532.805 145.957ZM520.658 145.95H514.581C513.603 145.95 512.813 145.151 512.813 144.172C512.813 143.194 513.603 142.403 514.581 142.403H520.658C521.636 142.403 522.426 143.201 522.426 144.18C522.426 145.159 521.636 145.95 520.658 145.95ZM508.503 145.942H502.425C501.448 145.942 500.658 145.143 500.658 144.164C500.658 143.186 501.448 142.395 502.425 142.395H508.503C509.481 142.395 510.271 143.194 510.271 144.172C510.271 145.151 509.481 145.942 508.503 145.942ZM496.356 145.934H490.278C489.301 145.934 488.511 145.135 488.511 144.157C488.511 143.178 489.301 142.387 490.278 142.387H496.356C497.333 142.387 498.123 143.186 498.123 144.164C498.123 145.143 497.333 145.934 496.356 145.934ZM484.201 145.926H478.123C477.145 145.926 476.355 145.127 476.355 144.149C476.355 143.17 477.145 142.379 478.123 142.379H484.201C485.178 142.379 485.968 143.178 485.968 144.157C485.968 145.135 485.178 145.926 484.201 145.926ZM472.053 145.918H465.976C464.998 145.918 464.208 145.12 464.208 144.141C464.208 143.162 464.998 142.371 465.976 142.371H472.053C473.031 142.371 473.821 143.17 473.821 144.149C473.821 145.127 473.031 145.918 472.053 145.918ZM459.898 145.918H453.821C452.843 145.918 452.053 145.12 452.053 144.141C452.053 143.162 452.843 142.371 453.821 142.371H459.898C460.876 142.371 461.666 143.17 461.666 144.149C461.666 145.127 460.876 145.918 459.898 145.918ZM447.751 145.91H441.674C440.696 145.91 439.906 145.112 439.906 144.133C439.906 143.154 440.696 142.364 441.674 142.364H447.751C448.729 142.364 449.519 143.162 449.519 144.141C449.519 145.12 448.729 145.91 447.751 145.91ZM435.596 145.903H429.518C428.541 145.903 427.751 145.104 427.751 144.125C427.751 143.147 428.541 142.356 429.518 142.356H435.596C436.574 142.356 437.364 143.154 437.364 144.133C437.364 145.112 436.574 145.903 435.596 145.903ZM423.449 145.895H417.371C416.393 145.895 415.604 145.096 415.604 144.117C415.604 143.139 416.393 142.348 417.371 142.348H423.449C424.426 142.348 425.216 143.147 425.216 144.125C425.216 145.104 424.426 145.895 423.449 145.895ZM411.294 145.887H405.216C404.238 145.887 403.448 145.088 403.448 144.11C403.448 143.131 404.238 142.34 405.216 142.34H411.294C412.271 142.34 413.061 143.139 413.061 144.117C413.061 145.096 412.271 145.887 411.294 145.887ZM399.146 145.879H393.069C392.091 145.879 391.301 145.081 391.301 144.102C391.301 143.123 392.091 142.332 393.069 142.332H399.146C400.124 142.332 400.914 143.131 400.914 144.11C400.914 145.088 400.124 145.879 399.146 145.879ZM386.991 145.871H380.914C379.936 145.871 379.146 145.073 379.146 144.094C379.146 143.115 379.936 142.325 380.914 142.325H386.991C387.969 142.325 388.759 143.123 388.759 144.102C388.759 145.081 387.969 145.871 386.991 145.871ZM374.844 145.871H368.767C367.789 145.871 366.999 145.073 366.999 144.094C366.999 143.115 367.789 142.325 368.767 142.325H374.844C375.822 142.325 376.612 143.123 376.612 144.102C376.612 145.081 375.822 145.871 374.844 145.871ZM362.689 145.863H356.611C355.634 145.863 354.844 145.065 354.844 144.086C354.844 143.107 355.634 142.317 356.611 142.317H362.689C363.667 142.317 364.457 143.115 364.457 144.094C364.457 145.073 363.667 145.863 362.689 145.863ZM350.534 145.856H344.456C343.479 145.856 342.689 145.057 342.689 144.078C342.689 143.1 343.479 142.309 344.456 142.309H350.534C351.512 142.309 352.302 143.107 352.302 144.086C352.302 145.065 351.512 145.856 350.534 145.856ZM338.387 145.848H332.309C331.331 145.848 330.541 145.049 330.541 144.07C330.541 143.092 331.331 142.301 332.309 142.301H338.387C339.364 142.301 340.154 143.1 340.154 144.078C340.154 145.057 339.364 145.848 338.387 145.848ZM326.232 145.84H320.154C319.176 145.84 318.386 145.041 318.386 144.063C318.386 143.084 319.176 142.293 320.154 142.293H326.232C327.209 142.293 327.999 143.092 327.999 144.07C327.999 145.049 327.209 145.84 326.232 145.84ZM314.084 145.832H308.007C307.029 145.832 306.239 145.034 306.239 144.055C306.239 143.076 307.029 142.285 308.007 142.285H314.084C315.062 142.285 315.852 143.084 315.852 144.063C315.852 145.041 315.062 145.832 314.084 145.832ZM301.929 145.824H295.852C294.874 145.824 294.084 145.026 294.084 144.047C294.084 143.068 294.874 142.278 295.852 142.278H301.929C302.907 142.278 303.697 143.076 303.697 144.055C303.697 145.034 302.907 145.824 301.929 145.824ZM696.656 145.049C696.078 145.049 695.507 144.767 695.17 144.243C694.638 143.421 694.873 142.325 695.694 141.792C696.242 141.44 696.688 140.978 697.032 140.43L698.831 137.564C699.347 136.734 700.442 136.484 701.271 137.008C702.1 137.525 702.351 138.621 701.827 139.451L700.028 142.317C699.41 143.311 698.596 144.133 697.611 144.767C697.313 144.963 696.977 145.049 696.649 145.049H696.656ZM703.555 135.121C703.234 135.121 702.906 135.035 702.617 134.847C701.788 134.331 701.537 133.234 702.061 132.404L705.292 127.253C705.808 126.423 706.903 126.172 707.732 126.697C708.561 127.214 708.811 128.31 708.287 129.14L705.057 134.291C704.721 134.832 704.142 135.121 703.555 135.121ZM710.016 124.826C709.695 124.826 709.367 124.739 709.077 124.551C708.248 124.027 707.998 122.939 708.522 122.109L711.752 116.957C712.269 116.127 713.364 115.876 714.193 116.401C715.022 116.918 715.272 118.014 714.748 118.844L711.518 123.996C711.182 124.536 710.603 124.826 710.016 124.826ZM716.477 114.522C716.156 114.522 715.828 114.436 715.538 114.248C714.709 113.731 714.459 112.635 714.983 111.805L718.213 106.653C718.729 105.823 719.825 105.573 720.654 106.097C721.483 106.614 721.733 107.71 721.209 108.54L717.979 113.692C717.642 114.224 717.063 114.522 716.477 114.522ZM722.938 104.218C722.617 104.218 722.288 104.132 721.999 103.944C721.17 103.427 720.92 102.331 721.444 101.501L724.674 96.3495C725.19 95.5196 726.285 95.269 727.114 95.7936C727.944 96.3182 728.194 97.4065 727.67 98.2364L724.439 103.388C724.103 103.921 723.524 104.218 722.938 104.218ZM729.406 93.9224C729.086 93.9224 728.757 93.8362 728.468 93.6483C727.638 93.1316 727.388 92.0355 727.912 91.2055L731.143 86.0537C731.659 85.2238 732.754 84.9732 733.583 85.4978C734.412 86.0145 734.662 87.1107 734.138 87.9406L730.908 93.0924C730.572 93.6327 729.993 93.9224 729.406 93.9224ZM735.867 83.6187C735.546 83.6187 735.218 83.5326 734.928 83.3447C734.099 82.8279 733.849 81.7318 734.373 80.9019L737.604 75.75C738.12 74.9201 739.215 74.6695 740.044 75.1941C740.873 75.7109 741.123 76.807 740.599 77.637L737.369 82.7888C737.032 83.329 736.454 83.6187 735.867 83.6187ZM742.328 73.315C742.007 73.315 741.679 73.2289 741.389 73.041C740.56 72.5243 740.31 71.4281 740.834 70.5982L744.064 65.4464C744.581 64.6164 745.676 64.3659 746.505 64.8905C747.334 65.4072 747.584 66.5034 747.06 67.3333L743.83 72.4851C743.493 73.0254 742.915 73.315 742.328 73.315ZM748.789 63.0114C748.468 63.0114 748.139 62.9253 747.85 62.7374C747.021 62.2206 746.771 61.1245 747.295 60.2945L750.525 55.1427C751.041 54.3128 752.136 54.0622 752.966 54.5868C753.795 55.1036 754.045 56.1997 753.521 57.0296L750.29 62.1815C749.954 62.7217 749.375 63.0114 748.789 63.0114ZM755.249 52.7156C754.929 52.7156 754.6 52.6294 754.311 52.4415C753.482 51.9248 753.232 50.8286 753.756 49.9987L756.986 44.8469C757.502 44.017 758.597 43.7664 759.426 44.291C760.255 44.8077 760.506 45.9039 759.982 46.7338L756.751 51.8856C756.415 52.4259 755.836 52.7156 755.249 52.7156Z" fill="#F15A24"/>
<path d="M761.718 42.3965C761.398 42.3965 761.069 42.3103 760.78 42.1224C759.951 41.6057 759.7 40.5096 760.224 39.6796L761.836 37.1037C762.352 36.2738 763.447 36.0232 764.276 36.5478C765.105 37.0646 765.355 38.1607 764.831 38.9906L763.22 41.5665C762.884 42.1068 762.305 42.3965 761.718 42.3965Z" fill="#F15A24"/>
<path d="M775.766 36.2351C785.762 36.2351 793.865 28.1236 793.865 18.1175C793.865 8.11149 785.762 0 775.766 0C765.77 0 757.666 8.11149 757.666 18.1175C757.666 28.1236 765.77 36.2351 775.766 36.2351Z" fill="white"/>
<path d="M775.766 32.8453C783.891 32.8453 790.478 26.2517 790.478 18.118C790.478 9.98428 783.891 3.39062 775.766 3.39062C767.64 3.39062 761.053 9.98428 761.053 18.118C761.053 26.2517 767.64 32.8453 775.766 32.8453Z" fill="#E2231A"/>
<path d="M775.765 27.7009C781.053 27.7009 785.339 23.4102 785.339 18.1175C785.339 12.8248 781.053 8.53418 775.765 8.53418C770.478 8.53418 766.191 12.8248 766.191 18.1175C766.191 23.4102 770.478 27.7009 775.765 27.7009Z" fill="white"/>
<path d="M286.333 504.903C286.536 505.71 287.256 506.242 288.046 506.242C288.195 506.242 288.335 506.226 288.484 506.187L294.374 504.692C295.32 504.449 295.899 503.486 295.657 502.539C295.414 501.591 294.452 501.012 293.506 501.255L287.616 502.75C286.669 502.993 286.091 503.956 286.333 504.903Z" fill="#F15A24"/>
<path d="M298.105 501.912C298.308 502.719 299.028 503.251 299.818 503.251C299.966 503.251 300.107 503.235 300.256 503.196L306.146 501.701C307.092 501.458 307.671 500.495 307.428 499.548C307.186 498.6 306.224 498.021 305.278 498.264L299.388 499.759C298.441 500.002 297.862 500.965 298.105 501.912Z" fill="#F15A24"/>
<path d="M309.885 498.921C310.088 499.728 310.807 500.26 311.597 500.26C311.746 500.26 311.887 500.244 312.036 500.205L317.925 498.71C318.872 498.467 319.451 497.504 319.208 496.557C318.966 495.609 318.004 495.03 317.057 495.273L311.167 496.768C310.221 497.011 309.642 497.974 309.885 498.921Z" fill="#F15A24"/>
<path d="M321.664 495.93C321.868 496.737 322.587 497.269 323.377 497.269C323.526 497.269 323.667 497.254 323.815 497.214L329.705 495.719C330.651 495.476 331.23 494.513 330.988 493.566C330.745 492.619 329.783 492.039 328.837 492.282L322.947 493.777C322 494.02 321.422 494.983 321.664 495.93Z" fill="#F15A24"/>
<path d="M333.444 492.932C333.647 493.738 334.367 494.271 335.157 494.271C335.305 494.271 335.446 494.255 335.595 494.216L341.485 492.72C342.431 492.478 343.01 491.515 342.767 490.567C342.525 489.62 341.563 489.04 340.616 489.283L334.727 490.779C333.78 491.021 333.201 491.984 333.444 492.932Z" fill="#F15A24"/>
<path d="M345.216 489.941C345.419 490.747 346.139 491.28 346.929 491.28C347.077 491.28 347.218 491.264 347.367 491.225L353.256 489.729C354.203 489.487 354.782 488.524 354.539 487.576C354.297 486.629 353.335 486.05 352.388 486.292L346.498 487.788C345.552 488.03 344.973 488.993 345.216 489.941Z" fill="#F15A24"/>
<path d="M356.995 486.95C357.199 487.756 357.918 488.289 358.708 488.289C358.857 488.289 358.998 488.273 359.146 488.234L365.036 486.739C365.982 486.496 366.561 485.533 366.319 484.585C366.076 483.638 365.114 483.059 364.168 483.301L358.278 484.797C357.332 485.04 356.753 486.003 356.995 486.95Z" fill="#F15A24"/>
<path d="M368.775 483.959C368.978 484.766 369.698 485.298 370.488 485.298C370.636 485.298 370.777 485.282 370.926 485.243L376.816 483.748C377.762 483.505 378.341 482.542 378.098 481.595C377.856 480.647 376.894 480.068 375.947 480.311L370.058 481.806C369.111 482.049 368.532 483.012 368.775 483.959Z" fill="#F15A24"/>
<path d="M380.554 480.968C380.758 481.775 381.477 482.307 382.267 482.307C382.416 482.307 382.557 482.291 382.705 482.252L388.595 480.757C389.542 480.514 390.121 479.551 389.878 478.604C389.636 477.656 388.674 477.077 387.727 477.32L381.837 478.815C380.891 479.058 380.312 480.021 380.554 480.968Z" fill="#F15A24"/>
<path d="M392.326 477.969C392.53 478.776 393.249 479.308 394.039 479.308C394.188 479.308 394.329 479.293 394.477 479.254L400.367 477.758C401.314 477.515 401.892 476.552 401.65 475.605C401.407 474.658 400.445 474.078 399.499 474.321L393.609 475.816C392.663 476.059 392.084 477.022 392.326 477.969Z" fill="#F15A24"/>
<path d="M405.224 474.368C405.428 475.174 406.147 475.707 406.937 475.707C407.086 475.707 407.227 475.691 407.375 475.652L413.265 474.156C414.211 473.914 414.79 472.951 414.548 472.003C414.305 471.056 413.343 470.477 412.397 470.719L406.507 472.215C405.561 472.458 404.982 473.421 405.224 474.368Z" fill="#F15A24"/>
<path d="M416.996 471.377C417.199 472.183 417.919 472.716 418.709 472.716C418.858 472.716 418.998 472.7 419.147 472.661L425.037 471.166C425.983 470.923 426.562 469.96 426.32 469.012C426.077 468.065 425.115 467.486 424.169 467.728L418.279 469.224C417.332 469.467 416.754 470.43 416.996 471.377Z" fill="#F15A24"/>
<path d="M428.776 468.386C428.979 469.193 429.699 469.725 430.489 469.725C430.637 469.725 430.778 469.709 430.927 469.67L436.816 468.175C437.763 467.932 438.342 466.969 438.099 466.022C437.857 465.074 436.895 464.495 435.948 464.738L430.058 466.233C429.112 466.476 428.533 467.439 428.776 468.386Z" fill="#F15A24"/>
<path d="M440.555 465.395C440.759 466.202 441.478 466.734 442.268 466.734C442.417 466.734 442.558 466.718 442.706 466.679L448.596 465.184C449.543 464.941 450.121 463.978 449.879 463.031C449.636 462.083 448.674 461.504 447.728 461.747L441.838 463.242C440.892 463.485 440.313 464.448 440.555 465.395Z" fill="#F15A24"/>
<path d="M452.335 462.397C452.538 463.203 453.258 463.735 454.048 463.735C454.197 463.735 454.337 463.72 454.486 463.681L460.376 462.185C461.322 461.942 461.901 460.979 461.658 460.032C461.416 459.085 460.454 458.505 459.507 458.748L453.618 460.243C452.671 460.486 452.092 461.449 452.335 462.397Z" fill="#F15A24"/>
<path d="M464.107 459.406C464.31 460.212 465.03 460.745 465.82 460.745C465.968 460.745 466.109 460.729 466.258 460.69L472.148 459.194C473.094 458.952 473.673 457.989 473.43 457.041C473.188 456.094 472.226 455.514 471.279 455.757L465.39 457.253C464.443 457.495 463.864 458.458 464.107 459.406Z" fill="#F15A24"/>
<path d="M475.886 456.415C476.09 457.221 476.809 457.754 477.599 457.754C477.748 457.754 477.889 457.738 478.037 457.699L483.927 456.203C484.874 455.961 485.452 454.998 485.21 454.05C484.967 453.103 484.005 452.524 483.059 452.766L477.169 454.262C476.223 454.504 475.644 455.467 475.886 456.415Z" fill="#F15A24"/>
<path d="M487.666 453.424C487.869 454.23 488.589 454.763 489.379 454.763C489.528 454.763 489.668 454.747 489.817 454.708L495.707 453.213C496.653 452.97 497.232 452.007 496.99 451.059C496.747 450.112 495.785 449.533 494.839 449.775L488.949 451.271C488.002 451.514 487.424 452.477 487.666 453.424Z" fill="#F15A24"/>
<path d="M499.446 450.433C499.649 451.239 500.369 451.772 501.159 451.772C501.307 451.772 501.448 451.756 501.597 451.717L507.486 450.222C508.433 449.979 509.012 449.016 508.769 448.069C508.527 447.121 507.565 446.542 506.618 446.784L500.728 448.28C499.782 448.523 499.203 449.486 499.446 450.433Z" fill="#F15A24"/>
<path d="M511.217 447.434C511.421 448.241 512.14 448.773 512.93 448.773C513.079 448.773 513.22 448.758 513.368 448.718L519.258 447.223C520.205 446.98 520.783 446.017 520.541 445.07C520.299 444.122 519.336 443.543 518.39 443.786L512.5 445.281C511.554 445.524 510.975 446.487 511.217 447.434Z" fill="#F15A24"/>
<path d="M835.386 350.025C822.589 350.025 812.221 360.408 812.221 373.207C812.221 386.007 835.386 417.139 835.386 417.139C835.386 417.139 858.552 386.014 858.552 373.207C858.552 360.4 848.177 350.025 835.386 350.025ZM835.386 386.356C827.791 386.356 821.635 380.197 821.635 372.596C821.635 364.995 827.791 358.835 835.386 358.835C842.982 358.835 849.137 364.995 849.137 372.596C849.137 380.197 842.982 386.356 835.386 386.356Z" fill="#ED1C24"/>
<path opacity="0.2" d="M835.386 431.213C844.945 431.213 852.694 423.458 852.694 413.892C852.694 404.326 844.945 396.571 835.386 396.571C825.827 396.571 818.077 404.326 818.077 413.892C818.077 423.458 825.827 431.213 835.386 431.213Z" fill="#ED1C24"/>
<path opacity="0.4" d="M835.386 425.381C841.727 425.381 846.867 420.238 846.867 413.892C846.867 407.547 841.727 402.403 835.386 402.403C829.045 402.403 823.905 407.547 823.905 413.892C823.905 420.238 829.045 425.381 835.386 425.381Z" fill="#ED1C24"/>
<path d="M23.1655 391.289C10.3677 391.289 0 401.671 0 414.471C0 427.271 23.1655 458.403 23.1655 458.403C23.1655 458.403 46.3311 427.278 46.3311 414.471C46.3311 401.664 35.9561 391.289 23.1655 391.289ZM23.1655 427.613C15.5698 427.613 9.41465 421.453 9.41465 413.852C9.41465 406.251 15.5698 400.092 23.1655 400.092C30.7613 400.092 36.9165 406.251 36.9165 413.852C36.9165 421.453 30.7613 427.613 23.1655 427.613Z" fill="#ED1C24"/>
<path opacity="0.2" d="M23.1656 472.47C32.7249 472.47 40.4743 464.715 40.4743 455.149C40.4743 445.583 32.7249 437.828 23.1656 437.828C13.6063 437.828 5.85693 445.583 5.85693 455.149C5.85693 464.715 13.6063 472.47 23.1656 472.47Z" fill="#ED1C24"/>
<path opacity="0.4" d="M23.1655 466.637C29.5062 466.637 34.6464 461.493 34.6464 455.148C34.6464 448.803 29.5062 443.659 23.1655 443.659C16.8248 443.659 11.6846 448.803 11.6846 455.148C11.6846 461.493 16.8248 466.637 23.1655 466.637Z" fill="#ED1C24"/>
<path d="M253.234 60.2754C240.436 60.2754 230.068 70.6578 230.068 83.4573C230.068 96.2569 253.234 127.389 253.234 127.389C253.234 127.389 276.399 96.2642 276.399 83.4573C276.399 70.6505 266.024 60.2754 253.234 60.2754ZM253.234 96.6064C245.638 96.6064 239.483 90.4469 239.483 82.8458C239.483 75.2446 245.638 69.0851 253.234 69.0851C260.83 69.0851 266.985 75.2446 266.985 82.8458C266.985 90.4469 260.83 96.6064 253.234 96.6064Z" fill="#ED1C24"/>
<path opacity="0.2" d="M253.234 141.456C262.793 141.456 270.543 133.701 270.543 124.135C270.543 114.569 262.793 106.814 253.234 106.814C243.675 106.814 235.925 114.569 235.925 124.135C235.925 133.701 243.675 141.456 253.234 141.456Z" fill="#ED1C24"/>
<path opacity="0.4" d="M253.234 135.624C259.575 135.624 264.715 130.48 264.715 124.135C264.715 117.789 259.575 112.646 253.234 112.646C246.893 112.646 241.753 117.789 241.753 124.135C241.753 130.48 246.893 135.624 253.234 135.624Z" fill="#ED1C24"/>
</svg>
