<svg width="658" height="543" viewBox="0 0 658 543" fill="none" xmlns="http://www.w3.org/2000/svg">
<path d="M625.791 42.3965C625.47 42.3965 625.142 42.3103 624.852 42.1224C624.023 41.6057 623.773 40.5096 624.297 39.6796L625.908 37.1037C626.424 36.2738 627.519 36.0232 628.348 36.5478C629.178 37.0646 629.428 38.1607 628.904 38.9906L627.293 41.5665C626.956 42.1068 626.377 42.3965 625.791 42.3965Z" fill="#F15A24"/>
<path d="M639.839 36.2351C649.835 36.2351 657.938 28.1236 657.938 18.1175C657.938 8.11149 649.835 0 639.839 0C629.843 0 621.739 8.11149 621.739 18.1175C621.739 28.1236 629.843 36.2351 639.839 36.2351Z" fill="white"/>
<path d="M639.839 32.8453C647.964 32.8453 654.552 26.2517 654.552 18.118C654.552 9.98428 647.964 3.39062 639.839 3.39062C631.713 3.39062 625.126 9.98428 625.126 18.118C625.126 26.2517 631.713 32.8453 639.839 32.8453Z" fill="#E2231A"/>
<path d="M639.839 27.7009C645.126 27.7009 649.413 23.4102 649.413 18.1175C649.413 12.8248 645.126 8.53418 639.839 8.53418C634.551 8.53418 630.265 12.8248 630.265 18.1175C630.265 23.4102 634.551 27.7009 639.839 27.7009Z" fill="white"/>
<path d="M406.233 457.26C416.229 457.26 424.333 449.149 424.333 439.143C424.333 429.137 416.229 421.025 406.233 421.025C396.237 421.025 388.133 429.137 388.133 439.143C388.133 449.149 396.237 457.26 406.233 457.26Z" fill="white"/>
<path d="M406.233 453.871C414.358 453.871 420.946 447.277 420.946 439.143C420.946 431.01 414.358 424.416 406.233 424.416C398.107 424.416 391.52 431.01 391.52 439.143C391.52 447.277 398.107 453.871 406.233 453.871Z" fill="#E2231A"/>
<path d="M406.233 448.726C411.52 448.726 415.807 444.436 415.807 439.143C415.807 433.85 411.52 429.56 406.233 429.56C400.945 429.56 396.659 433.85 396.659 439.143C396.659 444.436 400.945 448.726 406.233 448.726Z" fill="white"/>
<path d="M142.036 509.052C141.246 509.052 140.526 508.519 140.323 507.713C140.081 506.766 140.659 505.803 141.606 505.56L144.547 504.816C145.493 504.573 146.455 505.153 146.698 506.1C146.94 507.047 146.362 508.01 145.415 508.253L142.474 508.997C142.325 509.036 142.185 509.052 142.036 509.052Z" fill="#F15A24"/>
<path d="M6.53118 542.202C6.32782 542.202 6.12443 542.171 5.92889 542.092C3.51978 541.216 1.59561 539.352 0.649175 536.988C0.28155 536.079 0.727401 535.046 1.63473 534.678C2.54206 534.31 3.57455 534.756 3.94217 535.664C4.52098 537.097 5.68641 538.225 7.14909 538.757C8.07206 539.094 8.5414 540.112 8.20506 541.028C7.94694 541.748 7.26644 542.194 6.53901 542.194L6.53118 542.202ZM12.4836 541.967C11.6936 541.967 10.974 541.435 10.7706 540.628C10.5281 539.681 11.1069 538.718 12.0534 538.475L17.9432 536.98C18.8896 536.737 19.8517 537.316 20.0942 538.264C20.3366 539.211 19.7579 540.174 18.8114 540.417L12.9216 541.912C12.773 541.951 12.6322 541.967 12.4836 541.967ZM24.2632 538.976C23.4732 538.976 22.7536 538.444 22.5502 537.637C22.3077 536.69 22.8866 535.727 23.833 535.484L29.7228 533.989C30.6693 533.746 31.6314 534.325 31.8738 535.273C32.1163 536.22 31.5375 537.183 30.591 537.426L24.7012 538.921C24.5526 538.961 24.4118 538.976 24.2632 538.976ZM36.035 535.985C35.245 535.985 34.5254 535.453 34.322 534.647C34.0795 533.699 34.6584 532.736 35.6048 532.493L41.4946 530.998C42.4411 530.755 43.4032 531.335 43.6456 532.282C43.8881 533.229 43.3093 534.192 42.3628 534.435L36.473 535.931C36.3244 535.97 36.1836 535.985 36.035 535.985ZM47.8146 532.994C47.0246 532.994 46.305 532.462 46.1016 531.656C45.8592 530.708 46.438 529.745 47.3844 529.503L53.2743 528.007C54.2207 527.764 55.1828 528.344 55.4253 529.291C55.6677 530.239 55.0889 531.202 54.1425 531.444L48.2526 532.94C48.104 532.979 47.9632 532.994 47.8146 532.994ZM1.76769 532.086C0.789962 532.086 0 531.296 0 530.317V524.233C0 523.255 0.789962 522.464 1.76769 522.464C2.74541 522.464 3.53542 523.255 3.53542 524.233V530.317C3.53542 531.296 2.74541 532.086 1.76769 532.086ZM59.5942 530.004C58.8042 530.004 58.0847 529.471 57.8813 528.665C57.6388 527.717 58.2176 526.754 59.1641 526.512L65.0539 525.016C66.0003 524.773 66.9624 525.353 67.2049 526.3C67.4474 527.248 66.8685 528.211 65.9221 528.453L60.0323 529.949C59.8837 529.988 59.7429 530.004 59.5942 530.004ZM71.3739 527.005C70.5839 527.005 69.8643 526.473 69.6609 525.666C69.4185 524.719 69.9972 523.756 70.9437 523.513L76.8335 522.017C77.78 521.775 78.742 522.354 78.9845 523.302C79.227 524.249 78.6482 525.212 77.7017 525.455L71.8119 526.95C71.6633 526.989 71.5225 527.005 71.3739 527.005ZM83.1457 524.014C82.3557 524.014 81.6361 523.482 81.4327 522.675C81.1903 521.728 81.7691 520.765 82.7155 520.522L88.6053 519.027C89.5518 518.784 90.5138 519.363 90.7563 520.311C90.9988 521.258 90.42 522.221 89.4735 522.464L83.5837 523.959C83.4351 523.998 83.2943 524.014 83.1457 524.014ZM94.9253 521.023C94.1353 521.023 93.4157 520.491 93.2124 519.684C92.9699 518.737 93.5487 517.774 94.4952 517.531L100.385 516.036C101.331 515.793 102.293 516.372 102.536 517.32C102.778 518.267 102.2 519.23 101.253 519.473L95.3634 520.968C95.2148 521.008 95.074 521.023 94.9253 521.023ZM1.76769 519.927C0.789962 519.927 0 519.136 0 518.158V512.074C0 511.095 0.789962 510.305 1.76769 510.305C2.74541 510.305 3.53542 511.095 3.53542 512.074V518.158C3.53542 519.136 2.74541 519.927 1.76769 519.927ZM106.705 518.032C105.915 518.032 105.195 517.5 104.992 516.693C104.75 515.746 105.328 514.783 106.275 514.54L112.165 513.045C113.111 512.802 114.073 513.382 114.316 514.329C114.558 515.276 113.979 516.239 113.033 516.482L107.143 517.977C106.994 518.017 106.854 518.032 106.705 518.032ZM118.485 515.041C117.695 515.041 116.975 514.509 116.772 513.703C116.529 512.755 117.108 511.792 118.054 511.549L123.944 510.054C124.891 509.811 125.853 510.391 126.095 511.338C126.338 512.285 125.759 513.248 124.812 513.491L118.923 514.987C118.774 515.026 118.633 515.041 118.485 515.041ZM130.256 512.043C129.466 512.043 128.747 511.51 128.543 510.704C128.301 509.756 128.88 508.793 129.826 508.551L135.716 507.055C136.662 506.813 137.625 507.392 137.867 508.339C138.109 509.287 137.531 510.25 136.584 510.492L130.694 511.988C130.546 512.027 130.405 512.043 130.256 512.043ZM1.76769 507.76C0.789962 507.76 0 506.969 0 505.99V499.907C0 498.928 0.789962 498.137 1.76769 498.137C2.74541 498.137 3.53542 498.928 3.53542 499.907V505.99C3.53542 506.969 2.74541 507.76 1.76769 507.76ZM1.76769 495.601C0.789962 495.601 0 494.81 0 493.831V487.748C0 486.769 0.789962 485.978 1.76769 485.978C2.74541 485.978 3.53542 486.769 3.53542 487.748V493.831C3.53542 494.81 2.74541 495.601 1.76769 495.601ZM1.76769 483.434C0.789962 483.434 0 482.643 0 481.664V475.581C0 474.602 0.789962 473.811 1.76769 473.811C2.74541 473.811 3.53542 474.602 3.53542 475.581V481.664C3.53542 482.643 2.74541 483.434 1.76769 483.434ZM1.76769 471.274C0.789962 471.274 0 470.484 0 469.505V463.421C0 462.443 0.789962 461.652 1.76769 461.652C2.74541 461.652 3.53542 462.443 3.53542 463.421V469.505C3.53542 470.484 2.74541 471.274 1.76769 471.274ZM1.76769 459.107C0.789962 459.107 0 458.316 0 457.338V451.254C0 450.276 0.789962 449.485 1.76769 449.485C2.74541 449.485 3.53542 450.276 3.53542 451.254V457.338C3.53542 458.316 2.74541 459.107 1.76769 459.107ZM1.76769 446.948C0.789962 446.948 0 446.157 0 445.178V439.095C0 438.116 0.789962 437.325 1.76769 437.325C2.74541 437.325 3.53542 438.116 3.53542 439.095V445.178C3.53542 446.157 2.74541 446.948 1.76769 446.948ZM1.76769 434.781C0.789962 434.781 0 433.99 0 433.011V426.928C0 425.949 0.789962 425.158 1.76769 425.158C2.74541 425.158 3.53542 425.949 3.53542 426.928V433.011C3.53542 433.99 2.74541 434.781 1.76769 434.781ZM1.76769 422.622C0.789962 422.622 0 421.831 0 420.852V414.769C0 413.79 0.789962 412.999 1.76769 412.999C2.74541 412.999 3.53542 413.79 3.53542 414.769V420.852C3.53542 421.831 2.74541 422.622 1.76769 422.622ZM1.76769 410.455C0.789962 410.455 0 409.664 0 408.685V402.602C0 401.623 0.789962 400.832 1.76769 400.832C2.74541 400.832 3.53542 401.623 3.53542 402.602V408.685C3.53542 409.664 2.74541 410.455 1.76769 410.455ZM1.76769 398.295C0.789962 398.295 0 397.505 0 396.526V390.442C0 389.464 0.789962 388.673 1.76769 388.673C2.74541 388.673 3.53542 389.464 3.53542 390.442V396.526C3.53542 397.505 2.74541 398.295 1.76769 398.295ZM1.76769 386.128C0.789962 386.128 0 385.337 0 384.359V378.275C0 377.297 0.789962 376.506 1.76769 376.506C2.74541 376.506 3.53542 377.297 3.53542 378.275V384.359C3.53542 385.337 2.74541 386.128 1.76769 386.128ZM1.76769 373.969C0.789962 373.969 0 373.178 0 372.199V366.116C0 365.137 0.789962 364.346 1.76769 364.346C2.74541 364.346 3.53542 365.137 3.53542 366.116V372.199C3.53542 373.178 2.74541 373.969 1.76769 373.969ZM1.76769 361.802C0.789962 361.802 0 361.011 0 360.032V353.949C0 352.97 0.789962 352.179 1.76769 352.179C2.74541 352.179 3.53542 352.97 3.53542 353.949V360.032C3.53542 361.011 2.74541 361.802 1.76769 361.802ZM1.76769 349.643C0.789962 349.643 0 348.852 0 347.873V341.79C0 340.811 0.789962 340.02 1.76769 340.02C2.74541 340.02 3.53542 340.811 3.53542 341.79V347.873C3.53542 348.852 2.74541 349.643 1.76769 349.643ZM1.76769 337.475C0.789962 337.475 0 336.685 0 335.706V329.622C0 328.644 0.789962 327.853 1.76769 327.853C2.74541 327.853 3.53542 328.644 3.53542 329.622V335.706C3.53542 336.685 2.74541 337.475 1.76769 337.475ZM1.76769 325.316C0.789962 325.316 0 324.525 0 323.547V317.463C0 316.485 0.789962 315.694 1.76769 315.694C2.74541 315.694 3.53542 316.485 3.53542 317.463V323.547C3.53542 324.525 2.74541 325.316 1.76769 325.316ZM1.76769 313.149C0.789962 313.149 0 312.358 0 311.38V305.296C0 304.317 0.789962 303.527 1.76769 303.527C2.74541 303.527 3.53542 304.317 3.53542 305.296V311.38C3.53542 312.358 2.74541 313.149 1.76769 313.149ZM1.76769 300.982C0.789962 300.982 0 300.191 0 299.213V293.129C0 292.15 0.789962 291.36 1.76769 291.36C2.74541 291.36 3.53542 292.15 3.53542 293.129V299.213C3.53542 300.191 2.74541 300.982 1.76769 300.982ZM1.76769 288.823C0.789962 288.823 0 288.032 0 287.053V280.97C0 279.991 0.789962 279.2 1.76769 279.2C2.74541 279.2 3.53542 279.991 3.53542 280.97V287.053C3.53542 288.032 2.74541 288.823 1.76769 288.823ZM1.98672 276.679C1.84593 276.679 1.70514 276.664 1.55653 276.624C0.610093 276.39 0.0312605 275.427 0.265914 274.479C0.727401 272.624 1.73641 270.987 3.19909 269.75L4.37236 268.764C5.12325 268.129 6.23395 268.223 6.86752 268.975C7.50108 269.727 7.4072 270.838 6.65631 271.473L5.49087 272.459C4.60701 273.211 3.98911 274.205 3.70753 275.34C3.50416 276.147 2.78454 276.687 1.98672 276.687V276.679ZM10.1527 267.957C9.65209 267.957 9.15151 267.746 8.79952 267.331C8.16596 266.579 8.25979 265.467 9.01068 264.833L13.649 260.911C14.3999 260.276 15.5106 260.37 16.1442 261.122C16.7777 261.874 16.6839 262.985 15.933 263.62L11.2946 267.542C10.9583 267.824 10.5594 267.957 10.1527 267.957ZM19.4293 260.112C18.9287 260.112 18.4281 259.901 18.0762 259.486C17.4426 258.734 17.5364 257.622 18.2873 256.988L22.9257 253.065C23.6766 252.431 24.7873 252.525 25.4208 253.277C26.0544 254.028 25.9605 255.14 25.2096 255.774L20.5713 259.697C20.235 259.979 19.8361 260.112 19.4293 260.112ZM28.7138 252.259C28.2132 252.259 27.7126 252.048 27.3606 251.633C26.7271 250.881 26.821 249.769 27.5718 249.135L32.2102 245.212C32.9611 244.578 34.0718 244.672 34.7053 245.424C35.3389 246.175 35.245 247.287 34.4941 247.921L29.8558 251.844C29.5195 252.126 29.1205 252.259 28.7138 252.259ZM37.9983 244.414C37.4977 244.414 36.9971 244.202 36.6451 243.787C36.0115 243.036 36.1054 241.924 36.8563 241.29L41.4946 237.367C42.2455 236.733 43.3562 236.827 43.9898 237.579C44.6234 238.33 44.5295 239.442 43.7786 240.076L39.1403 243.999C38.8039 244.281 38.405 244.414 37.9983 244.414ZM47.2827 236.561C46.7821 236.561 46.2816 236.349 45.9296 235.934C45.296 235.183 45.3899 234.071 46.1408 233.437L50.7791 229.514C51.53 228.88 52.6407 228.974 53.2743 229.726C53.9078 230.477 53.814 231.589 53.0631 232.223L48.4247 236.146C48.0884 236.428 47.6895 236.561 47.2827 236.561ZM56.5594 228.716C56.0588 228.716 55.5582 228.504 55.2062 228.089C54.5727 227.338 54.6665 226.226 55.4174 225.592L60.0558 221.669C60.8066 221.035 61.9173 221.129 62.5509 221.88C63.1845 222.632 63.0906 223.744 62.3397 224.378L57.7014 228.301C57.365 228.582 56.9662 228.716 56.5594 228.716ZM65.8439 220.862C65.3433 220.862 64.8427 220.651 64.4907 220.236C63.8571 219.485 63.951 218.373 64.7019 217.739L69.3402 213.816C70.0911 213.182 71.2018 213.276 71.8354 214.027C72.4689 214.779 72.3751 215.891 71.6242 216.525L66.9859 220.448C66.6495 220.729 66.2506 220.862 65.8439 220.862ZM75.1284 213.017C74.6278 213.017 74.1272 212.806 73.7752 212.391C73.1416 211.639 73.2355 210.528 73.9864 209.893L78.6247 205.971C79.3756 205.337 80.4863 205.43 81.1199 206.182C81.7534 206.934 81.6595 208.046 80.9086 208.68L76.2703 212.602C75.934 212.884 75.5351 213.017 75.1284 213.017ZM84.4128 205.164C83.9123 205.164 83.4116 204.953 83.0596 204.538C82.4261 203.786 82.52 202.675 83.2708 202.04L87.9092 198.118C88.6601 197.484 89.7708 197.577 90.4043 198.329C91.0379 199.081 90.9441 200.193 90.1932 200.827L85.5548 204.749C85.2185 205.031 84.8196 205.164 84.4128 205.164ZM93.6895 197.319C93.1889 197.319 92.6883 197.108 92.3363 196.693C91.7028 195.941 91.7966 194.829 92.5475 194.195L97.1859 190.273C97.9368 189.638 99.0474 189.732 99.681 190.484C100.315 191.236 100.221 192.347 99.4698 192.982L94.8315 196.904C94.4952 197.186 94.0962 197.319 93.6895 197.319ZM102.974 189.466C102.473 189.466 101.973 189.255 101.621 188.84C100.987 188.088 101.081 186.976 101.832 186.342L106.47 182.42C107.221 181.785 108.332 181.879 108.965 182.631C109.599 183.383 109.505 184.494 108.754 185.129L104.116 189.051C103.78 189.333 103.381 189.466 102.974 189.466ZM112.258 181.621C111.758 181.621 111.257 181.41 110.905 180.995C110.272 180.243 110.366 179.131 111.116 178.497L115.755 174.574C116.506 173.94 117.616 174.034 118.25 174.786C118.884 175.537 118.79 176.649 118.039 177.283L113.4 181.206C113.064 181.488 112.665 181.621 112.258 181.621ZM121.543 173.768C121.042 173.768 120.542 173.556 120.19 173.142C119.556 172.39 119.65 171.278 120.401 170.644L125.039 166.721C125.79 166.087 126.901 166.181 127.534 166.933C128.168 167.684 128.074 168.796 127.323 169.43L122.685 173.353C122.349 173.635 121.95 173.768 121.543 173.768ZM130.82 165.923C130.319 165.923 129.818 165.711 129.466 165.296C128.833 164.545 128.927 163.433 129.678 162.799L134.316 158.876C135.059 158.242 136.178 158.336 136.811 159.088C137.445 159.839 137.351 160.951 136.6 161.585L131.962 165.508C131.633 165.79 131.226 165.923 130.82 165.923ZM140.104 158.07C139.603 158.07 139.103 157.858 138.751 157.443C138.117 156.692 138.211 155.58 138.962 154.946L143.6 151.023C144.351 150.389 145.462 150.483 146.096 151.235C146.729 151.986 146.635 153.098 145.884 153.732L141.246 157.655C140.91 157.937 140.511 158.07 140.104 158.07ZM149.389 150.225C148.888 150.225 148.387 150.013 148.035 149.598C147.402 148.846 147.496 147.735 148.247 147.101L152.885 143.178C153.636 142.544 154.746 142.638 155.38 143.389C156.014 144.141 155.92 145.253 155.169 145.887L150.53 149.81C150.194 150.091 149.795 150.225 149.389 150.225ZM554.847 146.044H548.77C547.792 146.044 547.002 145.245 547.002 144.266C547.002 143.288 547.792 142.497 548.77 142.497H554.847C555.825 142.497 556.615 143.295 556.615 144.274C556.615 145.253 555.825 146.044 554.847 146.044ZM542.692 146.036H536.614C535.637 146.036 534.847 145.237 534.847 144.258C534.847 143.28 535.637 142.489 536.614 142.489H542.692C543.67 142.489 544.46 143.288 544.46 144.266C544.46 145.245 543.67 146.036 542.692 146.036ZM530.545 146.028H524.467C523.49 146.028 522.7 145.229 522.7 144.251C522.7 143.272 523.49 142.481 524.467 142.481H530.545C531.522 142.481 532.313 143.28 532.313 144.258C532.313 145.237 531.522 146.028 530.545 146.028ZM518.39 146.02H512.312C511.334 146.02 510.544 145.221 510.544 144.243C510.544 143.264 511.334 142.473 512.312 142.473H518.39C519.367 142.473 520.157 143.272 520.157 144.251C520.157 145.229 519.367 146.02 518.39 146.02ZM506.242 146.012H500.165C499.187 146.012 498.397 145.214 498.397 144.235C498.397 143.256 499.187 142.465 500.165 142.465H506.242C507.22 142.465 508.01 143.264 508.01 144.243C508.01 145.221 507.22 146.012 506.242 146.012ZM494.087 146.012H488.01C487.032 146.012 486.242 145.214 486.242 144.235C486.242 143.256 487.032 142.465 488.01 142.465H494.087C495.065 142.465 495.855 143.264 495.855 144.243C495.855 145.221 495.065 146.012 494.087 146.012ZM481.94 146.004H475.863C474.885 146.004 474.095 145.206 474.095 144.227C474.095 143.248 474.885 142.458 475.863 142.458H481.94C482.918 142.458 483.708 143.256 483.708 144.235C483.708 145.214 482.918 146.004 481.94 146.004ZM469.785 145.997H463.708C462.73 145.997 461.94 145.198 461.94 144.219C461.94 143.241 462.73 142.45 463.708 142.45H469.785C470.763 142.45 471.553 143.248 471.553 144.227C471.553 145.206 470.763 145.997 469.785 145.997ZM457.638 145.989H451.56C450.583 145.989 449.793 145.19 449.793 144.211C449.793 143.233 450.583 142.442 451.56 142.442H457.638C458.616 142.442 459.406 143.241 459.406 144.219C459.406 145.198 458.616 145.989 457.638 145.989ZM445.483 145.981H439.405C438.428 145.981 437.638 145.182 437.638 144.204C437.638 143.225 438.428 142.434 439.405 142.434H445.483C446.46 142.434 447.25 143.233 447.25 144.211C447.25 145.19 446.46 145.981 445.483 145.981ZM433.336 145.973H427.258C426.28 145.973 425.49 145.174 425.49 144.196C425.49 143.217 426.28 142.426 427.258 142.426H433.336C434.313 142.426 435.103 143.225 435.103 144.204C435.103 145.182 434.313 145.973 433.336 145.973ZM421.18 145.965H415.103C414.125 145.965 413.335 145.167 413.335 144.188C413.335 143.209 414.125 142.418 415.103 142.418H421.18C422.158 142.418 422.948 143.217 422.948 144.196C422.948 145.174 422.158 145.965 421.18 145.965ZM409.033 145.965H402.956C401.978 145.965 401.188 145.167 401.188 144.188C401.188 143.209 401.978 142.418 402.956 142.418H409.033C410.011 142.418 410.801 143.217 410.801 144.196C410.801 145.174 410.011 145.965 409.033 145.965ZM396.878 145.957H390.801C389.823 145.957 389.033 145.159 389.033 144.18C389.033 143.201 389.823 142.411 390.801 142.411H396.878C397.856 142.411 398.646 143.209 398.646 144.188C398.646 145.167 397.856 145.957 396.878 145.957ZM384.731 145.95H378.653C377.676 145.95 376.886 145.151 376.886 144.172C376.886 143.194 377.676 142.403 378.653 142.403H384.731C385.709 142.403 386.499 143.201 386.499 144.18C386.499 145.159 385.709 145.95 384.731 145.95ZM372.576 145.942H366.498C365.52 145.942 364.73 145.143 364.73 144.164C364.73 143.186 365.52 142.395 366.498 142.395H372.576C373.553 142.395 374.343 143.194 374.343 144.172C374.343 145.151 373.553 145.942 372.576 145.942ZM360.428 145.934H354.351C353.373 145.934 352.583 145.135 352.583 144.157C352.583 143.178 353.373 142.387 354.351 142.387H360.428C361.406 142.387 362.196 143.186 362.196 144.164C362.196 145.143 361.406 145.934 360.428 145.934ZM348.273 145.926H342.196C341.218 145.926 340.428 145.127 340.428 144.149C340.428 143.17 341.218 142.379 342.196 142.379H348.273C349.251 142.379 350.041 143.178 350.041 144.157C350.041 145.135 349.251 145.926 348.273 145.926ZM336.126 145.918H330.049C329.071 145.918 328.281 145.12 328.281 144.141C328.281 143.162 329.071 142.371 330.049 142.371H336.126C337.104 142.371 337.894 143.17 337.894 144.149C337.894 145.127 337.104 145.918 336.126 145.918ZM323.971 145.918H317.894C316.916 145.918 316.126 145.12 316.126 144.141C316.126 143.162 316.916 142.371 317.894 142.371H323.971C324.949 142.371 325.739 143.17 325.739 144.149C325.739 145.127 324.949 145.918 323.971 145.918ZM311.824 145.91H305.746C304.769 145.91 303.979 145.112 303.979 144.133C303.979 143.154 304.769 142.364 305.746 142.364H311.824C312.802 142.364 313.592 143.162 313.592 144.141C313.592 145.12 312.802 145.91 311.824 145.91ZM299.669 145.903H293.591C292.614 145.903 291.823 145.104 291.823 144.125C291.823 143.147 292.614 142.356 293.591 142.356H299.669C300.647 142.356 301.436 143.154 301.436 144.133C301.436 145.112 300.647 145.903 299.669 145.903ZM287.522 145.895H281.444C280.466 145.895 279.676 145.096 279.676 144.117C279.676 143.139 280.466 142.348 281.444 142.348H287.522C288.499 142.348 289.289 143.147 289.289 144.125C289.289 145.104 288.499 145.895 287.522 145.895ZM275.366 145.887H269.289C268.311 145.887 267.521 145.088 267.521 144.11C267.521 143.131 268.311 142.34 269.289 142.34H275.366C276.344 142.34 277.134 143.139 277.134 144.117C277.134 145.096 276.344 145.887 275.366 145.887ZM263.219 145.879H257.142C256.164 145.879 255.374 145.081 255.374 144.102C255.374 143.123 256.164 142.332 257.142 142.332H263.219C264.197 142.332 264.987 143.131 264.987 144.11C264.987 145.088 264.197 145.879 263.219 145.879ZM251.064 145.871H244.987C244.009 145.871 243.219 145.073 243.219 144.094C243.219 143.115 244.009 142.325 244.987 142.325H251.064C252.042 142.325 252.832 143.123 252.832 144.102C252.832 145.081 252.042 145.871 251.064 145.871ZM238.917 145.871H232.839C231.862 145.871 231.072 145.073 231.072 144.094C231.072 143.115 231.862 142.325 232.839 142.325H238.917C239.895 142.325 240.685 143.123 240.685 144.102C240.685 145.081 239.895 145.871 238.917 145.871ZM226.762 145.863H220.684C219.706 145.863 218.916 145.065 218.916 144.086C218.916 143.107 219.706 142.317 220.684 142.317H226.762C227.739 142.317 228.53 143.115 228.53 144.094C228.53 145.073 227.739 145.863 226.762 145.863ZM214.607 145.856H208.529C207.551 145.856 206.761 145.057 206.761 144.078C206.761 143.1 207.551 142.309 208.529 142.309H214.607C215.584 142.309 216.374 143.107 216.374 144.086C216.374 145.065 215.584 145.856 214.607 145.856ZM202.459 145.848H196.382C195.404 145.848 194.614 145.049 194.614 144.07C194.614 143.092 195.404 142.301 196.382 142.301H202.459C203.437 142.301 204.227 143.1 204.227 144.078C204.227 145.057 203.437 145.848 202.459 145.848ZM190.304 145.84H184.227C183.249 145.84 182.459 145.041 182.459 144.063C182.459 143.084 183.249 142.293 184.227 142.293H190.304C191.282 142.293 192.072 143.092 192.072 144.07C192.072 145.049 191.282 145.84 190.304 145.84ZM178.157 145.832H172.08C171.102 145.832 170.312 145.034 170.312 144.055C170.312 143.076 171.102 142.285 172.08 142.285H178.157C179.135 142.285 179.925 143.084 179.925 144.063C179.925 145.041 179.135 145.832 178.157 145.832ZM166.002 145.824H159.924C158.947 145.824 158.157 145.026 158.157 144.047C158.157 143.068 158.947 142.278 159.924 142.278H166.002C166.98 142.278 167.77 143.076 167.77 144.055C167.77 145.034 166.98 145.824 166.002 145.824ZM560.729 145.049C560.15 145.049 559.579 144.767 559.243 144.243C558.711 143.421 558.946 142.324 559.767 141.792C560.315 141.44 560.76 140.978 561.105 140.43L562.904 137.564C563.42 136.734 564.515 136.484 565.344 137.008C566.173 137.525 566.423 138.621 565.899 139.451L564.1 142.317C563.482 143.311 562.669 144.133 561.683 144.767C561.386 144.963 561.05 145.049 560.721 145.049H560.729ZM567.628 135.121C567.307 135.121 566.979 135.035 566.689 134.847C565.86 134.331 565.61 133.234 566.134 132.404L569.364 127.253C569.881 126.423 570.976 126.172 571.805 126.697C572.634 127.214 572.884 128.31 572.36 129.14L569.13 134.291C568.793 134.832 568.215 135.121 567.628 135.121ZM574.089 124.826C573.768 124.826 573.44 124.739 573.15 124.551C572.321 124.027 572.071 122.939 572.595 122.109L575.825 116.957C576.341 116.127 577.436 115.876 578.266 116.401C579.095 116.918 579.345 118.014 578.821 118.844L575.591 123.996C575.254 124.536 574.675 124.826 574.089 124.826ZM580.55 114.522C580.229 114.522 579.9 114.436 579.611 114.248C578.782 113.731 578.532 112.635 579.056 111.805L582.286 106.653C582.802 105.823 583.897 105.573 584.726 106.097C585.556 106.614 585.806 107.71 585.282 108.54L582.051 113.692C581.715 114.224 581.136 114.522 580.55 114.522ZM587.01 104.218C586.69 104.218 586.361 104.132 586.072 103.944C585.243 103.427 584.992 102.331 585.516 101.501L588.747 96.3495C589.263 95.5196 590.358 95.269 591.187 95.7936C592.016 96.3182 592.267 97.4065 591.743 98.2364L588.512 103.388C588.176 103.921 587.597 104.218 587.01 104.218ZM593.479 93.9224C593.158 93.9224 592.83 93.8362 592.54 93.6483C591.711 93.1316 591.461 92.0355 591.985 91.2055L595.215 86.0537C595.732 85.2238 596.827 84.9732 597.656 85.4978C598.485 86.0145 598.735 87.1107 598.211 87.9406L594.981 93.0924C594.644 93.6327 594.066 93.9224 593.479 93.9224ZM599.94 83.6187C599.619 83.6187 599.291 83.5326 599.001 83.3447C598.172 82.8279 597.922 81.7318 598.446 80.9019L601.676 75.75C602.193 74.9201 603.288 74.6695 604.117 75.1941C604.946 75.7109 605.196 76.807 604.672 77.637L601.442 82.7888C601.105 83.329 600.526 83.6187 599.94 83.6187ZM606.401 73.315C606.08 73.315 605.751 73.2289 605.462 73.041C604.633 72.5243 604.383 71.4281 604.907 70.5982L608.137 65.4464C608.653 64.6164 609.748 64.3659 610.577 64.8905C611.407 65.4072 611.657 66.5034 611.133 67.3333L607.902 72.4851C607.566 73.0254 606.987 73.315 606.401 73.315ZM612.861 63.0114C612.541 63.0114 612.212 62.9253 611.923 62.7374C611.094 62.2206 610.843 61.1245 611.367 60.2945L614.598 55.1427C615.114 54.3128 616.209 54.0622 617.038 54.5868C617.867 55.1036 618.118 56.1997 617.594 57.0296L614.363 62.1815C614.027 62.7217 613.448 63.0114 612.861 63.0114ZM619.322 52.7156C619.002 52.7156 618.673 52.6294 618.384 52.4415C617.555 51.9248 617.304 50.8286 617.828 49.9987L621.059 44.8469C621.575 44.017 622.67 43.7664 623.499 44.291C624.328 44.8077 624.578 45.9039 624.054 46.7338L620.824 51.8856C620.488 52.4259 619.909 52.7156 619.322 52.7156Z" fill="#F15A24"/>
<path d="M150.406 504.903C150.609 505.71 151.329 506.242 152.119 506.242C152.267 506.242 152.408 506.226 152.557 506.187L158.447 504.692C159.393 504.449 159.972 503.486 159.729 502.539C159.487 501.591 158.525 501.012 157.578 501.255L151.689 502.75C150.742 502.993 150.163 503.956 150.406 504.903Z" fill="#F15A24"/>
<path d="M162.178 501.912C162.381 502.719 163.101 503.251 163.891 503.251C164.039 503.251 164.18 503.235 164.329 503.196L170.218 501.701C171.165 501.458 171.744 500.495 171.501 499.548C171.259 498.6 170.297 498.021 169.35 498.264L163.46 499.759C162.514 500.002 161.935 500.965 162.178 501.912Z" fill="#F15A24"/>
<path d="M173.957 498.921C174.161 499.728 174.88 500.26 175.67 500.26C175.819 500.26 175.96 500.244 176.108 500.205L181.998 498.71C182.945 498.467 183.523 497.504 183.281 496.557C183.038 495.609 182.076 495.03 181.13 495.273L175.24 496.768C174.294 497.011 173.715 497.974 173.957 498.921Z" fill="#F15A24"/>
<path d="M185.737 495.93C185.94 496.737 186.66 497.269 187.45 497.269C187.598 497.269 187.739 497.254 187.888 497.214L193.778 495.719C194.724 495.476 195.303 494.513 195.061 493.566C194.818 492.619 193.856 492.039 192.91 492.282L187.02 493.777C186.073 494.02 185.494 494.983 185.737 495.93Z" fill="#F15A24"/>
<path d="M197.517 492.932C197.72 493.738 198.44 494.271 199.23 494.271C199.378 494.271 199.519 494.255 199.668 494.216L205.557 492.72C206.504 492.478 207.083 491.515 206.84 490.567C206.598 489.62 205.636 489.04 204.689 489.283L198.799 490.779C197.853 491.021 197.274 491.984 197.517 492.932Z" fill="#F15A24"/>
<path d="M209.288 489.941C209.492 490.747 210.211 491.28 211.001 491.28C211.15 491.28 211.291 491.264 211.439 491.225L217.329 489.729C218.276 489.487 218.854 488.524 218.612 487.576C218.369 486.629 217.407 486.05 216.461 486.292L210.571 487.788C209.625 488.03 209.046 488.993 209.288 489.941Z" fill="#F15A24"/>
<path d="M221.068 486.95C221.271 487.756 221.991 488.289 222.781 488.289C222.93 488.289 223.07 488.273 223.219 488.234L229.109 486.739C230.055 486.496 230.634 485.533 230.392 484.585C230.149 483.638 229.187 483.059 228.241 483.301L222.351 484.797C221.404 485.04 220.826 486.003 221.068 486.95Z" fill="#F15A24"/>
<path d="M232.848 483.959C233.051 484.766 233.771 485.298 234.561 485.298C234.709 485.298 234.85 485.282 234.999 485.243L240.888 483.748C241.835 483.505 242.414 482.542 242.171 481.595C241.929 480.647 240.967 480.068 240.02 480.311L234.13 481.806C233.184 482.049 232.605 483.012 232.848 483.959Z" fill="#F15A24"/>
<path d="M244.627 480.968C244.831 481.775 245.55 482.307 246.34 482.307C246.489 482.307 246.63 482.291 246.778 482.252L252.668 480.757C253.614 480.514 254.193 479.551 253.951 478.604C253.708 477.656 252.746 477.077 251.8 477.32L245.91 478.815C244.964 479.058 244.385 480.021 244.627 480.968Z" fill="#F15A24"/>
<path d="M256.399 477.969C256.602 478.776 257.322 479.308 258.112 479.308C258.261 479.308 258.401 479.293 258.55 479.254L264.44 477.758C265.386 477.515 265.965 476.552 265.723 475.605C265.48 474.658 264.518 474.078 263.572 474.321L257.682 475.816C256.735 476.059 256.157 477.022 256.399 477.969Z" fill="#F15A24"/>
<path d="M269.297 474.368C269.5 475.174 270.22 475.707 271.01 475.707C271.159 475.707 271.299 475.691 271.448 475.652L277.338 474.156C278.284 473.914 278.863 472.951 278.621 472.003C278.378 471.056 277.416 470.477 276.47 470.719L270.58 472.215C269.633 472.458 269.054 473.421 269.297 474.368Z" fill="#F15A24"/>
<path d="M281.069 471.377C281.272 472.183 281.992 472.716 282.782 472.716C282.93 472.716 283.071 472.7 283.22 472.661L289.11 471.166C290.056 470.923 290.635 469.96 290.392 469.012C290.15 468.065 289.188 467.486 288.241 467.728L282.352 469.224C281.405 469.467 280.826 470.43 281.069 471.377Z" fill="#F15A24"/>
<path d="M292.848 468.386C293.052 469.193 293.771 469.725 294.561 469.725C294.71 469.725 294.851 469.709 294.999 469.67L300.889 468.175C301.836 467.932 302.414 466.969 302.172 466.022C301.93 465.074 300.967 464.495 300.021 464.738L294.131 466.233C293.185 466.476 292.606 467.439 292.848 468.386Z" fill="#F15A24"/>
<path d="M304.628 465.395C304.831 466.202 305.551 466.734 306.341 466.734C306.49 466.734 306.63 466.718 306.779 466.679L312.669 465.184C313.615 464.941 314.194 463.978 313.952 463.031C313.709 462.083 312.747 461.504 311.801 461.747L305.911 463.242C304.964 463.485 304.386 464.448 304.628 465.395Z" fill="#F15A24"/>
<path d="M316.408 462.397C316.611 463.203 317.331 463.735 318.121 463.735C318.269 463.735 318.41 463.72 318.559 463.681L324.448 462.185C325.395 461.942 325.974 460.979 325.731 460.032C325.489 459.085 324.527 458.505 323.58 458.748L317.69 460.243C316.744 460.486 316.165 461.449 316.408 462.397Z" fill="#F15A24"/>
<path d="M328.179 459.406C328.383 460.212 329.102 460.745 329.892 460.745C330.041 460.745 330.182 460.729 330.33 460.69L336.22 459.194C337.167 458.952 337.746 457.989 337.503 457.041C337.261 456.094 336.298 455.514 335.352 455.757L329.462 457.253C328.516 457.495 327.937 458.458 328.179 459.406Z" fill="#F15A24"/>
<path d="M339.959 456.415C340.162 457.221 340.882 457.754 341.672 457.754C341.821 457.754 341.961 457.738 342.11 457.699L348 456.203C348.946 455.961 349.525 454.998 349.283 454.05C349.04 453.103 348.078 452.524 347.132 452.766L341.242 454.262C340.295 454.504 339.717 455.467 339.959 456.415Z" fill="#F15A24"/>
<path d="M351.739 453.424C351.942 454.23 352.662 454.763 353.452 454.763C353.6 454.763 353.741 454.747 353.89 454.708L359.78 453.213C360.726 452.97 361.305 452.007 361.062 451.059C360.82 450.112 359.858 449.533 358.911 449.775L353.022 451.271C352.075 451.514 351.496 452.477 351.739 453.424Z" fill="#F15A24"/>
<path d="M363.518 450.433C363.722 451.239 364.441 451.772 365.231 451.772C365.38 451.772 365.521 451.756 365.669 451.717L371.559 450.222C372.506 449.979 373.084 449.016 372.842 448.069C372.599 447.121 371.637 446.542 370.691 446.784L364.801 448.28C363.855 448.523 363.276 449.486 363.518 450.433Z" fill="#F15A24"/>
<path d="M375.29 447.434C375.494 448.241 376.213 448.773 377.003 448.773C377.152 448.773 377.293 448.758 377.441 448.718L383.331 447.223C384.277 446.98 384.856 446.017 384.614 445.07C384.371 444.122 383.409 443.543 382.463 443.786L376.573 445.281C375.627 445.524 375.048 446.487 375.29 447.434Z" fill="#F15A24"/>
</svg>
